G04 #@! TF.GenerationSoftware,KiCad,Pcbnew,(5.1.9)-1*
G04 #@! TF.CreationDate,2021-02-02T20:04:29-05:00*
G04 #@! TF.ProjectId,ZeroPilot,5a65726f-5069-46c6-9f74-2e6b69636164,rev?*
G04 #@! TF.SameCoordinates,Original*
G04 #@! TF.FileFunction,Copper,L3,Inr*
G04 #@! TF.FilePolarity,Positive*
%FSLAX46Y46*%
G04 Gerber Fmt 4.6, Leading zero omitted, Abs format (unit mm)*
G04 Created by KiCad (PCBNEW (5.1.9)-1) date 2021-02-02 20:04:29*
%MOMM*%
%LPD*%
G01*
G04 APERTURE LIST*
G04 #@! TA.AperFunction,ComponentPad*
%ADD10O,1.700000X1.850000*%
G04 #@! TD*
G04 #@! TA.AperFunction,ComponentPad*
%ADD11C,5.500000*%
G04 #@! TD*
G04 #@! TA.AperFunction,ViaPad*
%ADD12C,0.508000*%
G04 #@! TD*
G04 #@! TA.AperFunction,Conductor*
%ADD13C,0.254000*%
G04 #@! TD*
G04 #@! TA.AperFunction,Conductor*
%ADD14C,0.100000*%
G04 #@! TD*
G04 APERTURE END LIST*
D10*
X61771000Y-147714000D03*
G04 #@! TA.AperFunction,ComponentPad*
G36*
G01*
X58421000Y-148389000D02*
X58421000Y-147039000D01*
G75*
G02*
X58671000Y-146789000I250000J0D01*
G01*
X59871000Y-146789000D01*
G75*
G02*
X60121000Y-147039000I0J-250000D01*
G01*
X60121000Y-148389000D01*
G75*
G02*
X59871000Y-148639000I-250000J0D01*
G01*
X58671000Y-148639000D01*
G75*
G02*
X58421000Y-148389000I0J250000D01*
G01*
G37*
G04 #@! TD.AperFunction*
D11*
X53000000Y-147000000D03*
X53000000Y-103000000D03*
D12*
X66320000Y-135967000D03*
X72339799Y-136271799D03*
X71729201Y-136271799D03*
X71094201Y-136271799D03*
X65684000Y-135967000D03*
X68542000Y-140475000D03*
X69190000Y-140462000D03*
X66383000Y-139967000D03*
X67526000Y-144031000D03*
X53556006Y-135395000D03*
X54044625Y-134994625D03*
X51397000Y-130188000D03*
X56858000Y-122314000D03*
X53683000Y-108725000D03*
X59271000Y-104788000D03*
X59017000Y-129172000D03*
X60160000Y-112281000D03*
X59779000Y-111900000D03*
X67373600Y-129807000D03*
X64732000Y-104534000D03*
X67078960Y-123436680D03*
X82842200Y-117005400D03*
X55753000Y-122809000D03*
X56642000Y-114554000D03*
X56985000Y-127902000D03*
X62078000Y-106045000D03*
X62586000Y-106045000D03*
X63094000Y-106045000D03*
X56185000Y-123241000D03*
X56629500Y-123685500D03*
X55842300Y-127774700D03*
X56350300Y-127774700D03*
X58255000Y-108344000D03*
X66002000Y-108725000D03*
X68923000Y-127902000D03*
X67000000Y-121000000D03*
X66000000Y-121000000D03*
X66000000Y-122000000D03*
X67000000Y-122000000D03*
X52832000Y-123951996D03*
X65659000Y-145415000D03*
X65240100Y-144996100D03*
X65854000Y-145957000D03*
X52438502Y-123558498D03*
X52057502Y-123177498D03*
X62611000Y-133350000D03*
X56477000Y-129680000D03*
X61938000Y-137173000D03*
D13*
X66966353Y-108685000D02*
X67000000Y-108688314D01*
X67033647Y-108685000D01*
X69873000Y-108685000D01*
X69873000Y-122873000D01*
X67771512Y-122873000D01*
X67769491Y-122869976D01*
X67645664Y-122746149D01*
X67500059Y-122648859D01*
X67338272Y-122581844D01*
X67166519Y-122547680D01*
X66991401Y-122547680D01*
X66819648Y-122581844D01*
X66657861Y-122648859D01*
X66512256Y-122746149D01*
X66388429Y-122869976D01*
X66386408Y-122873000D01*
X65127000Y-122873000D01*
X65127000Y-108882941D01*
X65147164Y-108984312D01*
X65214179Y-109146099D01*
X65311469Y-109291704D01*
X65435296Y-109415531D01*
X65580901Y-109512821D01*
X65742688Y-109579836D01*
X65914441Y-109614000D01*
X66089559Y-109614000D01*
X66261312Y-109579836D01*
X66423099Y-109512821D01*
X66568704Y-109415531D01*
X66692531Y-109291704D01*
X66789821Y-109146099D01*
X66856836Y-108984312D01*
X66891000Y-108812559D01*
X66891000Y-108677578D01*
X66966353Y-108685000D01*
G04 #@! TA.AperFunction,Conductor*
D14*
G36*
X66966353Y-108685000D02*
G01*
X67000000Y-108688314D01*
X67033647Y-108685000D01*
X69873000Y-108685000D01*
X69873000Y-122873000D01*
X67771512Y-122873000D01*
X67769491Y-122869976D01*
X67645664Y-122746149D01*
X67500059Y-122648859D01*
X67338272Y-122581844D01*
X67166519Y-122547680D01*
X66991401Y-122547680D01*
X66819648Y-122581844D01*
X66657861Y-122648859D01*
X66512256Y-122746149D01*
X66388429Y-122869976D01*
X66386408Y-122873000D01*
X65127000Y-122873000D01*
X65127000Y-108882941D01*
X65147164Y-108984312D01*
X65214179Y-109146099D01*
X65311469Y-109291704D01*
X65435296Y-109415531D01*
X65580901Y-109512821D01*
X65742688Y-109579836D01*
X65914441Y-109614000D01*
X66089559Y-109614000D01*
X66261312Y-109579836D01*
X66423099Y-109512821D01*
X66568704Y-109415531D01*
X66692531Y-109291704D01*
X66789821Y-109146099D01*
X66856836Y-108984312D01*
X66891000Y-108812559D01*
X66891000Y-108677578D01*
X66966353Y-108685000D01*
G37*
G04 #@! TD.AperFunction*
D13*
X64365000Y-103723770D02*
X64310901Y-103746179D01*
X64165296Y-103843469D01*
X64041469Y-103967296D01*
X63944179Y-104112901D01*
X63877164Y-104274688D01*
X63843000Y-104446441D01*
X63843000Y-104621559D01*
X63877164Y-104793312D01*
X63944179Y-104955099D01*
X64041469Y-105100704D01*
X64165296Y-105224531D01*
X64310901Y-105321821D01*
X64365000Y-105344230D01*
X64365000Y-123000000D01*
X64377201Y-123123882D01*
X64413336Y-123243004D01*
X64472017Y-123352787D01*
X64550987Y-123449013D01*
X64647213Y-123527983D01*
X64756996Y-123586664D01*
X64876118Y-123622799D01*
X65000000Y-123635000D01*
X66211992Y-123635000D01*
X66224124Y-123695992D01*
X66291139Y-123857779D01*
X66388429Y-124003384D01*
X66512256Y-124127211D01*
X66657861Y-124224501D01*
X66819648Y-124291516D01*
X66991401Y-124325680D01*
X67166519Y-124325680D01*
X67338272Y-124291516D01*
X67399000Y-124266361D01*
X67399000Y-128918000D01*
X67286041Y-128918000D01*
X67114288Y-128952164D01*
X66952501Y-129019179D01*
X66806896Y-129116469D01*
X66683069Y-129240296D01*
X66585779Y-129385901D01*
X66518764Y-129547688D01*
X66484600Y-129719441D01*
X66484600Y-129894559D01*
X66518764Y-130066312D01*
X66585779Y-130228099D01*
X66683069Y-130373704D01*
X66806896Y-130497531D01*
X66952501Y-130594821D01*
X67114288Y-130661836D01*
X67286041Y-130696000D01*
X67412147Y-130696000D01*
X67447336Y-130812004D01*
X67506017Y-130921787D01*
X67584987Y-131018013D01*
X67681213Y-131096983D01*
X67790996Y-131155664D01*
X67910118Y-131191799D01*
X68034000Y-131204000D01*
X69678554Y-131204000D01*
X69537722Y-139643785D01*
X69449312Y-139607164D01*
X69277559Y-139573000D01*
X69102441Y-139573000D01*
X68930688Y-139607164D01*
X68850308Y-139640459D01*
X68801312Y-139620164D01*
X68629559Y-139586000D01*
X68454441Y-139586000D01*
X68282688Y-139620164D01*
X68120901Y-139687179D01*
X67975296Y-139784469D01*
X67851469Y-139908296D01*
X67754179Y-140053901D01*
X67687164Y-140215688D01*
X67653000Y-140387441D01*
X67653000Y-140562559D01*
X67687164Y-140734312D01*
X67754179Y-140896099D01*
X67851469Y-141041704D01*
X67975296Y-141165531D01*
X68120901Y-141262821D01*
X68282688Y-141329836D01*
X68454441Y-141364000D01*
X68629559Y-141364000D01*
X68801312Y-141329836D01*
X68881692Y-141296541D01*
X68930688Y-141316836D01*
X69102441Y-141351000D01*
X69277559Y-141351000D01*
X69449312Y-141316836D01*
X69510225Y-141291605D01*
X69376342Y-149315000D01*
X55472114Y-149315000D01*
X55629302Y-149157812D01*
X55999748Y-148603399D01*
X56254917Y-147987368D01*
X56385000Y-147333393D01*
X56385000Y-147039000D01*
X57782928Y-147039000D01*
X57782928Y-148389000D01*
X57799992Y-148562254D01*
X57850528Y-148728850D01*
X57932595Y-148882386D01*
X58043038Y-149016962D01*
X58177614Y-149127405D01*
X58331150Y-149209472D01*
X58497746Y-149260008D01*
X58671000Y-149277072D01*
X59871000Y-149277072D01*
X60044254Y-149260008D01*
X60210850Y-149209472D01*
X60364386Y-149127405D01*
X60498962Y-149016962D01*
X60609405Y-148882386D01*
X60663777Y-148780663D01*
X60715866Y-148844134D01*
X60941987Y-149029706D01*
X61199967Y-149167599D01*
X61479890Y-149252513D01*
X61771000Y-149281185D01*
X62062111Y-149252513D01*
X62342034Y-149167599D01*
X62600014Y-149029706D01*
X62826134Y-148844134D01*
X63011706Y-148618013D01*
X63149599Y-148360033D01*
X63234513Y-148080110D01*
X63256000Y-147861949D01*
X63256000Y-147566050D01*
X63234513Y-147347889D01*
X63149599Y-147067966D01*
X63011706Y-146809986D01*
X62826134Y-146583866D01*
X62600013Y-146398294D01*
X62342033Y-146260401D01*
X62062110Y-146175487D01*
X61771000Y-146146815D01*
X61479889Y-146175487D01*
X61199966Y-146260401D01*
X60941986Y-146398294D01*
X60715866Y-146583866D01*
X60663777Y-146647337D01*
X60609405Y-146545614D01*
X60498962Y-146411038D01*
X60364386Y-146300595D01*
X60210850Y-146218528D01*
X60044254Y-146167992D01*
X59871000Y-146150928D01*
X58671000Y-146150928D01*
X58497746Y-146167992D01*
X58331150Y-146218528D01*
X58177614Y-146300595D01*
X58043038Y-146411038D01*
X57932595Y-146545614D01*
X57850528Y-146699150D01*
X57799992Y-146865746D01*
X57782928Y-147039000D01*
X56385000Y-147039000D01*
X56385000Y-146666607D01*
X56254917Y-146012632D01*
X55999748Y-145396601D01*
X55673638Y-144908541D01*
X64351100Y-144908541D01*
X64351100Y-145083659D01*
X64385264Y-145255412D01*
X64452279Y-145417199D01*
X64549569Y-145562804D01*
X64673396Y-145686631D01*
X64819001Y-145783921D01*
X64855896Y-145799204D01*
X64871179Y-145836099D01*
X64965000Y-145976512D01*
X64965000Y-146044559D01*
X64999164Y-146216312D01*
X65066179Y-146378099D01*
X65163469Y-146523704D01*
X65287296Y-146647531D01*
X65432901Y-146744821D01*
X65594688Y-146811836D01*
X65766441Y-146846000D01*
X65941559Y-146846000D01*
X66113312Y-146811836D01*
X66275099Y-146744821D01*
X66420704Y-146647531D01*
X66544531Y-146523704D01*
X66641821Y-146378099D01*
X66708836Y-146216312D01*
X66743000Y-146044559D01*
X66743000Y-145869441D01*
X66708836Y-145697688D01*
X66641821Y-145535901D01*
X66548000Y-145395488D01*
X66548000Y-145327441D01*
X66513836Y-145155688D01*
X66446821Y-144993901D01*
X66349531Y-144848296D01*
X66225704Y-144724469D01*
X66080099Y-144627179D01*
X66043204Y-144611896D01*
X66027921Y-144575001D01*
X65930631Y-144429396D01*
X65806804Y-144305569D01*
X65661199Y-144208279D01*
X65499412Y-144141264D01*
X65327659Y-144107100D01*
X65152541Y-144107100D01*
X64980788Y-144141264D01*
X64819001Y-144208279D01*
X64673396Y-144305569D01*
X64549569Y-144429396D01*
X64452279Y-144575001D01*
X64385264Y-144736788D01*
X64351100Y-144908541D01*
X55673638Y-144908541D01*
X55629302Y-144842188D01*
X55157812Y-144370698D01*
X54603399Y-144000252D01*
X54466246Y-143943441D01*
X66637000Y-143943441D01*
X66637000Y-144118559D01*
X66671164Y-144290312D01*
X66738179Y-144452099D01*
X66835469Y-144597704D01*
X66959296Y-144721531D01*
X67104901Y-144818821D01*
X67266688Y-144885836D01*
X67438441Y-144920000D01*
X67613559Y-144920000D01*
X67785312Y-144885836D01*
X67947099Y-144818821D01*
X68092704Y-144721531D01*
X68216531Y-144597704D01*
X68313821Y-144452099D01*
X68380836Y-144290312D01*
X68415000Y-144118559D01*
X68415000Y-143943441D01*
X68380836Y-143771688D01*
X68313821Y-143609901D01*
X68216531Y-143464296D01*
X68092704Y-143340469D01*
X67947099Y-143243179D01*
X67785312Y-143176164D01*
X67613559Y-143142000D01*
X67438441Y-143142000D01*
X67266688Y-143176164D01*
X67104901Y-143243179D01*
X66959296Y-143340469D01*
X66835469Y-143464296D01*
X66738179Y-143609901D01*
X66671164Y-143771688D01*
X66637000Y-143943441D01*
X54466246Y-143943441D01*
X53987368Y-143745083D01*
X53333393Y-143615000D01*
X52666607Y-143615000D01*
X52012632Y-143745083D01*
X51396601Y-144000252D01*
X50842188Y-144370698D01*
X50685000Y-144527886D01*
X50685000Y-139879441D01*
X65494000Y-139879441D01*
X65494000Y-140054559D01*
X65528164Y-140226312D01*
X65595179Y-140388099D01*
X65692469Y-140533704D01*
X65816296Y-140657531D01*
X65961901Y-140754821D01*
X66123688Y-140821836D01*
X66295441Y-140856000D01*
X66470559Y-140856000D01*
X66642312Y-140821836D01*
X66804099Y-140754821D01*
X66949704Y-140657531D01*
X67073531Y-140533704D01*
X67170821Y-140388099D01*
X67237836Y-140226312D01*
X67272000Y-140054559D01*
X67272000Y-139879441D01*
X67237836Y-139707688D01*
X67170821Y-139545901D01*
X67073531Y-139400296D01*
X66949704Y-139276469D01*
X66804099Y-139179179D01*
X66642312Y-139112164D01*
X66470559Y-139078000D01*
X66295441Y-139078000D01*
X66123688Y-139112164D01*
X65961901Y-139179179D01*
X65816296Y-139276469D01*
X65692469Y-139400296D01*
X65595179Y-139545901D01*
X65528164Y-139707688D01*
X65494000Y-139879441D01*
X50685000Y-139879441D01*
X50685000Y-137085441D01*
X61049000Y-137085441D01*
X61049000Y-137260559D01*
X61083164Y-137432312D01*
X61150179Y-137594099D01*
X61247469Y-137739704D01*
X61371296Y-137863531D01*
X61516901Y-137960821D01*
X61678688Y-138027836D01*
X61850441Y-138062000D01*
X62025559Y-138062000D01*
X62197312Y-138027836D01*
X62359099Y-137960821D01*
X62504704Y-137863531D01*
X62628531Y-137739704D01*
X62725821Y-137594099D01*
X62792836Y-137432312D01*
X62827000Y-137260559D01*
X62827000Y-137085441D01*
X62792836Y-136913688D01*
X62725821Y-136751901D01*
X62628531Y-136606296D01*
X62504704Y-136482469D01*
X62359099Y-136385179D01*
X62197312Y-136318164D01*
X62025559Y-136284000D01*
X61850441Y-136284000D01*
X61678688Y-136318164D01*
X61516901Y-136385179D01*
X61371296Y-136482469D01*
X61247469Y-136606296D01*
X61150179Y-136751901D01*
X61083164Y-136913688D01*
X61049000Y-137085441D01*
X50685000Y-137085441D01*
X50685000Y-135307441D01*
X52667006Y-135307441D01*
X52667006Y-135482559D01*
X52701170Y-135654312D01*
X52768185Y-135816099D01*
X52865475Y-135961704D01*
X52989302Y-136085531D01*
X53134907Y-136182821D01*
X53296694Y-136249836D01*
X53468447Y-136284000D01*
X53643565Y-136284000D01*
X53815318Y-136249836D01*
X53977105Y-136182821D01*
X54122710Y-136085531D01*
X54246537Y-135961704D01*
X54301503Y-135879441D01*
X64795000Y-135879441D01*
X64795000Y-136054559D01*
X64829164Y-136226312D01*
X64896179Y-136388099D01*
X64993469Y-136533704D01*
X65117296Y-136657531D01*
X65262901Y-136754821D01*
X65424688Y-136821836D01*
X65596441Y-136856000D01*
X65771559Y-136856000D01*
X65943312Y-136821836D01*
X66002000Y-136797526D01*
X66060688Y-136821836D01*
X66232441Y-136856000D01*
X66407559Y-136856000D01*
X66579312Y-136821836D01*
X66741099Y-136754821D01*
X66886704Y-136657531D01*
X67010531Y-136533704D01*
X67107821Y-136388099D01*
X67174836Y-136226312D01*
X67209000Y-136054559D01*
X67209000Y-135879441D01*
X67174836Y-135707688D01*
X67107821Y-135545901D01*
X67010531Y-135400296D01*
X66886704Y-135276469D01*
X66741099Y-135179179D01*
X66579312Y-135112164D01*
X66407559Y-135078000D01*
X66232441Y-135078000D01*
X66060688Y-135112164D01*
X66002000Y-135136474D01*
X65943312Y-135112164D01*
X65771559Y-135078000D01*
X65596441Y-135078000D01*
X65424688Y-135112164D01*
X65262901Y-135179179D01*
X65117296Y-135276469D01*
X64993469Y-135400296D01*
X64896179Y-135545901D01*
X64829164Y-135707688D01*
X64795000Y-135879441D01*
X54301503Y-135879441D01*
X54328270Y-135839382D01*
X54465724Y-135782446D01*
X54611329Y-135685156D01*
X54735156Y-135561329D01*
X54832446Y-135415724D01*
X54899461Y-135253937D01*
X54933625Y-135082184D01*
X54933625Y-134907066D01*
X54899461Y-134735313D01*
X54832446Y-134573526D01*
X54735156Y-134427921D01*
X54611329Y-134304094D01*
X54465724Y-134206804D01*
X54303937Y-134139789D01*
X54132184Y-134105625D01*
X53957066Y-134105625D01*
X53785313Y-134139789D01*
X53623526Y-134206804D01*
X53477921Y-134304094D01*
X53354094Y-134427921D01*
X53272361Y-134550243D01*
X53134907Y-134607179D01*
X52989302Y-134704469D01*
X52865475Y-134828296D01*
X52768185Y-134973901D01*
X52701170Y-135135688D01*
X52667006Y-135307441D01*
X50685000Y-135307441D01*
X50685000Y-133262441D01*
X61722000Y-133262441D01*
X61722000Y-133437559D01*
X61756164Y-133609312D01*
X61823179Y-133771099D01*
X61920469Y-133916704D01*
X62044296Y-134040531D01*
X62189901Y-134137821D01*
X62351688Y-134204836D01*
X62523441Y-134239000D01*
X62698559Y-134239000D01*
X62870312Y-134204836D01*
X63032099Y-134137821D01*
X63177704Y-134040531D01*
X63301531Y-133916704D01*
X63398821Y-133771099D01*
X63465836Y-133609312D01*
X63500000Y-133437559D01*
X63500000Y-133262441D01*
X63465836Y-133090688D01*
X63398821Y-132928901D01*
X63301531Y-132783296D01*
X63177704Y-132659469D01*
X63032099Y-132562179D01*
X62870312Y-132495164D01*
X62698559Y-132461000D01*
X62523441Y-132461000D01*
X62351688Y-132495164D01*
X62189901Y-132562179D01*
X62044296Y-132659469D01*
X61920469Y-132783296D01*
X61823179Y-132928901D01*
X61756164Y-133090688D01*
X61722000Y-133262441D01*
X50685000Y-133262441D01*
X50685000Y-130722573D01*
X50706469Y-130754704D01*
X50830296Y-130878531D01*
X50975901Y-130975821D01*
X51137688Y-131042836D01*
X51309441Y-131077000D01*
X51484559Y-131077000D01*
X51656312Y-131042836D01*
X51818099Y-130975821D01*
X51963704Y-130878531D01*
X52087531Y-130754704D01*
X52184821Y-130609099D01*
X52251836Y-130447312D01*
X52286000Y-130275559D01*
X52286000Y-130100441D01*
X52251836Y-129928688D01*
X52184821Y-129766901D01*
X52087531Y-129621296D01*
X52058676Y-129592441D01*
X55588000Y-129592441D01*
X55588000Y-129767559D01*
X55622164Y-129939312D01*
X55689179Y-130101099D01*
X55786469Y-130246704D01*
X55910296Y-130370531D01*
X56055901Y-130467821D01*
X56217688Y-130534836D01*
X56389441Y-130569000D01*
X56564559Y-130569000D01*
X56736312Y-130534836D01*
X56898099Y-130467821D01*
X57043704Y-130370531D01*
X57167531Y-130246704D01*
X57264821Y-130101099D01*
X57331836Y-129939312D01*
X57366000Y-129767559D01*
X57366000Y-129592441D01*
X57331836Y-129420688D01*
X57264821Y-129258901D01*
X57167531Y-129113296D01*
X57138676Y-129084441D01*
X58128000Y-129084441D01*
X58128000Y-129259559D01*
X58162164Y-129431312D01*
X58229179Y-129593099D01*
X58326469Y-129738704D01*
X58450296Y-129862531D01*
X58595901Y-129959821D01*
X58757688Y-130026836D01*
X58929441Y-130061000D01*
X59104559Y-130061000D01*
X59276312Y-130026836D01*
X59438099Y-129959821D01*
X59583704Y-129862531D01*
X59707531Y-129738704D01*
X59804821Y-129593099D01*
X59871836Y-129431312D01*
X59906000Y-129259559D01*
X59906000Y-129084441D01*
X59871836Y-128912688D01*
X59804821Y-128750901D01*
X59707531Y-128605296D01*
X59583704Y-128481469D01*
X59438099Y-128384179D01*
X59276312Y-128317164D01*
X59104559Y-128283000D01*
X58929441Y-128283000D01*
X58757688Y-128317164D01*
X58595901Y-128384179D01*
X58450296Y-128481469D01*
X58326469Y-128605296D01*
X58229179Y-128750901D01*
X58162164Y-128912688D01*
X58128000Y-129084441D01*
X57138676Y-129084441D01*
X57043704Y-128989469D01*
X56898099Y-128892179D01*
X56736312Y-128825164D01*
X56564559Y-128791000D01*
X56389441Y-128791000D01*
X56217688Y-128825164D01*
X56055901Y-128892179D01*
X55910296Y-128989469D01*
X55786469Y-129113296D01*
X55689179Y-129258901D01*
X55622164Y-129420688D01*
X55588000Y-129592441D01*
X52058676Y-129592441D01*
X51963704Y-129497469D01*
X51818099Y-129400179D01*
X51656312Y-129333164D01*
X51484559Y-129299000D01*
X51309441Y-129299000D01*
X51137688Y-129333164D01*
X50975901Y-129400179D01*
X50830296Y-129497469D01*
X50706469Y-129621296D01*
X50685000Y-129653427D01*
X50685000Y-123089939D01*
X51168502Y-123089939D01*
X51168502Y-123265057D01*
X51202666Y-123436810D01*
X51269681Y-123598597D01*
X51366971Y-123744202D01*
X51490798Y-123868029D01*
X51636403Y-123965319D01*
X51646499Y-123969501D01*
X51650681Y-123979597D01*
X51747971Y-124125202D01*
X51871798Y-124249029D01*
X52017403Y-124346319D01*
X52036336Y-124354162D01*
X52044179Y-124373095D01*
X52141469Y-124518700D01*
X52265296Y-124642527D01*
X52410901Y-124739817D01*
X52572688Y-124806832D01*
X52744441Y-124840996D01*
X52919559Y-124840996D01*
X53091312Y-124806832D01*
X53253099Y-124739817D01*
X53398704Y-124642527D01*
X53522531Y-124518700D01*
X53619821Y-124373095D01*
X53686836Y-124211308D01*
X53721000Y-124039555D01*
X53721000Y-123864437D01*
X53686836Y-123692684D01*
X53619821Y-123530897D01*
X53522531Y-123385292D01*
X53398704Y-123261465D01*
X53253099Y-123164175D01*
X53234166Y-123156332D01*
X53226323Y-123137399D01*
X53129033Y-122991794D01*
X53005206Y-122867967D01*
X52859601Y-122770677D01*
X52849505Y-122766495D01*
X52845323Y-122756399D01*
X52748033Y-122610794D01*
X52624206Y-122486967D01*
X52478601Y-122389677D01*
X52316814Y-122322662D01*
X52145061Y-122288498D01*
X51969943Y-122288498D01*
X51798190Y-122322662D01*
X51636403Y-122389677D01*
X51490798Y-122486967D01*
X51366971Y-122610794D01*
X51269681Y-122756399D01*
X51202666Y-122918186D01*
X51168502Y-123089939D01*
X50685000Y-123089939D01*
X50685000Y-122226441D01*
X55969000Y-122226441D01*
X55969000Y-122401559D01*
X56003164Y-122573312D01*
X56070179Y-122735099D01*
X56167469Y-122880704D01*
X56291296Y-123004531D01*
X56436901Y-123101821D01*
X56598688Y-123168836D01*
X56770441Y-123203000D01*
X56945559Y-123203000D01*
X57117312Y-123168836D01*
X57279099Y-123101821D01*
X57424704Y-123004531D01*
X57548531Y-122880704D01*
X57645821Y-122735099D01*
X57712836Y-122573312D01*
X57747000Y-122401559D01*
X57747000Y-122226441D01*
X57712836Y-122054688D01*
X57645821Y-121892901D01*
X57548531Y-121747296D01*
X57424704Y-121623469D01*
X57279099Y-121526179D01*
X57117312Y-121459164D01*
X56945559Y-121425000D01*
X56770441Y-121425000D01*
X56598688Y-121459164D01*
X56436901Y-121526179D01*
X56291296Y-121623469D01*
X56167469Y-121747296D01*
X56070179Y-121892901D01*
X56003164Y-122054688D01*
X55969000Y-122226441D01*
X50685000Y-122226441D01*
X50685000Y-111812441D01*
X58890000Y-111812441D01*
X58890000Y-111987559D01*
X58924164Y-112159312D01*
X58991179Y-112321099D01*
X59088469Y-112466704D01*
X59212296Y-112590531D01*
X59357901Y-112687821D01*
X59367997Y-112692003D01*
X59372179Y-112702099D01*
X59469469Y-112847704D01*
X59593296Y-112971531D01*
X59738901Y-113068821D01*
X59900688Y-113135836D01*
X60072441Y-113170000D01*
X60247559Y-113170000D01*
X60419312Y-113135836D01*
X60581099Y-113068821D01*
X60726704Y-112971531D01*
X60850531Y-112847704D01*
X60947821Y-112702099D01*
X61014836Y-112540312D01*
X61049000Y-112368559D01*
X61049000Y-112193441D01*
X61014836Y-112021688D01*
X60947821Y-111859901D01*
X60850531Y-111714296D01*
X60726704Y-111590469D01*
X60581099Y-111493179D01*
X60571003Y-111488997D01*
X60566821Y-111478901D01*
X60469531Y-111333296D01*
X60345704Y-111209469D01*
X60200099Y-111112179D01*
X60038312Y-111045164D01*
X59866559Y-111011000D01*
X59691441Y-111011000D01*
X59519688Y-111045164D01*
X59357901Y-111112179D01*
X59212296Y-111209469D01*
X59088469Y-111333296D01*
X58991179Y-111478901D01*
X58924164Y-111640688D01*
X58890000Y-111812441D01*
X50685000Y-111812441D01*
X50685000Y-108637441D01*
X52794000Y-108637441D01*
X52794000Y-108812559D01*
X52828164Y-108984312D01*
X52895179Y-109146099D01*
X52992469Y-109291704D01*
X53116296Y-109415531D01*
X53261901Y-109512821D01*
X53423688Y-109579836D01*
X53595441Y-109614000D01*
X53770559Y-109614000D01*
X53942312Y-109579836D01*
X54104099Y-109512821D01*
X54249704Y-109415531D01*
X54373531Y-109291704D01*
X54470821Y-109146099D01*
X54537836Y-108984312D01*
X54572000Y-108812559D01*
X54572000Y-108637441D01*
X54537836Y-108465688D01*
X54470821Y-108303901D01*
X54439110Y-108256441D01*
X57366000Y-108256441D01*
X57366000Y-108431559D01*
X57400164Y-108603312D01*
X57467179Y-108765099D01*
X57564469Y-108910704D01*
X57688296Y-109034531D01*
X57833901Y-109131821D01*
X57995688Y-109198836D01*
X58167441Y-109233000D01*
X58342559Y-109233000D01*
X58514312Y-109198836D01*
X58676099Y-109131821D01*
X58821704Y-109034531D01*
X58945531Y-108910704D01*
X59042821Y-108765099D01*
X59109836Y-108603312D01*
X59144000Y-108431559D01*
X59144000Y-108256441D01*
X59109836Y-108084688D01*
X59042821Y-107922901D01*
X58945531Y-107777296D01*
X58821704Y-107653469D01*
X58676099Y-107556179D01*
X58514312Y-107489164D01*
X58342559Y-107455000D01*
X58167441Y-107455000D01*
X57995688Y-107489164D01*
X57833901Y-107556179D01*
X57688296Y-107653469D01*
X57564469Y-107777296D01*
X57467179Y-107922901D01*
X57400164Y-108084688D01*
X57366000Y-108256441D01*
X54439110Y-108256441D01*
X54373531Y-108158296D01*
X54249704Y-108034469D01*
X54104099Y-107937179D01*
X53942312Y-107870164D01*
X53770559Y-107836000D01*
X53595441Y-107836000D01*
X53423688Y-107870164D01*
X53261901Y-107937179D01*
X53116296Y-108034469D01*
X52992469Y-108158296D01*
X52895179Y-108303901D01*
X52828164Y-108465688D01*
X52794000Y-108637441D01*
X50685000Y-108637441D01*
X50685000Y-105472114D01*
X50842188Y-105629302D01*
X51396601Y-105999748D01*
X52012632Y-106254917D01*
X52666607Y-106385000D01*
X53333393Y-106385000D01*
X53987368Y-106254917D01*
X54603399Y-105999748D01*
X55157812Y-105629302D01*
X55629302Y-105157812D01*
X55934906Y-104700441D01*
X58382000Y-104700441D01*
X58382000Y-104875559D01*
X58416164Y-105047312D01*
X58483179Y-105209099D01*
X58580469Y-105354704D01*
X58704296Y-105478531D01*
X58849901Y-105575821D01*
X59011688Y-105642836D01*
X59183441Y-105677000D01*
X59358559Y-105677000D01*
X59530312Y-105642836D01*
X59692099Y-105575821D01*
X59837704Y-105478531D01*
X59961531Y-105354704D01*
X60058821Y-105209099D01*
X60125836Y-105047312D01*
X60160000Y-104875559D01*
X60160000Y-104700441D01*
X60125836Y-104528688D01*
X60058821Y-104366901D01*
X59961531Y-104221296D01*
X59837704Y-104097469D01*
X59692099Y-104000179D01*
X59530312Y-103933164D01*
X59358559Y-103899000D01*
X59183441Y-103899000D01*
X59011688Y-103933164D01*
X58849901Y-104000179D01*
X58704296Y-104097469D01*
X58580469Y-104221296D01*
X58483179Y-104366901D01*
X58416164Y-104528688D01*
X58382000Y-104700441D01*
X55934906Y-104700441D01*
X55999748Y-104603399D01*
X56254917Y-103987368D01*
X56385000Y-103333393D01*
X56385000Y-102666607D01*
X56254917Y-102012632D01*
X55999748Y-101396601D01*
X55629302Y-100842188D01*
X55472114Y-100685000D01*
X64365000Y-100685000D01*
X64365000Y-103723770D01*
G04 #@! TA.AperFunction,Conductor*
D14*
G36*
X64365000Y-103723770D02*
G01*
X64310901Y-103746179D01*
X64165296Y-103843469D01*
X64041469Y-103967296D01*
X63944179Y-104112901D01*
X63877164Y-104274688D01*
X63843000Y-104446441D01*
X63843000Y-104621559D01*
X63877164Y-104793312D01*
X63944179Y-104955099D01*
X64041469Y-105100704D01*
X64165296Y-105224531D01*
X64310901Y-105321821D01*
X64365000Y-105344230D01*
X64365000Y-123000000D01*
X64377201Y-123123882D01*
X64413336Y-123243004D01*
X64472017Y-123352787D01*
X64550987Y-123449013D01*
X64647213Y-123527983D01*
X64756996Y-123586664D01*
X64876118Y-123622799D01*
X65000000Y-123635000D01*
X66211992Y-123635000D01*
X66224124Y-123695992D01*
X66291139Y-123857779D01*
X66388429Y-124003384D01*
X66512256Y-124127211D01*
X66657861Y-124224501D01*
X66819648Y-124291516D01*
X66991401Y-124325680D01*
X67166519Y-124325680D01*
X67338272Y-124291516D01*
X67399000Y-124266361D01*
X67399000Y-128918000D01*
X67286041Y-128918000D01*
X67114288Y-128952164D01*
X66952501Y-129019179D01*
X66806896Y-129116469D01*
X66683069Y-129240296D01*
X66585779Y-129385901D01*
X66518764Y-129547688D01*
X66484600Y-129719441D01*
X66484600Y-129894559D01*
X66518764Y-130066312D01*
X66585779Y-130228099D01*
X66683069Y-130373704D01*
X66806896Y-130497531D01*
X66952501Y-130594821D01*
X67114288Y-130661836D01*
X67286041Y-130696000D01*
X67412147Y-130696000D01*
X67447336Y-130812004D01*
X67506017Y-130921787D01*
X67584987Y-131018013D01*
X67681213Y-131096983D01*
X67790996Y-131155664D01*
X67910118Y-131191799D01*
X68034000Y-131204000D01*
X69678554Y-131204000D01*
X69537722Y-139643785D01*
X69449312Y-139607164D01*
X69277559Y-139573000D01*
X69102441Y-139573000D01*
X68930688Y-139607164D01*
X68850308Y-139640459D01*
X68801312Y-139620164D01*
X68629559Y-139586000D01*
X68454441Y-139586000D01*
X68282688Y-139620164D01*
X68120901Y-139687179D01*
X67975296Y-139784469D01*
X67851469Y-139908296D01*
X67754179Y-140053901D01*
X67687164Y-140215688D01*
X67653000Y-140387441D01*
X67653000Y-140562559D01*
X67687164Y-140734312D01*
X67754179Y-140896099D01*
X67851469Y-141041704D01*
X67975296Y-141165531D01*
X68120901Y-141262821D01*
X68282688Y-141329836D01*
X68454441Y-141364000D01*
X68629559Y-141364000D01*
X68801312Y-141329836D01*
X68881692Y-141296541D01*
X68930688Y-141316836D01*
X69102441Y-141351000D01*
X69277559Y-141351000D01*
X69449312Y-141316836D01*
X69510225Y-141291605D01*
X69376342Y-149315000D01*
X55472114Y-149315000D01*
X55629302Y-149157812D01*
X55999748Y-148603399D01*
X56254917Y-147987368D01*
X56385000Y-147333393D01*
X56385000Y-147039000D01*
X57782928Y-147039000D01*
X57782928Y-148389000D01*
X57799992Y-148562254D01*
X57850528Y-148728850D01*
X57932595Y-148882386D01*
X58043038Y-149016962D01*
X58177614Y-149127405D01*
X58331150Y-149209472D01*
X58497746Y-149260008D01*
X58671000Y-149277072D01*
X59871000Y-149277072D01*
X60044254Y-149260008D01*
X60210850Y-149209472D01*
X60364386Y-149127405D01*
X60498962Y-149016962D01*
X60609405Y-148882386D01*
X60663777Y-148780663D01*
X60715866Y-148844134D01*
X60941987Y-149029706D01*
X61199967Y-149167599D01*
X61479890Y-149252513D01*
X61771000Y-149281185D01*
X62062111Y-149252513D01*
X62342034Y-149167599D01*
X62600014Y-149029706D01*
X62826134Y-148844134D01*
X63011706Y-148618013D01*
X63149599Y-148360033D01*
X63234513Y-148080110D01*
X63256000Y-147861949D01*
X63256000Y-147566050D01*
X63234513Y-147347889D01*
X63149599Y-147067966D01*
X63011706Y-146809986D01*
X62826134Y-146583866D01*
X62600013Y-146398294D01*
X62342033Y-146260401D01*
X62062110Y-146175487D01*
X61771000Y-146146815D01*
X61479889Y-146175487D01*
X61199966Y-146260401D01*
X60941986Y-146398294D01*
X60715866Y-146583866D01*
X60663777Y-146647337D01*
X60609405Y-146545614D01*
X60498962Y-146411038D01*
X60364386Y-146300595D01*
X60210850Y-146218528D01*
X60044254Y-146167992D01*
X59871000Y-146150928D01*
X58671000Y-146150928D01*
X58497746Y-146167992D01*
X58331150Y-146218528D01*
X58177614Y-146300595D01*
X58043038Y-146411038D01*
X57932595Y-146545614D01*
X57850528Y-146699150D01*
X57799992Y-146865746D01*
X57782928Y-147039000D01*
X56385000Y-147039000D01*
X56385000Y-146666607D01*
X56254917Y-146012632D01*
X55999748Y-145396601D01*
X55673638Y-144908541D01*
X64351100Y-144908541D01*
X64351100Y-145083659D01*
X64385264Y-145255412D01*
X64452279Y-145417199D01*
X64549569Y-145562804D01*
X64673396Y-145686631D01*
X64819001Y-145783921D01*
X64855896Y-145799204D01*
X64871179Y-145836099D01*
X64965000Y-145976512D01*
X64965000Y-146044559D01*
X64999164Y-146216312D01*
X65066179Y-146378099D01*
X65163469Y-146523704D01*
X65287296Y-146647531D01*
X65432901Y-146744821D01*
X65594688Y-146811836D01*
X65766441Y-146846000D01*
X65941559Y-146846000D01*
X66113312Y-146811836D01*
X66275099Y-146744821D01*
X66420704Y-146647531D01*
X66544531Y-146523704D01*
X66641821Y-146378099D01*
X66708836Y-146216312D01*
X66743000Y-146044559D01*
X66743000Y-145869441D01*
X66708836Y-145697688D01*
X66641821Y-145535901D01*
X66548000Y-145395488D01*
X66548000Y-145327441D01*
X66513836Y-145155688D01*
X66446821Y-144993901D01*
X66349531Y-144848296D01*
X66225704Y-144724469D01*
X66080099Y-144627179D01*
X66043204Y-144611896D01*
X66027921Y-144575001D01*
X65930631Y-144429396D01*
X65806804Y-144305569D01*
X65661199Y-144208279D01*
X65499412Y-144141264D01*
X65327659Y-144107100D01*
X65152541Y-144107100D01*
X64980788Y-144141264D01*
X64819001Y-144208279D01*
X64673396Y-144305569D01*
X64549569Y-144429396D01*
X64452279Y-144575001D01*
X64385264Y-144736788D01*
X64351100Y-144908541D01*
X55673638Y-144908541D01*
X55629302Y-144842188D01*
X55157812Y-144370698D01*
X54603399Y-144000252D01*
X54466246Y-143943441D01*
X66637000Y-143943441D01*
X66637000Y-144118559D01*
X66671164Y-144290312D01*
X66738179Y-144452099D01*
X66835469Y-144597704D01*
X66959296Y-144721531D01*
X67104901Y-144818821D01*
X67266688Y-144885836D01*
X67438441Y-144920000D01*
X67613559Y-144920000D01*
X67785312Y-144885836D01*
X67947099Y-144818821D01*
X68092704Y-144721531D01*
X68216531Y-144597704D01*
X68313821Y-144452099D01*
X68380836Y-144290312D01*
X68415000Y-144118559D01*
X68415000Y-143943441D01*
X68380836Y-143771688D01*
X68313821Y-143609901D01*
X68216531Y-143464296D01*
X68092704Y-143340469D01*
X67947099Y-143243179D01*
X67785312Y-143176164D01*
X67613559Y-143142000D01*
X67438441Y-143142000D01*
X67266688Y-143176164D01*
X67104901Y-143243179D01*
X66959296Y-143340469D01*
X66835469Y-143464296D01*
X66738179Y-143609901D01*
X66671164Y-143771688D01*
X66637000Y-143943441D01*
X54466246Y-143943441D01*
X53987368Y-143745083D01*
X53333393Y-143615000D01*
X52666607Y-143615000D01*
X52012632Y-143745083D01*
X51396601Y-144000252D01*
X50842188Y-144370698D01*
X50685000Y-144527886D01*
X50685000Y-139879441D01*
X65494000Y-139879441D01*
X65494000Y-140054559D01*
X65528164Y-140226312D01*
X65595179Y-140388099D01*
X65692469Y-140533704D01*
X65816296Y-140657531D01*
X65961901Y-140754821D01*
X66123688Y-140821836D01*
X66295441Y-140856000D01*
X66470559Y-140856000D01*
X66642312Y-140821836D01*
X66804099Y-140754821D01*
X66949704Y-140657531D01*
X67073531Y-140533704D01*
X67170821Y-140388099D01*
X67237836Y-140226312D01*
X67272000Y-140054559D01*
X67272000Y-139879441D01*
X67237836Y-139707688D01*
X67170821Y-139545901D01*
X67073531Y-139400296D01*
X66949704Y-139276469D01*
X66804099Y-139179179D01*
X66642312Y-139112164D01*
X66470559Y-139078000D01*
X66295441Y-139078000D01*
X66123688Y-139112164D01*
X65961901Y-139179179D01*
X65816296Y-139276469D01*
X65692469Y-139400296D01*
X65595179Y-139545901D01*
X65528164Y-139707688D01*
X65494000Y-139879441D01*
X50685000Y-139879441D01*
X50685000Y-137085441D01*
X61049000Y-137085441D01*
X61049000Y-137260559D01*
X61083164Y-137432312D01*
X61150179Y-137594099D01*
X61247469Y-137739704D01*
X61371296Y-137863531D01*
X61516901Y-137960821D01*
X61678688Y-138027836D01*
X61850441Y-138062000D01*
X62025559Y-138062000D01*
X62197312Y-138027836D01*
X62359099Y-137960821D01*
X62504704Y-137863531D01*
X62628531Y-137739704D01*
X62725821Y-137594099D01*
X62792836Y-137432312D01*
X62827000Y-137260559D01*
X62827000Y-137085441D01*
X62792836Y-136913688D01*
X62725821Y-136751901D01*
X62628531Y-136606296D01*
X62504704Y-136482469D01*
X62359099Y-136385179D01*
X62197312Y-136318164D01*
X62025559Y-136284000D01*
X61850441Y-136284000D01*
X61678688Y-136318164D01*
X61516901Y-136385179D01*
X61371296Y-136482469D01*
X61247469Y-136606296D01*
X61150179Y-136751901D01*
X61083164Y-136913688D01*
X61049000Y-137085441D01*
X50685000Y-137085441D01*
X50685000Y-135307441D01*
X52667006Y-135307441D01*
X52667006Y-135482559D01*
X52701170Y-135654312D01*
X52768185Y-135816099D01*
X52865475Y-135961704D01*
X52989302Y-136085531D01*
X53134907Y-136182821D01*
X53296694Y-136249836D01*
X53468447Y-136284000D01*
X53643565Y-136284000D01*
X53815318Y-136249836D01*
X53977105Y-136182821D01*
X54122710Y-136085531D01*
X54246537Y-135961704D01*
X54301503Y-135879441D01*
X64795000Y-135879441D01*
X64795000Y-136054559D01*
X64829164Y-136226312D01*
X64896179Y-136388099D01*
X64993469Y-136533704D01*
X65117296Y-136657531D01*
X65262901Y-136754821D01*
X65424688Y-136821836D01*
X65596441Y-136856000D01*
X65771559Y-136856000D01*
X65943312Y-136821836D01*
X66002000Y-136797526D01*
X66060688Y-136821836D01*
X66232441Y-136856000D01*
X66407559Y-136856000D01*
X66579312Y-136821836D01*
X66741099Y-136754821D01*
X66886704Y-136657531D01*
X67010531Y-136533704D01*
X67107821Y-136388099D01*
X67174836Y-136226312D01*
X67209000Y-136054559D01*
X67209000Y-135879441D01*
X67174836Y-135707688D01*
X67107821Y-135545901D01*
X67010531Y-135400296D01*
X66886704Y-135276469D01*
X66741099Y-135179179D01*
X66579312Y-135112164D01*
X66407559Y-135078000D01*
X66232441Y-135078000D01*
X66060688Y-135112164D01*
X66002000Y-135136474D01*
X65943312Y-135112164D01*
X65771559Y-135078000D01*
X65596441Y-135078000D01*
X65424688Y-135112164D01*
X65262901Y-135179179D01*
X65117296Y-135276469D01*
X64993469Y-135400296D01*
X64896179Y-135545901D01*
X64829164Y-135707688D01*
X64795000Y-135879441D01*
X54301503Y-135879441D01*
X54328270Y-135839382D01*
X54465724Y-135782446D01*
X54611329Y-135685156D01*
X54735156Y-135561329D01*
X54832446Y-135415724D01*
X54899461Y-135253937D01*
X54933625Y-135082184D01*
X54933625Y-134907066D01*
X54899461Y-134735313D01*
X54832446Y-134573526D01*
X54735156Y-134427921D01*
X54611329Y-134304094D01*
X54465724Y-134206804D01*
X54303937Y-134139789D01*
X54132184Y-134105625D01*
X53957066Y-134105625D01*
X53785313Y-134139789D01*
X53623526Y-134206804D01*
X53477921Y-134304094D01*
X53354094Y-134427921D01*
X53272361Y-134550243D01*
X53134907Y-134607179D01*
X52989302Y-134704469D01*
X52865475Y-134828296D01*
X52768185Y-134973901D01*
X52701170Y-135135688D01*
X52667006Y-135307441D01*
X50685000Y-135307441D01*
X50685000Y-133262441D01*
X61722000Y-133262441D01*
X61722000Y-133437559D01*
X61756164Y-133609312D01*
X61823179Y-133771099D01*
X61920469Y-133916704D01*
X62044296Y-134040531D01*
X62189901Y-134137821D01*
X62351688Y-134204836D01*
X62523441Y-134239000D01*
X62698559Y-134239000D01*
X62870312Y-134204836D01*
X63032099Y-134137821D01*
X63177704Y-134040531D01*
X63301531Y-133916704D01*
X63398821Y-133771099D01*
X63465836Y-133609312D01*
X63500000Y-133437559D01*
X63500000Y-133262441D01*
X63465836Y-133090688D01*
X63398821Y-132928901D01*
X63301531Y-132783296D01*
X63177704Y-132659469D01*
X63032099Y-132562179D01*
X62870312Y-132495164D01*
X62698559Y-132461000D01*
X62523441Y-132461000D01*
X62351688Y-132495164D01*
X62189901Y-132562179D01*
X62044296Y-132659469D01*
X61920469Y-132783296D01*
X61823179Y-132928901D01*
X61756164Y-133090688D01*
X61722000Y-133262441D01*
X50685000Y-133262441D01*
X50685000Y-130722573D01*
X50706469Y-130754704D01*
X50830296Y-130878531D01*
X50975901Y-130975821D01*
X51137688Y-131042836D01*
X51309441Y-131077000D01*
X51484559Y-131077000D01*
X51656312Y-131042836D01*
X51818099Y-130975821D01*
X51963704Y-130878531D01*
X52087531Y-130754704D01*
X52184821Y-130609099D01*
X52251836Y-130447312D01*
X52286000Y-130275559D01*
X52286000Y-130100441D01*
X52251836Y-129928688D01*
X52184821Y-129766901D01*
X52087531Y-129621296D01*
X52058676Y-129592441D01*
X55588000Y-129592441D01*
X55588000Y-129767559D01*
X55622164Y-129939312D01*
X55689179Y-130101099D01*
X55786469Y-130246704D01*
X55910296Y-130370531D01*
X56055901Y-130467821D01*
X56217688Y-130534836D01*
X56389441Y-130569000D01*
X56564559Y-130569000D01*
X56736312Y-130534836D01*
X56898099Y-130467821D01*
X57043704Y-130370531D01*
X57167531Y-130246704D01*
X57264821Y-130101099D01*
X57331836Y-129939312D01*
X57366000Y-129767559D01*
X57366000Y-129592441D01*
X57331836Y-129420688D01*
X57264821Y-129258901D01*
X57167531Y-129113296D01*
X57138676Y-129084441D01*
X58128000Y-129084441D01*
X58128000Y-129259559D01*
X58162164Y-129431312D01*
X58229179Y-129593099D01*
X58326469Y-129738704D01*
X58450296Y-129862531D01*
X58595901Y-129959821D01*
X58757688Y-130026836D01*
X58929441Y-130061000D01*
X59104559Y-130061000D01*
X59276312Y-130026836D01*
X59438099Y-129959821D01*
X59583704Y-129862531D01*
X59707531Y-129738704D01*
X59804821Y-129593099D01*
X59871836Y-129431312D01*
X59906000Y-129259559D01*
X59906000Y-129084441D01*
X59871836Y-128912688D01*
X59804821Y-128750901D01*
X59707531Y-128605296D01*
X59583704Y-128481469D01*
X59438099Y-128384179D01*
X59276312Y-128317164D01*
X59104559Y-128283000D01*
X58929441Y-128283000D01*
X58757688Y-128317164D01*
X58595901Y-128384179D01*
X58450296Y-128481469D01*
X58326469Y-128605296D01*
X58229179Y-128750901D01*
X58162164Y-128912688D01*
X58128000Y-129084441D01*
X57138676Y-129084441D01*
X57043704Y-128989469D01*
X56898099Y-128892179D01*
X56736312Y-128825164D01*
X56564559Y-128791000D01*
X56389441Y-128791000D01*
X56217688Y-128825164D01*
X56055901Y-128892179D01*
X55910296Y-128989469D01*
X55786469Y-129113296D01*
X55689179Y-129258901D01*
X55622164Y-129420688D01*
X55588000Y-129592441D01*
X52058676Y-129592441D01*
X51963704Y-129497469D01*
X51818099Y-129400179D01*
X51656312Y-129333164D01*
X51484559Y-129299000D01*
X51309441Y-129299000D01*
X51137688Y-129333164D01*
X50975901Y-129400179D01*
X50830296Y-129497469D01*
X50706469Y-129621296D01*
X50685000Y-129653427D01*
X50685000Y-123089939D01*
X51168502Y-123089939D01*
X51168502Y-123265057D01*
X51202666Y-123436810D01*
X51269681Y-123598597D01*
X51366971Y-123744202D01*
X51490798Y-123868029D01*
X51636403Y-123965319D01*
X51646499Y-123969501D01*
X51650681Y-123979597D01*
X51747971Y-124125202D01*
X51871798Y-124249029D01*
X52017403Y-124346319D01*
X52036336Y-124354162D01*
X52044179Y-124373095D01*
X52141469Y-124518700D01*
X52265296Y-124642527D01*
X52410901Y-124739817D01*
X52572688Y-124806832D01*
X52744441Y-124840996D01*
X52919559Y-124840996D01*
X53091312Y-124806832D01*
X53253099Y-124739817D01*
X53398704Y-124642527D01*
X53522531Y-124518700D01*
X53619821Y-124373095D01*
X53686836Y-124211308D01*
X53721000Y-124039555D01*
X53721000Y-123864437D01*
X53686836Y-123692684D01*
X53619821Y-123530897D01*
X53522531Y-123385292D01*
X53398704Y-123261465D01*
X53253099Y-123164175D01*
X53234166Y-123156332D01*
X53226323Y-123137399D01*
X53129033Y-122991794D01*
X53005206Y-122867967D01*
X52859601Y-122770677D01*
X52849505Y-122766495D01*
X52845323Y-122756399D01*
X52748033Y-122610794D01*
X52624206Y-122486967D01*
X52478601Y-122389677D01*
X52316814Y-122322662D01*
X52145061Y-122288498D01*
X51969943Y-122288498D01*
X51798190Y-122322662D01*
X51636403Y-122389677D01*
X51490798Y-122486967D01*
X51366971Y-122610794D01*
X51269681Y-122756399D01*
X51202666Y-122918186D01*
X51168502Y-123089939D01*
X50685000Y-123089939D01*
X50685000Y-122226441D01*
X55969000Y-122226441D01*
X55969000Y-122401559D01*
X56003164Y-122573312D01*
X56070179Y-122735099D01*
X56167469Y-122880704D01*
X56291296Y-123004531D01*
X56436901Y-123101821D01*
X56598688Y-123168836D01*
X56770441Y-123203000D01*
X56945559Y-123203000D01*
X57117312Y-123168836D01*
X57279099Y-123101821D01*
X57424704Y-123004531D01*
X57548531Y-122880704D01*
X57645821Y-122735099D01*
X57712836Y-122573312D01*
X57747000Y-122401559D01*
X57747000Y-122226441D01*
X57712836Y-122054688D01*
X57645821Y-121892901D01*
X57548531Y-121747296D01*
X57424704Y-121623469D01*
X57279099Y-121526179D01*
X57117312Y-121459164D01*
X56945559Y-121425000D01*
X56770441Y-121425000D01*
X56598688Y-121459164D01*
X56436901Y-121526179D01*
X56291296Y-121623469D01*
X56167469Y-121747296D01*
X56070179Y-121892901D01*
X56003164Y-122054688D01*
X55969000Y-122226441D01*
X50685000Y-122226441D01*
X50685000Y-111812441D01*
X58890000Y-111812441D01*
X58890000Y-111987559D01*
X58924164Y-112159312D01*
X58991179Y-112321099D01*
X59088469Y-112466704D01*
X59212296Y-112590531D01*
X59357901Y-112687821D01*
X59367997Y-112692003D01*
X59372179Y-112702099D01*
X59469469Y-112847704D01*
X59593296Y-112971531D01*
X59738901Y-113068821D01*
X59900688Y-113135836D01*
X60072441Y-113170000D01*
X60247559Y-113170000D01*
X60419312Y-113135836D01*
X60581099Y-113068821D01*
X60726704Y-112971531D01*
X60850531Y-112847704D01*
X60947821Y-112702099D01*
X61014836Y-112540312D01*
X61049000Y-112368559D01*
X61049000Y-112193441D01*
X61014836Y-112021688D01*
X60947821Y-111859901D01*
X60850531Y-111714296D01*
X60726704Y-111590469D01*
X60581099Y-111493179D01*
X60571003Y-111488997D01*
X60566821Y-111478901D01*
X60469531Y-111333296D01*
X60345704Y-111209469D01*
X60200099Y-111112179D01*
X60038312Y-111045164D01*
X59866559Y-111011000D01*
X59691441Y-111011000D01*
X59519688Y-111045164D01*
X59357901Y-111112179D01*
X59212296Y-111209469D01*
X59088469Y-111333296D01*
X58991179Y-111478901D01*
X58924164Y-111640688D01*
X58890000Y-111812441D01*
X50685000Y-111812441D01*
X50685000Y-108637441D01*
X52794000Y-108637441D01*
X52794000Y-108812559D01*
X52828164Y-108984312D01*
X52895179Y-109146099D01*
X52992469Y-109291704D01*
X53116296Y-109415531D01*
X53261901Y-109512821D01*
X53423688Y-109579836D01*
X53595441Y-109614000D01*
X53770559Y-109614000D01*
X53942312Y-109579836D01*
X54104099Y-109512821D01*
X54249704Y-109415531D01*
X54373531Y-109291704D01*
X54470821Y-109146099D01*
X54537836Y-108984312D01*
X54572000Y-108812559D01*
X54572000Y-108637441D01*
X54537836Y-108465688D01*
X54470821Y-108303901D01*
X54439110Y-108256441D01*
X57366000Y-108256441D01*
X57366000Y-108431559D01*
X57400164Y-108603312D01*
X57467179Y-108765099D01*
X57564469Y-108910704D01*
X57688296Y-109034531D01*
X57833901Y-109131821D01*
X57995688Y-109198836D01*
X58167441Y-109233000D01*
X58342559Y-109233000D01*
X58514312Y-109198836D01*
X58676099Y-109131821D01*
X58821704Y-109034531D01*
X58945531Y-108910704D01*
X59042821Y-108765099D01*
X59109836Y-108603312D01*
X59144000Y-108431559D01*
X59144000Y-108256441D01*
X59109836Y-108084688D01*
X59042821Y-107922901D01*
X58945531Y-107777296D01*
X58821704Y-107653469D01*
X58676099Y-107556179D01*
X58514312Y-107489164D01*
X58342559Y-107455000D01*
X58167441Y-107455000D01*
X57995688Y-107489164D01*
X57833901Y-107556179D01*
X57688296Y-107653469D01*
X57564469Y-107777296D01*
X57467179Y-107922901D01*
X57400164Y-108084688D01*
X57366000Y-108256441D01*
X54439110Y-108256441D01*
X54373531Y-108158296D01*
X54249704Y-108034469D01*
X54104099Y-107937179D01*
X53942312Y-107870164D01*
X53770559Y-107836000D01*
X53595441Y-107836000D01*
X53423688Y-107870164D01*
X53261901Y-107937179D01*
X53116296Y-108034469D01*
X52992469Y-108158296D01*
X52895179Y-108303901D01*
X52828164Y-108465688D01*
X52794000Y-108637441D01*
X50685000Y-108637441D01*
X50685000Y-105472114D01*
X50842188Y-105629302D01*
X51396601Y-105999748D01*
X52012632Y-106254917D01*
X52666607Y-106385000D01*
X53333393Y-106385000D01*
X53987368Y-106254917D01*
X54603399Y-105999748D01*
X55157812Y-105629302D01*
X55629302Y-105157812D01*
X55934906Y-104700441D01*
X58382000Y-104700441D01*
X58382000Y-104875559D01*
X58416164Y-105047312D01*
X58483179Y-105209099D01*
X58580469Y-105354704D01*
X58704296Y-105478531D01*
X58849901Y-105575821D01*
X59011688Y-105642836D01*
X59183441Y-105677000D01*
X59358559Y-105677000D01*
X59530312Y-105642836D01*
X59692099Y-105575821D01*
X59837704Y-105478531D01*
X59961531Y-105354704D01*
X60058821Y-105209099D01*
X60125836Y-105047312D01*
X60160000Y-104875559D01*
X60160000Y-104700441D01*
X60125836Y-104528688D01*
X60058821Y-104366901D01*
X59961531Y-104221296D01*
X59837704Y-104097469D01*
X59692099Y-104000179D01*
X59530312Y-103933164D01*
X59358559Y-103899000D01*
X59183441Y-103899000D01*
X59011688Y-103933164D01*
X58849901Y-104000179D01*
X58704296Y-104097469D01*
X58580469Y-104221296D01*
X58483179Y-104366901D01*
X58416164Y-104528688D01*
X58382000Y-104700441D01*
X55934906Y-104700441D01*
X55999748Y-104603399D01*
X56254917Y-103987368D01*
X56385000Y-103333393D01*
X56385000Y-102666607D01*
X56254917Y-102012632D01*
X55999748Y-101396601D01*
X55629302Y-100842188D01*
X55472114Y-100685000D01*
X64365000Y-100685000D01*
X64365000Y-103723770D01*
G37*
G04 #@! TD.AperFunction*
D13*
X72315001Y-149315000D02*
X70138448Y-149315000D01*
X70444898Y-130950000D01*
X72315000Y-130950000D01*
X72315001Y-149315000D01*
G04 #@! TA.AperFunction,Conductor*
D14*
G36*
X72315001Y-149315000D02*
G01*
X70138448Y-149315000D01*
X70444898Y-130950000D01*
X72315000Y-130950000D01*
X72315001Y-149315000D01*
G37*
G04 #@! TD.AperFunction*
D13*
X88685000Y-108771652D02*
X88685001Y-128358115D01*
X73034595Y-128315093D01*
X73000000Y-128311686D01*
X72933482Y-128318238D01*
X72867574Y-128324546D01*
X72866667Y-128324818D01*
X72865717Y-128324912D01*
X72801763Y-128344312D01*
X72738344Y-128363360D01*
X72737509Y-128363804D01*
X72736594Y-128364081D01*
X72677733Y-128395543D01*
X72619168Y-128426639D01*
X72618432Y-128427239D01*
X72617593Y-128427688D01*
X72566210Y-128469858D01*
X72514629Y-128511953D01*
X72514022Y-128512688D01*
X72513289Y-128513290D01*
X72471092Y-128564707D01*
X72428742Y-128616022D01*
X72428292Y-128616857D01*
X72427688Y-128617594D01*
X72396287Y-128676342D01*
X72364808Y-128734847D01*
X72364530Y-128735756D01*
X72364081Y-128736595D01*
X72344753Y-128800309D01*
X72325284Y-128863862D01*
X72325188Y-128864807D01*
X72324912Y-128865718D01*
X72318381Y-128932023D01*
X72311689Y-128998108D01*
X72315000Y-129032698D01*
X72315000Y-130188000D01*
X70320000Y-130188000D01*
X70206526Y-130198221D01*
X70086818Y-130232364D01*
X69976071Y-130289204D01*
X69878541Y-130366558D01*
X69814491Y-130442000D01*
X68161000Y-130442000D01*
X68161000Y-130228729D01*
X68161421Y-130228099D01*
X68228436Y-130066312D01*
X68262600Y-129894559D01*
X68262600Y-129719441D01*
X68228436Y-129547688D01*
X68161421Y-129385901D01*
X68161000Y-129385271D01*
X68161000Y-123635000D01*
X70000000Y-123635000D01*
X70123882Y-123622799D01*
X70243004Y-123586664D01*
X70352787Y-123527983D01*
X70449013Y-123449013D01*
X70527983Y-123352787D01*
X70586664Y-123243004D01*
X70622799Y-123123882D01*
X70635000Y-123000000D01*
X70635000Y-116917841D01*
X81953200Y-116917841D01*
X81953200Y-117092959D01*
X81987364Y-117264712D01*
X82054379Y-117426499D01*
X82151669Y-117572104D01*
X82275496Y-117695931D01*
X82421101Y-117793221D01*
X82582888Y-117860236D01*
X82754641Y-117894400D01*
X82929759Y-117894400D01*
X83101512Y-117860236D01*
X83263299Y-117793221D01*
X83408904Y-117695931D01*
X83532731Y-117572104D01*
X83630021Y-117426499D01*
X83697036Y-117264712D01*
X83731200Y-117092959D01*
X83731200Y-116917841D01*
X83697036Y-116746088D01*
X83630021Y-116584301D01*
X83532731Y-116438696D01*
X83408904Y-116314869D01*
X83263299Y-116217579D01*
X83101512Y-116150564D01*
X82929759Y-116116400D01*
X82754641Y-116116400D01*
X82582888Y-116150564D01*
X82421101Y-116217579D01*
X82275496Y-116314869D01*
X82151669Y-116438696D01*
X82054379Y-116584301D01*
X81987364Y-116746088D01*
X81953200Y-116917841D01*
X70635000Y-116917841D01*
X70635000Y-108685000D01*
X70998513Y-108685000D01*
X88685000Y-108771652D01*
G04 #@! TA.AperFunction,Conductor*
D14*
G36*
X88685000Y-108771652D02*
G01*
X88685001Y-128358115D01*
X73034595Y-128315093D01*
X73000000Y-128311686D01*
X72933482Y-128318238D01*
X72867574Y-128324546D01*
X72866667Y-128324818D01*
X72865717Y-128324912D01*
X72801763Y-128344312D01*
X72738344Y-128363360D01*
X72737509Y-128363804D01*
X72736594Y-128364081D01*
X72677733Y-128395543D01*
X72619168Y-128426639D01*
X72618432Y-128427239D01*
X72617593Y-128427688D01*
X72566210Y-128469858D01*
X72514629Y-128511953D01*
X72514022Y-128512688D01*
X72513289Y-128513290D01*
X72471092Y-128564707D01*
X72428742Y-128616022D01*
X72428292Y-128616857D01*
X72427688Y-128617594D01*
X72396287Y-128676342D01*
X72364808Y-128734847D01*
X72364530Y-128735756D01*
X72364081Y-128736595D01*
X72344753Y-128800309D01*
X72325284Y-128863862D01*
X72325188Y-128864807D01*
X72324912Y-128865718D01*
X72318381Y-128932023D01*
X72311689Y-128998108D01*
X72315000Y-129032698D01*
X72315000Y-130188000D01*
X70320000Y-130188000D01*
X70206526Y-130198221D01*
X70086818Y-130232364D01*
X69976071Y-130289204D01*
X69878541Y-130366558D01*
X69814491Y-130442000D01*
X68161000Y-130442000D01*
X68161000Y-130228729D01*
X68161421Y-130228099D01*
X68228436Y-130066312D01*
X68262600Y-129894559D01*
X68262600Y-129719441D01*
X68228436Y-129547688D01*
X68161421Y-129385901D01*
X68161000Y-129385271D01*
X68161000Y-123635000D01*
X70000000Y-123635000D01*
X70123882Y-123622799D01*
X70243004Y-123586664D01*
X70352787Y-123527983D01*
X70449013Y-123449013D01*
X70527983Y-123352787D01*
X70586664Y-123243004D01*
X70622799Y-123123882D01*
X70635000Y-123000000D01*
X70635000Y-116917841D01*
X81953200Y-116917841D01*
X81953200Y-117092959D01*
X81987364Y-117264712D01*
X82054379Y-117426499D01*
X82151669Y-117572104D01*
X82275496Y-117695931D01*
X82421101Y-117793221D01*
X82582888Y-117860236D01*
X82754641Y-117894400D01*
X82929759Y-117894400D01*
X83101512Y-117860236D01*
X83263299Y-117793221D01*
X83408904Y-117695931D01*
X83532731Y-117572104D01*
X83630021Y-117426499D01*
X83697036Y-117264712D01*
X83731200Y-117092959D01*
X83731200Y-116917841D01*
X83697036Y-116746088D01*
X83630021Y-116584301D01*
X83532731Y-116438696D01*
X83408904Y-116314869D01*
X83263299Y-116217579D01*
X83101512Y-116150564D01*
X82929759Y-116116400D01*
X82754641Y-116116400D01*
X82582888Y-116150564D01*
X82421101Y-116217579D01*
X82275496Y-116314869D01*
X82151669Y-116438696D01*
X82054379Y-116584301D01*
X81987364Y-116746088D01*
X81953200Y-116917841D01*
X70635000Y-116917841D01*
X70635000Y-108685000D01*
X70998513Y-108685000D01*
X88685000Y-108771652D01*
G37*
G04 #@! TD.AperFunction*
M02*
