G04 #@! TF.GenerationSoftware,KiCad,Pcbnew,(5.1.9)-1*
G04 #@! TF.CreationDate,2021-02-02T20:04:29-05:00*
G04 #@! TF.ProjectId,ZeroPilot,5a65726f-5069-46c6-9f74-2e6b69636164,rev?*
G04 #@! TF.SameCoordinates,Original*
G04 #@! TF.FileFunction,Copper,L2,Inr*
G04 #@! TF.FilePolarity,Positive*
%FSLAX46Y46*%
G04 Gerber Fmt 4.6, Leading zero omitted, Abs format (unit mm)*
G04 Created by KiCad (PCBNEW (5.1.9)-1) date 2021-02-02 20:04:29*
%MOMM*%
%LPD*%
G01*
G04 APERTURE LIST*
G04 #@! TA.AperFunction,ComponentPad*
%ADD10O,1.700000X1.850000*%
G04 #@! TD*
G04 #@! TA.AperFunction,ComponentPad*
%ADD11C,5.500000*%
G04 #@! TD*
G04 #@! TA.AperFunction,ViaPad*
%ADD12C,0.508000*%
G04 #@! TD*
G04 #@! TA.AperFunction,Conductor*
%ADD13C,0.254000*%
G04 #@! TD*
G04 #@! TA.AperFunction,Conductor*
%ADD14C,0.100000*%
G04 #@! TD*
G04 APERTURE END LIST*
D10*
X61771000Y-147714000D03*
G04 #@! TA.AperFunction,ComponentPad*
G36*
G01*
X58421000Y-148389000D02*
X58421000Y-147039000D01*
G75*
G02*
X58671000Y-146789000I250000J0D01*
G01*
X59871000Y-146789000D01*
G75*
G02*
X60121000Y-147039000I0J-250000D01*
G01*
X60121000Y-148389000D01*
G75*
G02*
X59871000Y-148639000I-250000J0D01*
G01*
X58671000Y-148639000D01*
G75*
G02*
X58421000Y-148389000I0J250000D01*
G01*
G37*
G04 #@! TD.AperFunction*
D11*
X53000000Y-147000000D03*
X53000000Y-103000000D03*
D12*
X66320000Y-135967000D03*
X72339799Y-136271799D03*
X71729201Y-136271799D03*
X71094201Y-136271799D03*
X65684000Y-135967000D03*
X68542000Y-140475000D03*
X69190000Y-140462000D03*
X66383000Y-139967000D03*
X67526000Y-144031000D03*
X53556006Y-135395000D03*
X54044625Y-134994625D03*
X51397000Y-130188000D03*
X56858000Y-122314000D03*
X53683000Y-108725000D03*
X59271000Y-104788000D03*
X59017000Y-129172000D03*
X60160000Y-112281000D03*
X59779000Y-111900000D03*
X67373600Y-129807000D03*
X64732000Y-104534000D03*
X67078960Y-123436680D03*
X82842200Y-117005400D03*
X55753000Y-122809000D03*
X56642000Y-114554000D03*
X56985000Y-127902000D03*
X62078000Y-106045000D03*
X62586000Y-106045000D03*
X63094000Y-106045000D03*
X56185000Y-123241000D03*
X56629500Y-123685500D03*
X55842300Y-127774700D03*
X56350300Y-127774700D03*
X58255000Y-108344000D03*
X66002000Y-108725000D03*
X68923000Y-127902000D03*
X67000000Y-121000000D03*
X66000000Y-121000000D03*
X66000000Y-122000000D03*
X67000000Y-122000000D03*
X52832000Y-123951996D03*
X65659000Y-145415000D03*
X65240100Y-144996100D03*
X65854000Y-145957000D03*
X52438502Y-123558498D03*
X52057502Y-123177498D03*
X62611000Y-133350000D03*
X56477000Y-129680000D03*
X61938000Y-137173000D03*
D13*
X66315001Y-107892403D02*
X66261312Y-107870164D01*
X66089559Y-107836000D01*
X65914441Y-107836000D01*
X65742688Y-107870164D01*
X65580901Y-107937179D01*
X65435296Y-108034469D01*
X65311469Y-108158296D01*
X65214179Y-108303901D01*
X65147164Y-108465688D01*
X65113000Y-108637441D01*
X65113000Y-108812559D01*
X65147164Y-108984312D01*
X65214179Y-109146099D01*
X65311469Y-109291704D01*
X65435296Y-109415531D01*
X65580901Y-109512821D01*
X65742688Y-109579836D01*
X65914441Y-109614000D01*
X66089559Y-109614000D01*
X66261312Y-109579836D01*
X66423099Y-109512821D01*
X66568704Y-109415531D01*
X66692531Y-109291704D01*
X66789821Y-109146099D01*
X66856836Y-108984312D01*
X66891000Y-108812559D01*
X66891000Y-108677578D01*
X66966353Y-108685000D01*
X67000000Y-108688314D01*
X67033647Y-108685000D01*
X70998513Y-108685000D01*
X88685000Y-108771652D01*
X88685001Y-128358115D01*
X73034595Y-128315093D01*
X73000000Y-128311686D01*
X72933482Y-128318238D01*
X72867574Y-128324546D01*
X72866667Y-128324818D01*
X72865717Y-128324912D01*
X72801763Y-128344312D01*
X72738344Y-128363360D01*
X72737509Y-128363804D01*
X72736594Y-128364081D01*
X72677733Y-128395543D01*
X72619168Y-128426639D01*
X72618432Y-128427239D01*
X72617593Y-128427688D01*
X72566210Y-128469858D01*
X72514629Y-128511953D01*
X72514022Y-128512688D01*
X72513289Y-128513290D01*
X72471092Y-128564707D01*
X72428742Y-128616022D01*
X72428292Y-128616857D01*
X72427688Y-128617594D01*
X72396287Y-128676342D01*
X72364808Y-128734847D01*
X72364530Y-128735756D01*
X72364081Y-128736595D01*
X72344753Y-128800309D01*
X72325284Y-128863862D01*
X72325188Y-128864807D01*
X72324912Y-128865718D01*
X72318381Y-128932023D01*
X72311689Y-128998108D01*
X72315000Y-129032698D01*
X72315000Y-135382799D01*
X72252240Y-135382799D01*
X72080487Y-135416963D01*
X72034500Y-135436012D01*
X71988513Y-135416963D01*
X71816760Y-135382799D01*
X71641642Y-135382799D01*
X71469889Y-135416963D01*
X71411701Y-135441065D01*
X71353513Y-135416963D01*
X71181760Y-135382799D01*
X71006642Y-135382799D01*
X70834889Y-135416963D01*
X70673102Y-135483978D01*
X70527497Y-135581268D01*
X70403670Y-135705095D01*
X70306380Y-135850700D01*
X70239365Y-136012487D01*
X70205201Y-136184240D01*
X70205201Y-136359358D01*
X70239365Y-136531111D01*
X70306380Y-136692898D01*
X70403670Y-136838503D01*
X70527497Y-136962330D01*
X70673102Y-137059620D01*
X70834889Y-137126635D01*
X71006642Y-137160799D01*
X71181760Y-137160799D01*
X71353513Y-137126635D01*
X71411701Y-137102533D01*
X71469889Y-137126635D01*
X71641642Y-137160799D01*
X71816760Y-137160799D01*
X71988513Y-137126635D01*
X72034500Y-137107586D01*
X72080487Y-137126635D01*
X72252240Y-137160799D01*
X72315000Y-137160799D01*
X72315001Y-149315000D01*
X55472114Y-149315000D01*
X55629302Y-149157812D01*
X55975960Y-148639000D01*
X57782928Y-148639000D01*
X57795188Y-148763482D01*
X57831498Y-148883180D01*
X57890463Y-148993494D01*
X57969815Y-149090185D01*
X58066506Y-149169537D01*
X58176820Y-149228502D01*
X58296518Y-149264812D01*
X58421000Y-149277072D01*
X58985250Y-149274000D01*
X59144000Y-149115250D01*
X59144000Y-147841000D01*
X57944750Y-147841000D01*
X57786000Y-147999750D01*
X57782928Y-148639000D01*
X55975960Y-148639000D01*
X55999748Y-148603399D01*
X56254917Y-147987368D01*
X56385000Y-147333393D01*
X56385000Y-146789000D01*
X57782928Y-146789000D01*
X57786000Y-147428250D01*
X57944750Y-147587000D01*
X59144000Y-147587000D01*
X59144000Y-146312750D01*
X59398000Y-146312750D01*
X59398000Y-147587000D01*
X59418000Y-147587000D01*
X59418000Y-147841000D01*
X59398000Y-147841000D01*
X59398000Y-149115250D01*
X59556750Y-149274000D01*
X60121000Y-149277072D01*
X60245482Y-149264812D01*
X60365180Y-149228502D01*
X60475494Y-149169537D01*
X60572185Y-149090185D01*
X60651537Y-148993494D01*
X60710502Y-148883180D01*
X60721055Y-148848392D01*
X60941987Y-149029706D01*
X61199967Y-149167599D01*
X61479890Y-149252513D01*
X61771000Y-149281185D01*
X62062111Y-149252513D01*
X62342034Y-149167599D01*
X62600014Y-149029706D01*
X62826134Y-148844134D01*
X63011706Y-148618013D01*
X63149599Y-148360033D01*
X63234513Y-148080110D01*
X63256000Y-147861949D01*
X63256000Y-147566050D01*
X63234513Y-147347889D01*
X63149599Y-147067966D01*
X63011706Y-146809986D01*
X62826134Y-146583866D01*
X62600013Y-146398294D01*
X62342033Y-146260401D01*
X62062110Y-146175487D01*
X61771000Y-146146815D01*
X61479889Y-146175487D01*
X61199966Y-146260401D01*
X60941986Y-146398294D01*
X60721055Y-146579608D01*
X60710502Y-146544820D01*
X60651537Y-146434506D01*
X60572185Y-146337815D01*
X60475494Y-146258463D01*
X60365180Y-146199498D01*
X60245482Y-146163188D01*
X60121000Y-146150928D01*
X59556750Y-146154000D01*
X59398000Y-146312750D01*
X59144000Y-146312750D01*
X58985250Y-146154000D01*
X58421000Y-146150928D01*
X58296518Y-146163188D01*
X58176820Y-146199498D01*
X58066506Y-146258463D01*
X57969815Y-146337815D01*
X57890463Y-146434506D01*
X57831498Y-146544820D01*
X57795188Y-146664518D01*
X57782928Y-146789000D01*
X56385000Y-146789000D01*
X56385000Y-146666607D01*
X56254917Y-146012632D01*
X55999748Y-145396601D01*
X55673638Y-144908541D01*
X64351100Y-144908541D01*
X64351100Y-145083659D01*
X64385264Y-145255412D01*
X64452279Y-145417199D01*
X64549569Y-145562804D01*
X64673396Y-145686631D01*
X64819001Y-145783921D01*
X64855896Y-145799204D01*
X64871179Y-145836099D01*
X64965000Y-145976512D01*
X64965000Y-146044559D01*
X64999164Y-146216312D01*
X65066179Y-146378099D01*
X65163469Y-146523704D01*
X65287296Y-146647531D01*
X65432901Y-146744821D01*
X65594688Y-146811836D01*
X65766441Y-146846000D01*
X65941559Y-146846000D01*
X66113312Y-146811836D01*
X66275099Y-146744821D01*
X66420704Y-146647531D01*
X66544531Y-146523704D01*
X66641821Y-146378099D01*
X66708836Y-146216312D01*
X66743000Y-146044559D01*
X66743000Y-145869441D01*
X66708836Y-145697688D01*
X66641821Y-145535901D01*
X66548000Y-145395488D01*
X66548000Y-145327441D01*
X66513836Y-145155688D01*
X66446821Y-144993901D01*
X66349531Y-144848296D01*
X66225704Y-144724469D01*
X66080099Y-144627179D01*
X66043204Y-144611896D01*
X66027921Y-144575001D01*
X65930631Y-144429396D01*
X65806804Y-144305569D01*
X65661199Y-144208279D01*
X65499412Y-144141264D01*
X65327659Y-144107100D01*
X65152541Y-144107100D01*
X64980788Y-144141264D01*
X64819001Y-144208279D01*
X64673396Y-144305569D01*
X64549569Y-144429396D01*
X64452279Y-144575001D01*
X64385264Y-144736788D01*
X64351100Y-144908541D01*
X55673638Y-144908541D01*
X55629302Y-144842188D01*
X55157812Y-144370698D01*
X54603399Y-144000252D01*
X53987368Y-143745083D01*
X53333393Y-143615000D01*
X52666607Y-143615000D01*
X52012632Y-143745083D01*
X51396601Y-144000252D01*
X50842188Y-144370698D01*
X50685000Y-144527886D01*
X50685000Y-137085441D01*
X61049000Y-137085441D01*
X61049000Y-137260559D01*
X61083164Y-137432312D01*
X61150179Y-137594099D01*
X61247469Y-137739704D01*
X61371296Y-137863531D01*
X61516901Y-137960821D01*
X61678688Y-138027836D01*
X61850441Y-138062000D01*
X62025559Y-138062000D01*
X62197312Y-138027836D01*
X62359099Y-137960821D01*
X62504704Y-137863531D01*
X62628531Y-137739704D01*
X62725821Y-137594099D01*
X62792836Y-137432312D01*
X62827000Y-137260559D01*
X62827000Y-137085441D01*
X62792836Y-136913688D01*
X62725821Y-136751901D01*
X62628531Y-136606296D01*
X62504704Y-136482469D01*
X62359099Y-136385179D01*
X62197312Y-136318164D01*
X62025559Y-136284000D01*
X61850441Y-136284000D01*
X61678688Y-136318164D01*
X61516901Y-136385179D01*
X61371296Y-136482469D01*
X61247469Y-136606296D01*
X61150179Y-136751901D01*
X61083164Y-136913688D01*
X61049000Y-137085441D01*
X50685000Y-137085441D01*
X50685000Y-135879441D01*
X64795000Y-135879441D01*
X64795000Y-136054559D01*
X64829164Y-136226312D01*
X64896179Y-136388099D01*
X64993469Y-136533704D01*
X65117296Y-136657531D01*
X65262901Y-136754821D01*
X65424688Y-136821836D01*
X65596441Y-136856000D01*
X65771559Y-136856000D01*
X65943312Y-136821836D01*
X66002000Y-136797526D01*
X66060688Y-136821836D01*
X66232441Y-136856000D01*
X66407559Y-136856000D01*
X66579312Y-136821836D01*
X66741099Y-136754821D01*
X66886704Y-136657531D01*
X67010531Y-136533704D01*
X67107821Y-136388099D01*
X67174836Y-136226312D01*
X67209000Y-136054559D01*
X67209000Y-135879441D01*
X67174836Y-135707688D01*
X67107821Y-135545901D01*
X67010531Y-135400296D01*
X66886704Y-135276469D01*
X66741099Y-135179179D01*
X66579312Y-135112164D01*
X66407559Y-135078000D01*
X66232441Y-135078000D01*
X66060688Y-135112164D01*
X66002000Y-135136474D01*
X65943312Y-135112164D01*
X65771559Y-135078000D01*
X65596441Y-135078000D01*
X65424688Y-135112164D01*
X65262901Y-135179179D01*
X65117296Y-135276469D01*
X64993469Y-135400296D01*
X64896179Y-135545901D01*
X64829164Y-135707688D01*
X64795000Y-135879441D01*
X50685000Y-135879441D01*
X50685000Y-133262441D01*
X61722000Y-133262441D01*
X61722000Y-133437559D01*
X61756164Y-133609312D01*
X61823179Y-133771099D01*
X61920469Y-133916704D01*
X62044296Y-134040531D01*
X62189901Y-134137821D01*
X62351688Y-134204836D01*
X62523441Y-134239000D01*
X62698559Y-134239000D01*
X62870312Y-134204836D01*
X63032099Y-134137821D01*
X63177704Y-134040531D01*
X63301531Y-133916704D01*
X63398821Y-133771099D01*
X63465836Y-133609312D01*
X63500000Y-133437559D01*
X63500000Y-133262441D01*
X63465836Y-133090688D01*
X63398821Y-132928901D01*
X63301531Y-132783296D01*
X63177704Y-132659469D01*
X63032099Y-132562179D01*
X62870312Y-132495164D01*
X62698559Y-132461000D01*
X62523441Y-132461000D01*
X62351688Y-132495164D01*
X62189901Y-132562179D01*
X62044296Y-132659469D01*
X61920469Y-132783296D01*
X61823179Y-132928901D01*
X61756164Y-133090688D01*
X61722000Y-133262441D01*
X50685000Y-133262441D01*
X50685000Y-129592441D01*
X55588000Y-129592441D01*
X55588000Y-129767559D01*
X55622164Y-129939312D01*
X55689179Y-130101099D01*
X55786469Y-130246704D01*
X55910296Y-130370531D01*
X56055901Y-130467821D01*
X56217688Y-130534836D01*
X56389441Y-130569000D01*
X56564559Y-130569000D01*
X56736312Y-130534836D01*
X56898099Y-130467821D01*
X57043704Y-130370531D01*
X57167531Y-130246704D01*
X57264821Y-130101099D01*
X57331836Y-129939312D01*
X57366000Y-129767559D01*
X57366000Y-129592441D01*
X57331836Y-129420688D01*
X57264821Y-129258901D01*
X57167531Y-129113296D01*
X57043704Y-128989469D01*
X56898099Y-128892179D01*
X56736312Y-128825164D01*
X56564559Y-128791000D01*
X56389441Y-128791000D01*
X56217688Y-128825164D01*
X56055901Y-128892179D01*
X55910296Y-128989469D01*
X55786469Y-129113296D01*
X55689179Y-129258901D01*
X55622164Y-129420688D01*
X55588000Y-129592441D01*
X50685000Y-129592441D01*
X50685000Y-127687141D01*
X54953300Y-127687141D01*
X54953300Y-127862259D01*
X54987464Y-128034012D01*
X55054479Y-128195799D01*
X55151769Y-128341404D01*
X55275596Y-128465231D01*
X55421201Y-128562521D01*
X55582988Y-128629536D01*
X55754741Y-128663700D01*
X55929859Y-128663700D01*
X56096300Y-128630593D01*
X56262741Y-128663700D01*
X56437859Y-128663700D01*
X56504862Y-128650372D01*
X56563901Y-128689821D01*
X56725688Y-128756836D01*
X56897441Y-128791000D01*
X57072559Y-128791000D01*
X57244312Y-128756836D01*
X57406099Y-128689821D01*
X57551704Y-128592531D01*
X57675531Y-128468704D01*
X57772821Y-128323099D01*
X57839836Y-128161312D01*
X57874000Y-127989559D01*
X57874000Y-127814441D01*
X68034000Y-127814441D01*
X68034000Y-127989559D01*
X68068164Y-128161312D01*
X68135179Y-128323099D01*
X68232469Y-128468704D01*
X68356296Y-128592531D01*
X68501901Y-128689821D01*
X68663688Y-128756836D01*
X68835441Y-128791000D01*
X69010559Y-128791000D01*
X69182312Y-128756836D01*
X69344099Y-128689821D01*
X69489704Y-128592531D01*
X69613531Y-128468704D01*
X69710821Y-128323099D01*
X69777836Y-128161312D01*
X69812000Y-127989559D01*
X69812000Y-127814441D01*
X69777836Y-127642688D01*
X69710821Y-127480901D01*
X69613531Y-127335296D01*
X69489704Y-127211469D01*
X69344099Y-127114179D01*
X69182312Y-127047164D01*
X69010559Y-127013000D01*
X68835441Y-127013000D01*
X68663688Y-127047164D01*
X68501901Y-127114179D01*
X68356296Y-127211469D01*
X68232469Y-127335296D01*
X68135179Y-127480901D01*
X68068164Y-127642688D01*
X68034000Y-127814441D01*
X57874000Y-127814441D01*
X57839836Y-127642688D01*
X57772821Y-127480901D01*
X57675531Y-127335296D01*
X57551704Y-127211469D01*
X57406099Y-127114179D01*
X57244312Y-127047164D01*
X57072559Y-127013000D01*
X56897441Y-127013000D01*
X56830438Y-127026328D01*
X56771399Y-126986879D01*
X56609612Y-126919864D01*
X56437859Y-126885700D01*
X56262741Y-126885700D01*
X56096300Y-126918807D01*
X55929859Y-126885700D01*
X55754741Y-126885700D01*
X55582988Y-126919864D01*
X55421201Y-126986879D01*
X55275596Y-127084169D01*
X55151769Y-127207996D01*
X55054479Y-127353601D01*
X54987464Y-127515388D01*
X54953300Y-127687141D01*
X50685000Y-127687141D01*
X50685000Y-123089939D01*
X51168502Y-123089939D01*
X51168502Y-123265057D01*
X51202666Y-123436810D01*
X51269681Y-123598597D01*
X51366971Y-123744202D01*
X51490798Y-123868029D01*
X51636403Y-123965319D01*
X51646499Y-123969501D01*
X51650681Y-123979597D01*
X51747971Y-124125202D01*
X51871798Y-124249029D01*
X52017403Y-124346319D01*
X52036336Y-124354162D01*
X52044179Y-124373095D01*
X52141469Y-124518700D01*
X52265296Y-124642527D01*
X52410901Y-124739817D01*
X52572688Y-124806832D01*
X52744441Y-124840996D01*
X52919559Y-124840996D01*
X53091312Y-124806832D01*
X53253099Y-124739817D01*
X53398704Y-124642527D01*
X53522531Y-124518700D01*
X53619821Y-124373095D01*
X53686836Y-124211308D01*
X53721000Y-124039555D01*
X53721000Y-123864437D01*
X53686836Y-123692684D01*
X53619821Y-123530897D01*
X53522531Y-123385292D01*
X53398704Y-123261465D01*
X53253099Y-123164175D01*
X53234166Y-123156332D01*
X53226323Y-123137399D01*
X53129033Y-122991794D01*
X53005206Y-122867967D01*
X52859601Y-122770677D01*
X52849505Y-122766495D01*
X52845323Y-122756399D01*
X52821965Y-122721441D01*
X54864000Y-122721441D01*
X54864000Y-122896559D01*
X54898164Y-123068312D01*
X54965179Y-123230099D01*
X55062469Y-123375704D01*
X55186296Y-123499531D01*
X55331901Y-123596821D01*
X55378059Y-123615941D01*
X55397179Y-123662099D01*
X55494469Y-123807704D01*
X55618296Y-123931531D01*
X55763901Y-124028821D01*
X55818898Y-124051602D01*
X55841679Y-124106599D01*
X55938969Y-124252204D01*
X56062796Y-124376031D01*
X56208401Y-124473321D01*
X56370188Y-124540336D01*
X56541941Y-124574500D01*
X56717059Y-124574500D01*
X56888812Y-124540336D01*
X57050599Y-124473321D01*
X57196204Y-124376031D01*
X57320031Y-124252204D01*
X57417321Y-124106599D01*
X57484336Y-123944812D01*
X57518500Y-123773059D01*
X57518500Y-123597941D01*
X57484336Y-123426188D01*
X57417321Y-123264401D01*
X57320031Y-123118796D01*
X57196204Y-122994969D01*
X57050599Y-122897679D01*
X56995602Y-122874898D01*
X56972821Y-122819901D01*
X56875531Y-122674296D01*
X56751704Y-122550469D01*
X56606099Y-122453179D01*
X56559941Y-122434059D01*
X56540821Y-122387901D01*
X56443531Y-122242296D01*
X56319704Y-122118469D01*
X56174099Y-122021179D01*
X56012312Y-121954164D01*
X55840559Y-121920000D01*
X55665441Y-121920000D01*
X55493688Y-121954164D01*
X55331901Y-122021179D01*
X55186296Y-122118469D01*
X55062469Y-122242296D01*
X54965179Y-122387901D01*
X54898164Y-122549688D01*
X54864000Y-122721441D01*
X52821965Y-122721441D01*
X52748033Y-122610794D01*
X52624206Y-122486967D01*
X52478601Y-122389677D01*
X52316814Y-122322662D01*
X52145061Y-122288498D01*
X51969943Y-122288498D01*
X51798190Y-122322662D01*
X51636403Y-122389677D01*
X51490798Y-122486967D01*
X51366971Y-122610794D01*
X51269681Y-122756399D01*
X51202666Y-122918186D01*
X51168502Y-123089939D01*
X50685000Y-123089939D01*
X50685000Y-120912441D01*
X65111000Y-120912441D01*
X65111000Y-121087559D01*
X65145164Y-121259312D01*
X65212179Y-121421099D01*
X65264899Y-121500000D01*
X65212179Y-121578901D01*
X65145164Y-121740688D01*
X65111000Y-121912441D01*
X65111000Y-122087559D01*
X65145164Y-122259312D01*
X65212179Y-122421099D01*
X65309469Y-122566704D01*
X65433296Y-122690531D01*
X65578901Y-122787821D01*
X65740688Y-122854836D01*
X65912441Y-122889000D01*
X66087559Y-122889000D01*
X66259312Y-122854836D01*
X66421099Y-122787821D01*
X66500000Y-122735101D01*
X66578901Y-122787821D01*
X66740688Y-122854836D01*
X66912441Y-122889000D01*
X67087559Y-122889000D01*
X67259312Y-122854836D01*
X67421099Y-122787821D01*
X67566704Y-122690531D01*
X67690531Y-122566704D01*
X67787821Y-122421099D01*
X67854836Y-122259312D01*
X67889000Y-122087559D01*
X67889000Y-121912441D01*
X67854836Y-121740688D01*
X67787821Y-121578901D01*
X67735101Y-121500000D01*
X67787821Y-121421099D01*
X67854836Y-121259312D01*
X67889000Y-121087559D01*
X67889000Y-120912441D01*
X67854836Y-120740688D01*
X67787821Y-120578901D01*
X67690531Y-120433296D01*
X67566704Y-120309469D01*
X67421099Y-120212179D01*
X67259312Y-120145164D01*
X67087559Y-120111000D01*
X66912441Y-120111000D01*
X66740688Y-120145164D01*
X66578901Y-120212179D01*
X66500000Y-120264899D01*
X66421099Y-120212179D01*
X66259312Y-120145164D01*
X66087559Y-120111000D01*
X65912441Y-120111000D01*
X65740688Y-120145164D01*
X65578901Y-120212179D01*
X65433296Y-120309469D01*
X65309469Y-120433296D01*
X65212179Y-120578901D01*
X65145164Y-120740688D01*
X65111000Y-120912441D01*
X50685000Y-120912441D01*
X50685000Y-114466441D01*
X55753000Y-114466441D01*
X55753000Y-114641559D01*
X55787164Y-114813312D01*
X55854179Y-114975099D01*
X55951469Y-115120704D01*
X56075296Y-115244531D01*
X56220901Y-115341821D01*
X56382688Y-115408836D01*
X56554441Y-115443000D01*
X56729559Y-115443000D01*
X56901312Y-115408836D01*
X57063099Y-115341821D01*
X57208704Y-115244531D01*
X57332531Y-115120704D01*
X57429821Y-114975099D01*
X57496836Y-114813312D01*
X57531000Y-114641559D01*
X57531000Y-114466441D01*
X57496836Y-114294688D01*
X57429821Y-114132901D01*
X57332531Y-113987296D01*
X57208704Y-113863469D01*
X57063099Y-113766179D01*
X56901312Y-113699164D01*
X56729559Y-113665000D01*
X56554441Y-113665000D01*
X56382688Y-113699164D01*
X56220901Y-113766179D01*
X56075296Y-113863469D01*
X55951469Y-113987296D01*
X55854179Y-114132901D01*
X55787164Y-114294688D01*
X55753000Y-114466441D01*
X50685000Y-114466441D01*
X50685000Y-108256441D01*
X57366000Y-108256441D01*
X57366000Y-108431559D01*
X57400164Y-108603312D01*
X57467179Y-108765099D01*
X57564469Y-108910704D01*
X57688296Y-109034531D01*
X57833901Y-109131821D01*
X57995688Y-109198836D01*
X58167441Y-109233000D01*
X58342559Y-109233000D01*
X58514312Y-109198836D01*
X58676099Y-109131821D01*
X58821704Y-109034531D01*
X58945531Y-108910704D01*
X59042821Y-108765099D01*
X59109836Y-108603312D01*
X59144000Y-108431559D01*
X59144000Y-108256441D01*
X59109836Y-108084688D01*
X59042821Y-107922901D01*
X58945531Y-107777296D01*
X58821704Y-107653469D01*
X58676099Y-107556179D01*
X58514312Y-107489164D01*
X58342559Y-107455000D01*
X58167441Y-107455000D01*
X57995688Y-107489164D01*
X57833901Y-107556179D01*
X57688296Y-107653469D01*
X57564469Y-107777296D01*
X57467179Y-107922901D01*
X57400164Y-108084688D01*
X57366000Y-108256441D01*
X50685000Y-108256441D01*
X50685000Y-105472114D01*
X50842188Y-105629302D01*
X51396601Y-105999748D01*
X52012632Y-106254917D01*
X52666607Y-106385000D01*
X53333393Y-106385000D01*
X53987368Y-106254917D01*
X54603399Y-105999748D01*
X54666716Y-105957441D01*
X61189000Y-105957441D01*
X61189000Y-106132559D01*
X61223164Y-106304312D01*
X61290179Y-106466099D01*
X61387469Y-106611704D01*
X61511296Y-106735531D01*
X61656901Y-106832821D01*
X61818688Y-106899836D01*
X61990441Y-106934000D01*
X62165559Y-106934000D01*
X62332000Y-106900893D01*
X62498441Y-106934000D01*
X62673559Y-106934000D01*
X62840000Y-106900893D01*
X63006441Y-106934000D01*
X63181559Y-106934000D01*
X63353312Y-106899836D01*
X63515099Y-106832821D01*
X63660704Y-106735531D01*
X63784531Y-106611704D01*
X63881821Y-106466099D01*
X63948836Y-106304312D01*
X63983000Y-106132559D01*
X63983000Y-105957441D01*
X63948836Y-105785688D01*
X63881821Y-105623901D01*
X63784531Y-105478296D01*
X63660704Y-105354469D01*
X63515099Y-105257179D01*
X63353312Y-105190164D01*
X63181559Y-105156000D01*
X63006441Y-105156000D01*
X62840000Y-105189107D01*
X62673559Y-105156000D01*
X62498441Y-105156000D01*
X62332000Y-105189107D01*
X62165559Y-105156000D01*
X61990441Y-105156000D01*
X61818688Y-105190164D01*
X61656901Y-105257179D01*
X61511296Y-105354469D01*
X61387469Y-105478296D01*
X61290179Y-105623901D01*
X61223164Y-105785688D01*
X61189000Y-105957441D01*
X54666716Y-105957441D01*
X55157812Y-105629302D01*
X55629302Y-105157812D01*
X55999748Y-104603399D01*
X56254917Y-103987368D01*
X56385000Y-103333393D01*
X56385000Y-102666607D01*
X56254917Y-102012632D01*
X55999748Y-101396601D01*
X55629302Y-100842188D01*
X55472114Y-100685000D01*
X66315000Y-100685000D01*
X66315001Y-107892403D01*
G04 #@! TA.AperFunction,Conductor*
D14*
G36*
X66315001Y-107892403D02*
G01*
X66261312Y-107870164D01*
X66089559Y-107836000D01*
X65914441Y-107836000D01*
X65742688Y-107870164D01*
X65580901Y-107937179D01*
X65435296Y-108034469D01*
X65311469Y-108158296D01*
X65214179Y-108303901D01*
X65147164Y-108465688D01*
X65113000Y-108637441D01*
X65113000Y-108812559D01*
X65147164Y-108984312D01*
X65214179Y-109146099D01*
X65311469Y-109291704D01*
X65435296Y-109415531D01*
X65580901Y-109512821D01*
X65742688Y-109579836D01*
X65914441Y-109614000D01*
X66089559Y-109614000D01*
X66261312Y-109579836D01*
X66423099Y-109512821D01*
X66568704Y-109415531D01*
X66692531Y-109291704D01*
X66789821Y-109146099D01*
X66856836Y-108984312D01*
X66891000Y-108812559D01*
X66891000Y-108677578D01*
X66966353Y-108685000D01*
X67000000Y-108688314D01*
X67033647Y-108685000D01*
X70998513Y-108685000D01*
X88685000Y-108771652D01*
X88685001Y-128358115D01*
X73034595Y-128315093D01*
X73000000Y-128311686D01*
X72933482Y-128318238D01*
X72867574Y-128324546D01*
X72866667Y-128324818D01*
X72865717Y-128324912D01*
X72801763Y-128344312D01*
X72738344Y-128363360D01*
X72737509Y-128363804D01*
X72736594Y-128364081D01*
X72677733Y-128395543D01*
X72619168Y-128426639D01*
X72618432Y-128427239D01*
X72617593Y-128427688D01*
X72566210Y-128469858D01*
X72514629Y-128511953D01*
X72514022Y-128512688D01*
X72513289Y-128513290D01*
X72471092Y-128564707D01*
X72428742Y-128616022D01*
X72428292Y-128616857D01*
X72427688Y-128617594D01*
X72396287Y-128676342D01*
X72364808Y-128734847D01*
X72364530Y-128735756D01*
X72364081Y-128736595D01*
X72344753Y-128800309D01*
X72325284Y-128863862D01*
X72325188Y-128864807D01*
X72324912Y-128865718D01*
X72318381Y-128932023D01*
X72311689Y-128998108D01*
X72315000Y-129032698D01*
X72315000Y-135382799D01*
X72252240Y-135382799D01*
X72080487Y-135416963D01*
X72034500Y-135436012D01*
X71988513Y-135416963D01*
X71816760Y-135382799D01*
X71641642Y-135382799D01*
X71469889Y-135416963D01*
X71411701Y-135441065D01*
X71353513Y-135416963D01*
X71181760Y-135382799D01*
X71006642Y-135382799D01*
X70834889Y-135416963D01*
X70673102Y-135483978D01*
X70527497Y-135581268D01*
X70403670Y-135705095D01*
X70306380Y-135850700D01*
X70239365Y-136012487D01*
X70205201Y-136184240D01*
X70205201Y-136359358D01*
X70239365Y-136531111D01*
X70306380Y-136692898D01*
X70403670Y-136838503D01*
X70527497Y-136962330D01*
X70673102Y-137059620D01*
X70834889Y-137126635D01*
X71006642Y-137160799D01*
X71181760Y-137160799D01*
X71353513Y-137126635D01*
X71411701Y-137102533D01*
X71469889Y-137126635D01*
X71641642Y-137160799D01*
X71816760Y-137160799D01*
X71988513Y-137126635D01*
X72034500Y-137107586D01*
X72080487Y-137126635D01*
X72252240Y-137160799D01*
X72315000Y-137160799D01*
X72315001Y-149315000D01*
X55472114Y-149315000D01*
X55629302Y-149157812D01*
X55975960Y-148639000D01*
X57782928Y-148639000D01*
X57795188Y-148763482D01*
X57831498Y-148883180D01*
X57890463Y-148993494D01*
X57969815Y-149090185D01*
X58066506Y-149169537D01*
X58176820Y-149228502D01*
X58296518Y-149264812D01*
X58421000Y-149277072D01*
X58985250Y-149274000D01*
X59144000Y-149115250D01*
X59144000Y-147841000D01*
X57944750Y-147841000D01*
X57786000Y-147999750D01*
X57782928Y-148639000D01*
X55975960Y-148639000D01*
X55999748Y-148603399D01*
X56254917Y-147987368D01*
X56385000Y-147333393D01*
X56385000Y-146789000D01*
X57782928Y-146789000D01*
X57786000Y-147428250D01*
X57944750Y-147587000D01*
X59144000Y-147587000D01*
X59144000Y-146312750D01*
X59398000Y-146312750D01*
X59398000Y-147587000D01*
X59418000Y-147587000D01*
X59418000Y-147841000D01*
X59398000Y-147841000D01*
X59398000Y-149115250D01*
X59556750Y-149274000D01*
X60121000Y-149277072D01*
X60245482Y-149264812D01*
X60365180Y-149228502D01*
X60475494Y-149169537D01*
X60572185Y-149090185D01*
X60651537Y-148993494D01*
X60710502Y-148883180D01*
X60721055Y-148848392D01*
X60941987Y-149029706D01*
X61199967Y-149167599D01*
X61479890Y-149252513D01*
X61771000Y-149281185D01*
X62062111Y-149252513D01*
X62342034Y-149167599D01*
X62600014Y-149029706D01*
X62826134Y-148844134D01*
X63011706Y-148618013D01*
X63149599Y-148360033D01*
X63234513Y-148080110D01*
X63256000Y-147861949D01*
X63256000Y-147566050D01*
X63234513Y-147347889D01*
X63149599Y-147067966D01*
X63011706Y-146809986D01*
X62826134Y-146583866D01*
X62600013Y-146398294D01*
X62342033Y-146260401D01*
X62062110Y-146175487D01*
X61771000Y-146146815D01*
X61479889Y-146175487D01*
X61199966Y-146260401D01*
X60941986Y-146398294D01*
X60721055Y-146579608D01*
X60710502Y-146544820D01*
X60651537Y-146434506D01*
X60572185Y-146337815D01*
X60475494Y-146258463D01*
X60365180Y-146199498D01*
X60245482Y-146163188D01*
X60121000Y-146150928D01*
X59556750Y-146154000D01*
X59398000Y-146312750D01*
X59144000Y-146312750D01*
X58985250Y-146154000D01*
X58421000Y-146150928D01*
X58296518Y-146163188D01*
X58176820Y-146199498D01*
X58066506Y-146258463D01*
X57969815Y-146337815D01*
X57890463Y-146434506D01*
X57831498Y-146544820D01*
X57795188Y-146664518D01*
X57782928Y-146789000D01*
X56385000Y-146789000D01*
X56385000Y-146666607D01*
X56254917Y-146012632D01*
X55999748Y-145396601D01*
X55673638Y-144908541D01*
X64351100Y-144908541D01*
X64351100Y-145083659D01*
X64385264Y-145255412D01*
X64452279Y-145417199D01*
X64549569Y-145562804D01*
X64673396Y-145686631D01*
X64819001Y-145783921D01*
X64855896Y-145799204D01*
X64871179Y-145836099D01*
X64965000Y-145976512D01*
X64965000Y-146044559D01*
X64999164Y-146216312D01*
X65066179Y-146378099D01*
X65163469Y-146523704D01*
X65287296Y-146647531D01*
X65432901Y-146744821D01*
X65594688Y-146811836D01*
X65766441Y-146846000D01*
X65941559Y-146846000D01*
X66113312Y-146811836D01*
X66275099Y-146744821D01*
X66420704Y-146647531D01*
X66544531Y-146523704D01*
X66641821Y-146378099D01*
X66708836Y-146216312D01*
X66743000Y-146044559D01*
X66743000Y-145869441D01*
X66708836Y-145697688D01*
X66641821Y-145535901D01*
X66548000Y-145395488D01*
X66548000Y-145327441D01*
X66513836Y-145155688D01*
X66446821Y-144993901D01*
X66349531Y-144848296D01*
X66225704Y-144724469D01*
X66080099Y-144627179D01*
X66043204Y-144611896D01*
X66027921Y-144575001D01*
X65930631Y-144429396D01*
X65806804Y-144305569D01*
X65661199Y-144208279D01*
X65499412Y-144141264D01*
X65327659Y-144107100D01*
X65152541Y-144107100D01*
X64980788Y-144141264D01*
X64819001Y-144208279D01*
X64673396Y-144305569D01*
X64549569Y-144429396D01*
X64452279Y-144575001D01*
X64385264Y-144736788D01*
X64351100Y-144908541D01*
X55673638Y-144908541D01*
X55629302Y-144842188D01*
X55157812Y-144370698D01*
X54603399Y-144000252D01*
X53987368Y-143745083D01*
X53333393Y-143615000D01*
X52666607Y-143615000D01*
X52012632Y-143745083D01*
X51396601Y-144000252D01*
X50842188Y-144370698D01*
X50685000Y-144527886D01*
X50685000Y-137085441D01*
X61049000Y-137085441D01*
X61049000Y-137260559D01*
X61083164Y-137432312D01*
X61150179Y-137594099D01*
X61247469Y-137739704D01*
X61371296Y-137863531D01*
X61516901Y-137960821D01*
X61678688Y-138027836D01*
X61850441Y-138062000D01*
X62025559Y-138062000D01*
X62197312Y-138027836D01*
X62359099Y-137960821D01*
X62504704Y-137863531D01*
X62628531Y-137739704D01*
X62725821Y-137594099D01*
X62792836Y-137432312D01*
X62827000Y-137260559D01*
X62827000Y-137085441D01*
X62792836Y-136913688D01*
X62725821Y-136751901D01*
X62628531Y-136606296D01*
X62504704Y-136482469D01*
X62359099Y-136385179D01*
X62197312Y-136318164D01*
X62025559Y-136284000D01*
X61850441Y-136284000D01*
X61678688Y-136318164D01*
X61516901Y-136385179D01*
X61371296Y-136482469D01*
X61247469Y-136606296D01*
X61150179Y-136751901D01*
X61083164Y-136913688D01*
X61049000Y-137085441D01*
X50685000Y-137085441D01*
X50685000Y-135879441D01*
X64795000Y-135879441D01*
X64795000Y-136054559D01*
X64829164Y-136226312D01*
X64896179Y-136388099D01*
X64993469Y-136533704D01*
X65117296Y-136657531D01*
X65262901Y-136754821D01*
X65424688Y-136821836D01*
X65596441Y-136856000D01*
X65771559Y-136856000D01*
X65943312Y-136821836D01*
X66002000Y-136797526D01*
X66060688Y-136821836D01*
X66232441Y-136856000D01*
X66407559Y-136856000D01*
X66579312Y-136821836D01*
X66741099Y-136754821D01*
X66886704Y-136657531D01*
X67010531Y-136533704D01*
X67107821Y-136388099D01*
X67174836Y-136226312D01*
X67209000Y-136054559D01*
X67209000Y-135879441D01*
X67174836Y-135707688D01*
X67107821Y-135545901D01*
X67010531Y-135400296D01*
X66886704Y-135276469D01*
X66741099Y-135179179D01*
X66579312Y-135112164D01*
X66407559Y-135078000D01*
X66232441Y-135078000D01*
X66060688Y-135112164D01*
X66002000Y-135136474D01*
X65943312Y-135112164D01*
X65771559Y-135078000D01*
X65596441Y-135078000D01*
X65424688Y-135112164D01*
X65262901Y-135179179D01*
X65117296Y-135276469D01*
X64993469Y-135400296D01*
X64896179Y-135545901D01*
X64829164Y-135707688D01*
X64795000Y-135879441D01*
X50685000Y-135879441D01*
X50685000Y-133262441D01*
X61722000Y-133262441D01*
X61722000Y-133437559D01*
X61756164Y-133609312D01*
X61823179Y-133771099D01*
X61920469Y-133916704D01*
X62044296Y-134040531D01*
X62189901Y-134137821D01*
X62351688Y-134204836D01*
X62523441Y-134239000D01*
X62698559Y-134239000D01*
X62870312Y-134204836D01*
X63032099Y-134137821D01*
X63177704Y-134040531D01*
X63301531Y-133916704D01*
X63398821Y-133771099D01*
X63465836Y-133609312D01*
X63500000Y-133437559D01*
X63500000Y-133262441D01*
X63465836Y-133090688D01*
X63398821Y-132928901D01*
X63301531Y-132783296D01*
X63177704Y-132659469D01*
X63032099Y-132562179D01*
X62870312Y-132495164D01*
X62698559Y-132461000D01*
X62523441Y-132461000D01*
X62351688Y-132495164D01*
X62189901Y-132562179D01*
X62044296Y-132659469D01*
X61920469Y-132783296D01*
X61823179Y-132928901D01*
X61756164Y-133090688D01*
X61722000Y-133262441D01*
X50685000Y-133262441D01*
X50685000Y-129592441D01*
X55588000Y-129592441D01*
X55588000Y-129767559D01*
X55622164Y-129939312D01*
X55689179Y-130101099D01*
X55786469Y-130246704D01*
X55910296Y-130370531D01*
X56055901Y-130467821D01*
X56217688Y-130534836D01*
X56389441Y-130569000D01*
X56564559Y-130569000D01*
X56736312Y-130534836D01*
X56898099Y-130467821D01*
X57043704Y-130370531D01*
X57167531Y-130246704D01*
X57264821Y-130101099D01*
X57331836Y-129939312D01*
X57366000Y-129767559D01*
X57366000Y-129592441D01*
X57331836Y-129420688D01*
X57264821Y-129258901D01*
X57167531Y-129113296D01*
X57043704Y-128989469D01*
X56898099Y-128892179D01*
X56736312Y-128825164D01*
X56564559Y-128791000D01*
X56389441Y-128791000D01*
X56217688Y-128825164D01*
X56055901Y-128892179D01*
X55910296Y-128989469D01*
X55786469Y-129113296D01*
X55689179Y-129258901D01*
X55622164Y-129420688D01*
X55588000Y-129592441D01*
X50685000Y-129592441D01*
X50685000Y-127687141D01*
X54953300Y-127687141D01*
X54953300Y-127862259D01*
X54987464Y-128034012D01*
X55054479Y-128195799D01*
X55151769Y-128341404D01*
X55275596Y-128465231D01*
X55421201Y-128562521D01*
X55582988Y-128629536D01*
X55754741Y-128663700D01*
X55929859Y-128663700D01*
X56096300Y-128630593D01*
X56262741Y-128663700D01*
X56437859Y-128663700D01*
X56504862Y-128650372D01*
X56563901Y-128689821D01*
X56725688Y-128756836D01*
X56897441Y-128791000D01*
X57072559Y-128791000D01*
X57244312Y-128756836D01*
X57406099Y-128689821D01*
X57551704Y-128592531D01*
X57675531Y-128468704D01*
X57772821Y-128323099D01*
X57839836Y-128161312D01*
X57874000Y-127989559D01*
X57874000Y-127814441D01*
X68034000Y-127814441D01*
X68034000Y-127989559D01*
X68068164Y-128161312D01*
X68135179Y-128323099D01*
X68232469Y-128468704D01*
X68356296Y-128592531D01*
X68501901Y-128689821D01*
X68663688Y-128756836D01*
X68835441Y-128791000D01*
X69010559Y-128791000D01*
X69182312Y-128756836D01*
X69344099Y-128689821D01*
X69489704Y-128592531D01*
X69613531Y-128468704D01*
X69710821Y-128323099D01*
X69777836Y-128161312D01*
X69812000Y-127989559D01*
X69812000Y-127814441D01*
X69777836Y-127642688D01*
X69710821Y-127480901D01*
X69613531Y-127335296D01*
X69489704Y-127211469D01*
X69344099Y-127114179D01*
X69182312Y-127047164D01*
X69010559Y-127013000D01*
X68835441Y-127013000D01*
X68663688Y-127047164D01*
X68501901Y-127114179D01*
X68356296Y-127211469D01*
X68232469Y-127335296D01*
X68135179Y-127480901D01*
X68068164Y-127642688D01*
X68034000Y-127814441D01*
X57874000Y-127814441D01*
X57839836Y-127642688D01*
X57772821Y-127480901D01*
X57675531Y-127335296D01*
X57551704Y-127211469D01*
X57406099Y-127114179D01*
X57244312Y-127047164D01*
X57072559Y-127013000D01*
X56897441Y-127013000D01*
X56830438Y-127026328D01*
X56771399Y-126986879D01*
X56609612Y-126919864D01*
X56437859Y-126885700D01*
X56262741Y-126885700D01*
X56096300Y-126918807D01*
X55929859Y-126885700D01*
X55754741Y-126885700D01*
X55582988Y-126919864D01*
X55421201Y-126986879D01*
X55275596Y-127084169D01*
X55151769Y-127207996D01*
X55054479Y-127353601D01*
X54987464Y-127515388D01*
X54953300Y-127687141D01*
X50685000Y-127687141D01*
X50685000Y-123089939D01*
X51168502Y-123089939D01*
X51168502Y-123265057D01*
X51202666Y-123436810D01*
X51269681Y-123598597D01*
X51366971Y-123744202D01*
X51490798Y-123868029D01*
X51636403Y-123965319D01*
X51646499Y-123969501D01*
X51650681Y-123979597D01*
X51747971Y-124125202D01*
X51871798Y-124249029D01*
X52017403Y-124346319D01*
X52036336Y-124354162D01*
X52044179Y-124373095D01*
X52141469Y-124518700D01*
X52265296Y-124642527D01*
X52410901Y-124739817D01*
X52572688Y-124806832D01*
X52744441Y-124840996D01*
X52919559Y-124840996D01*
X53091312Y-124806832D01*
X53253099Y-124739817D01*
X53398704Y-124642527D01*
X53522531Y-124518700D01*
X53619821Y-124373095D01*
X53686836Y-124211308D01*
X53721000Y-124039555D01*
X53721000Y-123864437D01*
X53686836Y-123692684D01*
X53619821Y-123530897D01*
X53522531Y-123385292D01*
X53398704Y-123261465D01*
X53253099Y-123164175D01*
X53234166Y-123156332D01*
X53226323Y-123137399D01*
X53129033Y-122991794D01*
X53005206Y-122867967D01*
X52859601Y-122770677D01*
X52849505Y-122766495D01*
X52845323Y-122756399D01*
X52821965Y-122721441D01*
X54864000Y-122721441D01*
X54864000Y-122896559D01*
X54898164Y-123068312D01*
X54965179Y-123230099D01*
X55062469Y-123375704D01*
X55186296Y-123499531D01*
X55331901Y-123596821D01*
X55378059Y-123615941D01*
X55397179Y-123662099D01*
X55494469Y-123807704D01*
X55618296Y-123931531D01*
X55763901Y-124028821D01*
X55818898Y-124051602D01*
X55841679Y-124106599D01*
X55938969Y-124252204D01*
X56062796Y-124376031D01*
X56208401Y-124473321D01*
X56370188Y-124540336D01*
X56541941Y-124574500D01*
X56717059Y-124574500D01*
X56888812Y-124540336D01*
X57050599Y-124473321D01*
X57196204Y-124376031D01*
X57320031Y-124252204D01*
X57417321Y-124106599D01*
X57484336Y-123944812D01*
X57518500Y-123773059D01*
X57518500Y-123597941D01*
X57484336Y-123426188D01*
X57417321Y-123264401D01*
X57320031Y-123118796D01*
X57196204Y-122994969D01*
X57050599Y-122897679D01*
X56995602Y-122874898D01*
X56972821Y-122819901D01*
X56875531Y-122674296D01*
X56751704Y-122550469D01*
X56606099Y-122453179D01*
X56559941Y-122434059D01*
X56540821Y-122387901D01*
X56443531Y-122242296D01*
X56319704Y-122118469D01*
X56174099Y-122021179D01*
X56012312Y-121954164D01*
X55840559Y-121920000D01*
X55665441Y-121920000D01*
X55493688Y-121954164D01*
X55331901Y-122021179D01*
X55186296Y-122118469D01*
X55062469Y-122242296D01*
X54965179Y-122387901D01*
X54898164Y-122549688D01*
X54864000Y-122721441D01*
X52821965Y-122721441D01*
X52748033Y-122610794D01*
X52624206Y-122486967D01*
X52478601Y-122389677D01*
X52316814Y-122322662D01*
X52145061Y-122288498D01*
X51969943Y-122288498D01*
X51798190Y-122322662D01*
X51636403Y-122389677D01*
X51490798Y-122486967D01*
X51366971Y-122610794D01*
X51269681Y-122756399D01*
X51202666Y-122918186D01*
X51168502Y-123089939D01*
X50685000Y-123089939D01*
X50685000Y-120912441D01*
X65111000Y-120912441D01*
X65111000Y-121087559D01*
X65145164Y-121259312D01*
X65212179Y-121421099D01*
X65264899Y-121500000D01*
X65212179Y-121578901D01*
X65145164Y-121740688D01*
X65111000Y-121912441D01*
X65111000Y-122087559D01*
X65145164Y-122259312D01*
X65212179Y-122421099D01*
X65309469Y-122566704D01*
X65433296Y-122690531D01*
X65578901Y-122787821D01*
X65740688Y-122854836D01*
X65912441Y-122889000D01*
X66087559Y-122889000D01*
X66259312Y-122854836D01*
X66421099Y-122787821D01*
X66500000Y-122735101D01*
X66578901Y-122787821D01*
X66740688Y-122854836D01*
X66912441Y-122889000D01*
X67087559Y-122889000D01*
X67259312Y-122854836D01*
X67421099Y-122787821D01*
X67566704Y-122690531D01*
X67690531Y-122566704D01*
X67787821Y-122421099D01*
X67854836Y-122259312D01*
X67889000Y-122087559D01*
X67889000Y-121912441D01*
X67854836Y-121740688D01*
X67787821Y-121578901D01*
X67735101Y-121500000D01*
X67787821Y-121421099D01*
X67854836Y-121259312D01*
X67889000Y-121087559D01*
X67889000Y-120912441D01*
X67854836Y-120740688D01*
X67787821Y-120578901D01*
X67690531Y-120433296D01*
X67566704Y-120309469D01*
X67421099Y-120212179D01*
X67259312Y-120145164D01*
X67087559Y-120111000D01*
X66912441Y-120111000D01*
X66740688Y-120145164D01*
X66578901Y-120212179D01*
X66500000Y-120264899D01*
X66421099Y-120212179D01*
X66259312Y-120145164D01*
X66087559Y-120111000D01*
X65912441Y-120111000D01*
X65740688Y-120145164D01*
X65578901Y-120212179D01*
X65433296Y-120309469D01*
X65309469Y-120433296D01*
X65212179Y-120578901D01*
X65145164Y-120740688D01*
X65111000Y-120912441D01*
X50685000Y-120912441D01*
X50685000Y-114466441D01*
X55753000Y-114466441D01*
X55753000Y-114641559D01*
X55787164Y-114813312D01*
X55854179Y-114975099D01*
X55951469Y-115120704D01*
X56075296Y-115244531D01*
X56220901Y-115341821D01*
X56382688Y-115408836D01*
X56554441Y-115443000D01*
X56729559Y-115443000D01*
X56901312Y-115408836D01*
X57063099Y-115341821D01*
X57208704Y-115244531D01*
X57332531Y-115120704D01*
X57429821Y-114975099D01*
X57496836Y-114813312D01*
X57531000Y-114641559D01*
X57531000Y-114466441D01*
X57496836Y-114294688D01*
X57429821Y-114132901D01*
X57332531Y-113987296D01*
X57208704Y-113863469D01*
X57063099Y-113766179D01*
X56901312Y-113699164D01*
X56729559Y-113665000D01*
X56554441Y-113665000D01*
X56382688Y-113699164D01*
X56220901Y-113766179D01*
X56075296Y-113863469D01*
X55951469Y-113987296D01*
X55854179Y-114132901D01*
X55787164Y-114294688D01*
X55753000Y-114466441D01*
X50685000Y-114466441D01*
X50685000Y-108256441D01*
X57366000Y-108256441D01*
X57366000Y-108431559D01*
X57400164Y-108603312D01*
X57467179Y-108765099D01*
X57564469Y-108910704D01*
X57688296Y-109034531D01*
X57833901Y-109131821D01*
X57995688Y-109198836D01*
X58167441Y-109233000D01*
X58342559Y-109233000D01*
X58514312Y-109198836D01*
X58676099Y-109131821D01*
X58821704Y-109034531D01*
X58945531Y-108910704D01*
X59042821Y-108765099D01*
X59109836Y-108603312D01*
X59144000Y-108431559D01*
X59144000Y-108256441D01*
X59109836Y-108084688D01*
X59042821Y-107922901D01*
X58945531Y-107777296D01*
X58821704Y-107653469D01*
X58676099Y-107556179D01*
X58514312Y-107489164D01*
X58342559Y-107455000D01*
X58167441Y-107455000D01*
X57995688Y-107489164D01*
X57833901Y-107556179D01*
X57688296Y-107653469D01*
X57564469Y-107777296D01*
X57467179Y-107922901D01*
X57400164Y-108084688D01*
X57366000Y-108256441D01*
X50685000Y-108256441D01*
X50685000Y-105472114D01*
X50842188Y-105629302D01*
X51396601Y-105999748D01*
X52012632Y-106254917D01*
X52666607Y-106385000D01*
X53333393Y-106385000D01*
X53987368Y-106254917D01*
X54603399Y-105999748D01*
X54666716Y-105957441D01*
X61189000Y-105957441D01*
X61189000Y-106132559D01*
X61223164Y-106304312D01*
X61290179Y-106466099D01*
X61387469Y-106611704D01*
X61511296Y-106735531D01*
X61656901Y-106832821D01*
X61818688Y-106899836D01*
X61990441Y-106934000D01*
X62165559Y-106934000D01*
X62332000Y-106900893D01*
X62498441Y-106934000D01*
X62673559Y-106934000D01*
X62840000Y-106900893D01*
X63006441Y-106934000D01*
X63181559Y-106934000D01*
X63353312Y-106899836D01*
X63515099Y-106832821D01*
X63660704Y-106735531D01*
X63784531Y-106611704D01*
X63881821Y-106466099D01*
X63948836Y-106304312D01*
X63983000Y-106132559D01*
X63983000Y-105957441D01*
X63948836Y-105785688D01*
X63881821Y-105623901D01*
X63784531Y-105478296D01*
X63660704Y-105354469D01*
X63515099Y-105257179D01*
X63353312Y-105190164D01*
X63181559Y-105156000D01*
X63006441Y-105156000D01*
X62840000Y-105189107D01*
X62673559Y-105156000D01*
X62498441Y-105156000D01*
X62332000Y-105189107D01*
X62165559Y-105156000D01*
X61990441Y-105156000D01*
X61818688Y-105190164D01*
X61656901Y-105257179D01*
X61511296Y-105354469D01*
X61387469Y-105478296D01*
X61290179Y-105623901D01*
X61223164Y-105785688D01*
X61189000Y-105957441D01*
X54666716Y-105957441D01*
X55157812Y-105629302D01*
X55629302Y-105157812D01*
X55999748Y-104603399D01*
X56254917Y-103987368D01*
X56385000Y-103333393D01*
X56385000Y-102666607D01*
X56254917Y-102012632D01*
X55999748Y-101396601D01*
X55629302Y-100842188D01*
X55472114Y-100685000D01*
X66315000Y-100685000D01*
X66315001Y-107892403D01*
G37*
G04 #@! TD.AperFunction*
M02*
