G04 #@! TF.GenerationSoftware,KiCad,Pcbnew,(5.1.9)-1*
G04 #@! TF.CreationDate,2021-02-02T20:04:29-05:00*
G04 #@! TF.ProjectId,ZeroPilot,5a65726f-5069-46c6-9f74-2e6b69636164,rev?*
G04 #@! TF.SameCoordinates,Original*
G04 #@! TF.FileFunction,Copper,L1,Top*
G04 #@! TF.FilePolarity,Positive*
%FSLAX46Y46*%
G04 Gerber Fmt 4.6, Leading zero omitted, Abs format (unit mm)*
G04 Created by KiCad (PCBNEW (5.1.9)-1) date 2021-02-02 20:04:29*
%MOMM*%
%LPD*%
G01*
G04 APERTURE LIST*
G04 #@! TA.AperFunction,SMDPad,CuDef*
%ADD10R,0.650000X2.000000*%
G04 #@! TD*
G04 #@! TA.AperFunction,SMDPad,CuDef*
%ADD11R,2.000000X0.650000*%
G04 #@! TD*
G04 #@! TA.AperFunction,SMDPad,CuDef*
%ADD12R,2.000000X1.500000*%
G04 #@! TD*
G04 #@! TA.AperFunction,SMDPad,CuDef*
%ADD13R,2.000000X3.800000*%
G04 #@! TD*
G04 #@! TA.AperFunction,ComponentPad*
%ADD14O,1.700000X1.850000*%
G04 #@! TD*
G04 #@! TA.AperFunction,SMDPad,CuDef*
%ADD15R,0.700000X0.510000*%
G04 #@! TD*
G04 #@! TA.AperFunction,SMDPad,CuDef*
%ADD16R,1.550000X5.600000*%
G04 #@! TD*
G04 #@! TA.AperFunction,SMDPad,CuDef*
%ADD17R,1.550000X5.599999*%
G04 #@! TD*
G04 #@! TA.AperFunction,ComponentPad*
%ADD18C,5.500000*%
G04 #@! TD*
G04 #@! TA.AperFunction,SMDPad,CuDef*
%ADD19R,1.220000X0.400000*%
G04 #@! TD*
G04 #@! TA.AperFunction,ViaPad*
%ADD20C,0.508000*%
G04 #@! TD*
G04 #@! TA.AperFunction,Conductor*
%ADD21C,0.635000*%
G04 #@! TD*
G04 #@! TA.AperFunction,Conductor*
%ADD22C,0.203200*%
G04 #@! TD*
G04 #@! TA.AperFunction,Conductor*
%ADD23C,0.300000*%
G04 #@! TD*
G04 APERTURE END LIST*
D10*
X54638000Y-131018000D03*
X55588000Y-131018000D03*
X56538000Y-131018000D03*
X56538000Y-134438000D03*
X55588000Y-134438000D03*
X54638000Y-134438000D03*
D11*
X55821000Y-111313000D03*
X55821000Y-110363000D03*
X55821000Y-109413000D03*
X59241000Y-109413000D03*
X59241000Y-110363000D03*
X59241000Y-111313000D03*
D12*
X64757000Y-138175000D03*
X64757000Y-142775000D03*
X64757000Y-140475000D03*
D13*
X71057000Y-140475000D03*
D14*
X61771000Y-147714000D03*
G04 #@! TA.AperFunction,ComponentPad*
G36*
G01*
X58421000Y-148389000D02*
X58421000Y-147039000D01*
G75*
G02*
X58671000Y-146789000I250000J0D01*
G01*
X59871000Y-146789000D01*
G75*
G02*
X60121000Y-147039000I0J-250000D01*
G01*
X60121000Y-148389000D01*
G75*
G02*
X59871000Y-148639000I-250000J0D01*
G01*
X58671000Y-148639000D01*
G75*
G02*
X58421000Y-148389000I0J250000D01*
G01*
G37*
G04 #@! TD.AperFunction*
G04 #@! TA.AperFunction,SMDPad,CuDef*
G36*
G01*
X56587500Y-119932000D02*
X56112500Y-119932000D01*
G75*
G02*
X55875000Y-119694500I0J237500D01*
G01*
X55875000Y-119119500D01*
G75*
G02*
X56112500Y-118882000I237500J0D01*
G01*
X56587500Y-118882000D01*
G75*
G02*
X56825000Y-119119500I0J-237500D01*
G01*
X56825000Y-119694500D01*
G75*
G02*
X56587500Y-119932000I-237500J0D01*
G01*
G37*
G04 #@! TD.AperFunction*
G04 #@! TA.AperFunction,SMDPad,CuDef*
G36*
G01*
X56587500Y-121682000D02*
X56112500Y-121682000D01*
G75*
G02*
X55875000Y-121444500I0J237500D01*
G01*
X55875000Y-120869500D01*
G75*
G02*
X56112500Y-120632000I237500J0D01*
G01*
X56587500Y-120632000D01*
G75*
G02*
X56825000Y-120869500I0J-237500D01*
G01*
X56825000Y-121444500D01*
G75*
G02*
X56587500Y-121682000I-237500J0D01*
G01*
G37*
G04 #@! TD.AperFunction*
G04 #@! TA.AperFunction,SMDPad,CuDef*
G36*
G01*
X69311000Y-130920500D02*
X69311000Y-130445500D01*
G75*
G02*
X69548500Y-130208000I237500J0D01*
G01*
X70123500Y-130208000D01*
G75*
G02*
X70361000Y-130445500I0J-237500D01*
G01*
X70361000Y-130920500D01*
G75*
G02*
X70123500Y-131158000I-237500J0D01*
G01*
X69548500Y-131158000D01*
G75*
G02*
X69311000Y-130920500I0J237500D01*
G01*
G37*
G04 #@! TD.AperFunction*
G04 #@! TA.AperFunction,SMDPad,CuDef*
G36*
G01*
X67561000Y-130920500D02*
X67561000Y-130445500D01*
G75*
G02*
X67798500Y-130208000I237500J0D01*
G01*
X68373500Y-130208000D01*
G75*
G02*
X68611000Y-130445500I0J-237500D01*
G01*
X68611000Y-130920500D01*
G75*
G02*
X68373500Y-131158000I-237500J0D01*
G01*
X67798500Y-131158000D01*
G75*
G02*
X67561000Y-130920500I0J237500D01*
G01*
G37*
G04 #@! TD.AperFunction*
D15*
X68724000Y-149032000D03*
X68724000Y-148082000D03*
X68724000Y-147132000D03*
X66404000Y-147132000D03*
X66404000Y-148082000D03*
X66404000Y-149032000D03*
G04 #@! TA.AperFunction,SMDPad,CuDef*
G36*
G01*
X58149500Y-119919000D02*
X57674500Y-119919000D01*
G75*
G02*
X57437000Y-119681500I0J237500D01*
G01*
X57437000Y-119106500D01*
G75*
G02*
X57674500Y-118869000I237500J0D01*
G01*
X58149500Y-118869000D01*
G75*
G02*
X58387000Y-119106500I0J-237500D01*
G01*
X58387000Y-119681500D01*
G75*
G02*
X58149500Y-119919000I-237500J0D01*
G01*
G37*
G04 #@! TD.AperFunction*
G04 #@! TA.AperFunction,SMDPad,CuDef*
G36*
G01*
X58149500Y-121669000D02*
X57674500Y-121669000D01*
G75*
G02*
X57437000Y-121431500I0J237500D01*
G01*
X57437000Y-120856500D01*
G75*
G02*
X57674500Y-120619000I237500J0D01*
G01*
X58149500Y-120619000D01*
G75*
G02*
X58387000Y-120856500I0J-237500D01*
G01*
X58387000Y-121431500D01*
G75*
G02*
X58149500Y-121669000I-237500J0D01*
G01*
G37*
G04 #@! TD.AperFunction*
G04 #@! TA.AperFunction,SMDPad,CuDef*
G36*
G01*
X59071500Y-119476000D02*
X59546500Y-119476000D01*
G75*
G02*
X59784000Y-119713500I0J-237500D01*
G01*
X59784000Y-120288500D01*
G75*
G02*
X59546500Y-120526000I-237500J0D01*
G01*
X59071500Y-120526000D01*
G75*
G02*
X58834000Y-120288500I0J237500D01*
G01*
X58834000Y-119713500D01*
G75*
G02*
X59071500Y-119476000I237500J0D01*
G01*
G37*
G04 #@! TD.AperFunction*
G04 #@! TA.AperFunction,SMDPad,CuDef*
G36*
G01*
X59071500Y-117726000D02*
X59546500Y-117726000D01*
G75*
G02*
X59784000Y-117963500I0J-237500D01*
G01*
X59784000Y-118538500D01*
G75*
G02*
X59546500Y-118776000I-237500J0D01*
G01*
X59071500Y-118776000D01*
G75*
G02*
X58834000Y-118538500I0J237500D01*
G01*
X58834000Y-117963500D01*
G75*
G02*
X59071500Y-117726000I237500J0D01*
G01*
G37*
G04 #@! TD.AperFunction*
G04 #@! TA.AperFunction,SMDPad,CuDef*
G36*
G01*
X68549000Y-132444500D02*
X68549000Y-131969500D01*
G75*
G02*
X68786500Y-131732000I237500J0D01*
G01*
X69361500Y-131732000D01*
G75*
G02*
X69599000Y-131969500I0J-237500D01*
G01*
X69599000Y-132444500D01*
G75*
G02*
X69361500Y-132682000I-237500J0D01*
G01*
X68786500Y-132682000D01*
G75*
G02*
X68549000Y-132444500I0J237500D01*
G01*
G37*
G04 #@! TD.AperFunction*
G04 #@! TA.AperFunction,SMDPad,CuDef*
G36*
G01*
X66799000Y-132444500D02*
X66799000Y-131969500D01*
G75*
G02*
X67036500Y-131732000I237500J0D01*
G01*
X67611500Y-131732000D01*
G75*
G02*
X67849000Y-131969500I0J-237500D01*
G01*
X67849000Y-132444500D01*
G75*
G02*
X67611500Y-132682000I-237500J0D01*
G01*
X67036500Y-132682000D01*
G75*
G02*
X66799000Y-132444500I0J237500D01*
G01*
G37*
G04 #@! TD.AperFunction*
G04 #@! TA.AperFunction,SMDPad,CuDef*
G36*
G01*
X65690000Y-128413500D02*
X65690000Y-128888500D01*
G75*
G02*
X65452500Y-129126000I-237500J0D01*
G01*
X64877500Y-129126000D01*
G75*
G02*
X64640000Y-128888500I0J237500D01*
G01*
X64640000Y-128413500D01*
G75*
G02*
X64877500Y-128176000I237500J0D01*
G01*
X65452500Y-128176000D01*
G75*
G02*
X65690000Y-128413500I0J-237500D01*
G01*
G37*
G04 #@! TD.AperFunction*
G04 #@! TA.AperFunction,SMDPad,CuDef*
G36*
G01*
X67440000Y-128413500D02*
X67440000Y-128888500D01*
G75*
G02*
X67202500Y-129126000I-237500J0D01*
G01*
X66627500Y-129126000D01*
G75*
G02*
X66390000Y-128888500I0J237500D01*
G01*
X66390000Y-128413500D01*
G75*
G02*
X66627500Y-128176000I237500J0D01*
G01*
X67202500Y-128176000D01*
G75*
G02*
X67440000Y-128413500I0J-237500D01*
G01*
G37*
G04 #@! TD.AperFunction*
G04 #@! TA.AperFunction,SMDPad,CuDef*
G36*
G01*
X52736000Y-125365500D02*
X52736000Y-125840500D01*
G75*
G02*
X52498500Y-126078000I-237500J0D01*
G01*
X51923500Y-126078000D01*
G75*
G02*
X51686000Y-125840500I0J237500D01*
G01*
X51686000Y-125365500D01*
G75*
G02*
X51923500Y-125128000I237500J0D01*
G01*
X52498500Y-125128000D01*
G75*
G02*
X52736000Y-125365500I0J-237500D01*
G01*
G37*
G04 #@! TD.AperFunction*
G04 #@! TA.AperFunction,SMDPad,CuDef*
G36*
G01*
X54486000Y-125365500D02*
X54486000Y-125840500D01*
G75*
G02*
X54248500Y-126078000I-237500J0D01*
G01*
X53673500Y-126078000D01*
G75*
G02*
X53436000Y-125840500I0J237500D01*
G01*
X53436000Y-125365500D01*
G75*
G02*
X53673500Y-125128000I237500J0D01*
G01*
X54248500Y-125128000D01*
G75*
G02*
X54486000Y-125365500I0J-237500D01*
G01*
G37*
G04 #@! TD.AperFunction*
G04 #@! TA.AperFunction,SMDPad,CuDef*
G36*
G01*
X52736000Y-117618500D02*
X52736000Y-118093500D01*
G75*
G02*
X52498500Y-118331000I-237500J0D01*
G01*
X51923500Y-118331000D01*
G75*
G02*
X51686000Y-118093500I0J237500D01*
G01*
X51686000Y-117618500D01*
G75*
G02*
X51923500Y-117381000I237500J0D01*
G01*
X52498500Y-117381000D01*
G75*
G02*
X52736000Y-117618500I0J-237500D01*
G01*
G37*
G04 #@! TD.AperFunction*
G04 #@! TA.AperFunction,SMDPad,CuDef*
G36*
G01*
X54486000Y-117618500D02*
X54486000Y-118093500D01*
G75*
G02*
X54248500Y-118331000I-237500J0D01*
G01*
X53673500Y-118331000D01*
G75*
G02*
X53436000Y-118093500I0J237500D01*
G01*
X53436000Y-117618500D01*
G75*
G02*
X53673500Y-117381000I237500J0D01*
G01*
X54248500Y-117381000D01*
G75*
G02*
X54486000Y-117618500I0J-237500D01*
G01*
G37*
G04 #@! TD.AperFunction*
G04 #@! TA.AperFunction,SMDPad,CuDef*
G36*
G01*
X52736000Y-121555500D02*
X52736000Y-122030500D01*
G75*
G02*
X52498500Y-122268000I-237500J0D01*
G01*
X51923500Y-122268000D01*
G75*
G02*
X51686000Y-122030500I0J237500D01*
G01*
X51686000Y-121555500D01*
G75*
G02*
X51923500Y-121318000I237500J0D01*
G01*
X52498500Y-121318000D01*
G75*
G02*
X52736000Y-121555500I0J-237500D01*
G01*
G37*
G04 #@! TD.AperFunction*
G04 #@! TA.AperFunction,SMDPad,CuDef*
G36*
G01*
X54486000Y-121555500D02*
X54486000Y-122030500D01*
G75*
G02*
X54248500Y-122268000I-237500J0D01*
G01*
X53673500Y-122268000D01*
G75*
G02*
X53436000Y-122030500I0J237500D01*
G01*
X53436000Y-121555500D01*
G75*
G02*
X53673500Y-121318000I237500J0D01*
G01*
X54248500Y-121318000D01*
G75*
G02*
X54486000Y-121555500I0J-237500D01*
G01*
G37*
G04 #@! TD.AperFunction*
G04 #@! TA.AperFunction,SMDPad,CuDef*
G36*
G01*
X61832500Y-133000000D02*
X61357500Y-133000000D01*
G75*
G02*
X61120000Y-132762500I0J237500D01*
G01*
X61120000Y-132187500D01*
G75*
G02*
X61357500Y-131950000I237500J0D01*
G01*
X61832500Y-131950000D01*
G75*
G02*
X62070000Y-132187500I0J-237500D01*
G01*
X62070000Y-132762500D01*
G75*
G02*
X61832500Y-133000000I-237500J0D01*
G01*
G37*
G04 #@! TD.AperFunction*
G04 #@! TA.AperFunction,SMDPad,CuDef*
G36*
G01*
X61832500Y-134750000D02*
X61357500Y-134750000D01*
G75*
G02*
X61120000Y-134512500I0J237500D01*
G01*
X61120000Y-133937500D01*
G75*
G02*
X61357500Y-133700000I237500J0D01*
G01*
X61832500Y-133700000D01*
G75*
G02*
X62070000Y-133937500I0J-237500D01*
G01*
X62070000Y-134512500D01*
G75*
G02*
X61832500Y-134750000I-237500J0D01*
G01*
G37*
G04 #@! TD.AperFunction*
G04 #@! TA.AperFunction,SMDPad,CuDef*
G36*
G01*
X56827000Y-106549500D02*
X56827000Y-106074500D01*
G75*
G02*
X57064500Y-105837000I237500J0D01*
G01*
X57639500Y-105837000D01*
G75*
G02*
X57877000Y-106074500I0J-237500D01*
G01*
X57877000Y-106549500D01*
G75*
G02*
X57639500Y-106787000I-237500J0D01*
G01*
X57064500Y-106787000D01*
G75*
G02*
X56827000Y-106549500I0J237500D01*
G01*
G37*
G04 #@! TD.AperFunction*
G04 #@! TA.AperFunction,SMDPad,CuDef*
G36*
G01*
X55077000Y-106549500D02*
X55077000Y-106074500D01*
G75*
G02*
X55314500Y-105837000I237500J0D01*
G01*
X55889500Y-105837000D01*
G75*
G02*
X56127000Y-106074500I0J-237500D01*
G01*
X56127000Y-106549500D01*
G75*
G02*
X55889500Y-106787000I-237500J0D01*
G01*
X55314500Y-106787000D01*
G75*
G02*
X55077000Y-106549500I0J237500D01*
G01*
G37*
G04 #@! TD.AperFunction*
G04 #@! TA.AperFunction,SMDPad,CuDef*
G36*
G01*
X56165000Y-107585500D02*
X56165000Y-108060500D01*
G75*
G02*
X55927500Y-108298000I-237500J0D01*
G01*
X55352500Y-108298000D01*
G75*
G02*
X55115000Y-108060500I0J237500D01*
G01*
X55115000Y-107585500D01*
G75*
G02*
X55352500Y-107348000I237500J0D01*
G01*
X55927500Y-107348000D01*
G75*
G02*
X56165000Y-107585500I0J-237500D01*
G01*
G37*
G04 #@! TD.AperFunction*
G04 #@! TA.AperFunction,SMDPad,CuDef*
G36*
G01*
X57915000Y-107585500D02*
X57915000Y-108060500D01*
G75*
G02*
X57677500Y-108298000I-237500J0D01*
G01*
X57102500Y-108298000D01*
G75*
G02*
X56865000Y-108060500I0J237500D01*
G01*
X56865000Y-107585500D01*
G75*
G02*
X57102500Y-107348000I237500J0D01*
G01*
X57677500Y-107348000D01*
G75*
G02*
X57915000Y-107585500I0J-237500D01*
G01*
G37*
G04 #@! TD.AperFunction*
G04 #@! TA.AperFunction,SMDPad,CuDef*
G36*
G01*
X52228000Y-128680500D02*
X52228000Y-129155500D01*
G75*
G02*
X51990500Y-129393000I-237500J0D01*
G01*
X51415500Y-129393000D01*
G75*
G02*
X51178000Y-129155500I0J237500D01*
G01*
X51178000Y-128680500D01*
G75*
G02*
X51415500Y-128443000I237500J0D01*
G01*
X51990500Y-128443000D01*
G75*
G02*
X52228000Y-128680500I0J-237500D01*
G01*
G37*
G04 #@! TD.AperFunction*
G04 #@! TA.AperFunction,SMDPad,CuDef*
G36*
G01*
X53978000Y-128680500D02*
X53978000Y-129155500D01*
G75*
G02*
X53740500Y-129393000I-237500J0D01*
G01*
X53165500Y-129393000D01*
G75*
G02*
X52928000Y-129155500I0J237500D01*
G01*
X52928000Y-128680500D01*
G75*
G02*
X53165500Y-128443000I237500J0D01*
G01*
X53740500Y-128443000D01*
G75*
G02*
X53978000Y-128680500I0J-237500D01*
G01*
G37*
G04 #@! TD.AperFunction*
G04 #@! TA.AperFunction,SMDPad,CuDef*
G36*
G01*
X56208000Y-128680500D02*
X56208000Y-129155500D01*
G75*
G02*
X55970500Y-129393000I-237500J0D01*
G01*
X55395500Y-129393000D01*
G75*
G02*
X55158000Y-129155500I0J237500D01*
G01*
X55158000Y-128680500D01*
G75*
G02*
X55395500Y-128443000I237500J0D01*
G01*
X55970500Y-128443000D01*
G75*
G02*
X56208000Y-128680500I0J-237500D01*
G01*
G37*
G04 #@! TD.AperFunction*
G04 #@! TA.AperFunction,SMDPad,CuDef*
G36*
G01*
X57958000Y-128680500D02*
X57958000Y-129155500D01*
G75*
G02*
X57720500Y-129393000I-237500J0D01*
G01*
X57145500Y-129393000D01*
G75*
G02*
X56908000Y-129155500I0J237500D01*
G01*
X56908000Y-128680500D01*
G75*
G02*
X57145500Y-128443000I237500J0D01*
G01*
X57720500Y-128443000D01*
G75*
G02*
X57958000Y-128680500I0J-237500D01*
G01*
G37*
G04 #@! TD.AperFunction*
G04 #@! TA.AperFunction,SMDPad,CuDef*
G36*
G01*
X54047500Y-110407000D02*
X53572500Y-110407000D01*
G75*
G02*
X53335000Y-110169500I0J237500D01*
G01*
X53335000Y-109594500D01*
G75*
G02*
X53572500Y-109357000I237500J0D01*
G01*
X54047500Y-109357000D01*
G75*
G02*
X54285000Y-109594500I0J-237500D01*
G01*
X54285000Y-110169500D01*
G75*
G02*
X54047500Y-110407000I-237500J0D01*
G01*
G37*
G04 #@! TD.AperFunction*
G04 #@! TA.AperFunction,SMDPad,CuDef*
G36*
G01*
X54047500Y-112157000D02*
X53572500Y-112157000D01*
G75*
G02*
X53335000Y-111919500I0J237500D01*
G01*
X53335000Y-111344500D01*
G75*
G02*
X53572500Y-111107000I237500J0D01*
G01*
X54047500Y-111107000D01*
G75*
G02*
X54285000Y-111344500I0J-237500D01*
G01*
X54285000Y-111919500D01*
G75*
G02*
X54047500Y-112157000I-237500J0D01*
G01*
G37*
G04 #@! TD.AperFunction*
G04 #@! TA.AperFunction,SMDPad,CuDef*
G36*
G01*
X53879000Y-113300500D02*
X53879000Y-113775500D01*
G75*
G02*
X53641500Y-114013000I-237500J0D01*
G01*
X53066500Y-114013000D01*
G75*
G02*
X52829000Y-113775500I0J237500D01*
G01*
X52829000Y-113300500D01*
G75*
G02*
X53066500Y-113063000I237500J0D01*
G01*
X53641500Y-113063000D01*
G75*
G02*
X53879000Y-113300500I0J-237500D01*
G01*
G37*
G04 #@! TD.AperFunction*
G04 #@! TA.AperFunction,SMDPad,CuDef*
G36*
G01*
X55629000Y-113300500D02*
X55629000Y-113775500D01*
G75*
G02*
X55391500Y-114013000I-237500J0D01*
G01*
X54816500Y-114013000D01*
G75*
G02*
X54579000Y-113775500I0J237500D01*
G01*
X54579000Y-113300500D01*
G75*
G02*
X54816500Y-113063000I237500J0D01*
G01*
X55391500Y-113063000D01*
G75*
G02*
X55629000Y-113300500I0J-237500D01*
G01*
G37*
G04 #@! TD.AperFunction*
G04 #@! TA.AperFunction,SMDPad,CuDef*
G36*
G01*
X71352500Y-146286000D02*
X71827500Y-146286000D01*
G75*
G02*
X72065000Y-146523500I0J-237500D01*
G01*
X72065000Y-147098500D01*
G75*
G02*
X71827500Y-147336000I-237500J0D01*
G01*
X71352500Y-147336000D01*
G75*
G02*
X71115000Y-147098500I0J237500D01*
G01*
X71115000Y-146523500D01*
G75*
G02*
X71352500Y-146286000I237500J0D01*
G01*
G37*
G04 #@! TD.AperFunction*
G04 #@! TA.AperFunction,SMDPad,CuDef*
G36*
G01*
X71352500Y-144536000D02*
X71827500Y-144536000D01*
G75*
G02*
X72065000Y-144773500I0J-237500D01*
G01*
X72065000Y-145348500D01*
G75*
G02*
X71827500Y-145586000I-237500J0D01*
G01*
X71352500Y-145586000D01*
G75*
G02*
X71115000Y-145348500I0J237500D01*
G01*
X71115000Y-144773500D01*
G75*
G02*
X71352500Y-144536000I237500J0D01*
G01*
G37*
G04 #@! TD.AperFunction*
G04 #@! TA.AperFunction,SMDPad,CuDef*
G36*
G01*
X68700000Y-144809500D02*
X68700000Y-145284500D01*
G75*
G02*
X68462500Y-145522000I-237500J0D01*
G01*
X67887500Y-145522000D01*
G75*
G02*
X67650000Y-145284500I0J237500D01*
G01*
X67650000Y-144809500D01*
G75*
G02*
X67887500Y-144572000I237500J0D01*
G01*
X68462500Y-144572000D01*
G75*
G02*
X68700000Y-144809500I0J-237500D01*
G01*
G37*
G04 #@! TD.AperFunction*
G04 #@! TA.AperFunction,SMDPad,CuDef*
G36*
G01*
X70450000Y-144809500D02*
X70450000Y-145284500D01*
G75*
G02*
X70212500Y-145522000I-237500J0D01*
G01*
X69637500Y-145522000D01*
G75*
G02*
X69400000Y-145284500I0J237500D01*
G01*
X69400000Y-144809500D01*
G75*
G02*
X69637500Y-144572000I237500J0D01*
G01*
X70212500Y-144572000D01*
G75*
G02*
X70450000Y-144809500I0J-237500D01*
G01*
G37*
G04 #@! TD.AperFunction*
G04 #@! TA.AperFunction,SMDPad,CuDef*
G36*
G01*
X66526500Y-118600000D02*
X67001500Y-118600000D01*
G75*
G02*
X67239000Y-118837500I0J-237500D01*
G01*
X67239000Y-119412500D01*
G75*
G02*
X67001500Y-119650000I-237500J0D01*
G01*
X66526500Y-119650000D01*
G75*
G02*
X66289000Y-119412500I0J237500D01*
G01*
X66289000Y-118837500D01*
G75*
G02*
X66526500Y-118600000I237500J0D01*
G01*
G37*
G04 #@! TD.AperFunction*
G04 #@! TA.AperFunction,SMDPad,CuDef*
G36*
G01*
X66526500Y-116850000D02*
X67001500Y-116850000D01*
G75*
G02*
X67239000Y-117087500I0J-237500D01*
G01*
X67239000Y-117662500D01*
G75*
G02*
X67001500Y-117900000I-237500J0D01*
G01*
X66526500Y-117900000D01*
G75*
G02*
X66289000Y-117662500I0J237500D01*
G01*
X66289000Y-117087500D01*
G75*
G02*
X66526500Y-116850000I237500J0D01*
G01*
G37*
G04 #@! TD.AperFunction*
G04 #@! TA.AperFunction,SMDPad,CuDef*
G36*
G01*
X62462500Y-140571000D02*
X62937500Y-140571000D01*
G75*
G02*
X63175000Y-140808500I0J-237500D01*
G01*
X63175000Y-141383500D01*
G75*
G02*
X62937500Y-141621000I-237500J0D01*
G01*
X62462500Y-141621000D01*
G75*
G02*
X62225000Y-141383500I0J237500D01*
G01*
X62225000Y-140808500D01*
G75*
G02*
X62462500Y-140571000I237500J0D01*
G01*
G37*
G04 #@! TD.AperFunction*
G04 #@! TA.AperFunction,SMDPad,CuDef*
G36*
G01*
X62462500Y-138821000D02*
X62937500Y-138821000D01*
G75*
G02*
X63175000Y-139058500I0J-237500D01*
G01*
X63175000Y-139633500D01*
G75*
G02*
X62937500Y-139871000I-237500J0D01*
G01*
X62462500Y-139871000D01*
G75*
G02*
X62225000Y-139633500I0J237500D01*
G01*
X62225000Y-139058500D01*
G75*
G02*
X62462500Y-138821000I237500J0D01*
G01*
G37*
G04 #@! TD.AperFunction*
G04 #@! TA.AperFunction,SMDPad,CuDef*
G36*
G01*
X60256000Y-139061500D02*
X60256000Y-138586500D01*
G75*
G02*
X60493500Y-138349000I237500J0D01*
G01*
X61068500Y-138349000D01*
G75*
G02*
X61306000Y-138586500I0J-237500D01*
G01*
X61306000Y-139061500D01*
G75*
G02*
X61068500Y-139299000I-237500J0D01*
G01*
X60493500Y-139299000D01*
G75*
G02*
X60256000Y-139061500I0J237500D01*
G01*
G37*
G04 #@! TD.AperFunction*
G04 #@! TA.AperFunction,SMDPad,CuDef*
G36*
G01*
X58506000Y-139061500D02*
X58506000Y-138586500D01*
G75*
G02*
X58743500Y-138349000I237500J0D01*
G01*
X59318500Y-138349000D01*
G75*
G02*
X59556000Y-138586500I0J-237500D01*
G01*
X59556000Y-139061500D01*
G75*
G02*
X59318500Y-139299000I-237500J0D01*
G01*
X58743500Y-139299000D01*
G75*
G02*
X58506000Y-139061500I0J237500D01*
G01*
G37*
G04 #@! TD.AperFunction*
G04 #@! TA.AperFunction,SMDPad,CuDef*
G36*
G01*
X60256000Y-140585500D02*
X60256000Y-140110500D01*
G75*
G02*
X60493500Y-139873000I237500J0D01*
G01*
X61068500Y-139873000D01*
G75*
G02*
X61306000Y-140110500I0J-237500D01*
G01*
X61306000Y-140585500D01*
G75*
G02*
X61068500Y-140823000I-237500J0D01*
G01*
X60493500Y-140823000D01*
G75*
G02*
X60256000Y-140585500I0J237500D01*
G01*
G37*
G04 #@! TD.AperFunction*
G04 #@! TA.AperFunction,SMDPad,CuDef*
G36*
G01*
X58506000Y-140585500D02*
X58506000Y-140110500D01*
G75*
G02*
X58743500Y-139873000I237500J0D01*
G01*
X59318500Y-139873000D01*
G75*
G02*
X59556000Y-140110500I0J-237500D01*
G01*
X59556000Y-140585500D01*
G75*
G02*
X59318500Y-140823000I-237500J0D01*
G01*
X58743500Y-140823000D01*
G75*
G02*
X58506000Y-140585500I0J237500D01*
G01*
G37*
G04 #@! TD.AperFunction*
G04 #@! TA.AperFunction,SMDPad,CuDef*
G36*
G01*
X65002500Y-118600000D02*
X65477500Y-118600000D01*
G75*
G02*
X65715000Y-118837500I0J-237500D01*
G01*
X65715000Y-119412500D01*
G75*
G02*
X65477500Y-119650000I-237500J0D01*
G01*
X65002500Y-119650000D01*
G75*
G02*
X64765000Y-119412500I0J237500D01*
G01*
X64765000Y-118837500D01*
G75*
G02*
X65002500Y-118600000I237500J0D01*
G01*
G37*
G04 #@! TD.AperFunction*
G04 #@! TA.AperFunction,SMDPad,CuDef*
G36*
G01*
X65002500Y-116850000D02*
X65477500Y-116850000D01*
G75*
G02*
X65715000Y-117087500I0J-237500D01*
G01*
X65715000Y-117662500D01*
G75*
G02*
X65477500Y-117900000I-237500J0D01*
G01*
X65002500Y-117900000D01*
G75*
G02*
X64765000Y-117662500I0J237500D01*
G01*
X64765000Y-117087500D01*
G75*
G02*
X65002500Y-116850000I237500J0D01*
G01*
G37*
G04 #@! TD.AperFunction*
G04 #@! TA.AperFunction,SMDPad,CuDef*
G36*
G01*
X60256000Y-142109500D02*
X60256000Y-141634500D01*
G75*
G02*
X60493500Y-141397000I237500J0D01*
G01*
X61068500Y-141397000D01*
G75*
G02*
X61306000Y-141634500I0J-237500D01*
G01*
X61306000Y-142109500D01*
G75*
G02*
X61068500Y-142347000I-237500J0D01*
G01*
X60493500Y-142347000D01*
G75*
G02*
X60256000Y-142109500I0J237500D01*
G01*
G37*
G04 #@! TD.AperFunction*
G04 #@! TA.AperFunction,SMDPad,CuDef*
G36*
G01*
X58506000Y-142109500D02*
X58506000Y-141634500D01*
G75*
G02*
X58743500Y-141397000I237500J0D01*
G01*
X59318500Y-141397000D01*
G75*
G02*
X59556000Y-141634500I0J-237500D01*
G01*
X59556000Y-142109500D01*
G75*
G02*
X59318500Y-142347000I-237500J0D01*
G01*
X58743500Y-142347000D01*
G75*
G02*
X58506000Y-142109500I0J237500D01*
G01*
G37*
G04 #@! TD.AperFunction*
G04 #@! TA.AperFunction,SMDPad,CuDef*
G36*
G01*
X63478500Y-118600000D02*
X63953500Y-118600000D01*
G75*
G02*
X64191000Y-118837500I0J-237500D01*
G01*
X64191000Y-119412500D01*
G75*
G02*
X63953500Y-119650000I-237500J0D01*
G01*
X63478500Y-119650000D01*
G75*
G02*
X63241000Y-119412500I0J237500D01*
G01*
X63241000Y-118837500D01*
G75*
G02*
X63478500Y-118600000I237500J0D01*
G01*
G37*
G04 #@! TD.AperFunction*
G04 #@! TA.AperFunction,SMDPad,CuDef*
G36*
G01*
X63478500Y-116850000D02*
X63953500Y-116850000D01*
G75*
G02*
X64191000Y-117087500I0J-237500D01*
G01*
X64191000Y-117662500D01*
G75*
G02*
X63953500Y-117900000I-237500J0D01*
G01*
X63478500Y-117900000D01*
G75*
G02*
X63241000Y-117662500I0J237500D01*
G01*
X63241000Y-117087500D01*
G75*
G02*
X63478500Y-116850000I237500J0D01*
G01*
G37*
G04 #@! TD.AperFunction*
G04 #@! TA.AperFunction,SMDPad,CuDef*
G36*
G01*
X60256000Y-143633500D02*
X60256000Y-143158500D01*
G75*
G02*
X60493500Y-142921000I237500J0D01*
G01*
X61068500Y-142921000D01*
G75*
G02*
X61306000Y-143158500I0J-237500D01*
G01*
X61306000Y-143633500D01*
G75*
G02*
X61068500Y-143871000I-237500J0D01*
G01*
X60493500Y-143871000D01*
G75*
G02*
X60256000Y-143633500I0J237500D01*
G01*
G37*
G04 #@! TD.AperFunction*
G04 #@! TA.AperFunction,SMDPad,CuDef*
G36*
G01*
X58506000Y-143633500D02*
X58506000Y-143158500D01*
G75*
G02*
X58743500Y-142921000I237500J0D01*
G01*
X59318500Y-142921000D01*
G75*
G02*
X59556000Y-143158500I0J-237500D01*
G01*
X59556000Y-143633500D01*
G75*
G02*
X59318500Y-143871000I-237500J0D01*
G01*
X58743500Y-143871000D01*
G75*
G02*
X58506000Y-143633500I0J237500D01*
G01*
G37*
G04 #@! TD.AperFunction*
G04 #@! TA.AperFunction,SMDPad,CuDef*
G36*
G01*
X61954500Y-118600000D02*
X62429500Y-118600000D01*
G75*
G02*
X62667000Y-118837500I0J-237500D01*
G01*
X62667000Y-119412500D01*
G75*
G02*
X62429500Y-119650000I-237500J0D01*
G01*
X61954500Y-119650000D01*
G75*
G02*
X61717000Y-119412500I0J237500D01*
G01*
X61717000Y-118837500D01*
G75*
G02*
X61954500Y-118600000I237500J0D01*
G01*
G37*
G04 #@! TD.AperFunction*
G04 #@! TA.AperFunction,SMDPad,CuDef*
G36*
G01*
X61954500Y-116850000D02*
X62429500Y-116850000D01*
G75*
G02*
X62667000Y-117087500I0J-237500D01*
G01*
X62667000Y-117662500D01*
G75*
G02*
X62429500Y-117900000I-237500J0D01*
G01*
X61954500Y-117900000D01*
G75*
G02*
X61717000Y-117662500I0J237500D01*
G01*
X61717000Y-117087500D01*
G75*
G02*
X61954500Y-116850000I237500J0D01*
G01*
G37*
G04 #@! TD.AperFunction*
G04 #@! TA.AperFunction,SMDPad,CuDef*
G36*
G01*
X52810500Y-133205000D02*
X53285500Y-133205000D01*
G75*
G02*
X53523000Y-133442500I0J-237500D01*
G01*
X53523000Y-134017500D01*
G75*
G02*
X53285500Y-134255000I-237500J0D01*
G01*
X52810500Y-134255000D01*
G75*
G02*
X52573000Y-134017500I0J237500D01*
G01*
X52573000Y-133442500D01*
G75*
G02*
X52810500Y-133205000I237500J0D01*
G01*
G37*
G04 #@! TD.AperFunction*
G04 #@! TA.AperFunction,SMDPad,CuDef*
G36*
G01*
X52810500Y-131455000D02*
X53285500Y-131455000D01*
G75*
G02*
X53523000Y-131692500I0J-237500D01*
G01*
X53523000Y-132267500D01*
G75*
G02*
X53285500Y-132505000I-237500J0D01*
G01*
X52810500Y-132505000D01*
G75*
G02*
X52573000Y-132267500I0J237500D01*
G01*
X52573000Y-131692500D01*
G75*
G02*
X52810500Y-131455000I237500J0D01*
G01*
G37*
G04 #@! TD.AperFunction*
G04 #@! TA.AperFunction,SMDPad,CuDef*
G36*
G01*
X58389000Y-113140500D02*
X58389000Y-112665500D01*
G75*
G02*
X58626500Y-112428000I237500J0D01*
G01*
X59201500Y-112428000D01*
G75*
G02*
X59439000Y-112665500I0J-237500D01*
G01*
X59439000Y-113140500D01*
G75*
G02*
X59201500Y-113378000I-237500J0D01*
G01*
X58626500Y-113378000D01*
G75*
G02*
X58389000Y-113140500I0J237500D01*
G01*
G37*
G04 #@! TD.AperFunction*
G04 #@! TA.AperFunction,SMDPad,CuDef*
G36*
G01*
X56639000Y-113140500D02*
X56639000Y-112665500D01*
G75*
G02*
X56876500Y-112428000I237500J0D01*
G01*
X57451500Y-112428000D01*
G75*
G02*
X57689000Y-112665500I0J-237500D01*
G01*
X57689000Y-113140500D01*
G75*
G02*
X57451500Y-113378000I-237500J0D01*
G01*
X56876500Y-113378000D01*
G75*
G02*
X56639000Y-113140500I0J237500D01*
G01*
G37*
G04 #@! TD.AperFunction*
G04 #@! TA.AperFunction,SMDPad,CuDef*
G36*
G01*
X58667000Y-133252500D02*
X58667000Y-133727500D01*
G75*
G02*
X58429500Y-133965000I-237500J0D01*
G01*
X57854500Y-133965000D01*
G75*
G02*
X57617000Y-133727500I0J237500D01*
G01*
X57617000Y-133252500D01*
G75*
G02*
X57854500Y-133015000I237500J0D01*
G01*
X58429500Y-133015000D01*
G75*
G02*
X58667000Y-133252500I0J-237500D01*
G01*
G37*
G04 #@! TD.AperFunction*
G04 #@! TA.AperFunction,SMDPad,CuDef*
G36*
G01*
X60417000Y-133252500D02*
X60417000Y-133727500D01*
G75*
G02*
X60179500Y-133965000I-237500J0D01*
G01*
X59604500Y-133965000D01*
G75*
G02*
X59367000Y-133727500I0J237500D01*
G01*
X59367000Y-133252500D01*
G75*
G02*
X59604500Y-133015000I237500J0D01*
G01*
X60179500Y-133015000D01*
G75*
G02*
X60417000Y-133252500I0J-237500D01*
G01*
G37*
G04 #@! TD.AperFunction*
G04 #@! TA.AperFunction,SMDPad,CuDef*
G36*
G01*
X64636000Y-107344500D02*
X64636000Y-107819500D01*
G75*
G02*
X64398500Y-108057000I-237500J0D01*
G01*
X63823500Y-108057000D01*
G75*
G02*
X63586000Y-107819500I0J237500D01*
G01*
X63586000Y-107344500D01*
G75*
G02*
X63823500Y-107107000I237500J0D01*
G01*
X64398500Y-107107000D01*
G75*
G02*
X64636000Y-107344500I0J-237500D01*
G01*
G37*
G04 #@! TD.AperFunction*
G04 #@! TA.AperFunction,SMDPad,CuDef*
G36*
G01*
X66386000Y-107344500D02*
X66386000Y-107819500D01*
G75*
G02*
X66148500Y-108057000I-237500J0D01*
G01*
X65573500Y-108057000D01*
G75*
G02*
X65336000Y-107819500I0J237500D01*
G01*
X65336000Y-107344500D01*
G75*
G02*
X65573500Y-107107000I237500J0D01*
G01*
X66148500Y-107107000D01*
G75*
G02*
X66386000Y-107344500I0J-237500D01*
G01*
G37*
G04 #@! TD.AperFunction*
G04 #@! TA.AperFunction,SMDPad,CuDef*
G36*
G01*
X58667000Y-134776500D02*
X58667000Y-135251500D01*
G75*
G02*
X58429500Y-135489000I-237500J0D01*
G01*
X57854500Y-135489000D01*
G75*
G02*
X57617000Y-135251500I0J237500D01*
G01*
X57617000Y-134776500D01*
G75*
G02*
X57854500Y-134539000I237500J0D01*
G01*
X58429500Y-134539000D01*
G75*
G02*
X58667000Y-134776500I0J-237500D01*
G01*
G37*
G04 #@! TD.AperFunction*
G04 #@! TA.AperFunction,SMDPad,CuDef*
G36*
G01*
X60417000Y-134776500D02*
X60417000Y-135251500D01*
G75*
G02*
X60179500Y-135489000I-237500J0D01*
G01*
X59604500Y-135489000D01*
G75*
G02*
X59367000Y-135251500I0J237500D01*
G01*
X59367000Y-134776500D01*
G75*
G02*
X59604500Y-134539000I237500J0D01*
G01*
X60179500Y-134539000D01*
G75*
G02*
X60417000Y-134776500I0J-237500D01*
G01*
G37*
G04 #@! TD.AperFunction*
G04 #@! TA.AperFunction,SMDPad,CuDef*
G36*
G01*
X60548000Y-107819500D02*
X60548000Y-107344500D01*
G75*
G02*
X60785500Y-107107000I237500J0D01*
G01*
X61360500Y-107107000D01*
G75*
G02*
X61598000Y-107344500I0J-237500D01*
G01*
X61598000Y-107819500D01*
G75*
G02*
X61360500Y-108057000I-237500J0D01*
G01*
X60785500Y-108057000D01*
G75*
G02*
X60548000Y-107819500I0J237500D01*
G01*
G37*
G04 #@! TD.AperFunction*
G04 #@! TA.AperFunction,SMDPad,CuDef*
G36*
G01*
X58798000Y-107819500D02*
X58798000Y-107344500D01*
G75*
G02*
X59035500Y-107107000I237500J0D01*
G01*
X59610500Y-107107000D01*
G75*
G02*
X59848000Y-107344500I0J-237500D01*
G01*
X59848000Y-107819500D01*
G75*
G02*
X59610500Y-108057000I-237500J0D01*
G01*
X59035500Y-108057000D01*
G75*
G02*
X58798000Y-107819500I0J237500D01*
G01*
G37*
G04 #@! TD.AperFunction*
G04 #@! TA.AperFunction,SMDPad,CuDef*
G36*
G01*
X58667000Y-131728500D02*
X58667000Y-132203500D01*
G75*
G02*
X58429500Y-132441000I-237500J0D01*
G01*
X57854500Y-132441000D01*
G75*
G02*
X57617000Y-132203500I0J237500D01*
G01*
X57617000Y-131728500D01*
G75*
G02*
X57854500Y-131491000I237500J0D01*
G01*
X58429500Y-131491000D01*
G75*
G02*
X58667000Y-131728500I0J-237500D01*
G01*
G37*
G04 #@! TD.AperFunction*
G04 #@! TA.AperFunction,SMDPad,CuDef*
G36*
G01*
X60417000Y-131728500D02*
X60417000Y-132203500D01*
G75*
G02*
X60179500Y-132441000I-237500J0D01*
G01*
X59604500Y-132441000D01*
G75*
G02*
X59367000Y-132203500I0J237500D01*
G01*
X59367000Y-131728500D01*
G75*
G02*
X59604500Y-131491000I237500J0D01*
G01*
X60179500Y-131491000D01*
G75*
G02*
X60417000Y-131728500I0J-237500D01*
G01*
G37*
G04 #@! TD.AperFunction*
G04 #@! TA.AperFunction,SMDPad,CuDef*
G36*
G01*
X64636000Y-105820500D02*
X64636000Y-106295500D01*
G75*
G02*
X64398500Y-106533000I-237500J0D01*
G01*
X63823500Y-106533000D01*
G75*
G02*
X63586000Y-106295500I0J237500D01*
G01*
X63586000Y-105820500D01*
G75*
G02*
X63823500Y-105583000I237500J0D01*
G01*
X64398500Y-105583000D01*
G75*
G02*
X64636000Y-105820500I0J-237500D01*
G01*
G37*
G04 #@! TD.AperFunction*
G04 #@! TA.AperFunction,SMDPad,CuDef*
G36*
G01*
X66386000Y-105820500D02*
X66386000Y-106295500D01*
G75*
G02*
X66148500Y-106533000I-237500J0D01*
G01*
X65573500Y-106533000D01*
G75*
G02*
X65336000Y-106295500I0J237500D01*
G01*
X65336000Y-105820500D01*
G75*
G02*
X65573500Y-105583000I237500J0D01*
G01*
X66148500Y-105583000D01*
G75*
G02*
X66386000Y-105820500I0J-237500D01*
G01*
G37*
G04 #@! TD.AperFunction*
G04 #@! TA.AperFunction,SMDPad,CuDef*
G36*
G01*
X58667000Y-130204500D02*
X58667000Y-130679500D01*
G75*
G02*
X58429500Y-130917000I-237500J0D01*
G01*
X57854500Y-130917000D01*
G75*
G02*
X57617000Y-130679500I0J237500D01*
G01*
X57617000Y-130204500D01*
G75*
G02*
X57854500Y-129967000I237500J0D01*
G01*
X58429500Y-129967000D01*
G75*
G02*
X58667000Y-130204500I0J-237500D01*
G01*
G37*
G04 #@! TD.AperFunction*
G04 #@! TA.AperFunction,SMDPad,CuDef*
G36*
G01*
X60417000Y-130204500D02*
X60417000Y-130679500D01*
G75*
G02*
X60179500Y-130917000I-237500J0D01*
G01*
X59604500Y-130917000D01*
G75*
G02*
X59367000Y-130679500I0J237500D01*
G01*
X59367000Y-130204500D01*
G75*
G02*
X59604500Y-129967000I237500J0D01*
G01*
X60179500Y-129967000D01*
G75*
G02*
X60417000Y-130204500I0J-237500D01*
G01*
G37*
G04 #@! TD.AperFunction*
G04 #@! TA.AperFunction,SMDPad,CuDef*
G36*
G01*
X60548000Y-106282500D02*
X60548000Y-105807500D01*
G75*
G02*
X60785500Y-105570000I237500J0D01*
G01*
X61360500Y-105570000D01*
G75*
G02*
X61598000Y-105807500I0J-237500D01*
G01*
X61598000Y-106282500D01*
G75*
G02*
X61360500Y-106520000I-237500J0D01*
G01*
X60785500Y-106520000D01*
G75*
G02*
X60548000Y-106282500I0J237500D01*
G01*
G37*
G04 #@! TD.AperFunction*
G04 #@! TA.AperFunction,SMDPad,CuDef*
G36*
G01*
X58798000Y-106282500D02*
X58798000Y-105807500D01*
G75*
G02*
X59035500Y-105570000I237500J0D01*
G01*
X59610500Y-105570000D01*
G75*
G02*
X59848000Y-105807500I0J-237500D01*
G01*
X59848000Y-106282500D01*
G75*
G02*
X59610500Y-106520000I-237500J0D01*
G01*
X59035500Y-106520000D01*
G75*
G02*
X58798000Y-106282500I0J237500D01*
G01*
G37*
G04 #@! TD.AperFunction*
G04 #@! TA.AperFunction,SMDPad,CuDef*
G36*
G01*
X60256000Y-137537500D02*
X60256000Y-137062500D01*
G75*
G02*
X60493500Y-136825000I237500J0D01*
G01*
X61068500Y-136825000D01*
G75*
G02*
X61306000Y-137062500I0J-237500D01*
G01*
X61306000Y-137537500D01*
G75*
G02*
X61068500Y-137775000I-237500J0D01*
G01*
X60493500Y-137775000D01*
G75*
G02*
X60256000Y-137537500I0J237500D01*
G01*
G37*
G04 #@! TD.AperFunction*
G04 #@! TA.AperFunction,SMDPad,CuDef*
G36*
G01*
X58506000Y-137537500D02*
X58506000Y-137062500D01*
G75*
G02*
X58743500Y-136825000I237500J0D01*
G01*
X59318500Y-136825000D01*
G75*
G02*
X59556000Y-137062500I0J-237500D01*
G01*
X59556000Y-137537500D01*
G75*
G02*
X59318500Y-137775000I-237500J0D01*
G01*
X58743500Y-137775000D01*
G75*
G02*
X58506000Y-137537500I0J237500D01*
G01*
G37*
G04 #@! TD.AperFunction*
D16*
X61945000Y-112395000D03*
X65995000Y-112395000D03*
X56889000Y-139205000D03*
D17*
X52839000Y-139205000D03*
D18*
X53000000Y-147000000D03*
X53000000Y-103000000D03*
G04 #@! TA.AperFunction,SMDPad,CuDef*
G36*
G01*
X59705000Y-125698640D02*
X59705000Y-124598640D01*
G75*
G02*
X59955000Y-124348640I250000J0D01*
G01*
X62055000Y-124348640D01*
G75*
G02*
X62305000Y-124598640I0J-250000D01*
G01*
X62305000Y-125698640D01*
G75*
G02*
X62055000Y-125948640I-250000J0D01*
G01*
X59955000Y-125948640D01*
G75*
G02*
X59705000Y-125698640I0J250000D01*
G01*
G37*
G04 #@! TD.AperFunction*
G04 #@! TA.AperFunction,SMDPad,CuDef*
G36*
G01*
X63305000Y-125698640D02*
X63305000Y-124598640D01*
G75*
G02*
X63555000Y-124348640I250000J0D01*
G01*
X65655000Y-124348640D01*
G75*
G02*
X65905000Y-124598640I0J-250000D01*
G01*
X65905000Y-125698640D01*
G75*
G02*
X65655000Y-125948640I-250000J0D01*
G01*
X63555000Y-125948640D01*
G75*
G02*
X63305000Y-125698640I0J250000D01*
G01*
G37*
G04 #@! TD.AperFunction*
G04 #@! TA.AperFunction,SMDPad,CuDef*
G36*
G01*
X76163240Y-119467840D02*
X76163240Y-120567840D01*
G75*
G02*
X75913240Y-120817840I-250000J0D01*
G01*
X73813240Y-120817840D01*
G75*
G02*
X73563240Y-120567840I0J250000D01*
G01*
X73563240Y-119467840D01*
G75*
G02*
X73813240Y-119217840I250000J0D01*
G01*
X75913240Y-119217840D01*
G75*
G02*
X76163240Y-119467840I0J-250000D01*
G01*
G37*
G04 #@! TD.AperFunction*
G04 #@! TA.AperFunction,SMDPad,CuDef*
G36*
G01*
X79763240Y-119467840D02*
X79763240Y-120567840D01*
G75*
G02*
X79513240Y-120817840I-250000J0D01*
G01*
X77413240Y-120817840D01*
G75*
G02*
X77163240Y-120567840I0J250000D01*
G01*
X77163240Y-119467840D01*
G75*
G02*
X77413240Y-119217840I250000J0D01*
G01*
X79513240Y-119217840D01*
G75*
G02*
X79763240Y-119467840I0J-250000D01*
G01*
G37*
G04 #@! TD.AperFunction*
G04 #@! TA.AperFunction,SMDPad,CuDef*
G36*
G01*
X70363600Y-114466760D02*
X70363600Y-113366760D01*
G75*
G02*
X70613600Y-113116760I250000J0D01*
G01*
X73113600Y-113116760D01*
G75*
G02*
X73363600Y-113366760I0J-250000D01*
G01*
X73363600Y-114466760D01*
G75*
G02*
X73113600Y-114716760I-250000J0D01*
G01*
X70613600Y-114716760D01*
G75*
G02*
X70363600Y-114466760I0J250000D01*
G01*
G37*
G04 #@! TD.AperFunction*
G04 #@! TA.AperFunction,SMDPad,CuDef*
G36*
G01*
X74763600Y-114466760D02*
X74763600Y-113366760D01*
G75*
G02*
X75013600Y-113116760I250000J0D01*
G01*
X77513600Y-113116760D01*
G75*
G02*
X77763600Y-113366760I0J-250000D01*
G01*
X77763600Y-114466760D01*
G75*
G02*
X77513600Y-114716760I-250000J0D01*
G01*
X75013600Y-114716760D01*
G75*
G02*
X74763600Y-114466760I0J250000D01*
G01*
G37*
G04 #@! TD.AperFunction*
D19*
X81932880Y-112753520D03*
X81932880Y-113393520D03*
X81932880Y-114053520D03*
X81932880Y-114693520D03*
X84552880Y-114693520D03*
X84552880Y-114053520D03*
X84552880Y-113393520D03*
X84552880Y-112753520D03*
D20*
X66320000Y-135967000D03*
X72339799Y-136271799D03*
X71729201Y-136271799D03*
X71094201Y-136271799D03*
X65684000Y-135967000D03*
X68542000Y-140475000D03*
X69190000Y-140462000D03*
X66383000Y-139967000D03*
X67526000Y-144031000D03*
X53556006Y-135395000D03*
X54044625Y-134994625D03*
X51397000Y-130188000D03*
X56858000Y-122314000D03*
X53683000Y-108725000D03*
X59271000Y-104788000D03*
X59017000Y-129172000D03*
X60160000Y-112281000D03*
X59779000Y-111900000D03*
X67373600Y-129807000D03*
X64732000Y-104534000D03*
X67078960Y-123436680D03*
X82842200Y-117005400D03*
X55753000Y-122809000D03*
X56642000Y-114554000D03*
X56985000Y-127902000D03*
X62078000Y-106045000D03*
X62586000Y-106045000D03*
X63094000Y-106045000D03*
X56185000Y-123241000D03*
X56629500Y-123685500D03*
X55842300Y-127774700D03*
X56350300Y-127774700D03*
X58255000Y-108344000D03*
X66002000Y-108725000D03*
X68923000Y-127902000D03*
X67000000Y-121000000D03*
X66000000Y-121000000D03*
X66000000Y-122000000D03*
X67000000Y-122000000D03*
X52832000Y-123951996D03*
X65659000Y-145415000D03*
X65240100Y-144996100D03*
X65854000Y-145957000D03*
X52438502Y-123558498D03*
X52057502Y-123177498D03*
X62611000Y-133350000D03*
X56477000Y-129680000D03*
X61938000Y-137173000D03*
D21*
X64668000Y-136777000D02*
X64668000Y-138162000D01*
X54186000Y-125603000D02*
X58270594Y-125603000D01*
X58270594Y-125603000D02*
X64668000Y-132000406D01*
X64668000Y-135967000D02*
X65684000Y-135967000D01*
X64668000Y-135967000D02*
X64668000Y-136777000D01*
X64668000Y-132000406D02*
X64668000Y-135967000D01*
X66320000Y-135967000D02*
X66320000Y-135967000D01*
X65684000Y-135967000D02*
X66320000Y-135967000D01*
D22*
X64757000Y-138251000D02*
X64668000Y-138162000D01*
X64757000Y-139026200D02*
X64757000Y-138251000D01*
X62700000Y-139346000D02*
X64437200Y-139346000D01*
X64437200Y-139346000D02*
X64757000Y-139026200D01*
X68555000Y-140462000D02*
X68542000Y-140475000D01*
X69190000Y-140462000D02*
X68555000Y-140462000D01*
X54673500Y-134365750D02*
X54044625Y-134994625D01*
X54673500Y-133870500D02*
X54673500Y-134365750D01*
X53644250Y-135395000D02*
X53556006Y-135395000D01*
X54044625Y-134994625D02*
X53644250Y-135395000D01*
X58686500Y-111315500D02*
X59181750Y-111315500D01*
X56350000Y-121157000D02*
X56350000Y-121806000D01*
X56350000Y-121806000D02*
X56858000Y-122314000D01*
X53810000Y-109882000D02*
X53810000Y-108852000D01*
X53810000Y-108852000D02*
X53683000Y-108725000D01*
X59056000Y-106312000D02*
X59323000Y-106045000D01*
X57352000Y-106312000D02*
X59056000Y-106312000D01*
X59323000Y-106045000D02*
X59323000Y-107315000D01*
X59323000Y-106045000D02*
X59323000Y-104840000D01*
X59323000Y-104840000D02*
X59271000Y-104788000D01*
X65861000Y-107582000D02*
X65861000Y-106058000D01*
X62192000Y-119125000D02*
X66764000Y-119125000D01*
X51703000Y-129882000D02*
X51397000Y-130188000D01*
X51703000Y-128918000D02*
X51703000Y-129882000D01*
X51478000Y-129032000D02*
X51589000Y-129032000D01*
X51589000Y-129032000D02*
X51703000Y-128918000D01*
X62686000Y-141110000D02*
X62700000Y-141096000D01*
X60781000Y-141110000D02*
X62686000Y-141110000D01*
X59892000Y-130442000D02*
X59892000Y-135014000D01*
X61086000Y-131966000D02*
X61595000Y-132475000D01*
X59892000Y-131966000D02*
X61086000Y-131966000D01*
X59892000Y-130442000D02*
X59892000Y-130047000D01*
X59892000Y-130047000D02*
X59017000Y-129172000D01*
X71590000Y-146962000D02*
X71628000Y-147000000D01*
X71590000Y-146811000D02*
X71590000Y-146962000D01*
X71322000Y-147079000D02*
X71590000Y-146811000D01*
X68724000Y-147132000D02*
X68777000Y-147079000D01*
X68777000Y-147079000D02*
X71322000Y-147079000D01*
X68175000Y-146583000D02*
X68724000Y-147132000D01*
X67526000Y-144031000D02*
X68175000Y-144680000D01*
X68175000Y-144680000D02*
X68175000Y-146583000D01*
X65875000Y-140475000D02*
X66383000Y-139967000D01*
X64681000Y-140475000D02*
X65875000Y-140475000D01*
X64668000Y-140462000D02*
X64681000Y-140475000D01*
X62700000Y-141096000D02*
X63334000Y-140462000D01*
X63334000Y-140462000D02*
X64668000Y-140462000D01*
X69203000Y-140475000D02*
X69190000Y-140462000D01*
X70968000Y-140462000D02*
X70955000Y-140475000D01*
X70955000Y-140475000D02*
X69203000Y-140475000D01*
X60781000Y-138824000D02*
X60781000Y-143396000D01*
D21*
X59241000Y-111313000D02*
X59241000Y-111362000D01*
X59241000Y-111362000D02*
X59779000Y-111900000D01*
X59779000Y-111900000D02*
X60160000Y-112281000D01*
D22*
X68086000Y-130683000D02*
X68086000Y-130519400D01*
X68086000Y-130519400D02*
X67373600Y-129807000D01*
X65861000Y-106058000D02*
X65861000Y-105663000D01*
X65861000Y-105663000D02*
X64732000Y-104534000D01*
X66316960Y-123436680D02*
X67078960Y-123436680D01*
X64605000Y-125148640D02*
X66316960Y-123436680D01*
X67622310Y-119983310D02*
X66764000Y-119125000D01*
X67963910Y-119983310D02*
X67622310Y-119983310D01*
X68333720Y-120353120D02*
X67963910Y-119983310D01*
X68333720Y-122181920D02*
X68333720Y-120353120D01*
X67078960Y-123436680D02*
X68333720Y-122181920D01*
X85366080Y-114053520D02*
X85768280Y-114455720D01*
X84552880Y-114053520D02*
X85366080Y-114053520D01*
X83462482Y-117005400D02*
X82842200Y-117005400D01*
X85768280Y-114699602D02*
X83462482Y-117005400D01*
X85768280Y-114455720D02*
X85768280Y-114699602D01*
X79829760Y-120017840D02*
X82842200Y-117005400D01*
X78463240Y-120017840D02*
X79829760Y-120017840D01*
D21*
X58686500Y-109410500D02*
X59052500Y-109410500D01*
X61148000Y-106045000D02*
X61148000Y-107315000D01*
X54186000Y-121793000D02*
X54737000Y-121793000D01*
X54737000Y-121793000D02*
X55753000Y-122809000D01*
X55329000Y-113538000D02*
X55626000Y-113538000D01*
X55626000Y-113538000D02*
X56642000Y-114554000D01*
X57658000Y-129032000D02*
X57658000Y-128663700D01*
X57658000Y-128663700D02*
X56769000Y-127774700D01*
X55753000Y-122809000D02*
X56185000Y-123241000D01*
X64098000Y-106045000D02*
X64111000Y-106058000D01*
X61073000Y-106045000D02*
X62078000Y-106045000D01*
X64111000Y-107582000D02*
X64111000Y-106058000D01*
X61072000Y-107582000D02*
X59241000Y-109413000D01*
X61073000Y-107582000D02*
X61072000Y-107582000D01*
X62078000Y-106045000D02*
X62586000Y-106045000D01*
X62586000Y-106045000D02*
X63094000Y-106045000D01*
X63094000Y-106045000D02*
X64098000Y-106045000D01*
X57566000Y-134438000D02*
X58142000Y-135014000D01*
X56538000Y-134438000D02*
X57566000Y-134438000D01*
X58142000Y-135014000D02*
X58142000Y-130442000D01*
X58142000Y-129627000D02*
X57433000Y-128918000D01*
X58142000Y-130442000D02*
X58142000Y-129627000D01*
X56185000Y-123241000D02*
X56629500Y-123685500D01*
X56629500Y-123685500D02*
X56768999Y-123824999D01*
X56409790Y-127774700D02*
X56409490Y-127775000D01*
X56769000Y-127774700D02*
X56409790Y-127774700D01*
X56409790Y-127774700D02*
X56350300Y-127774700D01*
X55842300Y-127774700D02*
X55842300Y-127774700D01*
X56350300Y-127774700D02*
X55842300Y-127774700D01*
X59541860Y-123685500D02*
X56629500Y-123685500D01*
X61005000Y-125148640D02*
X59541860Y-123685500D01*
X78006040Y-111381840D02*
X79918650Y-113294450D01*
X69842890Y-111508430D02*
X69969480Y-111381840D01*
X69969480Y-111381840D02*
X78006040Y-111381840D01*
X69842890Y-122600700D02*
X69842890Y-111508430D01*
X65974240Y-126469350D02*
X69842890Y-122600700D01*
X62325710Y-126469350D02*
X65974240Y-126469350D01*
X61005000Y-125148640D02*
X62325710Y-126469350D01*
D23*
X80013031Y-113398600D02*
X81932880Y-113393520D01*
D21*
X58686500Y-110363000D02*
X59659000Y-110363000D01*
X61945000Y-111526000D02*
X61945000Y-112395000D01*
X59241000Y-110363000D02*
X60782000Y-110363000D01*
X60782000Y-110363000D02*
X61945000Y-111526000D01*
D22*
X61437000Y-112903000D02*
X61945000Y-112395000D01*
X58914000Y-112903000D02*
X61437000Y-112903000D01*
X56864000Y-112903000D02*
X57089000Y-112903000D01*
X56285800Y-112324800D02*
X56864000Y-112903000D01*
X56285800Y-112177200D02*
X56285800Y-112324800D01*
X56324500Y-112138500D02*
X56285800Y-112177200D01*
X56324500Y-111315500D02*
X56324500Y-112138500D01*
D21*
X52839000Y-139205000D02*
X53911600Y-139205000D01*
X55626000Y-136060000D02*
X55626000Y-134425000D01*
X53911600Y-137774400D02*
X55626000Y-136060000D01*
X53911600Y-139205000D02*
X53911600Y-137774400D01*
D22*
X52839000Y-136201801D02*
X52839000Y-139205000D01*
X52839000Y-134716000D02*
X52839000Y-136201801D01*
X53213000Y-134342000D02*
X52839000Y-134716000D01*
X53213000Y-133717000D02*
X53213000Y-134342000D01*
X53596500Y-131508500D02*
X53213000Y-131892000D01*
X54673500Y-131508500D02*
X53596500Y-131508500D01*
X57390000Y-107823000D02*
X57734000Y-107823000D01*
X57734000Y-107823000D02*
X58255000Y-108344000D01*
X66002000Y-112134000D02*
X65741000Y-112395000D01*
X66002000Y-108725000D02*
X66002000Y-112134000D01*
D21*
X61588000Y-116771000D02*
X62192000Y-117375000D01*
X53221000Y-116771000D02*
X61588000Y-116771000D01*
X51986000Y-117856000D02*
X52136000Y-117856000D01*
X52136000Y-117856000D02*
X53221000Y-116771000D01*
X66764000Y-117375000D02*
X62192000Y-117375000D01*
X65240000Y-112896000D02*
X65741000Y-112395000D01*
X65240000Y-117375000D02*
X65240000Y-112896000D01*
D22*
X71575000Y-145047000D02*
X71628000Y-145100000D01*
X69925000Y-145047000D02*
X71575000Y-145047000D01*
X67512000Y-142775000D02*
X67525000Y-142762000D01*
X64668000Y-142762000D02*
X64681000Y-142775000D01*
X64681000Y-142775000D02*
X67512000Y-142775000D01*
X69925000Y-144342800D02*
X69925000Y-145047000D01*
X67525000Y-142762000D02*
X68344200Y-142762000D01*
X68344200Y-142762000D02*
X69925000Y-144342800D01*
X65007000Y-142775000D02*
X64757000Y-142775000D01*
X66866110Y-140915890D02*
X65007000Y-142775000D01*
X66866110Y-132933292D02*
X66866110Y-140915890D01*
X65165000Y-131232182D02*
X66866110Y-132933292D01*
X65165000Y-128651000D02*
X65165000Y-131232182D01*
X71863600Y-113916760D02*
X71863600Y-126737960D01*
X67078040Y-126737960D02*
X65165000Y-128651000D01*
X71863600Y-126737960D02*
X67078040Y-126737960D01*
X67140000Y-132166000D02*
X67099000Y-132207000D01*
X66915000Y-128651000D02*
X68174000Y-128651000D01*
X68174000Y-128651000D02*
X68923000Y-127902000D01*
X66891000Y-128675000D02*
X66915000Y-128651000D01*
X67324000Y-132207000D02*
X66891000Y-131774000D01*
X66891000Y-131774000D02*
X66891000Y-128675000D01*
X57899000Y-119407000D02*
X57912000Y-119394000D01*
X56350000Y-119407000D02*
X57899000Y-119407000D01*
D21*
X59139000Y-117856000D02*
X59309000Y-118026000D01*
X54186000Y-117856000D02*
X59139000Y-117856000D01*
X59309000Y-118026000D02*
X59309000Y-118176000D01*
X59309000Y-118176000D02*
X62133000Y-121000000D01*
X62133000Y-121000000D02*
X66000000Y-121000000D01*
X67000000Y-121000000D02*
X67000000Y-122000000D01*
X67000000Y-122000000D02*
X66000000Y-122000000D01*
X66000000Y-122000000D02*
X66000000Y-121000000D01*
X66000000Y-122000000D02*
X66000000Y-122000000D01*
X67000000Y-122000000D02*
X67000000Y-122000000D01*
X66404000Y-148082000D02*
X66404000Y-149032000D01*
X66404000Y-149032000D02*
X68724000Y-149032000D01*
X68724000Y-149032000D02*
X68724000Y-148082000D01*
X66292208Y-147970208D02*
X66404000Y-148082000D01*
X66056802Y-147970208D02*
X66292208Y-147970208D01*
X65994295Y-147907701D02*
X66056802Y-147970208D01*
X61771000Y-147906000D02*
X61771000Y-147714000D01*
X61722000Y-147955000D02*
X61771000Y-147906000D01*
X61771000Y-147714000D02*
X65533299Y-147714000D01*
X65533299Y-147714000D02*
X65533299Y-147803561D01*
X65533299Y-147803561D02*
X65637439Y-147907701D01*
X65637439Y-147907701D02*
X65994295Y-147907701D01*
X51986000Y-123105996D02*
X51986000Y-121793000D01*
X52832000Y-123951996D02*
X52438502Y-123558498D01*
X65854000Y-145610000D02*
X65659000Y-145415000D01*
X65854000Y-145957000D02*
X65854000Y-145610000D01*
X65240100Y-144996100D02*
X65659000Y-145415000D01*
X65854000Y-146582000D02*
X65854000Y-145957000D01*
X66404000Y-147132000D02*
X65854000Y-146582000D01*
X52438502Y-123558498D02*
X52057502Y-123177498D01*
X52057502Y-123177498D02*
X51986000Y-123105996D01*
D22*
X53129000Y-113538000D02*
X53279000Y-113538000D01*
X55814000Y-110363000D02*
X56324500Y-110363000D01*
X53354000Y-112088000D02*
X53810000Y-111632000D01*
X53354000Y-113538000D02*
X53354000Y-112088000D01*
X54617800Y-110363000D02*
X55821000Y-110363000D01*
X54309072Y-110671728D02*
X54617800Y-110363000D01*
X53810000Y-111632000D02*
X54309072Y-111132928D01*
X54309072Y-111132928D02*
X54309072Y-110671728D01*
X55683000Y-128918000D02*
X53453000Y-128918000D01*
X55588000Y-129013000D02*
X55683000Y-128918000D01*
X55588000Y-131018000D02*
X55588000Y-129013000D01*
X55602000Y-107785000D02*
X55640000Y-107823000D01*
X55602000Y-106312000D02*
X55602000Y-107785000D01*
X55640000Y-109232000D02*
X55821000Y-109413000D01*
X55640000Y-107823000D02*
X55640000Y-109232000D01*
X62611000Y-133434000D02*
X61595000Y-134450000D01*
X62611000Y-133350000D02*
X62611000Y-133434000D01*
X56576000Y-131005000D02*
X56576000Y-129779000D01*
X56576000Y-129779000D02*
X56477000Y-129680000D01*
X60781000Y-137300000D02*
X61811000Y-137300000D01*
X61811000Y-137300000D02*
X61938000Y-137173000D01*
D21*
X52136000Y-125603000D02*
X51986000Y-125603000D01*
X58650000Y-139205000D02*
X59031000Y-138824000D01*
X56889000Y-139205000D02*
X58650000Y-139205000D01*
X59031000Y-137300000D02*
X59031000Y-143396000D01*
X52710072Y-126102072D02*
X52211000Y-125603000D01*
X63385701Y-132338427D02*
X57645984Y-126598710D01*
X53206710Y-126598710D02*
X52710072Y-126102072D01*
X63385701Y-134031573D02*
X63385701Y-132338427D01*
X61112984Y-136304290D02*
X63385701Y-134031573D01*
X60026710Y-136304290D02*
X61112984Y-136304290D01*
X57645984Y-126598710D02*
X53206710Y-126598710D01*
X59031000Y-137300000D02*
X60026710Y-136304290D01*
D22*
X69074000Y-131445000D02*
X69836000Y-130683000D01*
X69074000Y-132207000D02*
X69074000Y-131445000D01*
X59055000Y-120226000D02*
X57912000Y-121369000D01*
X59309000Y-120226000D02*
X59055000Y-120226000D01*
X81796120Y-113916760D02*
X81932880Y-114053520D01*
X76211080Y-113969280D02*
X76263600Y-113916760D01*
X79291280Y-116568520D02*
X79291280Y-113916760D01*
X79291280Y-113916760D02*
X81796120Y-113916760D01*
X76263600Y-113916760D02*
X79291280Y-113916760D01*
X78312560Y-116568520D02*
X74863240Y-120017840D01*
X79291280Y-116568520D02*
X78312560Y-116568520D01*
M02*
