G04 #@! TF.GenerationSoftware,KiCad,Pcbnew,(5.1.2)-1*
G04 #@! TF.CreationDate,2019-05-30T13:03:45-04:00*
G04 #@! TF.ProjectId,ZeroPilot,5a65726f-5069-46c6-9f74-2e6b69636164,rev?*
G04 #@! TF.SameCoordinates,Original*
G04 #@! TF.FileFunction,Soldermask,Bot*
G04 #@! TF.FilePolarity,Negative*
%FSLAX46Y46*%
G04 Gerber Fmt 4.6, Leading zero omitted, Abs format (unit mm)*
G04 Created by KiCad (PCBNEW (5.1.2)-1) date 2019-05-30 13:03:45*
%MOMM*%
%LPD*%
G04 APERTURE LIST*
%ADD10C,0.100000*%
G04 APERTURE END LIST*
D10*
G36*
X147802144Y-144355680D02*
G01*
X148302612Y-144562981D01*
X148753022Y-144863935D01*
X149136065Y-145246978D01*
X149437019Y-145697388D01*
X149644320Y-146197856D01*
X149750000Y-146729147D01*
X149750000Y-147270853D01*
X149644320Y-147802144D01*
X149437019Y-148302612D01*
X149136065Y-148753022D01*
X148753022Y-149136065D01*
X148302612Y-149437019D01*
X147802144Y-149644320D01*
X147270853Y-149750000D01*
X146729147Y-149750000D01*
X146197856Y-149644320D01*
X145697388Y-149437019D01*
X145246978Y-149136065D01*
X144863935Y-148753022D01*
X144562981Y-148302612D01*
X144355680Y-147802144D01*
X144250000Y-147270853D01*
X144250000Y-146729147D01*
X144355680Y-146197856D01*
X144562981Y-145697388D01*
X144863935Y-145246978D01*
X145246978Y-144863935D01*
X145697388Y-144562981D01*
X146197856Y-144355680D01*
X146729147Y-144250000D01*
X147270853Y-144250000D01*
X147802144Y-144355680D01*
X147802144Y-144355680D01*
G37*
G36*
X53802144Y-144355680D02*
G01*
X54302612Y-144562981D01*
X54753022Y-144863935D01*
X55136065Y-145246978D01*
X55437019Y-145697388D01*
X55644320Y-146197856D01*
X55750000Y-146729147D01*
X55750000Y-147270853D01*
X55644320Y-147802144D01*
X55437019Y-148302612D01*
X55136065Y-148753022D01*
X54753022Y-149136065D01*
X54302612Y-149437019D01*
X53802144Y-149644320D01*
X53270853Y-149750000D01*
X52729147Y-149750000D01*
X52197856Y-149644320D01*
X51697388Y-149437019D01*
X51246978Y-149136065D01*
X50863935Y-148753022D01*
X50562981Y-148302612D01*
X50355680Y-147802144D01*
X50250000Y-147270853D01*
X50250000Y-146729147D01*
X50355680Y-146197856D01*
X50562981Y-145697388D01*
X50863935Y-145246978D01*
X51246978Y-144863935D01*
X51697388Y-144562981D01*
X52197856Y-144355680D01*
X52729147Y-144250000D01*
X53270853Y-144250000D01*
X53802144Y-144355680D01*
X53802144Y-144355680D01*
G37*
G36*
X61937626Y-146801299D02*
G01*
X62097857Y-146849904D01*
X62245518Y-146928831D01*
X62374949Y-147035051D01*
X62481169Y-147164482D01*
X62560096Y-147312143D01*
X62608701Y-147472373D01*
X62621000Y-147597248D01*
X62621000Y-147830751D01*
X62608701Y-147955626D01*
X62560096Y-148115857D01*
X62481169Y-148263518D01*
X62374949Y-148392949D01*
X62245518Y-148499169D01*
X62171170Y-148538909D01*
X62097855Y-148578097D01*
X62054682Y-148591193D01*
X61937627Y-148626701D01*
X61771000Y-148643112D01*
X61604374Y-148626701D01*
X61487319Y-148591193D01*
X61444146Y-148578097D01*
X61370831Y-148538909D01*
X61296483Y-148499169D01*
X61167051Y-148392948D01*
X61060831Y-148263518D01*
X60981904Y-148115857D01*
X60933299Y-147955627D01*
X60921000Y-147830752D01*
X60921000Y-147597249D01*
X60933299Y-147472374D01*
X60981904Y-147312143D01*
X61060831Y-147164482D01*
X61167051Y-147035051D01*
X61296482Y-146928831D01*
X61444143Y-146849904D01*
X61444145Y-146849903D01*
X61524258Y-146825602D01*
X61604373Y-146801299D01*
X61771000Y-146784888D01*
X61937626Y-146801299D01*
X61937626Y-146801299D01*
G37*
G36*
X59990677Y-146792701D02*
G01*
X60020909Y-146801873D01*
X60048771Y-146816764D01*
X60073193Y-146836807D01*
X60093236Y-146861229D01*
X60108127Y-146889091D01*
X60117299Y-146919323D01*
X60121000Y-146956905D01*
X60121000Y-148471095D01*
X60117299Y-148508677D01*
X60108127Y-148538909D01*
X60093236Y-148566771D01*
X60073193Y-148591193D01*
X60048771Y-148611236D01*
X60020909Y-148626127D01*
X59990677Y-148635299D01*
X59953095Y-148639000D01*
X58588905Y-148639000D01*
X58551323Y-148635299D01*
X58521091Y-148626127D01*
X58493229Y-148611236D01*
X58468807Y-148591193D01*
X58448764Y-148566771D01*
X58433873Y-148538909D01*
X58424701Y-148508677D01*
X58421000Y-148471095D01*
X58421000Y-146956905D01*
X58424701Y-146919323D01*
X58433873Y-146889091D01*
X58448764Y-146861229D01*
X58468807Y-146836807D01*
X58493229Y-146816764D01*
X58521091Y-146801873D01*
X58551323Y-146792701D01*
X58588905Y-146789000D01*
X59953095Y-146789000D01*
X59990677Y-146792701D01*
X59990677Y-146792701D01*
G37*
G36*
X129074014Y-146251234D02*
G01*
X129168269Y-146279826D01*
X129246214Y-146321489D01*
X129255129Y-146326254D01*
X129331264Y-146388736D01*
X129382542Y-146451219D01*
X129393747Y-146464872D01*
X129440174Y-146551730D01*
X129468766Y-146645985D01*
X129476000Y-146719436D01*
X129476000Y-147318564D01*
X129468766Y-147392015D01*
X129440174Y-147486270D01*
X129393747Y-147573128D01*
X129331264Y-147649264D01*
X129255128Y-147711747D01*
X129168270Y-147758174D01*
X129074015Y-147786766D01*
X128976000Y-147796419D01*
X128877986Y-147786766D01*
X128783731Y-147758174D01*
X128696873Y-147711747D01*
X128620737Y-147649264D01*
X128558255Y-147573130D01*
X128511825Y-147486268D01*
X128483234Y-147392015D01*
X128476000Y-147318564D01*
X128476000Y-146719437D01*
X128483234Y-146645986D01*
X128511826Y-146551731D01*
X128558253Y-146464873D01*
X128558254Y-146464871D01*
X128620736Y-146388736D01*
X128696871Y-146326254D01*
X128696870Y-146326254D01*
X128696872Y-146326253D01*
X128783730Y-146279826D01*
X128877985Y-146251234D01*
X128976000Y-146241581D01*
X129074014Y-146251234D01*
X129074014Y-146251234D01*
G37*
G36*
X122074014Y-146251234D02*
G01*
X122168269Y-146279826D01*
X122246214Y-146321489D01*
X122255129Y-146326254D01*
X122331264Y-146388736D01*
X122382542Y-146451219D01*
X122393747Y-146464872D01*
X122440174Y-146551730D01*
X122468766Y-146645985D01*
X122476000Y-146719436D01*
X122476000Y-147318564D01*
X122468766Y-147392015D01*
X122440174Y-147486270D01*
X122393747Y-147573128D01*
X122331264Y-147649264D01*
X122255128Y-147711747D01*
X122168270Y-147758174D01*
X122074015Y-147786766D01*
X121976000Y-147796419D01*
X121877986Y-147786766D01*
X121783731Y-147758174D01*
X121696873Y-147711747D01*
X121620737Y-147649264D01*
X121558255Y-147573130D01*
X121511825Y-147486268D01*
X121483234Y-147392015D01*
X121476000Y-147318564D01*
X121476000Y-146719437D01*
X121483234Y-146645986D01*
X121511826Y-146551731D01*
X121558253Y-146464873D01*
X121558254Y-146464871D01*
X121620736Y-146388736D01*
X121696871Y-146326254D01*
X121696870Y-146326254D01*
X121696872Y-146326253D01*
X121783730Y-146279826D01*
X121877985Y-146251234D01*
X121976000Y-146241581D01*
X122074014Y-146251234D01*
X122074014Y-146251234D01*
G37*
G36*
X128172593Y-143846291D02*
G01*
X128219116Y-143850873D01*
X128285359Y-143870967D01*
X128308658Y-143878035D01*
X128386453Y-143919618D01*
X128391173Y-143922141D01*
X128463501Y-143981499D01*
X128522859Y-144053827D01*
X128522860Y-144053829D01*
X128566965Y-144136342D01*
X128594127Y-144225885D01*
X128603298Y-144319000D01*
X128594127Y-144412115D01*
X128566965Y-144501658D01*
X128534186Y-144562982D01*
X128522859Y-144584173D01*
X128463501Y-144656501D01*
X128391173Y-144715859D01*
X128391171Y-144715860D01*
X128308658Y-144759965D01*
X128285359Y-144767033D01*
X128219116Y-144787127D01*
X128172593Y-144791709D01*
X128149333Y-144794000D01*
X127802667Y-144794000D01*
X127779407Y-144791709D01*
X127732884Y-144787127D01*
X127666641Y-144767033D01*
X127643342Y-144759965D01*
X127560829Y-144715860D01*
X127560827Y-144715859D01*
X127488499Y-144656501D01*
X127429141Y-144584173D01*
X127417814Y-144562982D01*
X127385035Y-144501658D01*
X127357873Y-144412115D01*
X127348702Y-144319000D01*
X127357873Y-144225885D01*
X127385035Y-144136342D01*
X127429140Y-144053829D01*
X127429141Y-144053827D01*
X127488499Y-143981499D01*
X127560827Y-143922141D01*
X127565547Y-143919618D01*
X127643342Y-143878035D01*
X127666641Y-143870967D01*
X127732884Y-143850873D01*
X127779407Y-143846291D01*
X127802667Y-143844000D01*
X128149333Y-143844000D01*
X128172593Y-143846291D01*
X128172593Y-143846291D01*
G37*
G36*
X123172593Y-143846291D02*
G01*
X123219116Y-143850873D01*
X123285359Y-143870967D01*
X123308658Y-143878035D01*
X123386453Y-143919618D01*
X123391173Y-143922141D01*
X123463501Y-143981499D01*
X123522859Y-144053827D01*
X123522860Y-144053829D01*
X123566965Y-144136342D01*
X123594127Y-144225885D01*
X123603298Y-144319000D01*
X123594127Y-144412115D01*
X123566965Y-144501658D01*
X123534186Y-144562982D01*
X123522859Y-144584173D01*
X123463501Y-144656501D01*
X123391173Y-144715859D01*
X123391171Y-144715860D01*
X123308658Y-144759965D01*
X123285359Y-144767033D01*
X123219116Y-144787127D01*
X123172593Y-144791709D01*
X123149333Y-144794000D01*
X122802667Y-144794000D01*
X122779407Y-144791709D01*
X122732884Y-144787127D01*
X122666641Y-144767033D01*
X122643342Y-144759965D01*
X122560829Y-144715860D01*
X122560827Y-144715859D01*
X122488499Y-144656501D01*
X122429141Y-144584173D01*
X122417814Y-144562982D01*
X122385035Y-144501658D01*
X122357873Y-144412115D01*
X122348702Y-144319000D01*
X122357873Y-144225885D01*
X122385035Y-144136342D01*
X122429140Y-144053829D01*
X122429141Y-144053827D01*
X122488499Y-143981499D01*
X122560827Y-143922141D01*
X122565547Y-143919618D01*
X122643342Y-143878035D01*
X122666641Y-143870967D01*
X122732884Y-143850873D01*
X122779407Y-143846291D01*
X122802667Y-143844000D01*
X123149333Y-143844000D01*
X123172593Y-143846291D01*
X123172593Y-143846291D01*
G37*
G36*
X142493195Y-138322522D02*
G01*
X142542267Y-138332283D01*
X142680942Y-138389724D01*
X142805747Y-138473116D01*
X142911884Y-138579253D01*
X142995276Y-138704058D01*
X143052717Y-138842733D01*
X143082000Y-138989950D01*
X143082000Y-139140050D01*
X143052717Y-139287267D01*
X142995276Y-139425942D01*
X142911884Y-139550747D01*
X142805747Y-139656884D01*
X142680942Y-139740276D01*
X142542267Y-139797717D01*
X142493195Y-139807478D01*
X142395052Y-139827000D01*
X142244948Y-139827000D01*
X142146805Y-139807478D01*
X142097733Y-139797717D01*
X141959058Y-139740276D01*
X141834253Y-139656884D01*
X141728116Y-139550747D01*
X141644724Y-139425942D01*
X141587283Y-139287267D01*
X141558000Y-139140050D01*
X141558000Y-138989950D01*
X141587283Y-138842733D01*
X141644724Y-138704058D01*
X141728116Y-138579253D01*
X141834253Y-138473116D01*
X141959058Y-138389724D01*
X142097733Y-138332283D01*
X142146805Y-138322522D01*
X142244948Y-138303000D01*
X142395052Y-138303000D01*
X142493195Y-138322522D01*
X142493195Y-138322522D01*
G37*
G36*
X147493195Y-138322522D02*
G01*
X147542267Y-138332283D01*
X147680942Y-138389724D01*
X147805747Y-138473116D01*
X147911884Y-138579253D01*
X147995276Y-138704058D01*
X148052717Y-138842733D01*
X148082000Y-138989950D01*
X148082000Y-139140050D01*
X148052717Y-139287267D01*
X147995276Y-139425942D01*
X147911884Y-139550747D01*
X147805747Y-139656884D01*
X147680942Y-139740276D01*
X147542267Y-139797717D01*
X147493195Y-139807478D01*
X147395052Y-139827000D01*
X147244948Y-139827000D01*
X147146805Y-139807478D01*
X147097733Y-139797717D01*
X146959058Y-139740276D01*
X146834253Y-139656884D01*
X146728116Y-139550747D01*
X146644724Y-139425942D01*
X146587283Y-139287267D01*
X146558000Y-139140050D01*
X146558000Y-138989950D01*
X146587283Y-138842733D01*
X146644724Y-138704058D01*
X146728116Y-138579253D01*
X146834253Y-138473116D01*
X146959058Y-138389724D01*
X147097733Y-138332283D01*
X147146805Y-138322522D01*
X147244948Y-138303000D01*
X147395052Y-138303000D01*
X147493195Y-138322522D01*
X147493195Y-138322522D01*
G37*
G36*
X93144766Y-130863821D02*
G01*
X93281257Y-130920358D01*
X93404097Y-131002437D01*
X93508563Y-131106903D01*
X93590642Y-131229743D01*
X93647179Y-131366234D01*
X93676000Y-131511130D01*
X93676000Y-131658870D01*
X93647179Y-131803766D01*
X93590642Y-131940257D01*
X93508563Y-132063097D01*
X93404097Y-132167563D01*
X93281257Y-132249642D01*
X93144766Y-132306179D01*
X92999870Y-132335000D01*
X92852130Y-132335000D01*
X92707234Y-132306179D01*
X92570743Y-132249642D01*
X92447903Y-132167563D01*
X92343437Y-132063097D01*
X92261358Y-131940257D01*
X92204821Y-131803766D01*
X92176000Y-131658870D01*
X92176000Y-131511130D01*
X92204821Y-131366234D01*
X92261358Y-131229743D01*
X92343437Y-131106903D01*
X92447903Y-131002437D01*
X92570743Y-130920358D01*
X92707234Y-130863821D01*
X92852130Y-130835000D01*
X92999870Y-130835000D01*
X93144766Y-130863821D01*
X93144766Y-130863821D01*
G37*
G36*
X95176766Y-130863821D02*
G01*
X95313257Y-130920358D01*
X95436097Y-131002437D01*
X95540563Y-131106903D01*
X95622642Y-131229743D01*
X95679179Y-131366234D01*
X95708000Y-131511130D01*
X95708000Y-131658870D01*
X95679179Y-131803766D01*
X95622642Y-131940257D01*
X95540563Y-132063097D01*
X95436097Y-132167563D01*
X95313257Y-132249642D01*
X95176766Y-132306179D01*
X95031870Y-132335000D01*
X94884130Y-132335000D01*
X94739234Y-132306179D01*
X94602743Y-132249642D01*
X94479903Y-132167563D01*
X94375437Y-132063097D01*
X94293358Y-131940257D01*
X94236821Y-131803766D01*
X94208000Y-131658870D01*
X94208000Y-131511130D01*
X94236821Y-131366234D01*
X94293358Y-131229743D01*
X94375437Y-131106903D01*
X94479903Y-131002437D01*
X94602743Y-130920358D01*
X94739234Y-130863821D01*
X94884130Y-130835000D01*
X95031870Y-130835000D01*
X95176766Y-130863821D01*
X95176766Y-130863821D01*
G37*
G36*
X113718766Y-129974821D02*
G01*
X113855257Y-130031358D01*
X113978097Y-130113437D01*
X114082563Y-130217903D01*
X114164642Y-130340743D01*
X114221179Y-130477234D01*
X114250000Y-130622130D01*
X114250000Y-130769870D01*
X114221179Y-130914766D01*
X114164642Y-131051257D01*
X114082563Y-131174097D01*
X113978097Y-131278563D01*
X113855257Y-131360642D01*
X113718766Y-131417179D01*
X113573870Y-131446000D01*
X113426130Y-131446000D01*
X113281234Y-131417179D01*
X113144743Y-131360642D01*
X113021903Y-131278563D01*
X112917437Y-131174097D01*
X112835358Y-131051257D01*
X112778821Y-130914766D01*
X112750000Y-130769870D01*
X112750000Y-130622130D01*
X112778821Y-130477234D01*
X112835358Y-130340743D01*
X112917437Y-130217903D01*
X113021903Y-130113437D01*
X113144743Y-130031358D01*
X113281234Y-129974821D01*
X113426130Y-129946000D01*
X113573870Y-129946000D01*
X113718766Y-129974821D01*
X113718766Y-129974821D01*
G37*
G36*
X111051766Y-129720821D02*
G01*
X111188257Y-129777358D01*
X111311097Y-129859437D01*
X111415563Y-129963903D01*
X111497642Y-130086743D01*
X111554179Y-130223234D01*
X111583000Y-130368130D01*
X111583000Y-130515870D01*
X111554179Y-130660766D01*
X111497642Y-130797257D01*
X111415563Y-130920097D01*
X111311097Y-131024563D01*
X111188257Y-131106642D01*
X111051766Y-131163179D01*
X110906870Y-131192000D01*
X110759130Y-131192000D01*
X110614234Y-131163179D01*
X110477743Y-131106642D01*
X110354903Y-131024563D01*
X110250437Y-130920097D01*
X110168358Y-130797257D01*
X110111821Y-130660766D01*
X110083000Y-130515870D01*
X110083000Y-130368130D01*
X110111821Y-130223234D01*
X110168358Y-130086743D01*
X110250437Y-129963903D01*
X110354903Y-129859437D01*
X110477743Y-129777358D01*
X110614234Y-129720821D01*
X110759130Y-129692000D01*
X110906870Y-129692000D01*
X111051766Y-129720821D01*
X111051766Y-129720821D01*
G37*
G36*
X114988766Y-128196821D02*
G01*
X115125257Y-128253358D01*
X115248097Y-128335437D01*
X115352563Y-128439903D01*
X115434642Y-128562743D01*
X115491179Y-128699234D01*
X115520000Y-128844130D01*
X115520000Y-128991870D01*
X115491179Y-129136766D01*
X115434642Y-129273257D01*
X115352563Y-129396097D01*
X115248097Y-129500563D01*
X115125257Y-129582642D01*
X114988766Y-129639179D01*
X114843870Y-129668000D01*
X114696130Y-129668000D01*
X114551234Y-129639179D01*
X114414743Y-129582642D01*
X114291903Y-129500563D01*
X114187437Y-129396097D01*
X114105358Y-129273257D01*
X114048821Y-129136766D01*
X114020000Y-128991870D01*
X114020000Y-128844130D01*
X114048821Y-128699234D01*
X114105358Y-128562743D01*
X114187437Y-128439903D01*
X114291903Y-128335437D01*
X114414743Y-128253358D01*
X114551234Y-128196821D01*
X114696130Y-128168000D01*
X114843870Y-128168000D01*
X114988766Y-128196821D01*
X114988766Y-128196821D01*
G37*
G36*
X113845766Y-126418821D02*
G01*
X113982257Y-126475358D01*
X114105097Y-126557437D01*
X114209563Y-126661903D01*
X114291642Y-126784743D01*
X114348179Y-126921234D01*
X114377000Y-127066130D01*
X114377000Y-127213870D01*
X114348179Y-127358766D01*
X114291642Y-127495257D01*
X114209563Y-127618097D01*
X114105097Y-127722563D01*
X113982257Y-127804642D01*
X113845766Y-127861179D01*
X113700870Y-127890000D01*
X113553130Y-127890000D01*
X113408234Y-127861179D01*
X113271743Y-127804642D01*
X113148903Y-127722563D01*
X113044437Y-127618097D01*
X112962358Y-127495257D01*
X112905821Y-127358766D01*
X112877000Y-127213870D01*
X112877000Y-127066130D01*
X112905821Y-126921234D01*
X112962358Y-126784743D01*
X113044437Y-126661903D01*
X113148903Y-126557437D01*
X113271743Y-126475358D01*
X113408234Y-126418821D01*
X113553130Y-126390000D01*
X113700870Y-126390000D01*
X113845766Y-126418821D01*
X113845766Y-126418821D01*
G37*
G36*
X113083766Y-123878821D02*
G01*
X113220257Y-123935358D01*
X113343097Y-124017437D01*
X113447563Y-124121903D01*
X113529642Y-124244743D01*
X113586179Y-124381234D01*
X113615000Y-124526130D01*
X113615000Y-124673870D01*
X113586179Y-124818766D01*
X113529642Y-124955257D01*
X113447563Y-125078097D01*
X113343097Y-125182563D01*
X113220257Y-125264642D01*
X113083766Y-125321179D01*
X112938870Y-125350000D01*
X112791130Y-125350000D01*
X112646234Y-125321179D01*
X112509743Y-125264642D01*
X112386903Y-125182563D01*
X112282437Y-125078097D01*
X112200358Y-124955257D01*
X112143821Y-124818766D01*
X112115000Y-124673870D01*
X112115000Y-124526130D01*
X112143821Y-124381234D01*
X112200358Y-124244743D01*
X112282437Y-124121903D01*
X112386903Y-124017437D01*
X112509743Y-123935358D01*
X112646234Y-123878821D01*
X112791130Y-123850000D01*
X112938870Y-123850000D01*
X113083766Y-123878821D01*
X113083766Y-123878821D01*
G37*
G36*
X111051766Y-123878821D02*
G01*
X111188257Y-123935358D01*
X111311097Y-124017437D01*
X111415563Y-124121903D01*
X111497642Y-124244743D01*
X111554179Y-124381234D01*
X111583000Y-124526130D01*
X111583000Y-124673870D01*
X111554179Y-124818766D01*
X111497642Y-124955257D01*
X111415563Y-125078097D01*
X111311097Y-125182563D01*
X111188257Y-125264642D01*
X111051766Y-125321179D01*
X110906870Y-125350000D01*
X110759130Y-125350000D01*
X110614234Y-125321179D01*
X110477743Y-125264642D01*
X110354903Y-125182563D01*
X110250437Y-125078097D01*
X110168358Y-124955257D01*
X110111821Y-124818766D01*
X110083000Y-124673870D01*
X110083000Y-124526130D01*
X110111821Y-124381234D01*
X110168358Y-124244743D01*
X110250437Y-124121903D01*
X110354903Y-124017437D01*
X110477743Y-123935358D01*
X110614234Y-123878821D01*
X110759130Y-123850000D01*
X110906870Y-123850000D01*
X111051766Y-123878821D01*
X111051766Y-123878821D01*
G37*
G36*
X115115766Y-123751821D02*
G01*
X115252257Y-123808358D01*
X115375097Y-123890437D01*
X115479563Y-123994903D01*
X115561642Y-124117743D01*
X115618179Y-124254234D01*
X115647000Y-124399130D01*
X115647000Y-124546870D01*
X115618179Y-124691766D01*
X115561642Y-124828257D01*
X115479563Y-124951097D01*
X115375097Y-125055563D01*
X115252257Y-125137642D01*
X115115766Y-125194179D01*
X114970870Y-125223000D01*
X114823130Y-125223000D01*
X114678234Y-125194179D01*
X114541743Y-125137642D01*
X114418903Y-125055563D01*
X114314437Y-124951097D01*
X114232358Y-124828257D01*
X114175821Y-124691766D01*
X114147000Y-124546870D01*
X114147000Y-124399130D01*
X114175821Y-124254234D01*
X114232358Y-124117743D01*
X114314437Y-123994903D01*
X114418903Y-123890437D01*
X114541743Y-123808358D01*
X114678234Y-123751821D01*
X114823130Y-123723000D01*
X114970870Y-123723000D01*
X115115766Y-123751821D01*
X115115766Y-123751821D01*
G37*
G36*
X118582766Y-122976821D02*
G01*
X118719257Y-123033358D01*
X118842097Y-123115437D01*
X118946563Y-123219903D01*
X119028642Y-123342743D01*
X119085179Y-123479234D01*
X119114000Y-123624130D01*
X119114000Y-123771870D01*
X119085179Y-123916766D01*
X119028642Y-124053257D01*
X118946563Y-124176097D01*
X118842097Y-124280563D01*
X118719257Y-124362642D01*
X118582766Y-124419179D01*
X118437870Y-124448000D01*
X118290130Y-124448000D01*
X118145234Y-124419179D01*
X118008743Y-124362642D01*
X117885903Y-124280563D01*
X117781437Y-124176097D01*
X117699358Y-124053257D01*
X117642821Y-123916766D01*
X117614000Y-123771870D01*
X117614000Y-123624130D01*
X117642821Y-123479234D01*
X117699358Y-123342743D01*
X117781437Y-123219903D01*
X117885903Y-123115437D01*
X118008743Y-123033358D01*
X118145234Y-122976821D01*
X118290130Y-122948000D01*
X118437870Y-122948000D01*
X118582766Y-122976821D01*
X118582766Y-122976821D01*
G37*
G36*
X83300570Y-116810790D02*
G01*
X81601310Y-116810790D01*
X81601310Y-115309650D01*
X83300570Y-115309650D01*
X83300570Y-116810790D01*
X83300570Y-116810790D01*
G37*
G36*
X94100650Y-115184651D02*
G01*
X94103052Y-115209037D01*
X94110165Y-115232486D01*
X94121716Y-115254097D01*
X94137261Y-115273039D01*
X94156203Y-115288584D01*
X94177814Y-115300135D01*
X94201263Y-115307248D01*
X94225649Y-115309650D01*
X95910400Y-115309650D01*
X95910400Y-116810790D01*
X94210042Y-116810790D01*
X94209587Y-116810652D01*
X94185201Y-116808250D01*
X93300550Y-116808250D01*
X93300550Y-115129310D01*
X94100650Y-115129310D01*
X94100650Y-115184651D01*
X94100650Y-115184651D01*
G37*
G36*
X90801190Y-116808250D02*
G01*
X90001090Y-116808250D01*
X90001090Y-115129310D01*
X90801190Y-115129310D01*
X90801190Y-116808250D01*
X90801190Y-116808250D01*
G37*
G36*
X91901010Y-116808250D02*
G01*
X91100910Y-116808250D01*
X91100910Y-115129310D01*
X91901010Y-115129310D01*
X91901010Y-116808250D01*
X91901010Y-116808250D01*
G37*
G36*
X89698830Y-116808250D02*
G01*
X88898730Y-116808250D01*
X88898730Y-115129310D01*
X89698830Y-115129310D01*
X89698830Y-116808250D01*
X89698830Y-116808250D01*
G37*
G36*
X88599010Y-116808250D02*
G01*
X87798910Y-116808250D01*
X87798910Y-115129310D01*
X88599010Y-115129310D01*
X88599010Y-116808250D01*
X88599010Y-116808250D01*
G37*
G36*
X87499190Y-116808250D02*
G01*
X86699090Y-116808250D01*
X86699090Y-115129310D01*
X87499190Y-115129310D01*
X87499190Y-116808250D01*
X87499190Y-116808250D01*
G37*
G36*
X86399370Y-116808250D02*
G01*
X85599270Y-116808250D01*
X85599270Y-115129310D01*
X86399370Y-115129310D01*
X86399370Y-116808250D01*
X86399370Y-116808250D01*
G37*
G36*
X93000830Y-116808250D02*
G01*
X92200730Y-116808250D01*
X92200730Y-115129310D01*
X93000830Y-115129310D01*
X93000830Y-116808250D01*
X93000830Y-116808250D01*
G37*
G36*
X80190766Y-114099821D02*
G01*
X80327257Y-114156358D01*
X80450097Y-114238437D01*
X80554563Y-114342903D01*
X80636642Y-114465743D01*
X80693179Y-114602234D01*
X80722000Y-114747130D01*
X80722000Y-114894870D01*
X80693179Y-115039766D01*
X80636642Y-115176257D01*
X80554563Y-115299097D01*
X80450097Y-115403563D01*
X80327257Y-115485642D01*
X80190766Y-115542179D01*
X80045870Y-115571000D01*
X79898130Y-115571000D01*
X79753234Y-115542179D01*
X79616743Y-115485642D01*
X79493903Y-115403563D01*
X79389437Y-115299097D01*
X79307358Y-115176257D01*
X79250821Y-115039766D01*
X79222000Y-114894870D01*
X79222000Y-114747130D01*
X79250821Y-114602234D01*
X79307358Y-114465743D01*
X79389437Y-114342903D01*
X79493903Y-114238437D01*
X79616743Y-114156358D01*
X79753234Y-114099821D01*
X79898130Y-114071000D01*
X80045870Y-114071000D01*
X80190766Y-114099821D01*
X80190766Y-114099821D01*
G37*
G36*
X96400620Y-115059460D02*
G01*
X95110300Y-115059460D01*
X95110300Y-113758980D01*
X96400620Y-113758980D01*
X96400620Y-115059460D01*
X96400620Y-115059460D01*
G37*
G36*
X80190766Y-112067821D02*
G01*
X80327257Y-112124358D01*
X80450097Y-112206437D01*
X80554563Y-112310903D01*
X80636642Y-112433743D01*
X80693179Y-112570234D01*
X80722000Y-112715130D01*
X80722000Y-112862870D01*
X80693179Y-113007766D01*
X80636642Y-113144257D01*
X80554563Y-113267097D01*
X80450097Y-113371563D01*
X80327257Y-113453642D01*
X80190766Y-113510179D01*
X80045870Y-113539000D01*
X79898130Y-113539000D01*
X79753234Y-113510179D01*
X79616743Y-113453642D01*
X79493903Y-113371563D01*
X79389437Y-113267097D01*
X79307358Y-113144257D01*
X79250821Y-113007766D01*
X79222000Y-112862870D01*
X79222000Y-112715130D01*
X79250821Y-112570234D01*
X79307358Y-112433743D01*
X79389437Y-112310903D01*
X79493903Y-112206437D01*
X79616743Y-112124358D01*
X79753234Y-112067821D01*
X79898130Y-112039000D01*
X80045870Y-112039000D01*
X80190766Y-112067821D01*
X80190766Y-112067821D01*
G37*
G36*
X80190766Y-110035821D02*
G01*
X80327257Y-110092358D01*
X80450097Y-110174437D01*
X80554563Y-110278903D01*
X80636642Y-110401743D01*
X80693179Y-110538234D01*
X80722000Y-110683130D01*
X80722000Y-110830870D01*
X80693179Y-110975766D01*
X80636642Y-111112257D01*
X80554563Y-111235097D01*
X80450097Y-111339563D01*
X80327257Y-111421642D01*
X80190766Y-111478179D01*
X80045870Y-111507000D01*
X79898130Y-111507000D01*
X79753234Y-111478179D01*
X79616743Y-111421642D01*
X79493903Y-111339563D01*
X79389437Y-111235097D01*
X79307358Y-111112257D01*
X79250821Y-110975766D01*
X79222000Y-110830870D01*
X79222000Y-110683130D01*
X79250821Y-110538234D01*
X79307358Y-110401743D01*
X79389437Y-110278903D01*
X79493903Y-110174437D01*
X79616743Y-110092358D01*
X79753234Y-110035821D01*
X79898130Y-110007000D01*
X80045870Y-110007000D01*
X80190766Y-110035821D01*
X80190766Y-110035821D01*
G37*
G36*
X98097766Y-108765821D02*
G01*
X98234257Y-108822358D01*
X98357097Y-108904437D01*
X98461563Y-109008903D01*
X98543642Y-109131743D01*
X98600179Y-109268234D01*
X98629000Y-109413130D01*
X98629000Y-109560870D01*
X98600179Y-109705766D01*
X98543642Y-109842257D01*
X98461563Y-109965097D01*
X98357097Y-110069563D01*
X98234257Y-110151642D01*
X98097766Y-110208179D01*
X97952870Y-110237000D01*
X97805130Y-110237000D01*
X97660234Y-110208179D01*
X97523743Y-110151642D01*
X97400903Y-110069563D01*
X97296437Y-109965097D01*
X97214358Y-109842257D01*
X97157821Y-109705766D01*
X97129000Y-109560870D01*
X97129000Y-109413130D01*
X97157821Y-109268234D01*
X97214358Y-109131743D01*
X97296437Y-109008903D01*
X97400903Y-108904437D01*
X97523743Y-108822358D01*
X97660234Y-108765821D01*
X97805130Y-108737000D01*
X97952870Y-108737000D01*
X98097766Y-108765821D01*
X98097766Y-108765821D01*
G37*
G36*
X106479766Y-108130821D02*
G01*
X106616257Y-108187358D01*
X106739097Y-108269437D01*
X106843563Y-108373903D01*
X106925642Y-108496743D01*
X106982179Y-108633234D01*
X107011000Y-108778130D01*
X107011000Y-108925870D01*
X106982179Y-109070766D01*
X106925642Y-109207257D01*
X106843563Y-109330097D01*
X106739097Y-109434563D01*
X106616257Y-109516642D01*
X106479766Y-109573179D01*
X106334870Y-109602000D01*
X106187130Y-109602000D01*
X106042234Y-109573179D01*
X105905743Y-109516642D01*
X105782903Y-109434563D01*
X105678437Y-109330097D01*
X105596358Y-109207257D01*
X105539821Y-109070766D01*
X105511000Y-108925870D01*
X105511000Y-108778130D01*
X105539821Y-108633234D01*
X105596358Y-108496743D01*
X105678437Y-108373903D01*
X105782903Y-108269437D01*
X105905743Y-108187358D01*
X106042234Y-108130821D01*
X106187130Y-108102000D01*
X106334870Y-108102000D01*
X106479766Y-108130821D01*
X106479766Y-108130821D01*
G37*
G36*
X79999024Y-108240955D02*
G01*
X80031738Y-108250879D01*
X80061885Y-108266993D01*
X80088315Y-108288685D01*
X80110007Y-108315115D01*
X80126121Y-108345262D01*
X80136045Y-108377976D01*
X80140000Y-108418138D01*
X80140000Y-109005862D01*
X80136045Y-109046024D01*
X80126121Y-109078738D01*
X80110007Y-109108885D01*
X80088315Y-109135315D01*
X80061885Y-109157007D01*
X80031738Y-109173121D01*
X79999024Y-109183045D01*
X79958862Y-109187000D01*
X79271138Y-109187000D01*
X79230976Y-109183045D01*
X79198262Y-109173121D01*
X79168115Y-109157007D01*
X79141685Y-109135315D01*
X79119993Y-109108885D01*
X79103879Y-109078738D01*
X79093955Y-109046024D01*
X79090000Y-109005862D01*
X79090000Y-108418138D01*
X79093955Y-108377976D01*
X79103879Y-108345262D01*
X79119993Y-108315115D01*
X79141685Y-108288685D01*
X79168115Y-108266993D01*
X79198262Y-108250879D01*
X79230976Y-108240955D01*
X79271138Y-108237000D01*
X79958862Y-108237000D01*
X79999024Y-108240955D01*
X79999024Y-108240955D01*
G37*
G36*
X78249024Y-108240955D02*
G01*
X78281738Y-108250879D01*
X78311885Y-108266993D01*
X78338315Y-108288685D01*
X78360007Y-108315115D01*
X78376121Y-108345262D01*
X78386045Y-108377976D01*
X78390000Y-108418138D01*
X78390000Y-109005862D01*
X78386045Y-109046024D01*
X78376121Y-109078738D01*
X78360007Y-109108885D01*
X78338315Y-109135315D01*
X78311885Y-109157007D01*
X78281738Y-109173121D01*
X78249024Y-109183045D01*
X78208862Y-109187000D01*
X77521138Y-109187000D01*
X77480976Y-109183045D01*
X77448262Y-109173121D01*
X77418115Y-109157007D01*
X77391685Y-109135315D01*
X77369993Y-109108885D01*
X77353879Y-109078738D01*
X77343955Y-109046024D01*
X77340000Y-109005862D01*
X77340000Y-108418138D01*
X77343955Y-108377976D01*
X77353879Y-108345262D01*
X77369993Y-108315115D01*
X77391685Y-108288685D01*
X77418115Y-108266993D01*
X77448262Y-108250879D01*
X77480976Y-108240955D01*
X77521138Y-108237000D01*
X78208862Y-108237000D01*
X78249024Y-108240955D01*
X78249024Y-108240955D01*
G37*
G36*
X111231024Y-107872955D02*
G01*
X111263738Y-107882879D01*
X111293885Y-107898993D01*
X111320315Y-107920685D01*
X111342007Y-107947115D01*
X111358121Y-107977262D01*
X111368045Y-108009976D01*
X111372000Y-108050138D01*
X111372000Y-108637862D01*
X111368045Y-108678024D01*
X111358121Y-108710738D01*
X111342007Y-108740885D01*
X111320315Y-108767315D01*
X111293885Y-108789007D01*
X111263738Y-108805121D01*
X111231024Y-108815045D01*
X111190862Y-108819000D01*
X110503138Y-108819000D01*
X110462976Y-108815045D01*
X110430262Y-108805121D01*
X110400115Y-108789007D01*
X110373685Y-108767315D01*
X110351993Y-108740885D01*
X110335879Y-108710738D01*
X110325955Y-108678024D01*
X110322000Y-108637862D01*
X110322000Y-108050138D01*
X110325955Y-108009976D01*
X110335879Y-107977262D01*
X110351993Y-107947115D01*
X110373685Y-107920685D01*
X110400115Y-107898993D01*
X110430262Y-107882879D01*
X110462976Y-107872955D01*
X110503138Y-107869000D01*
X111190862Y-107869000D01*
X111231024Y-107872955D01*
X111231024Y-107872955D01*
G37*
G36*
X112981024Y-107872955D02*
G01*
X113013738Y-107882879D01*
X113043885Y-107898993D01*
X113070315Y-107920685D01*
X113092007Y-107947115D01*
X113108121Y-107977262D01*
X113118045Y-108009976D01*
X113122000Y-108050138D01*
X113122000Y-108637862D01*
X113118045Y-108678024D01*
X113108121Y-108710738D01*
X113092007Y-108740885D01*
X113070315Y-108767315D01*
X113043885Y-108789007D01*
X113013738Y-108805121D01*
X112981024Y-108815045D01*
X112940862Y-108819000D01*
X112253138Y-108819000D01*
X112212976Y-108815045D01*
X112180262Y-108805121D01*
X112150115Y-108789007D01*
X112123685Y-108767315D01*
X112101993Y-108740885D01*
X112085879Y-108710738D01*
X112075955Y-108678024D01*
X112072000Y-108637862D01*
X112072000Y-108050138D01*
X112075955Y-108009976D01*
X112085879Y-107977262D01*
X112101993Y-107947115D01*
X112123685Y-107920685D01*
X112150115Y-107898993D01*
X112180262Y-107882879D01*
X112212976Y-107872955D01*
X112253138Y-107869000D01*
X112940862Y-107869000D01*
X112981024Y-107872955D01*
X112981024Y-107872955D01*
G37*
G36*
X100637766Y-106987821D02*
G01*
X100774257Y-107044358D01*
X100897097Y-107126437D01*
X101001563Y-107230903D01*
X101083642Y-107353743D01*
X101140179Y-107490234D01*
X101169000Y-107635130D01*
X101169000Y-107782870D01*
X101140179Y-107927766D01*
X101083642Y-108064257D01*
X101001563Y-108187097D01*
X100897097Y-108291563D01*
X100774257Y-108373642D01*
X100637766Y-108430179D01*
X100492870Y-108459000D01*
X100345130Y-108459000D01*
X100200234Y-108430179D01*
X100063743Y-108373642D01*
X99940903Y-108291563D01*
X99836437Y-108187097D01*
X99754358Y-108064257D01*
X99697821Y-107927766D01*
X99669000Y-107782870D01*
X99669000Y-107635130D01*
X99697821Y-107490234D01*
X99754358Y-107353743D01*
X99836437Y-107230903D01*
X99940903Y-107126437D01*
X100063743Y-107044358D01*
X100200234Y-106987821D01*
X100345130Y-106959000D01*
X100492870Y-106959000D01*
X100637766Y-106987821D01*
X100637766Y-106987821D01*
G37*
G36*
X104701766Y-106987821D02*
G01*
X104838257Y-107044358D01*
X104961097Y-107126437D01*
X105065563Y-107230903D01*
X105147642Y-107353743D01*
X105204179Y-107490234D01*
X105233000Y-107635130D01*
X105233000Y-107782870D01*
X105204179Y-107927766D01*
X105147642Y-108064257D01*
X105065563Y-108187097D01*
X104961097Y-108291563D01*
X104838257Y-108373642D01*
X104701766Y-108430179D01*
X104556870Y-108459000D01*
X104409130Y-108459000D01*
X104264234Y-108430179D01*
X104127743Y-108373642D01*
X104004903Y-108291563D01*
X103900437Y-108187097D01*
X103818358Y-108064257D01*
X103761821Y-107927766D01*
X103733000Y-107782870D01*
X103733000Y-107635130D01*
X103761821Y-107490234D01*
X103818358Y-107353743D01*
X103900437Y-107230903D01*
X104004903Y-107126437D01*
X104127743Y-107044358D01*
X104264234Y-106987821D01*
X104409130Y-106959000D01*
X104556870Y-106959000D01*
X104701766Y-106987821D01*
X104701766Y-106987821D01*
G37*
G36*
X102669766Y-106987821D02*
G01*
X102806257Y-107044358D01*
X102929097Y-107126437D01*
X103033563Y-107230903D01*
X103115642Y-107353743D01*
X103172179Y-107490234D01*
X103201000Y-107635130D01*
X103201000Y-107782870D01*
X103172179Y-107927766D01*
X103115642Y-108064257D01*
X103033563Y-108187097D01*
X102929097Y-108291563D01*
X102806257Y-108373642D01*
X102669766Y-108430179D01*
X102524870Y-108459000D01*
X102377130Y-108459000D01*
X102232234Y-108430179D01*
X102095743Y-108373642D01*
X101972903Y-108291563D01*
X101868437Y-108187097D01*
X101786358Y-108064257D01*
X101729821Y-107927766D01*
X101701000Y-107782870D01*
X101701000Y-107635130D01*
X101729821Y-107490234D01*
X101786358Y-107353743D01*
X101868437Y-107230903D01*
X101972903Y-107126437D01*
X102095743Y-107044358D01*
X102232234Y-106987821D01*
X102377130Y-106959000D01*
X102524870Y-106959000D01*
X102669766Y-106987821D01*
X102669766Y-106987821D01*
G37*
G36*
X96400620Y-107709970D02*
G01*
X95110300Y-107709970D01*
X95110300Y-106310430D01*
X96400620Y-106310430D01*
X96400620Y-107709970D01*
X96400620Y-107709970D01*
G37*
G36*
X106606766Y-106098821D02*
G01*
X106743257Y-106155358D01*
X106866097Y-106237437D01*
X106970563Y-106341903D01*
X107052642Y-106464743D01*
X107109179Y-106601234D01*
X107138000Y-106746130D01*
X107138000Y-106893870D01*
X107109179Y-107038766D01*
X107052642Y-107175257D01*
X106970563Y-107298097D01*
X106866097Y-107402563D01*
X106743257Y-107484642D01*
X106606766Y-107541179D01*
X106461870Y-107570000D01*
X106314130Y-107570000D01*
X106169234Y-107541179D01*
X106032743Y-107484642D01*
X105909903Y-107402563D01*
X105805437Y-107298097D01*
X105723358Y-107175257D01*
X105666821Y-107038766D01*
X105638000Y-106893870D01*
X105638000Y-106746130D01*
X105666821Y-106601234D01*
X105723358Y-106464743D01*
X105805437Y-106341903D01*
X105909903Y-106237437D01*
X106032743Y-106155358D01*
X106169234Y-106098821D01*
X106314130Y-106070000D01*
X106461870Y-106070000D01*
X106606766Y-106098821D01*
X106606766Y-106098821D01*
G37*
G36*
X79999024Y-106602955D02*
G01*
X80031738Y-106612879D01*
X80061885Y-106628993D01*
X80088315Y-106650685D01*
X80110007Y-106677115D01*
X80126121Y-106707262D01*
X80136045Y-106739976D01*
X80140000Y-106780138D01*
X80140000Y-107367862D01*
X80136045Y-107408024D01*
X80126121Y-107440738D01*
X80110007Y-107470885D01*
X80088315Y-107497315D01*
X80061885Y-107519007D01*
X80031738Y-107535121D01*
X79999024Y-107545045D01*
X79958862Y-107549000D01*
X79271138Y-107549000D01*
X79230976Y-107545045D01*
X79198262Y-107535121D01*
X79168115Y-107519007D01*
X79141685Y-107497315D01*
X79119993Y-107470885D01*
X79103879Y-107440738D01*
X79093955Y-107408024D01*
X79090000Y-107367862D01*
X79090000Y-106780138D01*
X79093955Y-106739976D01*
X79103879Y-106707262D01*
X79119993Y-106677115D01*
X79141685Y-106650685D01*
X79168115Y-106628993D01*
X79198262Y-106612879D01*
X79230976Y-106602955D01*
X79271138Y-106599000D01*
X79958862Y-106599000D01*
X79999024Y-106602955D01*
X79999024Y-106602955D01*
G37*
G36*
X78249024Y-106602955D02*
G01*
X78281738Y-106612879D01*
X78311885Y-106628993D01*
X78338315Y-106650685D01*
X78360007Y-106677115D01*
X78376121Y-106707262D01*
X78386045Y-106739976D01*
X78390000Y-106780138D01*
X78390000Y-107367862D01*
X78386045Y-107408024D01*
X78376121Y-107440738D01*
X78360007Y-107470885D01*
X78338315Y-107497315D01*
X78311885Y-107519007D01*
X78281738Y-107535121D01*
X78249024Y-107545045D01*
X78208862Y-107549000D01*
X77521138Y-107549000D01*
X77480976Y-107545045D01*
X77448262Y-107535121D01*
X77418115Y-107519007D01*
X77391685Y-107497315D01*
X77369993Y-107470885D01*
X77353879Y-107440738D01*
X77343955Y-107408024D01*
X77340000Y-107367862D01*
X77340000Y-106780138D01*
X77343955Y-106739976D01*
X77353879Y-106707262D01*
X77369993Y-106677115D01*
X77391685Y-106650685D01*
X77418115Y-106628993D01*
X77448262Y-106612879D01*
X77480976Y-106602955D01*
X77521138Y-106599000D01*
X78208862Y-106599000D01*
X78249024Y-106602955D01*
X78249024Y-106602955D01*
G37*
G36*
X111231024Y-106475955D02*
G01*
X111263738Y-106485879D01*
X111293885Y-106501993D01*
X111320315Y-106523685D01*
X111342007Y-106550115D01*
X111358121Y-106580262D01*
X111368045Y-106612976D01*
X111372000Y-106653138D01*
X111372000Y-107240862D01*
X111368045Y-107281024D01*
X111358121Y-107313738D01*
X111342007Y-107343885D01*
X111320315Y-107370315D01*
X111293885Y-107392007D01*
X111263738Y-107408121D01*
X111231024Y-107418045D01*
X111190862Y-107422000D01*
X110503138Y-107422000D01*
X110462976Y-107418045D01*
X110430262Y-107408121D01*
X110400115Y-107392007D01*
X110373685Y-107370315D01*
X110351993Y-107343885D01*
X110335879Y-107313738D01*
X110325955Y-107281024D01*
X110322000Y-107240862D01*
X110322000Y-106653138D01*
X110325955Y-106612976D01*
X110335879Y-106580262D01*
X110351993Y-106550115D01*
X110373685Y-106523685D01*
X110400115Y-106501993D01*
X110430262Y-106485879D01*
X110462976Y-106475955D01*
X110503138Y-106472000D01*
X111190862Y-106472000D01*
X111231024Y-106475955D01*
X111231024Y-106475955D01*
G37*
G36*
X112981024Y-106475955D02*
G01*
X113013738Y-106485879D01*
X113043885Y-106501993D01*
X113070315Y-106523685D01*
X113092007Y-106550115D01*
X113108121Y-106580262D01*
X113118045Y-106612976D01*
X113122000Y-106653138D01*
X113122000Y-107240862D01*
X113118045Y-107281024D01*
X113108121Y-107313738D01*
X113092007Y-107343885D01*
X113070315Y-107370315D01*
X113043885Y-107392007D01*
X113013738Y-107408121D01*
X112981024Y-107418045D01*
X112940862Y-107422000D01*
X112253138Y-107422000D01*
X112212976Y-107418045D01*
X112180262Y-107408121D01*
X112150115Y-107392007D01*
X112123685Y-107370315D01*
X112101993Y-107343885D01*
X112085879Y-107313738D01*
X112075955Y-107281024D01*
X112072000Y-107240862D01*
X112072000Y-106653138D01*
X112075955Y-106612976D01*
X112085879Y-106580262D01*
X112101993Y-106550115D01*
X112123685Y-106523685D01*
X112150115Y-106501993D01*
X112180262Y-106485879D01*
X112212976Y-106475955D01*
X112253138Y-106472000D01*
X112940862Y-106472000D01*
X112981024Y-106475955D01*
X112981024Y-106475955D01*
G37*
G36*
X112981024Y-105078955D02*
G01*
X113013738Y-105088879D01*
X113043885Y-105104993D01*
X113070315Y-105126685D01*
X113092007Y-105153115D01*
X113108121Y-105183262D01*
X113118045Y-105215976D01*
X113122000Y-105256138D01*
X113122000Y-105843862D01*
X113118045Y-105884024D01*
X113108121Y-105916738D01*
X113092007Y-105946885D01*
X113070315Y-105973315D01*
X113043885Y-105995007D01*
X113013738Y-106011121D01*
X112981024Y-106021045D01*
X112940862Y-106025000D01*
X112253138Y-106025000D01*
X112212976Y-106021045D01*
X112180262Y-106011121D01*
X112150115Y-105995007D01*
X112123685Y-105973315D01*
X112101993Y-105946885D01*
X112085879Y-105916738D01*
X112075955Y-105884024D01*
X112072000Y-105843862D01*
X112072000Y-105256138D01*
X112075955Y-105215976D01*
X112085879Y-105183262D01*
X112101993Y-105153115D01*
X112123685Y-105126685D01*
X112150115Y-105104993D01*
X112180262Y-105088879D01*
X112212976Y-105078955D01*
X112253138Y-105075000D01*
X112940862Y-105075000D01*
X112981024Y-105078955D01*
X112981024Y-105078955D01*
G37*
G36*
X111231024Y-105078955D02*
G01*
X111263738Y-105088879D01*
X111293885Y-105104993D01*
X111320315Y-105126685D01*
X111342007Y-105153115D01*
X111358121Y-105183262D01*
X111368045Y-105215976D01*
X111372000Y-105256138D01*
X111372000Y-105843862D01*
X111368045Y-105884024D01*
X111358121Y-105916738D01*
X111342007Y-105946885D01*
X111320315Y-105973315D01*
X111293885Y-105995007D01*
X111263738Y-106011121D01*
X111231024Y-106021045D01*
X111190862Y-106025000D01*
X110503138Y-106025000D01*
X110462976Y-106021045D01*
X110430262Y-106011121D01*
X110400115Y-105995007D01*
X110373685Y-105973315D01*
X110351993Y-105946885D01*
X110335879Y-105916738D01*
X110325955Y-105884024D01*
X110322000Y-105843862D01*
X110322000Y-105256138D01*
X110325955Y-105215976D01*
X110335879Y-105183262D01*
X110351993Y-105153115D01*
X110373685Y-105126685D01*
X110400115Y-105104993D01*
X110430262Y-105088879D01*
X110462976Y-105078955D01*
X110503138Y-105075000D01*
X111190862Y-105075000D01*
X111231024Y-105078955D01*
X111231024Y-105078955D01*
G37*
G36*
X78249024Y-104938955D02*
G01*
X78281738Y-104948879D01*
X78311885Y-104964993D01*
X78338315Y-104986685D01*
X78360007Y-105013115D01*
X78376121Y-105043262D01*
X78386045Y-105075976D01*
X78390000Y-105116138D01*
X78390000Y-105703862D01*
X78386045Y-105744024D01*
X78376121Y-105776738D01*
X78360007Y-105806885D01*
X78338315Y-105833315D01*
X78311885Y-105855007D01*
X78281738Y-105871121D01*
X78249024Y-105881045D01*
X78208862Y-105885000D01*
X77521138Y-105885000D01*
X77480976Y-105881045D01*
X77448262Y-105871121D01*
X77418115Y-105855007D01*
X77391685Y-105833315D01*
X77369993Y-105806885D01*
X77353879Y-105776738D01*
X77343955Y-105744024D01*
X77340000Y-105703862D01*
X77340000Y-105116138D01*
X77343955Y-105075976D01*
X77353879Y-105043262D01*
X77369993Y-105013115D01*
X77391685Y-104986685D01*
X77418115Y-104964993D01*
X77448262Y-104948879D01*
X77480976Y-104938955D01*
X77521138Y-104935000D01*
X78208862Y-104935000D01*
X78249024Y-104938955D01*
X78249024Y-104938955D01*
G37*
G36*
X79999024Y-104938955D02*
G01*
X80031738Y-104948879D01*
X80061885Y-104964993D01*
X80088315Y-104986685D01*
X80110007Y-105013115D01*
X80126121Y-105043262D01*
X80136045Y-105075976D01*
X80140000Y-105116138D01*
X80140000Y-105703862D01*
X80136045Y-105744024D01*
X80126121Y-105776738D01*
X80110007Y-105806885D01*
X80088315Y-105833315D01*
X80061885Y-105855007D01*
X80031738Y-105871121D01*
X79999024Y-105881045D01*
X79958862Y-105885000D01*
X79271138Y-105885000D01*
X79230976Y-105881045D01*
X79198262Y-105871121D01*
X79168115Y-105855007D01*
X79141685Y-105833315D01*
X79119993Y-105806885D01*
X79103879Y-105776738D01*
X79093955Y-105744024D01*
X79090000Y-105703862D01*
X79090000Y-105116138D01*
X79093955Y-105075976D01*
X79103879Y-105043262D01*
X79119993Y-105013115D01*
X79141685Y-104986685D01*
X79168115Y-104964993D01*
X79198262Y-104948879D01*
X79230976Y-104938955D01*
X79271138Y-104935000D01*
X79958862Y-104935000D01*
X79999024Y-104938955D01*
X79999024Y-104938955D01*
G37*
G36*
X147802144Y-100355680D02*
G01*
X148302612Y-100562981D01*
X148753022Y-100863935D01*
X149136065Y-101246978D01*
X149437019Y-101697388D01*
X149644320Y-102197856D01*
X149750000Y-102729147D01*
X149750000Y-103270853D01*
X149644320Y-103802144D01*
X149437019Y-104302612D01*
X149136065Y-104753022D01*
X148753022Y-105136065D01*
X148302612Y-105437019D01*
X147802144Y-105644320D01*
X147270853Y-105750000D01*
X146729147Y-105750000D01*
X146197856Y-105644320D01*
X145697388Y-105437019D01*
X145246978Y-105136065D01*
X144863935Y-104753022D01*
X144562981Y-104302612D01*
X144355680Y-103802144D01*
X144250000Y-103270853D01*
X144250000Y-102729147D01*
X144355680Y-102197856D01*
X144562981Y-101697388D01*
X144863935Y-101246978D01*
X145246978Y-100863935D01*
X145697388Y-100562981D01*
X146197856Y-100355680D01*
X146729147Y-100250000D01*
X147270853Y-100250000D01*
X147802144Y-100355680D01*
X147802144Y-100355680D01*
G37*
G36*
X53802144Y-100355680D02*
G01*
X54302612Y-100562981D01*
X54753022Y-100863935D01*
X55136065Y-101246978D01*
X55437019Y-101697388D01*
X55644320Y-102197856D01*
X55750000Y-102729147D01*
X55750000Y-103270853D01*
X55644320Y-103802144D01*
X55437019Y-104302612D01*
X55136065Y-104753022D01*
X54753022Y-105136065D01*
X54302612Y-105437019D01*
X53802144Y-105644320D01*
X53270853Y-105750000D01*
X52729147Y-105750000D01*
X52197856Y-105644320D01*
X51697388Y-105437019D01*
X51246978Y-105136065D01*
X50863935Y-104753022D01*
X50562981Y-104302612D01*
X50355680Y-103802144D01*
X50250000Y-103270853D01*
X50250000Y-102729147D01*
X50355680Y-102197856D01*
X50562981Y-101697388D01*
X50863935Y-101246978D01*
X51246978Y-100863935D01*
X51697388Y-100562981D01*
X52197856Y-100355680D01*
X52729147Y-100250000D01*
X53270853Y-100250000D01*
X53802144Y-100355680D01*
X53802144Y-100355680D01*
G37*
G36*
X106479766Y-104066821D02*
G01*
X106616257Y-104123358D01*
X106739097Y-104205437D01*
X106843563Y-104309903D01*
X106925642Y-104432743D01*
X106982179Y-104569234D01*
X107011000Y-104714130D01*
X107011000Y-104861870D01*
X106982179Y-105006766D01*
X106925642Y-105143257D01*
X106843563Y-105266097D01*
X106739097Y-105370563D01*
X106616257Y-105452642D01*
X106479766Y-105509179D01*
X106334870Y-105538000D01*
X106187130Y-105538000D01*
X106042234Y-105509179D01*
X105905743Y-105452642D01*
X105782903Y-105370563D01*
X105678437Y-105266097D01*
X105596358Y-105143257D01*
X105539821Y-105006766D01*
X105511000Y-104861870D01*
X105511000Y-104714130D01*
X105539821Y-104569234D01*
X105596358Y-104432743D01*
X105678437Y-104309903D01*
X105782903Y-104205437D01*
X105905743Y-104123358D01*
X106042234Y-104066821D01*
X106187130Y-104038000D01*
X106334870Y-104038000D01*
X106479766Y-104066821D01*
X106479766Y-104066821D01*
G37*
G36*
X111231024Y-103681955D02*
G01*
X111263738Y-103691879D01*
X111293885Y-103707993D01*
X111320315Y-103729685D01*
X111342007Y-103756115D01*
X111358121Y-103786262D01*
X111368045Y-103818976D01*
X111372000Y-103859138D01*
X111372000Y-104446862D01*
X111368045Y-104487024D01*
X111358121Y-104519738D01*
X111342007Y-104549885D01*
X111320315Y-104576315D01*
X111293885Y-104598007D01*
X111263738Y-104614121D01*
X111231024Y-104624045D01*
X111190862Y-104628000D01*
X110503138Y-104628000D01*
X110462976Y-104624045D01*
X110430262Y-104614121D01*
X110400115Y-104598007D01*
X110373685Y-104576315D01*
X110351993Y-104549885D01*
X110335879Y-104519738D01*
X110325955Y-104487024D01*
X110322000Y-104446862D01*
X110322000Y-103859138D01*
X110325955Y-103818976D01*
X110335879Y-103786262D01*
X110351993Y-103756115D01*
X110373685Y-103729685D01*
X110400115Y-103707993D01*
X110430262Y-103691879D01*
X110462976Y-103681955D01*
X110503138Y-103678000D01*
X111190862Y-103678000D01*
X111231024Y-103681955D01*
X111231024Y-103681955D01*
G37*
G36*
X112981024Y-103681955D02*
G01*
X113013738Y-103691879D01*
X113043885Y-103707993D01*
X113070315Y-103729685D01*
X113092007Y-103756115D01*
X113108121Y-103786262D01*
X113118045Y-103818976D01*
X113122000Y-103859138D01*
X113122000Y-104446862D01*
X113118045Y-104487024D01*
X113108121Y-104519738D01*
X113092007Y-104549885D01*
X113070315Y-104576315D01*
X113043885Y-104598007D01*
X113013738Y-104614121D01*
X112981024Y-104624045D01*
X112940862Y-104628000D01*
X112253138Y-104628000D01*
X112212976Y-104624045D01*
X112180262Y-104614121D01*
X112150115Y-104598007D01*
X112123685Y-104576315D01*
X112101993Y-104549885D01*
X112085879Y-104519738D01*
X112075955Y-104487024D01*
X112072000Y-104446862D01*
X112072000Y-103859138D01*
X112075955Y-103818976D01*
X112085879Y-103786262D01*
X112101993Y-103756115D01*
X112123685Y-103729685D01*
X112150115Y-103707993D01*
X112180262Y-103691879D01*
X112212976Y-103681955D01*
X112253138Y-103678000D01*
X112940862Y-103678000D01*
X112981024Y-103681955D01*
X112981024Y-103681955D01*
G37*
G36*
X111231024Y-102284955D02*
G01*
X111263738Y-102294879D01*
X111293885Y-102310993D01*
X111320315Y-102332685D01*
X111342007Y-102359115D01*
X111358121Y-102389262D01*
X111368045Y-102421976D01*
X111372000Y-102462138D01*
X111372000Y-103049862D01*
X111368045Y-103090024D01*
X111358121Y-103122738D01*
X111342007Y-103152885D01*
X111320315Y-103179315D01*
X111293885Y-103201007D01*
X111263738Y-103217121D01*
X111231024Y-103227045D01*
X111190862Y-103231000D01*
X110503138Y-103231000D01*
X110462976Y-103227045D01*
X110430262Y-103217121D01*
X110400115Y-103201007D01*
X110373685Y-103179315D01*
X110351993Y-103152885D01*
X110335879Y-103122738D01*
X110325955Y-103090024D01*
X110322000Y-103049862D01*
X110322000Y-102462138D01*
X110325955Y-102421976D01*
X110335879Y-102389262D01*
X110351993Y-102359115D01*
X110373685Y-102332685D01*
X110400115Y-102310993D01*
X110430262Y-102294879D01*
X110462976Y-102284955D01*
X110503138Y-102281000D01*
X111190862Y-102281000D01*
X111231024Y-102284955D01*
X111231024Y-102284955D01*
G37*
G36*
X112981024Y-102284955D02*
G01*
X113013738Y-102294879D01*
X113043885Y-102310993D01*
X113070315Y-102332685D01*
X113092007Y-102359115D01*
X113108121Y-102389262D01*
X113118045Y-102421976D01*
X113122000Y-102462138D01*
X113122000Y-103049862D01*
X113118045Y-103090024D01*
X113108121Y-103122738D01*
X113092007Y-103152885D01*
X113070315Y-103179315D01*
X113043885Y-103201007D01*
X113013738Y-103217121D01*
X112981024Y-103227045D01*
X112940862Y-103231000D01*
X112253138Y-103231000D01*
X112212976Y-103227045D01*
X112180262Y-103217121D01*
X112150115Y-103201007D01*
X112123685Y-103179315D01*
X112101993Y-103152885D01*
X112085879Y-103122738D01*
X112075955Y-103090024D01*
X112072000Y-103049862D01*
X112072000Y-102462138D01*
X112075955Y-102421976D01*
X112085879Y-102389262D01*
X112101993Y-102359115D01*
X112123685Y-102332685D01*
X112150115Y-102310993D01*
X112180262Y-102294879D01*
X112212976Y-102284955D01*
X112253138Y-102281000D01*
X112940862Y-102281000D01*
X112981024Y-102284955D01*
X112981024Y-102284955D01*
G37*
G36*
X96399350Y-102058470D02*
G01*
X94898210Y-102058470D01*
X94898210Y-100359210D01*
X96399350Y-100359210D01*
X96399350Y-102058470D01*
X96399350Y-102058470D01*
G37*
G36*
X82901790Y-102058470D02*
G01*
X81400650Y-102058470D01*
X81400650Y-100359210D01*
X82901790Y-100359210D01*
X82901790Y-102058470D01*
X82901790Y-102058470D01*
G37*
G36*
X111231024Y-100887955D02*
G01*
X111263738Y-100897879D01*
X111293885Y-100913993D01*
X111320315Y-100935685D01*
X111342007Y-100962115D01*
X111358121Y-100992262D01*
X111368045Y-101024976D01*
X111372000Y-101065138D01*
X111372000Y-101652862D01*
X111368045Y-101693024D01*
X111358121Y-101725738D01*
X111342007Y-101755885D01*
X111320315Y-101782315D01*
X111293885Y-101804007D01*
X111263738Y-101820121D01*
X111231024Y-101830045D01*
X111190862Y-101834000D01*
X110503138Y-101834000D01*
X110462976Y-101830045D01*
X110430262Y-101820121D01*
X110400115Y-101804007D01*
X110373685Y-101782315D01*
X110351993Y-101755885D01*
X110335879Y-101725738D01*
X110325955Y-101693024D01*
X110322000Y-101652862D01*
X110322000Y-101065138D01*
X110325955Y-101024976D01*
X110335879Y-100992262D01*
X110351993Y-100962115D01*
X110373685Y-100935685D01*
X110400115Y-100913993D01*
X110430262Y-100897879D01*
X110462976Y-100887955D01*
X110503138Y-100884000D01*
X111190862Y-100884000D01*
X111231024Y-100887955D01*
X111231024Y-100887955D01*
G37*
G36*
X112981024Y-100887955D02*
G01*
X113013738Y-100897879D01*
X113043885Y-100913993D01*
X113070315Y-100935685D01*
X113092007Y-100962115D01*
X113108121Y-100992262D01*
X113118045Y-101024976D01*
X113122000Y-101065138D01*
X113122000Y-101652862D01*
X113118045Y-101693024D01*
X113108121Y-101725738D01*
X113092007Y-101755885D01*
X113070315Y-101782315D01*
X113043885Y-101804007D01*
X113013738Y-101820121D01*
X112981024Y-101830045D01*
X112940862Y-101834000D01*
X112253138Y-101834000D01*
X112212976Y-101830045D01*
X112180262Y-101820121D01*
X112150115Y-101804007D01*
X112123685Y-101782315D01*
X112101993Y-101755885D01*
X112085879Y-101725738D01*
X112075955Y-101693024D01*
X112072000Y-101652862D01*
X112072000Y-101065138D01*
X112075955Y-101024976D01*
X112085879Y-100992262D01*
X112101993Y-100962115D01*
X112123685Y-100935685D01*
X112150115Y-100913993D01*
X112180262Y-100897879D01*
X112212976Y-100887955D01*
X112253138Y-100884000D01*
X112940862Y-100884000D01*
X112981024Y-100887955D01*
X112981024Y-100887955D01*
G37*
M02*
