G04 #@! TF.GenerationSoftware,KiCad,Pcbnew,(5.1.2)-1*
G04 #@! TF.CreationDate,2019-05-30T13:03:44-04:00*
G04 #@! TF.ProjectId,ZeroPilot,5a65726f-5069-46c6-9f74-2e6b69636164,rev?*
G04 #@! TF.SameCoordinates,Original*
G04 #@! TF.FileFunction,Legend,Bot*
G04 #@! TF.FilePolarity,Positive*
%FSLAX46Y46*%
G04 Gerber Fmt 4.6, Leading zero omitted, Abs format (unit mm)*
G04 Created by KiCad (PCBNEW (5.1.2)-1) date 2019-05-30 13:03:44*
%MOMM*%
%LPD*%
G04 APERTURE LIST*
%ADD10C,0.150000*%
%ADD11C,0.381000*%
%ADD12C,0.100000*%
%ADD13C,0.010000*%
%ADD14C,0.120000*%
%ADD15C,0.300000*%
%ADD16C,0.304800*%
G04 APERTURE END LIST*
D10*
X114476190Y-138514380D02*
X114476190Y-137514380D01*
X114047619Y-137609619D02*
X114000000Y-137562000D01*
X113904761Y-137514380D01*
X113666666Y-137514380D01*
X113571428Y-137562000D01*
X113523809Y-137609619D01*
X113476190Y-137704857D01*
X113476190Y-137800095D01*
X113523809Y-137942952D01*
X114095238Y-138514380D01*
X113476190Y-138514380D01*
X112476190Y-138419142D02*
X112523809Y-138466761D01*
X112666666Y-138514380D01*
X112761904Y-138514380D01*
X112904761Y-138466761D01*
X113000000Y-138371523D01*
X113047619Y-138276285D01*
X113095238Y-138085809D01*
X113095238Y-137942952D01*
X113047619Y-137752476D01*
X113000000Y-137657238D01*
X112904761Y-137562000D01*
X112761904Y-137514380D01*
X112666666Y-137514380D01*
X112523809Y-137562000D01*
X112476190Y-137609619D01*
X110604380Y-141173523D02*
X110604380Y-140697333D01*
X111080571Y-140649714D01*
X111032952Y-140697333D01*
X110985333Y-140792571D01*
X110985333Y-141030666D01*
X111032952Y-141125904D01*
X111080571Y-141173523D01*
X111175809Y-141221142D01*
X111413904Y-141221142D01*
X111509142Y-141173523D01*
X111556761Y-141125904D01*
X111604380Y-141030666D01*
X111604380Y-140792571D01*
X111556761Y-140697333D01*
X111509142Y-140649714D01*
X110604380Y-141506857D02*
X111604380Y-141840190D01*
X110604380Y-142173523D01*
X113206761Y-140149714D02*
X113254380Y-140292571D01*
X113254380Y-140530666D01*
X113206761Y-140625904D01*
X113159142Y-140673523D01*
X113063904Y-140721142D01*
X112968666Y-140721142D01*
X112873428Y-140673523D01*
X112825809Y-140625904D01*
X112778190Y-140530666D01*
X112730571Y-140340190D01*
X112682952Y-140244952D01*
X112635333Y-140197333D01*
X112540095Y-140149714D01*
X112444857Y-140149714D01*
X112349619Y-140197333D01*
X112302000Y-140244952D01*
X112254380Y-140340190D01*
X112254380Y-140578285D01*
X112302000Y-140721142D01*
X113254380Y-141149714D02*
X112254380Y-141149714D01*
X112254380Y-141387809D01*
X112302000Y-141530666D01*
X112397238Y-141625904D01*
X112492476Y-141673523D01*
X112682952Y-141721142D01*
X112825809Y-141721142D01*
X113016285Y-141673523D01*
X113111523Y-141625904D01*
X113206761Y-141530666D01*
X113254380Y-141387809D01*
X113254380Y-141149714D01*
X112968666Y-142102095D02*
X112968666Y-142578285D01*
X113254380Y-142006857D02*
X112254380Y-142340190D01*
X113254380Y-142673523D01*
X114856761Y-140173523D02*
X114904380Y-140316380D01*
X114904380Y-140554476D01*
X114856761Y-140649714D01*
X114809142Y-140697333D01*
X114713904Y-140744952D01*
X114618666Y-140744952D01*
X114523428Y-140697333D01*
X114475809Y-140649714D01*
X114428190Y-140554476D01*
X114380571Y-140364000D01*
X114332952Y-140268761D01*
X114285333Y-140221142D01*
X114190095Y-140173523D01*
X114094857Y-140173523D01*
X113999619Y-140221142D01*
X113952000Y-140268761D01*
X113904380Y-140364000D01*
X113904380Y-140602095D01*
X113952000Y-140744952D01*
X114809142Y-141744952D02*
X114856761Y-141697333D01*
X114904380Y-141554476D01*
X114904380Y-141459238D01*
X114856761Y-141316380D01*
X114761523Y-141221142D01*
X114666285Y-141173523D01*
X114475809Y-141125904D01*
X114332952Y-141125904D01*
X114142476Y-141173523D01*
X114047238Y-141221142D01*
X113952000Y-141316380D01*
X113904380Y-141459238D01*
X113904380Y-141554476D01*
X113952000Y-141697333D01*
X113999619Y-141744952D01*
X114904380Y-142649714D02*
X114904380Y-142173523D01*
X113904380Y-142173523D01*
X115602000Y-140602095D02*
X115554380Y-140506857D01*
X115554380Y-140364000D01*
X115602000Y-140221142D01*
X115697238Y-140125904D01*
X115792476Y-140078285D01*
X115982952Y-140030666D01*
X116125809Y-140030666D01*
X116316285Y-140078285D01*
X116411523Y-140125904D01*
X116506761Y-140221142D01*
X116554380Y-140364000D01*
X116554380Y-140459238D01*
X116506761Y-140602095D01*
X116459142Y-140649714D01*
X116125809Y-140649714D01*
X116125809Y-140459238D01*
X116554380Y-141078285D02*
X115554380Y-141078285D01*
X116554380Y-141649714D01*
X115554380Y-141649714D01*
X116554380Y-142125904D02*
X115554380Y-142125904D01*
X115554380Y-142364000D01*
X115602000Y-142506857D01*
X115697238Y-142602095D01*
X115792476Y-142649714D01*
X115982952Y-142697333D01*
X116125809Y-142697333D01*
X116316285Y-142649714D01*
X116411523Y-142602095D01*
X116506761Y-142506857D01*
X116554380Y-142364000D01*
X116554380Y-142125904D01*
X116619238Y-146071380D02*
X116952571Y-145595190D01*
X117190666Y-146071380D02*
X117190666Y-145071380D01*
X116809714Y-145071380D01*
X116714476Y-145119000D01*
X116666857Y-145166619D01*
X116619238Y-145261857D01*
X116619238Y-145404714D01*
X116666857Y-145499952D01*
X116714476Y-145547571D01*
X116809714Y-145595190D01*
X117190666Y-145595190D01*
X115809714Y-146023761D02*
X115904952Y-146071380D01*
X116095428Y-146071380D01*
X116190666Y-146023761D01*
X116238285Y-145928523D01*
X116238285Y-145547571D01*
X116190666Y-145452333D01*
X116095428Y-145404714D01*
X115904952Y-145404714D01*
X115809714Y-145452333D01*
X115762095Y-145547571D01*
X115762095Y-145642809D01*
X116238285Y-145738047D01*
X115428761Y-145404714D02*
X115190666Y-146071380D01*
X114952571Y-145404714D01*
X114571619Y-145690428D02*
X113809714Y-145690428D01*
X112809714Y-146071380D02*
X113381142Y-146071380D01*
X113095428Y-146071380D02*
X113095428Y-145071380D01*
X113190666Y-145214238D01*
X113285904Y-145309476D01*
X113381142Y-145357095D01*
X117214476Y-146721380D02*
X117690666Y-146721380D01*
X117738285Y-147197571D01*
X117690666Y-147149952D01*
X117595428Y-147102333D01*
X117357333Y-147102333D01*
X117262095Y-147149952D01*
X117214476Y-147197571D01*
X117166857Y-147292809D01*
X117166857Y-147530904D01*
X117214476Y-147626142D01*
X117262095Y-147673761D01*
X117357333Y-147721380D01*
X117595428Y-147721380D01*
X117690666Y-147673761D01*
X117738285Y-147626142D01*
X116024000Y-146673761D02*
X116881142Y-147959476D01*
X115738285Y-146816619D02*
X115690666Y-146769000D01*
X115595428Y-146721380D01*
X115357333Y-146721380D01*
X115262095Y-146769000D01*
X115214476Y-146816619D01*
X115166857Y-146911857D01*
X115166857Y-147007095D01*
X115214476Y-147149952D01*
X115785904Y-147721380D01*
X115166857Y-147721380D01*
X114547809Y-146721380D02*
X114452571Y-146721380D01*
X114357333Y-146769000D01*
X114309714Y-146816619D01*
X114262095Y-146911857D01*
X114214476Y-147102333D01*
X114214476Y-147340428D01*
X114262095Y-147530904D01*
X114309714Y-147626142D01*
X114357333Y-147673761D01*
X114452571Y-147721380D01*
X114547809Y-147721380D01*
X114643047Y-147673761D01*
X114690666Y-147626142D01*
X114738285Y-147530904D01*
X114785904Y-147340428D01*
X114785904Y-147102333D01*
X114738285Y-146911857D01*
X114690666Y-146816619D01*
X114643047Y-146769000D01*
X114547809Y-146721380D01*
X113262095Y-147721380D02*
X113833523Y-147721380D01*
X113547809Y-147721380D02*
X113547809Y-146721380D01*
X113643047Y-146864238D01*
X113738285Y-146959476D01*
X113833523Y-147007095D01*
X112785904Y-147721380D02*
X112595428Y-147721380D01*
X112500190Y-147673761D01*
X112452571Y-147626142D01*
X112357333Y-147483285D01*
X112309714Y-147292809D01*
X112309714Y-146911857D01*
X112357333Y-146816619D01*
X112404952Y-146769000D01*
X112500190Y-146721380D01*
X112690666Y-146721380D01*
X112785904Y-146769000D01*
X112833523Y-146816619D01*
X112881142Y-146911857D01*
X112881142Y-147149952D01*
X112833523Y-147245190D01*
X112785904Y-147292809D01*
X112690666Y-147340428D01*
X112500190Y-147340428D01*
X112404952Y-147292809D01*
X112357333Y-147245190D01*
X112309714Y-147149952D01*
D11*
X106043285Y-120799076D02*
X105136142Y-124609076D01*
X104410428Y-121887647D01*
X103684714Y-124609076D01*
X102777571Y-120799076D01*
X101507571Y-123520505D02*
X99693285Y-123520505D01*
X101870428Y-124609076D02*
X100600428Y-120799076D01*
X99330428Y-124609076D01*
X95883285Y-124609076D02*
X97153285Y-122794790D01*
X98060428Y-124609076D02*
X98060428Y-120799076D01*
X96609000Y-120799076D01*
X96246142Y-120980505D01*
X96064714Y-121161933D01*
X95883285Y-121524790D01*
X95883285Y-122069076D01*
X96064714Y-122431933D01*
X96246142Y-122613362D01*
X96609000Y-122794790D01*
X98060428Y-122794790D01*
X92254714Y-120980505D02*
X92617571Y-120799076D01*
X93161857Y-120799076D01*
X93706142Y-120980505D01*
X94069000Y-121343362D01*
X94250428Y-121706219D01*
X94431857Y-122431933D01*
X94431857Y-122976219D01*
X94250428Y-123701933D01*
X94069000Y-124064790D01*
X93706142Y-124427647D01*
X93161857Y-124609076D01*
X92799000Y-124609076D01*
X92254714Y-124427647D01*
X92073285Y-124246219D01*
X92073285Y-122976219D01*
X92799000Y-122976219D01*
X87900428Y-120799076D02*
X85360428Y-120799076D01*
X87900428Y-124609076D01*
X85360428Y-124609076D01*
X82457571Y-124427647D02*
X82820428Y-124609076D01*
X83546142Y-124609076D01*
X83909000Y-124427647D01*
X84090428Y-124064790D01*
X84090428Y-122613362D01*
X83909000Y-122250505D01*
X83546142Y-122069076D01*
X82820428Y-122069076D01*
X82457571Y-122250505D01*
X82276142Y-122613362D01*
X82276142Y-122976219D01*
X84090428Y-123339076D01*
X80643285Y-124609076D02*
X80643285Y-122069076D01*
X80643285Y-122794790D02*
X80461857Y-122431933D01*
X80280428Y-122250505D01*
X79917571Y-122069076D01*
X79554714Y-122069076D01*
X77740428Y-124609076D02*
X78103285Y-124427647D01*
X78284714Y-124246219D01*
X78466142Y-123883362D01*
X78466142Y-122794790D01*
X78284714Y-122431933D01*
X78103285Y-122250505D01*
X77740428Y-122069076D01*
X77196142Y-122069076D01*
X76833285Y-122250505D01*
X76651857Y-122431933D01*
X76470428Y-122794790D01*
X76470428Y-123883362D01*
X76651857Y-124246219D01*
X76833285Y-124427647D01*
X77196142Y-124609076D01*
X77740428Y-124609076D01*
X74837571Y-124609076D02*
X74837571Y-120799076D01*
X73386142Y-120799076D01*
X73023285Y-120980505D01*
X72841857Y-121161933D01*
X72660428Y-121524790D01*
X72660428Y-122069076D01*
X72841857Y-122431933D01*
X73023285Y-122613362D01*
X73386142Y-122794790D01*
X74837571Y-122794790D01*
X71027571Y-124609076D02*
X71027571Y-122069076D01*
X71027571Y-120799076D02*
X71209000Y-120980505D01*
X71027571Y-121161933D01*
X70846142Y-120980505D01*
X71027571Y-120799076D01*
X71027571Y-121161933D01*
X68669000Y-124609076D02*
X69031857Y-124427647D01*
X69213285Y-124064790D01*
X69213285Y-120799076D01*
X66673285Y-124609076D02*
X67036142Y-124427647D01*
X67217571Y-124246219D01*
X67399000Y-123883362D01*
X67399000Y-122794790D01*
X67217571Y-122431933D01*
X67036142Y-122250505D01*
X66673285Y-122069076D01*
X66129000Y-122069076D01*
X65766142Y-122250505D01*
X65584714Y-122431933D01*
X65403285Y-122794790D01*
X65403285Y-123883362D01*
X65584714Y-124246219D01*
X65766142Y-124427647D01*
X66129000Y-124609076D01*
X66673285Y-124609076D01*
X64314714Y-122069076D02*
X62863285Y-122069076D01*
X63770428Y-120799076D02*
X63770428Y-124064790D01*
X63589000Y-124427647D01*
X63226142Y-124609076D01*
X62863285Y-124609076D01*
D12*
G36*
X141502000Y-148476000D02*
G01*
X129502000Y-148476000D01*
X129502000Y-136476000D01*
X141502000Y-136476000D01*
X141502000Y-148476000D01*
G37*
X141502000Y-148476000D02*
X129502000Y-148476000D01*
X129502000Y-136476000D01*
X141502000Y-136476000D01*
X141502000Y-148476000D01*
D10*
X73775380Y-145491523D02*
X73775380Y-145015333D01*
X74251571Y-144967714D01*
X74203952Y-145015333D01*
X74156333Y-145110571D01*
X74156333Y-145348666D01*
X74203952Y-145443904D01*
X74251571Y-145491523D01*
X74346809Y-145539142D01*
X74584904Y-145539142D01*
X74680142Y-145491523D01*
X74727761Y-145443904D01*
X74775380Y-145348666D01*
X74775380Y-145110571D01*
X74727761Y-145015333D01*
X74680142Y-144967714D01*
X73775380Y-145824857D02*
X74775380Y-146158190D01*
X73775380Y-146491523D01*
X76330142Y-145134380D02*
X76377761Y-145086761D01*
X76425380Y-144943904D01*
X76425380Y-144848666D01*
X76377761Y-144705809D01*
X76282523Y-144610571D01*
X76187285Y-144562952D01*
X75996809Y-144515333D01*
X75853952Y-144515333D01*
X75663476Y-144562952D01*
X75568238Y-144610571D01*
X75473000Y-144705809D01*
X75425380Y-144848666D01*
X75425380Y-144943904D01*
X75473000Y-145086761D01*
X75520619Y-145134380D01*
X75425380Y-145420095D02*
X75425380Y-145991523D01*
X76425380Y-145705809D02*
X75425380Y-145705809D01*
X76377761Y-146277238D02*
X76425380Y-146420095D01*
X76425380Y-146658190D01*
X76377761Y-146753428D01*
X76330142Y-146801047D01*
X76234904Y-146848666D01*
X76139666Y-146848666D01*
X76044428Y-146801047D01*
X75996809Y-146753428D01*
X75949190Y-146658190D01*
X75901571Y-146467714D01*
X75853952Y-146372476D01*
X75806333Y-146324857D01*
X75711095Y-146277238D01*
X75615857Y-146277238D01*
X75520619Y-146324857D01*
X75473000Y-146372476D01*
X75425380Y-146467714D01*
X75425380Y-146705809D01*
X75473000Y-146848666D01*
X78075380Y-145515333D02*
X77599190Y-145182000D01*
X78075380Y-144943904D02*
X77075380Y-144943904D01*
X77075380Y-145324857D01*
X77123000Y-145420095D01*
X77170619Y-145467714D01*
X77265857Y-145515333D01*
X77408714Y-145515333D01*
X77503952Y-145467714D01*
X77551571Y-145420095D01*
X77599190Y-145324857D01*
X77599190Y-144943904D01*
X77075380Y-145848666D02*
X78075380Y-146515333D01*
X77075380Y-146515333D02*
X78075380Y-145848666D01*
X78725380Y-144920095D02*
X78725380Y-145491523D01*
X79725380Y-145205809D02*
X78725380Y-145205809D01*
X78725380Y-145729619D02*
X79725380Y-146396285D01*
X78725380Y-146396285D02*
X79725380Y-145729619D01*
X81375380Y-145134380D02*
X80899190Y-144801047D01*
X81375380Y-144562952D02*
X80375380Y-144562952D01*
X80375380Y-144943904D01*
X80423000Y-145039142D01*
X80470619Y-145086761D01*
X80565857Y-145134380D01*
X80708714Y-145134380D01*
X80803952Y-145086761D01*
X80851571Y-145039142D01*
X80899190Y-144943904D01*
X80899190Y-144562952D01*
X80375380Y-145420095D02*
X80375380Y-145991523D01*
X81375380Y-145705809D02*
X80375380Y-145705809D01*
X81327761Y-146277238D02*
X81375380Y-146420095D01*
X81375380Y-146658190D01*
X81327761Y-146753428D01*
X81280142Y-146801047D01*
X81184904Y-146848666D01*
X81089666Y-146848666D01*
X80994428Y-146801047D01*
X80946809Y-146753428D01*
X80899190Y-146658190D01*
X80851571Y-146467714D01*
X80803952Y-146372476D01*
X80756333Y-146324857D01*
X80661095Y-146277238D01*
X80565857Y-146277238D01*
X80470619Y-146324857D01*
X80423000Y-146372476D01*
X80375380Y-146467714D01*
X80375380Y-146705809D01*
X80423000Y-146848666D01*
X82073000Y-144920095D02*
X82025380Y-144824857D01*
X82025380Y-144682000D01*
X82073000Y-144539142D01*
X82168238Y-144443904D01*
X82263476Y-144396285D01*
X82453952Y-144348666D01*
X82596809Y-144348666D01*
X82787285Y-144396285D01*
X82882523Y-144443904D01*
X82977761Y-144539142D01*
X83025380Y-144682000D01*
X83025380Y-144777238D01*
X82977761Y-144920095D01*
X82930142Y-144967714D01*
X82596809Y-144967714D01*
X82596809Y-144777238D01*
X83025380Y-145396285D02*
X82025380Y-145396285D01*
X83025380Y-145967714D01*
X82025380Y-145967714D01*
X83025380Y-146443904D02*
X82025380Y-146443904D01*
X82025380Y-146682000D01*
X82073000Y-146824857D01*
X82168238Y-146920095D01*
X82263476Y-146967714D01*
X82453952Y-147015333D01*
X82596809Y-147015333D01*
X82787285Y-146967714D01*
X82882523Y-146920095D01*
X82977761Y-146824857D01*
X83025380Y-146682000D01*
X83025380Y-146443904D01*
X74029380Y-138887523D02*
X74029380Y-138411333D01*
X74505571Y-138363714D01*
X74457952Y-138411333D01*
X74410333Y-138506571D01*
X74410333Y-138744666D01*
X74457952Y-138839904D01*
X74505571Y-138887523D01*
X74600809Y-138935142D01*
X74838904Y-138935142D01*
X74934142Y-138887523D01*
X74981761Y-138839904D01*
X75029380Y-138744666D01*
X75029380Y-138506571D01*
X74981761Y-138411333D01*
X74934142Y-138363714D01*
X74029380Y-139220857D02*
X75029380Y-139554190D01*
X74029380Y-139887523D01*
X76631761Y-137792285D02*
X76679380Y-137935142D01*
X76679380Y-138173238D01*
X76631761Y-138268476D01*
X76584142Y-138316095D01*
X76488904Y-138363714D01*
X76393666Y-138363714D01*
X76298428Y-138316095D01*
X76250809Y-138268476D01*
X76203190Y-138173238D01*
X76155571Y-137982761D01*
X76107952Y-137887523D01*
X76060333Y-137839904D01*
X75965095Y-137792285D01*
X75869857Y-137792285D01*
X75774619Y-137839904D01*
X75727000Y-137887523D01*
X75679380Y-137982761D01*
X75679380Y-138220857D01*
X75727000Y-138363714D01*
X76584142Y-139363714D02*
X76631761Y-139316095D01*
X76679380Y-139173238D01*
X76679380Y-139078000D01*
X76631761Y-138935142D01*
X76536523Y-138839904D01*
X76441285Y-138792285D01*
X76250809Y-138744666D01*
X76107952Y-138744666D01*
X75917476Y-138792285D01*
X75822238Y-138839904D01*
X75727000Y-138935142D01*
X75679380Y-139078000D01*
X75679380Y-139173238D01*
X75727000Y-139316095D01*
X75774619Y-139363714D01*
X76679380Y-139792285D02*
X75679380Y-139792285D01*
X76679380Y-140363714D02*
X76107952Y-139935142D01*
X75679380Y-140363714D02*
X76250809Y-139792285D01*
X78329380Y-137506571D02*
X77329380Y-137506571D01*
X78043666Y-137839904D01*
X77329380Y-138173238D01*
X78329380Y-138173238D01*
X78329380Y-138649428D02*
X77329380Y-138649428D01*
X78281761Y-139078000D02*
X78329380Y-139220857D01*
X78329380Y-139458952D01*
X78281761Y-139554190D01*
X78234142Y-139601809D01*
X78138904Y-139649428D01*
X78043666Y-139649428D01*
X77948428Y-139601809D01*
X77900809Y-139554190D01*
X77853190Y-139458952D01*
X77805571Y-139268476D01*
X77757952Y-139173238D01*
X77710333Y-139125619D01*
X77615095Y-139078000D01*
X77519857Y-139078000D01*
X77424619Y-139125619D01*
X77377000Y-139173238D01*
X77329380Y-139268476D01*
X77329380Y-139506571D01*
X77377000Y-139649428D01*
X77329380Y-140268476D02*
X77329380Y-140458952D01*
X77377000Y-140554190D01*
X77472238Y-140649428D01*
X77662714Y-140697047D01*
X77996047Y-140697047D01*
X78186523Y-140649428D01*
X78281761Y-140554190D01*
X78329380Y-140458952D01*
X78329380Y-140268476D01*
X78281761Y-140173238D01*
X78186523Y-140078000D01*
X77996047Y-140030380D01*
X77662714Y-140030380D01*
X77472238Y-140078000D01*
X77377000Y-140173238D01*
X77329380Y-140268476D01*
X79979380Y-137506571D02*
X78979380Y-137506571D01*
X79693666Y-137839904D01*
X78979380Y-138173238D01*
X79979380Y-138173238D01*
X78979380Y-138839904D02*
X78979380Y-139030380D01*
X79027000Y-139125619D01*
X79122238Y-139220857D01*
X79312714Y-139268476D01*
X79646047Y-139268476D01*
X79836523Y-139220857D01*
X79931761Y-139125619D01*
X79979380Y-139030380D01*
X79979380Y-138839904D01*
X79931761Y-138744666D01*
X79836523Y-138649428D01*
X79646047Y-138601809D01*
X79312714Y-138601809D01*
X79122238Y-138649428D01*
X79027000Y-138744666D01*
X78979380Y-138839904D01*
X79931761Y-139649428D02*
X79979380Y-139792285D01*
X79979380Y-140030380D01*
X79931761Y-140125619D01*
X79884142Y-140173238D01*
X79788904Y-140220857D01*
X79693666Y-140220857D01*
X79598428Y-140173238D01*
X79550809Y-140125619D01*
X79503190Y-140030380D01*
X79455571Y-139839904D01*
X79407952Y-139744666D01*
X79360333Y-139697047D01*
X79265095Y-139649428D01*
X79169857Y-139649428D01*
X79074619Y-139697047D01*
X79027000Y-139744666D01*
X78979380Y-139839904D01*
X78979380Y-140078000D01*
X79027000Y-140220857D01*
X79979380Y-140649428D02*
X78979380Y-140649428D01*
X81629380Y-137839904D02*
X80629380Y-137839904D01*
X81629380Y-138411333D01*
X80629380Y-138411333D01*
X81581761Y-138839904D02*
X81629380Y-138982761D01*
X81629380Y-139220857D01*
X81581761Y-139316095D01*
X81534142Y-139363714D01*
X81438904Y-139411333D01*
X81343666Y-139411333D01*
X81248428Y-139363714D01*
X81200809Y-139316095D01*
X81153190Y-139220857D01*
X81105571Y-139030380D01*
X81057952Y-138935142D01*
X81010333Y-138887523D01*
X80915095Y-138839904D01*
X80819857Y-138839904D01*
X80724619Y-138887523D01*
X80677000Y-138935142D01*
X80629380Y-139030380D01*
X80629380Y-139268476D01*
X80677000Y-139411333D01*
X81581761Y-139792285D02*
X81629380Y-139935142D01*
X81629380Y-140173238D01*
X81581761Y-140268476D01*
X81534142Y-140316095D01*
X81438904Y-140363714D01*
X81343666Y-140363714D01*
X81248428Y-140316095D01*
X81200809Y-140268476D01*
X81153190Y-140173238D01*
X81105571Y-139982761D01*
X81057952Y-139887523D01*
X81010333Y-139839904D01*
X80915095Y-139792285D01*
X80819857Y-139792285D01*
X80724619Y-139839904D01*
X80677000Y-139887523D01*
X80629380Y-139982761D01*
X80629380Y-140220857D01*
X80677000Y-140363714D01*
X82327000Y-138316095D02*
X82279380Y-138220857D01*
X82279380Y-138078000D01*
X82327000Y-137935142D01*
X82422238Y-137839904D01*
X82517476Y-137792285D01*
X82707952Y-137744666D01*
X82850809Y-137744666D01*
X83041285Y-137792285D01*
X83136523Y-137839904D01*
X83231761Y-137935142D01*
X83279380Y-138078000D01*
X83279380Y-138173238D01*
X83231761Y-138316095D01*
X83184142Y-138363714D01*
X82850809Y-138363714D01*
X82850809Y-138173238D01*
X83279380Y-138792285D02*
X82279380Y-138792285D01*
X83279380Y-139363714D01*
X82279380Y-139363714D01*
X83279380Y-139839904D02*
X82279380Y-139839904D01*
X82279380Y-140078000D01*
X82327000Y-140220857D01*
X82422238Y-140316095D01*
X82517476Y-140363714D01*
X82707952Y-140411333D01*
X82850809Y-140411333D01*
X83041285Y-140363714D01*
X83136523Y-140316095D01*
X83231761Y-140220857D01*
X83279380Y-140078000D01*
X83279380Y-139839904D01*
X91917809Y-139482761D02*
X91774952Y-139530380D01*
X91536857Y-139530380D01*
X91441619Y-139482761D01*
X91394000Y-139435142D01*
X91346380Y-139339904D01*
X91346380Y-139244666D01*
X91394000Y-139149428D01*
X91441619Y-139101809D01*
X91536857Y-139054190D01*
X91727333Y-139006571D01*
X91822571Y-138958952D01*
X91870190Y-138911333D01*
X91917809Y-138816095D01*
X91917809Y-138720857D01*
X91870190Y-138625619D01*
X91822571Y-138578000D01*
X91727333Y-138530380D01*
X91489238Y-138530380D01*
X91346380Y-138578000D01*
X90917809Y-139530380D02*
X90917809Y-138530380D01*
X90536857Y-138530380D01*
X90441619Y-138578000D01*
X90394000Y-138625619D01*
X90346380Y-138720857D01*
X90346380Y-138863714D01*
X90394000Y-138958952D01*
X90441619Y-139006571D01*
X90536857Y-139054190D01*
X90917809Y-139054190D01*
X89917809Y-139530380D02*
X89917809Y-138530380D01*
X92489238Y-145642380D02*
X92489238Y-146451904D01*
X92441619Y-146547142D01*
X92394000Y-146594761D01*
X92298761Y-146642380D01*
X92108285Y-146642380D01*
X92013047Y-146594761D01*
X91965428Y-146547142D01*
X91917809Y-146451904D01*
X91917809Y-145642380D01*
X91489238Y-146356666D02*
X91013047Y-146356666D01*
X91584476Y-146642380D02*
X91251142Y-145642380D01*
X90917809Y-146642380D01*
X90013047Y-146642380D02*
X90346380Y-146166190D01*
X90584476Y-146642380D02*
X90584476Y-145642380D01*
X90203523Y-145642380D01*
X90108285Y-145690000D01*
X90060666Y-145737619D01*
X90013047Y-145832857D01*
X90013047Y-145975714D01*
X90060666Y-146070952D01*
X90108285Y-146118571D01*
X90203523Y-146166190D01*
X90584476Y-146166190D01*
X89727333Y-145642380D02*
X89155904Y-145642380D01*
X89441619Y-146642380D02*
X89441619Y-145642380D01*
X72606000Y-149238000D02*
X72606000Y-142380000D01*
X108928000Y-149238000D02*
X72606000Y-149238000D01*
X108928000Y-142380000D02*
X108928000Y-149238000D01*
X108928000Y-135776000D02*
X107150000Y-135776000D01*
X108928000Y-142380000D02*
X108928000Y-135776000D01*
X72606000Y-142380000D02*
X108928000Y-142380000D01*
X72606000Y-135776000D02*
X72606000Y-142380000D01*
X81623000Y-135776000D02*
X81623000Y-129172000D01*
X107150000Y-135776000D02*
X72606000Y-135776000D01*
X107150000Y-129172000D02*
X107150000Y-135776000D01*
X81750000Y-129172000D02*
X107150000Y-129172000D01*
X88187190Y-130640380D02*
X88187190Y-129640380D01*
X87758619Y-129735619D02*
X87711000Y-129688000D01*
X87615761Y-129640380D01*
X87377666Y-129640380D01*
X87282428Y-129688000D01*
X87234809Y-129735619D01*
X87187190Y-129830857D01*
X87187190Y-129926095D01*
X87234809Y-130068952D01*
X87806238Y-130640380D01*
X87187190Y-130640380D01*
X86187190Y-130545142D02*
X86234809Y-130592761D01*
X86377666Y-130640380D01*
X86472904Y-130640380D01*
X86615761Y-130592761D01*
X86711000Y-130497523D01*
X86758619Y-130402285D01*
X86806238Y-130211809D01*
X86806238Y-130068952D01*
X86758619Y-129878476D01*
X86711000Y-129783238D01*
X86615761Y-129688000D01*
X86472904Y-129640380D01*
X86377666Y-129640380D01*
X86234809Y-129688000D01*
X86187190Y-129735619D01*
X84109000Y-131585095D02*
X84061380Y-131489857D01*
X84061380Y-131347000D01*
X84109000Y-131204142D01*
X84204238Y-131108904D01*
X84299476Y-131061285D01*
X84489952Y-131013666D01*
X84632809Y-131013666D01*
X84823285Y-131061285D01*
X84918523Y-131108904D01*
X85013761Y-131204142D01*
X85061380Y-131347000D01*
X85061380Y-131442238D01*
X85013761Y-131585095D01*
X84966142Y-131632714D01*
X84632809Y-131632714D01*
X84632809Y-131442238D01*
X85061380Y-132061285D02*
X84061380Y-132061285D01*
X85061380Y-132632714D01*
X84061380Y-132632714D01*
X85061380Y-133108904D02*
X84061380Y-133108904D01*
X84061380Y-133347000D01*
X84109000Y-133489857D01*
X84204238Y-133585095D01*
X84299476Y-133632714D01*
X84489952Y-133680333D01*
X84632809Y-133680333D01*
X84823285Y-133632714D01*
X84918523Y-133585095D01*
X85013761Y-133489857D01*
X85061380Y-133347000D01*
X85061380Y-133108904D01*
X86663761Y-131156523D02*
X86711380Y-131299380D01*
X86711380Y-131537476D01*
X86663761Y-131632714D01*
X86616142Y-131680333D01*
X86520904Y-131727952D01*
X86425666Y-131727952D01*
X86330428Y-131680333D01*
X86282809Y-131632714D01*
X86235190Y-131537476D01*
X86187571Y-131347000D01*
X86139952Y-131251761D01*
X86092333Y-131204142D01*
X85997095Y-131156523D01*
X85901857Y-131156523D01*
X85806619Y-131204142D01*
X85759000Y-131251761D01*
X85711380Y-131347000D01*
X85711380Y-131585095D01*
X85759000Y-131727952D01*
X86616142Y-132727952D02*
X86663761Y-132680333D01*
X86711380Y-132537476D01*
X86711380Y-132442238D01*
X86663761Y-132299380D01*
X86568523Y-132204142D01*
X86473285Y-132156523D01*
X86282809Y-132108904D01*
X86139952Y-132108904D01*
X85949476Y-132156523D01*
X85854238Y-132204142D01*
X85759000Y-132299380D01*
X85711380Y-132442238D01*
X85711380Y-132537476D01*
X85759000Y-132680333D01*
X85806619Y-132727952D01*
X86711380Y-133632714D02*
X86711380Y-133156523D01*
X85711380Y-133156523D01*
X88313761Y-131132714D02*
X88361380Y-131275571D01*
X88361380Y-131513666D01*
X88313761Y-131608904D01*
X88266142Y-131656523D01*
X88170904Y-131704142D01*
X88075666Y-131704142D01*
X87980428Y-131656523D01*
X87932809Y-131608904D01*
X87885190Y-131513666D01*
X87837571Y-131323190D01*
X87789952Y-131227952D01*
X87742333Y-131180333D01*
X87647095Y-131132714D01*
X87551857Y-131132714D01*
X87456619Y-131180333D01*
X87409000Y-131227952D01*
X87361380Y-131323190D01*
X87361380Y-131561285D01*
X87409000Y-131704142D01*
X88361380Y-132132714D02*
X87361380Y-132132714D01*
X87361380Y-132370809D01*
X87409000Y-132513666D01*
X87504238Y-132608904D01*
X87599476Y-132656523D01*
X87789952Y-132704142D01*
X87932809Y-132704142D01*
X88123285Y-132656523D01*
X88218523Y-132608904D01*
X88313761Y-132513666D01*
X88361380Y-132370809D01*
X88361380Y-132132714D01*
X88075666Y-133085095D02*
X88075666Y-133561285D01*
X88361380Y-132989857D02*
X87361380Y-133323190D01*
X88361380Y-133656523D01*
X89011380Y-132156523D02*
X89011380Y-131680333D01*
X89487571Y-131632714D01*
X89439952Y-131680333D01*
X89392333Y-131775571D01*
X89392333Y-132013666D01*
X89439952Y-132108904D01*
X89487571Y-132156523D01*
X89582809Y-132204142D01*
X89820904Y-132204142D01*
X89916142Y-132156523D01*
X89963761Y-132108904D01*
X90011380Y-132013666D01*
X90011380Y-131775571D01*
X89963761Y-131680333D01*
X89916142Y-131632714D01*
X89011380Y-132489857D02*
X90011380Y-132823190D01*
X89011380Y-133156523D01*
D13*
G36*
X58588186Y-124608931D02*
G01*
X58504365Y-125053555D01*
X58195080Y-125181053D01*
X57885794Y-125308551D01*
X57514754Y-125056246D01*
X57410843Y-124985996D01*
X57316913Y-124923272D01*
X57237348Y-124870938D01*
X57176530Y-124831857D01*
X57138843Y-124808893D01*
X57128579Y-124803942D01*
X57110090Y-124816676D01*
X57070580Y-124851882D01*
X57014478Y-124905062D01*
X56946213Y-124971718D01*
X56870214Y-125047354D01*
X56790908Y-125127472D01*
X56712725Y-125207574D01*
X56640093Y-125283164D01*
X56577441Y-125349745D01*
X56529197Y-125402818D01*
X56499790Y-125437887D01*
X56492759Y-125449623D01*
X56502877Y-125471260D01*
X56531241Y-125518662D01*
X56574871Y-125587193D01*
X56630782Y-125672215D01*
X56695994Y-125769093D01*
X56733781Y-125824350D01*
X56802657Y-125925248D01*
X56863860Y-126016299D01*
X56914422Y-126092970D01*
X56951372Y-126150728D01*
X56971742Y-126185043D01*
X56974803Y-126192254D01*
X56967864Y-126212748D01*
X56948949Y-126260513D01*
X56920913Y-126328832D01*
X56886609Y-126410989D01*
X56848891Y-126500270D01*
X56810613Y-126589958D01*
X56774630Y-126673338D01*
X56743794Y-126743694D01*
X56720961Y-126794310D01*
X56708983Y-126818471D01*
X56708276Y-126819422D01*
X56689469Y-126824036D01*
X56639382Y-126834328D01*
X56563207Y-126849287D01*
X56466135Y-126867901D01*
X56353357Y-126889159D01*
X56287558Y-126901418D01*
X56167050Y-126924362D01*
X56058203Y-126946195D01*
X55966524Y-126965722D01*
X55897519Y-126981748D01*
X55856696Y-126993079D01*
X55848489Y-126996674D01*
X55840452Y-127021006D01*
X55833967Y-127075959D01*
X55829030Y-127155108D01*
X55825636Y-127252026D01*
X55823782Y-127360287D01*
X55823462Y-127473465D01*
X55824673Y-127585135D01*
X55827410Y-127688868D01*
X55831669Y-127778241D01*
X55837445Y-127846826D01*
X55844733Y-127888197D01*
X55849105Y-127896810D01*
X55875236Y-127907133D01*
X55930607Y-127921892D01*
X56007893Y-127939352D01*
X56099770Y-127957780D01*
X56131842Y-127963741D01*
X56286476Y-127992066D01*
X56408625Y-128014876D01*
X56502327Y-128033080D01*
X56571616Y-128047583D01*
X56620529Y-128059292D01*
X56653103Y-128069115D01*
X56673372Y-128077956D01*
X56685374Y-128086724D01*
X56687053Y-128088457D01*
X56703816Y-128116371D01*
X56729386Y-128170695D01*
X56761212Y-128244777D01*
X56796740Y-128331965D01*
X56833417Y-128425608D01*
X56868689Y-128519052D01*
X56900004Y-128605647D01*
X56924807Y-128678740D01*
X56940546Y-128731678D01*
X56944668Y-128757811D01*
X56944324Y-128758726D01*
X56930359Y-128780086D01*
X56898678Y-128827084D01*
X56852609Y-128894827D01*
X56795482Y-128978423D01*
X56730627Y-129072982D01*
X56712157Y-129099854D01*
X56646301Y-129197275D01*
X56588350Y-129286163D01*
X56541462Y-129361412D01*
X56508793Y-129417920D01*
X56493500Y-129450581D01*
X56492759Y-129454593D01*
X56505608Y-129475684D01*
X56541112Y-129517464D01*
X56594707Y-129575445D01*
X56661829Y-129645135D01*
X56737913Y-129722045D01*
X56818396Y-129801683D01*
X56898713Y-129879561D01*
X56974301Y-129951186D01*
X57040595Y-130012070D01*
X57093031Y-130057721D01*
X57127045Y-130083650D01*
X57136455Y-130087883D01*
X57158357Y-130077912D01*
X57203200Y-130051020D01*
X57263679Y-130011736D01*
X57310211Y-129980117D01*
X57394525Y-129922098D01*
X57494374Y-129853784D01*
X57594527Y-129785579D01*
X57648373Y-129749075D01*
X57830629Y-129625800D01*
X57983619Y-129708520D01*
X58053318Y-129744759D01*
X58112586Y-129772926D01*
X58152689Y-129788991D01*
X58162897Y-129791226D01*
X58175171Y-129774722D01*
X58199387Y-129728082D01*
X58233737Y-129655609D01*
X58276412Y-129561606D01*
X58325606Y-129450374D01*
X58379510Y-129326215D01*
X58436316Y-129193432D01*
X58494218Y-129056327D01*
X58551407Y-128919202D01*
X58606076Y-128786358D01*
X58656416Y-128662098D01*
X58700620Y-128550725D01*
X58736881Y-128456539D01*
X58763391Y-128383844D01*
X58778342Y-128336941D01*
X58780746Y-128320833D01*
X58761689Y-128300286D01*
X58719964Y-128266933D01*
X58664294Y-128227702D01*
X58659622Y-128224599D01*
X58515736Y-128109423D01*
X58399717Y-127975053D01*
X58312570Y-127825784D01*
X58255301Y-127665913D01*
X58228914Y-127499737D01*
X58234415Y-127331552D01*
X58272810Y-127165655D01*
X58345105Y-127006342D01*
X58366374Y-126971487D01*
X58477004Y-126830737D01*
X58607698Y-126717714D01*
X58753936Y-126633003D01*
X58911192Y-126577194D01*
X59074943Y-126550874D01*
X59240667Y-126554630D01*
X59403838Y-126589050D01*
X59559935Y-126654723D01*
X59704433Y-126752235D01*
X59749131Y-126791813D01*
X59862888Y-126915703D01*
X59945782Y-127046124D01*
X60002644Y-127192315D01*
X60034313Y-127337088D01*
X60042131Y-127499860D01*
X60016062Y-127663440D01*
X59958755Y-127822298D01*
X59872856Y-127970906D01*
X59761014Y-128103735D01*
X59625877Y-128215256D01*
X59608117Y-128227011D01*
X59551850Y-128265508D01*
X59509077Y-128298863D01*
X59488628Y-128320160D01*
X59488331Y-128320833D01*
X59492721Y-128343871D01*
X59510124Y-128396157D01*
X59538732Y-128473390D01*
X59576735Y-128571268D01*
X59622326Y-128685491D01*
X59673697Y-128811758D01*
X59729038Y-128945767D01*
X59786542Y-129083218D01*
X59844399Y-129219808D01*
X59900802Y-129351237D01*
X59953942Y-129473205D01*
X60002010Y-129581409D01*
X60043199Y-129671549D01*
X60075699Y-129739323D01*
X60097703Y-129780430D01*
X60106564Y-129791226D01*
X60133640Y-129782819D01*
X60184303Y-129760272D01*
X60249817Y-129727613D01*
X60285841Y-129708520D01*
X60438832Y-129625800D01*
X60621088Y-129749075D01*
X60714125Y-129812228D01*
X60815985Y-129881727D01*
X60911438Y-129947165D01*
X60959250Y-129980117D01*
X61026495Y-130025273D01*
X61083436Y-130061057D01*
X61122646Y-130082938D01*
X61135381Y-130087563D01*
X61153917Y-130075085D01*
X61194941Y-130040252D01*
X61254475Y-129986678D01*
X61328542Y-129917983D01*
X61413165Y-129837781D01*
X61466685Y-129786286D01*
X61560319Y-129694286D01*
X61641241Y-129611999D01*
X61706177Y-129542945D01*
X61751858Y-129490644D01*
X61775011Y-129458616D01*
X61777232Y-129452116D01*
X61766924Y-129427394D01*
X61738439Y-129377405D01*
X61694937Y-129307212D01*
X61639577Y-129221875D01*
X61575520Y-129126456D01*
X61557303Y-129099854D01*
X61490927Y-129003167D01*
X61431378Y-128916117D01*
X61381984Y-128843595D01*
X61346075Y-128790493D01*
X61326981Y-128761703D01*
X61325136Y-128758726D01*
X61327895Y-128735782D01*
X61342538Y-128685336D01*
X61366513Y-128614041D01*
X61397266Y-128528547D01*
X61432244Y-128435507D01*
X61468893Y-128341574D01*
X61504661Y-128253399D01*
X61536994Y-128177634D01*
X61563338Y-128120931D01*
X61581142Y-128089943D01*
X61582407Y-128088457D01*
X61593294Y-128079601D01*
X61611682Y-128070843D01*
X61641606Y-128061277D01*
X61687103Y-128049996D01*
X61752209Y-128036093D01*
X61840961Y-128018663D01*
X61957393Y-127996798D01*
X62105542Y-127969591D01*
X62137618Y-127963741D01*
X62232686Y-127945374D01*
X62315565Y-127927405D01*
X62378930Y-127911569D01*
X62415458Y-127899600D01*
X62420356Y-127896810D01*
X62428427Y-127872072D01*
X62434987Y-127816790D01*
X62440033Y-127737389D01*
X62443559Y-127640296D01*
X62445561Y-127531938D01*
X62446036Y-127418740D01*
X62444977Y-127307128D01*
X62442382Y-127203529D01*
X62438246Y-127114368D01*
X62432563Y-127046072D01*
X62425331Y-127005066D01*
X62420971Y-126996674D01*
X62396698Y-126988208D01*
X62341426Y-126974435D01*
X62260662Y-126956550D01*
X62159912Y-126935748D01*
X62044683Y-126913223D01*
X61981902Y-126901418D01*
X61862787Y-126879151D01*
X61756565Y-126858979D01*
X61668427Y-126841915D01*
X61603566Y-126828969D01*
X61567174Y-126821155D01*
X61561184Y-126819422D01*
X61551061Y-126799890D01*
X61529662Y-126752843D01*
X61499839Y-126685003D01*
X61464445Y-126603091D01*
X61426332Y-126513828D01*
X61388353Y-126423935D01*
X61353360Y-126340135D01*
X61324206Y-126269147D01*
X61303743Y-126217694D01*
X61294823Y-126192497D01*
X61294657Y-126191396D01*
X61304769Y-126171519D01*
X61333117Y-126125777D01*
X61376723Y-126058717D01*
X61432606Y-125974884D01*
X61497787Y-125878826D01*
X61535679Y-125823650D01*
X61604725Y-125722481D01*
X61666050Y-125630630D01*
X61716663Y-125552744D01*
X61753571Y-125493469D01*
X61773782Y-125457451D01*
X61776701Y-125449377D01*
X61764153Y-125430584D01*
X61729463Y-125390457D01*
X61677063Y-125333493D01*
X61611384Y-125264185D01*
X61536856Y-125187031D01*
X61457913Y-125106525D01*
X61378983Y-125027163D01*
X61304500Y-124953440D01*
X61238894Y-124889852D01*
X61186596Y-124840894D01*
X61152039Y-124811061D01*
X61140478Y-124803942D01*
X61121654Y-124813953D01*
X61076631Y-124842078D01*
X61009787Y-124885454D01*
X60925499Y-124941218D01*
X60828144Y-125006506D01*
X60754707Y-125056246D01*
X60383667Y-125308551D01*
X59765095Y-125053555D01*
X59681275Y-124608931D01*
X59597454Y-124164307D01*
X58672006Y-124164307D01*
X58588186Y-124608931D01*
X58588186Y-124608931D01*
G37*
X58588186Y-124608931D02*
X58504365Y-125053555D01*
X58195080Y-125181053D01*
X57885794Y-125308551D01*
X57514754Y-125056246D01*
X57410843Y-124985996D01*
X57316913Y-124923272D01*
X57237348Y-124870938D01*
X57176530Y-124831857D01*
X57138843Y-124808893D01*
X57128579Y-124803942D01*
X57110090Y-124816676D01*
X57070580Y-124851882D01*
X57014478Y-124905062D01*
X56946213Y-124971718D01*
X56870214Y-125047354D01*
X56790908Y-125127472D01*
X56712725Y-125207574D01*
X56640093Y-125283164D01*
X56577441Y-125349745D01*
X56529197Y-125402818D01*
X56499790Y-125437887D01*
X56492759Y-125449623D01*
X56502877Y-125471260D01*
X56531241Y-125518662D01*
X56574871Y-125587193D01*
X56630782Y-125672215D01*
X56695994Y-125769093D01*
X56733781Y-125824350D01*
X56802657Y-125925248D01*
X56863860Y-126016299D01*
X56914422Y-126092970D01*
X56951372Y-126150728D01*
X56971742Y-126185043D01*
X56974803Y-126192254D01*
X56967864Y-126212748D01*
X56948949Y-126260513D01*
X56920913Y-126328832D01*
X56886609Y-126410989D01*
X56848891Y-126500270D01*
X56810613Y-126589958D01*
X56774630Y-126673338D01*
X56743794Y-126743694D01*
X56720961Y-126794310D01*
X56708983Y-126818471D01*
X56708276Y-126819422D01*
X56689469Y-126824036D01*
X56639382Y-126834328D01*
X56563207Y-126849287D01*
X56466135Y-126867901D01*
X56353357Y-126889159D01*
X56287558Y-126901418D01*
X56167050Y-126924362D01*
X56058203Y-126946195D01*
X55966524Y-126965722D01*
X55897519Y-126981748D01*
X55856696Y-126993079D01*
X55848489Y-126996674D01*
X55840452Y-127021006D01*
X55833967Y-127075959D01*
X55829030Y-127155108D01*
X55825636Y-127252026D01*
X55823782Y-127360287D01*
X55823462Y-127473465D01*
X55824673Y-127585135D01*
X55827410Y-127688868D01*
X55831669Y-127778241D01*
X55837445Y-127846826D01*
X55844733Y-127888197D01*
X55849105Y-127896810D01*
X55875236Y-127907133D01*
X55930607Y-127921892D01*
X56007893Y-127939352D01*
X56099770Y-127957780D01*
X56131842Y-127963741D01*
X56286476Y-127992066D01*
X56408625Y-128014876D01*
X56502327Y-128033080D01*
X56571616Y-128047583D01*
X56620529Y-128059292D01*
X56653103Y-128069115D01*
X56673372Y-128077956D01*
X56685374Y-128086724D01*
X56687053Y-128088457D01*
X56703816Y-128116371D01*
X56729386Y-128170695D01*
X56761212Y-128244777D01*
X56796740Y-128331965D01*
X56833417Y-128425608D01*
X56868689Y-128519052D01*
X56900004Y-128605647D01*
X56924807Y-128678740D01*
X56940546Y-128731678D01*
X56944668Y-128757811D01*
X56944324Y-128758726D01*
X56930359Y-128780086D01*
X56898678Y-128827084D01*
X56852609Y-128894827D01*
X56795482Y-128978423D01*
X56730627Y-129072982D01*
X56712157Y-129099854D01*
X56646301Y-129197275D01*
X56588350Y-129286163D01*
X56541462Y-129361412D01*
X56508793Y-129417920D01*
X56493500Y-129450581D01*
X56492759Y-129454593D01*
X56505608Y-129475684D01*
X56541112Y-129517464D01*
X56594707Y-129575445D01*
X56661829Y-129645135D01*
X56737913Y-129722045D01*
X56818396Y-129801683D01*
X56898713Y-129879561D01*
X56974301Y-129951186D01*
X57040595Y-130012070D01*
X57093031Y-130057721D01*
X57127045Y-130083650D01*
X57136455Y-130087883D01*
X57158357Y-130077912D01*
X57203200Y-130051020D01*
X57263679Y-130011736D01*
X57310211Y-129980117D01*
X57394525Y-129922098D01*
X57494374Y-129853784D01*
X57594527Y-129785579D01*
X57648373Y-129749075D01*
X57830629Y-129625800D01*
X57983619Y-129708520D01*
X58053318Y-129744759D01*
X58112586Y-129772926D01*
X58152689Y-129788991D01*
X58162897Y-129791226D01*
X58175171Y-129774722D01*
X58199387Y-129728082D01*
X58233737Y-129655609D01*
X58276412Y-129561606D01*
X58325606Y-129450374D01*
X58379510Y-129326215D01*
X58436316Y-129193432D01*
X58494218Y-129056327D01*
X58551407Y-128919202D01*
X58606076Y-128786358D01*
X58656416Y-128662098D01*
X58700620Y-128550725D01*
X58736881Y-128456539D01*
X58763391Y-128383844D01*
X58778342Y-128336941D01*
X58780746Y-128320833D01*
X58761689Y-128300286D01*
X58719964Y-128266933D01*
X58664294Y-128227702D01*
X58659622Y-128224599D01*
X58515736Y-128109423D01*
X58399717Y-127975053D01*
X58312570Y-127825784D01*
X58255301Y-127665913D01*
X58228914Y-127499737D01*
X58234415Y-127331552D01*
X58272810Y-127165655D01*
X58345105Y-127006342D01*
X58366374Y-126971487D01*
X58477004Y-126830737D01*
X58607698Y-126717714D01*
X58753936Y-126633003D01*
X58911192Y-126577194D01*
X59074943Y-126550874D01*
X59240667Y-126554630D01*
X59403838Y-126589050D01*
X59559935Y-126654723D01*
X59704433Y-126752235D01*
X59749131Y-126791813D01*
X59862888Y-126915703D01*
X59945782Y-127046124D01*
X60002644Y-127192315D01*
X60034313Y-127337088D01*
X60042131Y-127499860D01*
X60016062Y-127663440D01*
X59958755Y-127822298D01*
X59872856Y-127970906D01*
X59761014Y-128103735D01*
X59625877Y-128215256D01*
X59608117Y-128227011D01*
X59551850Y-128265508D01*
X59509077Y-128298863D01*
X59488628Y-128320160D01*
X59488331Y-128320833D01*
X59492721Y-128343871D01*
X59510124Y-128396157D01*
X59538732Y-128473390D01*
X59576735Y-128571268D01*
X59622326Y-128685491D01*
X59673697Y-128811758D01*
X59729038Y-128945767D01*
X59786542Y-129083218D01*
X59844399Y-129219808D01*
X59900802Y-129351237D01*
X59953942Y-129473205D01*
X60002010Y-129581409D01*
X60043199Y-129671549D01*
X60075699Y-129739323D01*
X60097703Y-129780430D01*
X60106564Y-129791226D01*
X60133640Y-129782819D01*
X60184303Y-129760272D01*
X60249817Y-129727613D01*
X60285841Y-129708520D01*
X60438832Y-129625800D01*
X60621088Y-129749075D01*
X60714125Y-129812228D01*
X60815985Y-129881727D01*
X60911438Y-129947165D01*
X60959250Y-129980117D01*
X61026495Y-130025273D01*
X61083436Y-130061057D01*
X61122646Y-130082938D01*
X61135381Y-130087563D01*
X61153917Y-130075085D01*
X61194941Y-130040252D01*
X61254475Y-129986678D01*
X61328542Y-129917983D01*
X61413165Y-129837781D01*
X61466685Y-129786286D01*
X61560319Y-129694286D01*
X61641241Y-129611999D01*
X61706177Y-129542945D01*
X61751858Y-129490644D01*
X61775011Y-129458616D01*
X61777232Y-129452116D01*
X61766924Y-129427394D01*
X61738439Y-129377405D01*
X61694937Y-129307212D01*
X61639577Y-129221875D01*
X61575520Y-129126456D01*
X61557303Y-129099854D01*
X61490927Y-129003167D01*
X61431378Y-128916117D01*
X61381984Y-128843595D01*
X61346075Y-128790493D01*
X61326981Y-128761703D01*
X61325136Y-128758726D01*
X61327895Y-128735782D01*
X61342538Y-128685336D01*
X61366513Y-128614041D01*
X61397266Y-128528547D01*
X61432244Y-128435507D01*
X61468893Y-128341574D01*
X61504661Y-128253399D01*
X61536994Y-128177634D01*
X61563338Y-128120931D01*
X61581142Y-128089943D01*
X61582407Y-128088457D01*
X61593294Y-128079601D01*
X61611682Y-128070843D01*
X61641606Y-128061277D01*
X61687103Y-128049996D01*
X61752209Y-128036093D01*
X61840961Y-128018663D01*
X61957393Y-127996798D01*
X62105542Y-127969591D01*
X62137618Y-127963741D01*
X62232686Y-127945374D01*
X62315565Y-127927405D01*
X62378930Y-127911569D01*
X62415458Y-127899600D01*
X62420356Y-127896810D01*
X62428427Y-127872072D01*
X62434987Y-127816790D01*
X62440033Y-127737389D01*
X62443559Y-127640296D01*
X62445561Y-127531938D01*
X62446036Y-127418740D01*
X62444977Y-127307128D01*
X62442382Y-127203529D01*
X62438246Y-127114368D01*
X62432563Y-127046072D01*
X62425331Y-127005066D01*
X62420971Y-126996674D01*
X62396698Y-126988208D01*
X62341426Y-126974435D01*
X62260662Y-126956550D01*
X62159912Y-126935748D01*
X62044683Y-126913223D01*
X61981902Y-126901418D01*
X61862787Y-126879151D01*
X61756565Y-126858979D01*
X61668427Y-126841915D01*
X61603566Y-126828969D01*
X61567174Y-126821155D01*
X61561184Y-126819422D01*
X61551061Y-126799890D01*
X61529662Y-126752843D01*
X61499839Y-126685003D01*
X61464445Y-126603091D01*
X61426332Y-126513828D01*
X61388353Y-126423935D01*
X61353360Y-126340135D01*
X61324206Y-126269147D01*
X61303743Y-126217694D01*
X61294823Y-126192497D01*
X61294657Y-126191396D01*
X61304769Y-126171519D01*
X61333117Y-126125777D01*
X61376723Y-126058717D01*
X61432606Y-125974884D01*
X61497787Y-125878826D01*
X61535679Y-125823650D01*
X61604725Y-125722481D01*
X61666050Y-125630630D01*
X61716663Y-125552744D01*
X61753571Y-125493469D01*
X61773782Y-125457451D01*
X61776701Y-125449377D01*
X61764153Y-125430584D01*
X61729463Y-125390457D01*
X61677063Y-125333493D01*
X61611384Y-125264185D01*
X61536856Y-125187031D01*
X61457913Y-125106525D01*
X61378983Y-125027163D01*
X61304500Y-124953440D01*
X61238894Y-124889852D01*
X61186596Y-124840894D01*
X61152039Y-124811061D01*
X61140478Y-124803942D01*
X61121654Y-124813953D01*
X61076631Y-124842078D01*
X61009787Y-124885454D01*
X60925499Y-124941218D01*
X60828144Y-125006506D01*
X60754707Y-125056246D01*
X60383667Y-125308551D01*
X59765095Y-125053555D01*
X59681275Y-124608931D01*
X59597454Y-124164307D01*
X58672006Y-124164307D01*
X58588186Y-124608931D01*
D14*
X101369000Y-107709000D02*
G75*
G03X101369000Y-107709000I-950000J0D01*
G01*
X107211000Y-104788000D02*
G75*
G03X107211000Y-104788000I-950000J0D01*
G01*
X107338000Y-106820000D02*
G75*
G03X107338000Y-106820000I-950000J0D01*
G01*
X80922000Y-114821000D02*
G75*
G03X80922000Y-114821000I-950000J0D01*
G01*
X93876000Y-131585000D02*
G75*
G03X93876000Y-131585000I-950000J0D01*
G01*
X95908000Y-131585000D02*
G75*
G03X95908000Y-131585000I-950000J0D01*
G01*
X114450000Y-130696000D02*
G75*
G03X114450000Y-130696000I-950000J0D01*
G01*
X111783000Y-130442000D02*
G75*
G03X111783000Y-130442000I-950000J0D01*
G01*
X115720000Y-128918000D02*
G75*
G03X115720000Y-128918000I-950000J0D01*
G01*
X114577000Y-127140000D02*
G75*
G03X114577000Y-127140000I-950000J0D01*
G01*
X111783000Y-124600000D02*
G75*
G03X111783000Y-124600000I-950000J0D01*
G01*
X113815000Y-124600000D02*
G75*
G03X113815000Y-124600000I-950000J0D01*
G01*
X115847000Y-124473000D02*
G75*
G03X115847000Y-124473000I-950000J0D01*
G01*
X119314000Y-123698000D02*
G75*
G03X119314000Y-123698000I-950000J0D01*
G01*
X107211000Y-108852000D02*
G75*
G03X107211000Y-108852000I-950000J0D01*
G01*
X80922000Y-110757000D02*
G75*
G03X80922000Y-110757000I-950000J0D01*
G01*
X80922000Y-112789000D02*
G75*
G03X80922000Y-112789000I-950000J0D01*
G01*
X98829000Y-109487000D02*
G75*
G03X98829000Y-109487000I-950000J0D01*
G01*
X105433000Y-107709000D02*
G75*
G03X105433000Y-107709000I-950000J0D01*
G01*
X103401000Y-107709000D02*
G75*
G03X103401000Y-107709000I-950000J0D01*
G01*
X78568733Y-106564000D02*
X78911267Y-106564000D01*
X78568733Y-107584000D02*
X78911267Y-107584000D01*
X78568733Y-108202000D02*
X78911267Y-108202000D01*
X78568733Y-109222000D02*
X78911267Y-109222000D01*
X78568733Y-104900000D02*
X78911267Y-104900000D01*
X78568733Y-105920000D02*
X78911267Y-105920000D01*
X111550733Y-102246000D02*
X111893267Y-102246000D01*
X111550733Y-103266000D02*
X111893267Y-103266000D01*
X111893267Y-101869000D02*
X111550733Y-101869000D01*
X111893267Y-100849000D02*
X111550733Y-100849000D01*
X111550733Y-105040000D02*
X111893267Y-105040000D01*
X111550733Y-106060000D02*
X111893267Y-106060000D01*
X111893267Y-104663000D02*
X111550733Y-104663000D01*
X111893267Y-103643000D02*
X111550733Y-103643000D01*
X111550733Y-107834000D02*
X111893267Y-107834000D01*
X111550733Y-108854000D02*
X111893267Y-108854000D01*
X111893267Y-107457000D02*
X111550733Y-107457000D01*
X111893267Y-106437000D02*
X111550733Y-106437000D01*
D15*
X85451681Y-114503200D02*
G75*
G03X85451681Y-114503200I-158481J0D01*
G01*
D11*
X91800680Y-101285040D02*
X93299280Y-100985320D01*
X86700360Y-100985320D02*
X87500460Y-101185980D01*
X87500460Y-101185980D02*
X89400380Y-101384100D01*
X89400380Y-101384100D02*
X90700860Y-101384100D01*
X90700860Y-101384100D02*
X91800680Y-101285040D01*
X86700360Y-100985320D02*
X84500720Y-100985320D01*
X84498180Y-100985320D02*
X84198460Y-100584000D01*
X93599000Y-100584000D02*
X96100900Y-100584000D01*
X84201000Y-100584000D02*
X81699100Y-100584000D01*
X93599000Y-100584000D02*
X93299280Y-100985320D01*
X85199220Y-115585240D02*
X85199220Y-116586000D01*
X85199220Y-116586000D02*
X83700620Y-116586000D01*
X83700620Y-116586000D02*
X83700620Y-115585240D01*
X82999580Y-116586000D02*
X81899760Y-116586000D01*
X82999580Y-116586000D02*
X82999580Y-115585240D01*
X81899760Y-115585240D02*
X81899760Y-116586000D01*
X94599760Y-116484400D02*
X95600520Y-116484400D01*
X94599760Y-115585240D02*
X94599760Y-116484400D01*
X95600520Y-116484400D02*
X95600520Y-115585240D01*
X93700600Y-116484400D02*
X93700600Y-115585240D01*
X92600780Y-116484400D02*
X92600780Y-115585240D01*
X91500960Y-116484400D02*
X91500960Y-115585240D01*
X90401140Y-116484400D02*
X90401140Y-115585240D01*
X89298780Y-116484400D02*
X89298780Y-115585240D01*
X88198960Y-116484400D02*
X88198960Y-115684300D01*
X87099140Y-116484400D02*
X87099140Y-115585240D01*
X85999320Y-115585240D02*
X85999320Y-116484400D01*
X96100900Y-100584000D02*
X96100900Y-115585240D01*
X96100900Y-115585240D02*
X81699100Y-115585240D01*
X81699100Y-115585240D02*
X81699100Y-100584000D01*
D10*
X99998380Y-102795904D02*
X99998380Y-103367333D01*
X100998380Y-103081619D02*
X99998380Y-103081619D01*
X100998380Y-103700666D02*
X99998380Y-103700666D01*
X99998380Y-104081619D01*
X100046000Y-104176857D01*
X100093619Y-104224476D01*
X100188857Y-104272095D01*
X100331714Y-104272095D01*
X100426952Y-104224476D01*
X100474571Y-104176857D01*
X100522190Y-104081619D01*
X100522190Y-103700666D01*
X99998380Y-104605428D02*
X99998380Y-105224476D01*
X100379333Y-104891142D01*
X100379333Y-105034000D01*
X100426952Y-105129238D01*
X100474571Y-105176857D01*
X100569809Y-105224476D01*
X100807904Y-105224476D01*
X100903142Y-105176857D01*
X100950761Y-105129238D01*
X100998380Y-105034000D01*
X100998380Y-104748285D01*
X100950761Y-104653047D01*
X100903142Y-104605428D01*
X99998380Y-106129238D02*
X99998380Y-105653047D01*
X100474571Y-105605428D01*
X100426952Y-105653047D01*
X100379333Y-105748285D01*
X100379333Y-105986380D01*
X100426952Y-106081619D01*
X100474571Y-106129238D01*
X100569809Y-106176857D01*
X100807904Y-106176857D01*
X100903142Y-106129238D01*
X100950761Y-106081619D01*
X100998380Y-105986380D01*
X100998380Y-105748285D01*
X100950761Y-105653047D01*
X100903142Y-105605428D01*
X107872095Y-102208380D02*
X107300666Y-102208380D01*
X107586380Y-103208380D02*
X107586380Y-102208380D01*
X106967333Y-103208380D02*
X106967333Y-102208380D01*
X106586380Y-102208380D01*
X106491142Y-102256000D01*
X106443523Y-102303619D01*
X106395904Y-102398857D01*
X106395904Y-102541714D01*
X106443523Y-102636952D01*
X106491142Y-102684571D01*
X106586380Y-102732190D01*
X106967333Y-102732190D01*
X106062571Y-102208380D02*
X105443523Y-102208380D01*
X105776857Y-102589333D01*
X105634000Y-102589333D01*
X105538761Y-102636952D01*
X105491142Y-102684571D01*
X105443523Y-102779809D01*
X105443523Y-103017904D01*
X105491142Y-103113142D01*
X105538761Y-103160761D01*
X105634000Y-103208380D01*
X105919714Y-103208380D01*
X106014952Y-103160761D01*
X106062571Y-103113142D01*
X104586380Y-102541714D02*
X104586380Y-103208380D01*
X104824476Y-102160761D02*
X105062571Y-102875047D01*
X104443523Y-102875047D01*
X107872380Y-105081904D02*
X107872380Y-105653333D01*
X108872380Y-105367619D02*
X107872380Y-105367619D01*
X108872380Y-105986666D02*
X107872380Y-105986666D01*
X107872380Y-106367619D01*
X107920000Y-106462857D01*
X107967619Y-106510476D01*
X108062857Y-106558095D01*
X108205714Y-106558095D01*
X108300952Y-106510476D01*
X108348571Y-106462857D01*
X108396190Y-106367619D01*
X108396190Y-105986666D01*
X107872380Y-106891428D02*
X107872380Y-107510476D01*
X108253333Y-107177142D01*
X108253333Y-107320000D01*
X108300952Y-107415238D01*
X108348571Y-107462857D01*
X108443809Y-107510476D01*
X108681904Y-107510476D01*
X108777142Y-107462857D01*
X108824761Y-107415238D01*
X108872380Y-107320000D01*
X108872380Y-107034285D01*
X108824761Y-106939047D01*
X108777142Y-106891428D01*
X107872380Y-107843809D02*
X107872380Y-108462857D01*
X108253333Y-108129523D01*
X108253333Y-108272380D01*
X108300952Y-108367619D01*
X108348571Y-108415238D01*
X108443809Y-108462857D01*
X108681904Y-108462857D01*
X108777142Y-108415238D01*
X108824761Y-108367619D01*
X108872380Y-108272380D01*
X108872380Y-107986666D01*
X108824761Y-107891428D01*
X108777142Y-107843809D01*
X78408095Y-114400380D02*
X77836666Y-114400380D01*
X78122380Y-115400380D02*
X78122380Y-114400380D01*
X77503333Y-115400380D02*
X77503333Y-114400380D01*
X77122380Y-114400380D01*
X77027142Y-114448000D01*
X76979523Y-114495619D01*
X76931904Y-114590857D01*
X76931904Y-114733714D01*
X76979523Y-114828952D01*
X77027142Y-114876571D01*
X77122380Y-114924190D01*
X77503333Y-114924190D01*
X76598571Y-114400380D02*
X75979523Y-114400380D01*
X76312857Y-114781333D01*
X76170000Y-114781333D01*
X76074761Y-114828952D01*
X76027142Y-114876571D01*
X75979523Y-114971809D01*
X75979523Y-115209904D01*
X76027142Y-115305142D01*
X76074761Y-115352761D01*
X76170000Y-115400380D01*
X76455714Y-115400380D01*
X76550952Y-115352761D01*
X76598571Y-115305142D01*
X75598571Y-114495619D02*
X75550952Y-114448000D01*
X75455714Y-114400380D01*
X75217619Y-114400380D01*
X75122380Y-114448000D01*
X75074761Y-114495619D01*
X75027142Y-114590857D01*
X75027142Y-114686095D01*
X75074761Y-114828952D01*
X75646190Y-115400380D01*
X75027142Y-115400380D01*
X93394095Y-129389380D02*
X92822666Y-129389380D01*
X93108380Y-130389380D02*
X93108380Y-129389380D01*
X92489333Y-130389380D02*
X92489333Y-129389380D01*
X92108380Y-129389380D01*
X92013142Y-129437000D01*
X91965523Y-129484619D01*
X91917904Y-129579857D01*
X91917904Y-129722714D01*
X91965523Y-129817952D01*
X92013142Y-129865571D01*
X92108380Y-129913190D01*
X92489333Y-129913190D01*
X91584571Y-129389380D02*
X90965523Y-129389380D01*
X91298857Y-129770333D01*
X91156000Y-129770333D01*
X91060761Y-129817952D01*
X91013142Y-129865571D01*
X90965523Y-129960809D01*
X90965523Y-130198904D01*
X91013142Y-130294142D01*
X91060761Y-130341761D01*
X91156000Y-130389380D01*
X91441714Y-130389380D01*
X91536952Y-130341761D01*
X91584571Y-130294142D01*
X90013142Y-130389380D02*
X90584571Y-130389380D01*
X90298857Y-130389380D02*
X90298857Y-129389380D01*
X90394095Y-129532238D01*
X90489333Y-129627476D01*
X90584571Y-129675095D01*
X97712095Y-129386380D02*
X97140666Y-129386380D01*
X97426380Y-130386380D02*
X97426380Y-129386380D01*
X96807333Y-130386380D02*
X96807333Y-129386380D01*
X96426380Y-129386380D01*
X96331142Y-129434000D01*
X96283523Y-129481619D01*
X96235904Y-129576857D01*
X96235904Y-129719714D01*
X96283523Y-129814952D01*
X96331142Y-129862571D01*
X96426380Y-129910190D01*
X96807333Y-129910190D01*
X95902571Y-129386380D02*
X95283523Y-129386380D01*
X95616857Y-129767333D01*
X95474000Y-129767333D01*
X95378761Y-129814952D01*
X95331142Y-129862571D01*
X95283523Y-129957809D01*
X95283523Y-130195904D01*
X95331142Y-130291142D01*
X95378761Y-130338761D01*
X95474000Y-130386380D01*
X95759714Y-130386380D01*
X95854952Y-130338761D01*
X95902571Y-130291142D01*
X94664476Y-129386380D02*
X94569238Y-129386380D01*
X94474000Y-129434000D01*
X94426380Y-129481619D01*
X94378761Y-129576857D01*
X94331142Y-129767333D01*
X94331142Y-130005428D01*
X94378761Y-130195904D01*
X94426380Y-130291142D01*
X94474000Y-130338761D01*
X94569238Y-130386380D01*
X94664476Y-130386380D01*
X94759714Y-130338761D01*
X94807333Y-130291142D01*
X94854952Y-130195904D01*
X94902571Y-130005428D01*
X94902571Y-129767333D01*
X94854952Y-129576857D01*
X94807333Y-129481619D01*
X94759714Y-129434000D01*
X94664476Y-129386380D01*
X117016095Y-132434380D02*
X116444666Y-132434380D01*
X116730380Y-133434380D02*
X116730380Y-132434380D01*
X116111333Y-133434380D02*
X116111333Y-132434380D01*
X115730380Y-132434380D01*
X115635142Y-132482000D01*
X115587523Y-132529619D01*
X115539904Y-132624857D01*
X115539904Y-132767714D01*
X115587523Y-132862952D01*
X115635142Y-132910571D01*
X115730380Y-132958190D01*
X116111333Y-132958190D01*
X115158952Y-132529619D02*
X115111333Y-132482000D01*
X115016095Y-132434380D01*
X114778000Y-132434380D01*
X114682761Y-132482000D01*
X114635142Y-132529619D01*
X114587523Y-132624857D01*
X114587523Y-132720095D01*
X114635142Y-132862952D01*
X115206571Y-133434380D01*
X114587523Y-133434380D01*
X114254190Y-132434380D02*
X113587523Y-132434380D01*
X114016095Y-133434380D01*
X111682095Y-132434380D02*
X111110666Y-132434380D01*
X111396380Y-133434380D02*
X111396380Y-132434380D01*
X110777333Y-133434380D02*
X110777333Y-132434380D01*
X110396380Y-132434380D01*
X110301142Y-132482000D01*
X110253523Y-132529619D01*
X110205904Y-132624857D01*
X110205904Y-132767714D01*
X110253523Y-132862952D01*
X110301142Y-132910571D01*
X110396380Y-132958190D01*
X110777333Y-132958190D01*
X109824952Y-132529619D02*
X109777333Y-132482000D01*
X109682095Y-132434380D01*
X109444000Y-132434380D01*
X109348761Y-132482000D01*
X109301142Y-132529619D01*
X109253523Y-132624857D01*
X109253523Y-132720095D01*
X109301142Y-132862952D01*
X109872571Y-133434380D01*
X109253523Y-133434380D01*
X108396380Y-132434380D02*
X108586857Y-132434380D01*
X108682095Y-132482000D01*
X108729714Y-132529619D01*
X108824952Y-132672476D01*
X108872571Y-132862952D01*
X108872571Y-133243904D01*
X108824952Y-133339142D01*
X108777333Y-133386761D01*
X108682095Y-133434380D01*
X108491619Y-133434380D01*
X108396380Y-133386761D01*
X108348761Y-133339142D01*
X108301142Y-133243904D01*
X108301142Y-133005809D01*
X108348761Y-132910571D01*
X108396380Y-132862952D01*
X108491619Y-132815333D01*
X108682095Y-132815333D01*
X108777333Y-132862952D01*
X108824952Y-132910571D01*
X108872571Y-133005809D01*
X119810095Y-128370380D02*
X119238666Y-128370380D01*
X119524380Y-129370380D02*
X119524380Y-128370380D01*
X118905333Y-129370380D02*
X118905333Y-128370380D01*
X118524380Y-128370380D01*
X118429142Y-128418000D01*
X118381523Y-128465619D01*
X118333904Y-128560857D01*
X118333904Y-128703714D01*
X118381523Y-128798952D01*
X118429142Y-128846571D01*
X118524380Y-128894190D01*
X118905333Y-128894190D01*
X117952952Y-128465619D02*
X117905333Y-128418000D01*
X117810095Y-128370380D01*
X117572000Y-128370380D01*
X117476761Y-128418000D01*
X117429142Y-128465619D01*
X117381523Y-128560857D01*
X117381523Y-128656095D01*
X117429142Y-128798952D01*
X118000571Y-129370380D01*
X117381523Y-129370380D01*
X116476761Y-128370380D02*
X116952952Y-128370380D01*
X117000571Y-128846571D01*
X116952952Y-128798952D01*
X116857714Y-128751333D01*
X116619619Y-128751333D01*
X116524380Y-128798952D01*
X116476761Y-128846571D01*
X116429142Y-128941809D01*
X116429142Y-129179904D01*
X116476761Y-129275142D01*
X116524380Y-129322761D01*
X116619619Y-129370380D01*
X116857714Y-129370380D01*
X116952952Y-129322761D01*
X117000571Y-129275142D01*
X118540095Y-126338380D02*
X117968666Y-126338380D01*
X118254380Y-127338380D02*
X118254380Y-126338380D01*
X117635333Y-127338380D02*
X117635333Y-126338380D01*
X117254380Y-126338380D01*
X117159142Y-126386000D01*
X117111523Y-126433619D01*
X117063904Y-126528857D01*
X117063904Y-126671714D01*
X117111523Y-126766952D01*
X117159142Y-126814571D01*
X117254380Y-126862190D01*
X117635333Y-126862190D01*
X116682952Y-126433619D02*
X116635333Y-126386000D01*
X116540095Y-126338380D01*
X116302000Y-126338380D01*
X116206761Y-126386000D01*
X116159142Y-126433619D01*
X116111523Y-126528857D01*
X116111523Y-126624095D01*
X116159142Y-126766952D01*
X116730571Y-127338380D01*
X116111523Y-127338380D01*
X115254380Y-126671714D02*
X115254380Y-127338380D01*
X115492476Y-126290761D02*
X115730571Y-127005047D01*
X115111523Y-127005047D01*
X110158380Y-119813904D02*
X110158380Y-120385333D01*
X111158380Y-120099619D02*
X110158380Y-120099619D01*
X111158380Y-120718666D02*
X110158380Y-120718666D01*
X110158380Y-121099619D01*
X110206000Y-121194857D01*
X110253619Y-121242476D01*
X110348857Y-121290095D01*
X110491714Y-121290095D01*
X110586952Y-121242476D01*
X110634571Y-121194857D01*
X110682190Y-121099619D01*
X110682190Y-120718666D01*
X110253619Y-121671047D02*
X110206000Y-121718666D01*
X110158380Y-121813904D01*
X110158380Y-122052000D01*
X110206000Y-122147238D01*
X110253619Y-122194857D01*
X110348857Y-122242476D01*
X110444095Y-122242476D01*
X110586952Y-122194857D01*
X111158380Y-121623428D01*
X111158380Y-122242476D01*
X110158380Y-122575809D02*
X110158380Y-123194857D01*
X110539333Y-122861523D01*
X110539333Y-123004380D01*
X110586952Y-123099619D01*
X110634571Y-123147238D01*
X110729809Y-123194857D01*
X110967904Y-123194857D01*
X111063142Y-123147238D01*
X111110761Y-123099619D01*
X111158380Y-123004380D01*
X111158380Y-122718666D01*
X111110761Y-122623428D01*
X111063142Y-122575809D01*
X112317380Y-119813904D02*
X112317380Y-120385333D01*
X113317380Y-120099619D02*
X112317380Y-120099619D01*
X113317380Y-120718666D02*
X112317380Y-120718666D01*
X112317380Y-121099619D01*
X112365000Y-121194857D01*
X112412619Y-121242476D01*
X112507857Y-121290095D01*
X112650714Y-121290095D01*
X112745952Y-121242476D01*
X112793571Y-121194857D01*
X112841190Y-121099619D01*
X112841190Y-120718666D01*
X112412619Y-121671047D02*
X112365000Y-121718666D01*
X112317380Y-121813904D01*
X112317380Y-122052000D01*
X112365000Y-122147238D01*
X112412619Y-122194857D01*
X112507857Y-122242476D01*
X112603095Y-122242476D01*
X112745952Y-122194857D01*
X113317380Y-121623428D01*
X113317380Y-122242476D01*
X112412619Y-122623428D02*
X112365000Y-122671047D01*
X112317380Y-122766285D01*
X112317380Y-123004380D01*
X112365000Y-123099619D01*
X112412619Y-123147238D01*
X112507857Y-123194857D01*
X112603095Y-123194857D01*
X112745952Y-123147238D01*
X113317380Y-122575809D01*
X113317380Y-123194857D01*
X114476380Y-119813904D02*
X114476380Y-120385333D01*
X115476380Y-120099619D02*
X114476380Y-120099619D01*
X115476380Y-120718666D02*
X114476380Y-120718666D01*
X114476380Y-121099619D01*
X114524000Y-121194857D01*
X114571619Y-121242476D01*
X114666857Y-121290095D01*
X114809714Y-121290095D01*
X114904952Y-121242476D01*
X114952571Y-121194857D01*
X115000190Y-121099619D01*
X115000190Y-120718666D01*
X114571619Y-121671047D02*
X114524000Y-121718666D01*
X114476380Y-121813904D01*
X114476380Y-122052000D01*
X114524000Y-122147238D01*
X114571619Y-122194857D01*
X114666857Y-122242476D01*
X114762095Y-122242476D01*
X114904952Y-122194857D01*
X115476380Y-121623428D01*
X115476380Y-122242476D01*
X115476380Y-123194857D02*
X115476380Y-122623428D01*
X115476380Y-122909142D02*
X114476380Y-122909142D01*
X114619238Y-122813904D01*
X114714476Y-122718666D01*
X114762095Y-122623428D01*
X120064095Y-121004380D02*
X119492666Y-121004380D01*
X119778380Y-122004380D02*
X119778380Y-121004380D01*
X119159333Y-122004380D02*
X119159333Y-121004380D01*
X118778380Y-121004380D01*
X118683142Y-121052000D01*
X118635523Y-121099619D01*
X118587904Y-121194857D01*
X118587904Y-121337714D01*
X118635523Y-121432952D01*
X118683142Y-121480571D01*
X118778380Y-121528190D01*
X119159333Y-121528190D01*
X118206952Y-121099619D02*
X118159333Y-121052000D01*
X118064095Y-121004380D01*
X117826000Y-121004380D01*
X117730761Y-121052000D01*
X117683142Y-121099619D01*
X117635523Y-121194857D01*
X117635523Y-121290095D01*
X117683142Y-121432952D01*
X118254571Y-122004380D01*
X117635523Y-122004380D01*
X117016476Y-121004380D02*
X116921238Y-121004380D01*
X116826000Y-121052000D01*
X116778380Y-121099619D01*
X116730761Y-121194857D01*
X116683142Y-121385333D01*
X116683142Y-121623428D01*
X116730761Y-121813904D01*
X116778380Y-121909142D01*
X116826000Y-121956761D01*
X116921238Y-122004380D01*
X117016476Y-122004380D01*
X117111714Y-121956761D01*
X117159333Y-121909142D01*
X117206952Y-121813904D01*
X117254571Y-121623428D01*
X117254571Y-121385333D01*
X117206952Y-121194857D01*
X117159333Y-121099619D01*
X117111714Y-121052000D01*
X117016476Y-121004380D01*
X105713380Y-110415904D02*
X105713380Y-110987333D01*
X106713380Y-110701619D02*
X105713380Y-110701619D01*
X106713380Y-111320666D02*
X105713380Y-111320666D01*
X105713380Y-111701619D01*
X105761000Y-111796857D01*
X105808619Y-111844476D01*
X105903857Y-111892095D01*
X106046714Y-111892095D01*
X106141952Y-111844476D01*
X106189571Y-111796857D01*
X106237190Y-111701619D01*
X106237190Y-111320666D01*
X106713380Y-112844476D02*
X106713380Y-112273047D01*
X106713380Y-112558761D02*
X105713380Y-112558761D01*
X105856238Y-112463523D01*
X105951476Y-112368285D01*
X105999095Y-112273047D01*
X105713380Y-113463523D02*
X105713380Y-113558761D01*
X105761000Y-113654000D01*
X105808619Y-113701619D01*
X105903857Y-113749238D01*
X106094333Y-113796857D01*
X106332428Y-113796857D01*
X106522904Y-113749238D01*
X106618142Y-113701619D01*
X106665761Y-113654000D01*
X106713380Y-113558761D01*
X106713380Y-113463523D01*
X106665761Y-113368285D01*
X106618142Y-113320666D01*
X106522904Y-113273047D01*
X106332428Y-113225428D01*
X106094333Y-113225428D01*
X105903857Y-113273047D01*
X105808619Y-113320666D01*
X105761000Y-113368285D01*
X105713380Y-113463523D01*
X78439904Y-110336380D02*
X77868476Y-110336380D01*
X78154190Y-111336380D02*
X78154190Y-110336380D01*
X77535142Y-111336380D02*
X77535142Y-110336380D01*
X77154190Y-110336380D01*
X77058952Y-110384000D01*
X77011333Y-110431619D01*
X76963714Y-110526857D01*
X76963714Y-110669714D01*
X77011333Y-110764952D01*
X77058952Y-110812571D01*
X77154190Y-110860190D01*
X77535142Y-110860190D01*
X76058952Y-110336380D02*
X76535142Y-110336380D01*
X76582761Y-110812571D01*
X76535142Y-110764952D01*
X76439904Y-110717333D01*
X76201809Y-110717333D01*
X76106571Y-110764952D01*
X76058952Y-110812571D01*
X76011333Y-110907809D01*
X76011333Y-111145904D01*
X76058952Y-111241142D01*
X76106571Y-111288761D01*
X76201809Y-111336380D01*
X76439904Y-111336380D01*
X76535142Y-111288761D01*
X76582761Y-111241142D01*
X78439904Y-112368380D02*
X77868476Y-112368380D01*
X78154190Y-113368380D02*
X78154190Y-112368380D01*
X77535142Y-113368380D02*
X77535142Y-112368380D01*
X77154190Y-112368380D01*
X77058952Y-112416000D01*
X77011333Y-112463619D01*
X76963714Y-112558857D01*
X76963714Y-112701714D01*
X77011333Y-112796952D01*
X77058952Y-112844571D01*
X77154190Y-112892190D01*
X77535142Y-112892190D01*
X76106571Y-112701714D02*
X76106571Y-113368380D01*
X76344666Y-112320761D02*
X76582761Y-113035047D01*
X75963714Y-113035047D01*
X97458380Y-105304095D02*
X97458380Y-105875523D01*
X98458380Y-105589809D02*
X97458380Y-105589809D01*
X98458380Y-106208857D02*
X97458380Y-106208857D01*
X97458380Y-106589809D01*
X97506000Y-106685047D01*
X97553619Y-106732666D01*
X97648857Y-106780285D01*
X97791714Y-106780285D01*
X97886952Y-106732666D01*
X97934571Y-106685047D01*
X97982190Y-106589809D01*
X97982190Y-106208857D01*
X97458380Y-107113619D02*
X97458380Y-107732666D01*
X97839333Y-107399333D01*
X97839333Y-107542190D01*
X97886952Y-107637428D01*
X97934571Y-107685047D01*
X98029809Y-107732666D01*
X98267904Y-107732666D01*
X98363142Y-107685047D01*
X98410761Y-107637428D01*
X98458380Y-107542190D01*
X98458380Y-107256476D01*
X98410761Y-107161238D01*
X98363142Y-107113619D01*
X103808380Y-103780095D02*
X103808380Y-104351523D01*
X104808380Y-104065809D02*
X103808380Y-104065809D01*
X104808380Y-104684857D02*
X103808380Y-104684857D01*
X103808380Y-105065809D01*
X103856000Y-105161047D01*
X103903619Y-105208666D01*
X103998857Y-105256285D01*
X104141714Y-105256285D01*
X104236952Y-105208666D01*
X104284571Y-105161047D01*
X104332190Y-105065809D01*
X104332190Y-104684857D01*
X103903619Y-105637238D02*
X103856000Y-105684857D01*
X103808380Y-105780095D01*
X103808380Y-106018190D01*
X103856000Y-106113428D01*
X103903619Y-106161047D01*
X103998857Y-106208666D01*
X104094095Y-106208666D01*
X104236952Y-106161047D01*
X104808380Y-105589619D01*
X104808380Y-106208666D01*
X101903380Y-103780095D02*
X101903380Y-104351523D01*
X102903380Y-104065809D02*
X101903380Y-104065809D01*
X102903380Y-104684857D02*
X101903380Y-104684857D01*
X101903380Y-105065809D01*
X101951000Y-105161047D01*
X101998619Y-105208666D01*
X102093857Y-105256285D01*
X102236714Y-105256285D01*
X102331952Y-105208666D01*
X102379571Y-105161047D01*
X102427190Y-105065809D01*
X102427190Y-104684857D01*
X102903380Y-106208666D02*
X102903380Y-105637238D01*
X102903380Y-105922952D02*
X101903380Y-105922952D01*
X102046238Y-105827714D01*
X102141476Y-105732476D01*
X102189095Y-105637238D01*
X76422285Y-107575904D02*
X76688952Y-107194952D01*
X76879428Y-107575904D02*
X76879428Y-106775904D01*
X76574666Y-106775904D01*
X76498476Y-106814000D01*
X76460380Y-106852095D01*
X76422285Y-106928285D01*
X76422285Y-107042571D01*
X76460380Y-107118761D01*
X76498476Y-107156857D01*
X76574666Y-107194952D01*
X76879428Y-107194952D01*
X75698476Y-106775904D02*
X76079428Y-106775904D01*
X76117523Y-107156857D01*
X76079428Y-107118761D01*
X76003238Y-107080666D01*
X75812761Y-107080666D01*
X75736571Y-107118761D01*
X75698476Y-107156857D01*
X75660380Y-107233047D01*
X75660380Y-107423523D01*
X75698476Y-107499714D01*
X75736571Y-107537809D01*
X75812761Y-107575904D01*
X76003238Y-107575904D01*
X76079428Y-107537809D01*
X76117523Y-107499714D01*
X74974666Y-107042571D02*
X74974666Y-107575904D01*
X75165142Y-106737809D02*
X75355619Y-107309238D01*
X74860380Y-107309238D01*
X76422285Y-109213904D02*
X76688952Y-108832952D01*
X76879428Y-109213904D02*
X76879428Y-108413904D01*
X76574666Y-108413904D01*
X76498476Y-108452000D01*
X76460380Y-108490095D01*
X76422285Y-108566285D01*
X76422285Y-108680571D01*
X76460380Y-108756761D01*
X76498476Y-108794857D01*
X76574666Y-108832952D01*
X76879428Y-108832952D01*
X75698476Y-108413904D02*
X76079428Y-108413904D01*
X76117523Y-108794857D01*
X76079428Y-108756761D01*
X76003238Y-108718666D01*
X75812761Y-108718666D01*
X75736571Y-108756761D01*
X75698476Y-108794857D01*
X75660380Y-108871047D01*
X75660380Y-109061523D01*
X75698476Y-109137714D01*
X75736571Y-109175809D01*
X75812761Y-109213904D01*
X76003238Y-109213904D01*
X76079428Y-109175809D01*
X76117523Y-109137714D01*
X74898476Y-109213904D02*
X75355619Y-109213904D01*
X75127047Y-109213904D02*
X75127047Y-108413904D01*
X75203238Y-108528190D01*
X75279428Y-108604380D01*
X75355619Y-108642476D01*
X76422285Y-105911904D02*
X76688952Y-105530952D01*
X76879428Y-105911904D02*
X76879428Y-105111904D01*
X76574666Y-105111904D01*
X76498476Y-105150000D01*
X76460380Y-105188095D01*
X76422285Y-105264285D01*
X76422285Y-105378571D01*
X76460380Y-105454761D01*
X76498476Y-105492857D01*
X76574666Y-105530952D01*
X76879428Y-105530952D01*
X76155619Y-105111904D02*
X75660380Y-105111904D01*
X75927047Y-105416666D01*
X75812761Y-105416666D01*
X75736571Y-105454761D01*
X75698476Y-105492857D01*
X75660380Y-105569047D01*
X75660380Y-105759523D01*
X75698476Y-105835714D01*
X75736571Y-105873809D01*
X75812761Y-105911904D01*
X76041333Y-105911904D01*
X76117523Y-105873809D01*
X76155619Y-105835714D01*
X74974666Y-105378571D02*
X74974666Y-105911904D01*
X75165142Y-105073809D02*
X75355619Y-105645238D01*
X74860380Y-105645238D01*
X115030285Y-103371904D02*
X115296952Y-102990952D01*
X115487428Y-103371904D02*
X115487428Y-102571904D01*
X115182666Y-102571904D01*
X115106476Y-102610000D01*
X115068380Y-102648095D01*
X115030285Y-102724285D01*
X115030285Y-102838571D01*
X115068380Y-102914761D01*
X115106476Y-102952857D01*
X115182666Y-102990952D01*
X115487428Y-102990952D01*
X114763619Y-102571904D02*
X114268380Y-102571904D01*
X114535047Y-102876666D01*
X114420761Y-102876666D01*
X114344571Y-102914761D01*
X114306476Y-102952857D01*
X114268380Y-103029047D01*
X114268380Y-103219523D01*
X114306476Y-103295714D01*
X114344571Y-103333809D01*
X114420761Y-103371904D01*
X114649333Y-103371904D01*
X114725523Y-103333809D01*
X114763619Y-103295714D01*
X114001714Y-102571904D02*
X113506476Y-102571904D01*
X113773142Y-102876666D01*
X113658857Y-102876666D01*
X113582666Y-102914761D01*
X113544571Y-102952857D01*
X113506476Y-103029047D01*
X113506476Y-103219523D01*
X113544571Y-103295714D01*
X113582666Y-103333809D01*
X113658857Y-103371904D01*
X113887428Y-103371904D01*
X113963619Y-103333809D01*
X114001714Y-103295714D01*
X115030285Y-101847904D02*
X115296952Y-101466952D01*
X115487428Y-101847904D02*
X115487428Y-101047904D01*
X115182666Y-101047904D01*
X115106476Y-101086000D01*
X115068380Y-101124095D01*
X115030285Y-101200285D01*
X115030285Y-101314571D01*
X115068380Y-101390761D01*
X115106476Y-101428857D01*
X115182666Y-101466952D01*
X115487428Y-101466952D01*
X114763619Y-101047904D02*
X114268380Y-101047904D01*
X114535047Y-101352666D01*
X114420761Y-101352666D01*
X114344571Y-101390761D01*
X114306476Y-101428857D01*
X114268380Y-101505047D01*
X114268380Y-101695523D01*
X114306476Y-101771714D01*
X114344571Y-101809809D01*
X114420761Y-101847904D01*
X114649333Y-101847904D01*
X114725523Y-101809809D01*
X114763619Y-101771714D01*
X113963619Y-101124095D02*
X113925523Y-101086000D01*
X113849333Y-101047904D01*
X113658857Y-101047904D01*
X113582666Y-101086000D01*
X113544571Y-101124095D01*
X113506476Y-101200285D01*
X113506476Y-101276476D01*
X113544571Y-101390761D01*
X114001714Y-101847904D01*
X113506476Y-101847904D01*
X115030285Y-105911904D02*
X115296952Y-105530952D01*
X115487428Y-105911904D02*
X115487428Y-105111904D01*
X115182666Y-105111904D01*
X115106476Y-105150000D01*
X115068380Y-105188095D01*
X115030285Y-105264285D01*
X115030285Y-105378571D01*
X115068380Y-105454761D01*
X115106476Y-105492857D01*
X115182666Y-105530952D01*
X115487428Y-105530952D01*
X114763619Y-105111904D02*
X114268380Y-105111904D01*
X114535047Y-105416666D01*
X114420761Y-105416666D01*
X114344571Y-105454761D01*
X114306476Y-105492857D01*
X114268380Y-105569047D01*
X114268380Y-105759523D01*
X114306476Y-105835714D01*
X114344571Y-105873809D01*
X114420761Y-105911904D01*
X114649333Y-105911904D01*
X114725523Y-105873809D01*
X114763619Y-105835714D01*
X113506476Y-105911904D02*
X113963619Y-105911904D01*
X113735047Y-105911904D02*
X113735047Y-105111904D01*
X113811238Y-105226190D01*
X113887428Y-105302380D01*
X113963619Y-105340476D01*
X115030285Y-104641904D02*
X115296952Y-104260952D01*
X115487428Y-104641904D02*
X115487428Y-103841904D01*
X115182666Y-103841904D01*
X115106476Y-103880000D01*
X115068380Y-103918095D01*
X115030285Y-103994285D01*
X115030285Y-104108571D01*
X115068380Y-104184761D01*
X115106476Y-104222857D01*
X115182666Y-104260952D01*
X115487428Y-104260952D01*
X114763619Y-103841904D02*
X114268380Y-103841904D01*
X114535047Y-104146666D01*
X114420761Y-104146666D01*
X114344571Y-104184761D01*
X114306476Y-104222857D01*
X114268380Y-104299047D01*
X114268380Y-104489523D01*
X114306476Y-104565714D01*
X114344571Y-104603809D01*
X114420761Y-104641904D01*
X114649333Y-104641904D01*
X114725523Y-104603809D01*
X114763619Y-104565714D01*
X113773142Y-103841904D02*
X113696952Y-103841904D01*
X113620761Y-103880000D01*
X113582666Y-103918095D01*
X113544571Y-103994285D01*
X113506476Y-104146666D01*
X113506476Y-104337142D01*
X113544571Y-104489523D01*
X113582666Y-104565714D01*
X113620761Y-104603809D01*
X113696952Y-104641904D01*
X113773142Y-104641904D01*
X113849333Y-104603809D01*
X113887428Y-104565714D01*
X113925523Y-104489523D01*
X113963619Y-104337142D01*
X113963619Y-104146666D01*
X113925523Y-103994285D01*
X113887428Y-103918095D01*
X113849333Y-103880000D01*
X113773142Y-103841904D01*
X115030285Y-108705904D02*
X115296952Y-108324952D01*
X115487428Y-108705904D02*
X115487428Y-107905904D01*
X115182666Y-107905904D01*
X115106476Y-107944000D01*
X115068380Y-107982095D01*
X115030285Y-108058285D01*
X115030285Y-108172571D01*
X115068380Y-108248761D01*
X115106476Y-108286857D01*
X115182666Y-108324952D01*
X115487428Y-108324952D01*
X114725523Y-107982095D02*
X114687428Y-107944000D01*
X114611238Y-107905904D01*
X114420761Y-107905904D01*
X114344571Y-107944000D01*
X114306476Y-107982095D01*
X114268380Y-108058285D01*
X114268380Y-108134476D01*
X114306476Y-108248761D01*
X114763619Y-108705904D01*
X114268380Y-108705904D01*
X113887428Y-108705904D02*
X113735047Y-108705904D01*
X113658857Y-108667809D01*
X113620761Y-108629714D01*
X113544571Y-108515428D01*
X113506476Y-108363047D01*
X113506476Y-108058285D01*
X113544571Y-107982095D01*
X113582666Y-107944000D01*
X113658857Y-107905904D01*
X113811238Y-107905904D01*
X113887428Y-107944000D01*
X113925523Y-107982095D01*
X113963619Y-108058285D01*
X113963619Y-108248761D01*
X113925523Y-108324952D01*
X113887428Y-108363047D01*
X113811238Y-108401142D01*
X113658857Y-108401142D01*
X113582666Y-108363047D01*
X113544571Y-108324952D01*
X113506476Y-108248761D01*
X115030285Y-107435904D02*
X115296952Y-107054952D01*
X115487428Y-107435904D02*
X115487428Y-106635904D01*
X115182666Y-106635904D01*
X115106476Y-106674000D01*
X115068380Y-106712095D01*
X115030285Y-106788285D01*
X115030285Y-106902571D01*
X115068380Y-106978761D01*
X115106476Y-107016857D01*
X115182666Y-107054952D01*
X115487428Y-107054952D01*
X114725523Y-106712095D02*
X114687428Y-106674000D01*
X114611238Y-106635904D01*
X114420761Y-106635904D01*
X114344571Y-106674000D01*
X114306476Y-106712095D01*
X114268380Y-106788285D01*
X114268380Y-106864476D01*
X114306476Y-106978761D01*
X114763619Y-107435904D01*
X114268380Y-107435904D01*
X113811238Y-106978761D02*
X113887428Y-106940666D01*
X113925523Y-106902571D01*
X113963619Y-106826380D01*
X113963619Y-106788285D01*
X113925523Y-106712095D01*
X113887428Y-106674000D01*
X113811238Y-106635904D01*
X113658857Y-106635904D01*
X113582666Y-106674000D01*
X113544571Y-106712095D01*
X113506476Y-106788285D01*
X113506476Y-106826380D01*
X113544571Y-106902571D01*
X113582666Y-106940666D01*
X113658857Y-106978761D01*
X113811238Y-106978761D01*
X113887428Y-107016857D01*
X113925523Y-107054952D01*
X113963619Y-107131142D01*
X113963619Y-107283523D01*
X113925523Y-107359714D01*
X113887428Y-107397809D01*
X113811238Y-107435904D01*
X113658857Y-107435904D01*
X113582666Y-107397809D01*
X113544571Y-107359714D01*
X113506476Y-107283523D01*
X113506476Y-107131142D01*
X113544571Y-107054952D01*
X113582666Y-107016857D01*
X113658857Y-106978761D01*
D16*
X89408000Y-105223428D02*
X89408000Y-106312000D01*
X89480571Y-106529714D01*
X89625714Y-106674857D01*
X89843428Y-106747428D01*
X89988571Y-106747428D01*
X88464571Y-105876571D02*
X88609714Y-105804000D01*
X88682285Y-105731428D01*
X88754857Y-105586285D01*
X88754857Y-105513714D01*
X88682285Y-105368571D01*
X88609714Y-105296000D01*
X88464571Y-105223428D01*
X88174285Y-105223428D01*
X88029142Y-105296000D01*
X87956571Y-105368571D01*
X87884000Y-105513714D01*
X87884000Y-105586285D01*
X87956571Y-105731428D01*
X88029142Y-105804000D01*
X88174285Y-105876571D01*
X88464571Y-105876571D01*
X88609714Y-105949142D01*
X88682285Y-106021714D01*
X88754857Y-106166857D01*
X88754857Y-106457142D01*
X88682285Y-106602285D01*
X88609714Y-106674857D01*
X88464571Y-106747428D01*
X88174285Y-106747428D01*
X88029142Y-106674857D01*
X87956571Y-106602285D01*
X87884000Y-106457142D01*
X87884000Y-106166857D01*
X87956571Y-106021714D01*
X88029142Y-105949142D01*
X88174285Y-105876571D01*
M02*
