G04 #@! TF.GenerationSoftware,KiCad,Pcbnew,(5.1.2)-1*
G04 #@! TF.CreationDate,2019-05-30T13:03:44-04:00*
G04 #@! TF.ProjectId,ZeroPilot,5a65726f-5069-46c6-9f74-2e6b69636164,rev?*
G04 #@! TF.SameCoordinates,Original*
G04 #@! TF.FileFunction,Paste,Bot*
G04 #@! TF.FilePolarity,Positive*
%FSLAX46Y46*%
G04 Gerber Fmt 4.6, Leading zero omitted, Abs format (unit mm)*
G04 Created by KiCad (PCBNEW (5.1.2)-1) date 2019-05-30 13:03:44*
%MOMM*%
%LPD*%
G04 APERTURE LIST*
%ADD10C,0.100000*%
%ADD11C,0.950000*%
%ADD12R,0.800100X1.678940*%
%ADD13R,1.290320X1.300480*%
%ADD14R,1.501140X1.699260*%
%ADD15R,1.699260X1.501140*%
%ADD16R,1.290320X1.399540*%
%ADD17R,1.600200X1.501140*%
G04 APERTURE END LIST*
D10*
G36*
X79925779Y-106600144D02*
G01*
X79948834Y-106603563D01*
X79971443Y-106609227D01*
X79993387Y-106617079D01*
X80014457Y-106627044D01*
X80034448Y-106639026D01*
X80053168Y-106652910D01*
X80070438Y-106668562D01*
X80086090Y-106685832D01*
X80099974Y-106704552D01*
X80111956Y-106724543D01*
X80121921Y-106745613D01*
X80129773Y-106767557D01*
X80135437Y-106790166D01*
X80138856Y-106813221D01*
X80140000Y-106836500D01*
X80140000Y-107311500D01*
X80138856Y-107334779D01*
X80135437Y-107357834D01*
X80129773Y-107380443D01*
X80121921Y-107402387D01*
X80111956Y-107423457D01*
X80099974Y-107443448D01*
X80086090Y-107462168D01*
X80070438Y-107479438D01*
X80053168Y-107495090D01*
X80034448Y-107508974D01*
X80014457Y-107520956D01*
X79993387Y-107530921D01*
X79971443Y-107538773D01*
X79948834Y-107544437D01*
X79925779Y-107547856D01*
X79902500Y-107549000D01*
X79327500Y-107549000D01*
X79304221Y-107547856D01*
X79281166Y-107544437D01*
X79258557Y-107538773D01*
X79236613Y-107530921D01*
X79215543Y-107520956D01*
X79195552Y-107508974D01*
X79176832Y-107495090D01*
X79159562Y-107479438D01*
X79143910Y-107462168D01*
X79130026Y-107443448D01*
X79118044Y-107423457D01*
X79108079Y-107402387D01*
X79100227Y-107380443D01*
X79094563Y-107357834D01*
X79091144Y-107334779D01*
X79090000Y-107311500D01*
X79090000Y-106836500D01*
X79091144Y-106813221D01*
X79094563Y-106790166D01*
X79100227Y-106767557D01*
X79108079Y-106745613D01*
X79118044Y-106724543D01*
X79130026Y-106704552D01*
X79143910Y-106685832D01*
X79159562Y-106668562D01*
X79176832Y-106652910D01*
X79195552Y-106639026D01*
X79215543Y-106627044D01*
X79236613Y-106617079D01*
X79258557Y-106609227D01*
X79281166Y-106603563D01*
X79304221Y-106600144D01*
X79327500Y-106599000D01*
X79902500Y-106599000D01*
X79925779Y-106600144D01*
X79925779Y-106600144D01*
G37*
D11*
X79615000Y-107074000D03*
D10*
G36*
X78175779Y-106600144D02*
G01*
X78198834Y-106603563D01*
X78221443Y-106609227D01*
X78243387Y-106617079D01*
X78264457Y-106627044D01*
X78284448Y-106639026D01*
X78303168Y-106652910D01*
X78320438Y-106668562D01*
X78336090Y-106685832D01*
X78349974Y-106704552D01*
X78361956Y-106724543D01*
X78371921Y-106745613D01*
X78379773Y-106767557D01*
X78385437Y-106790166D01*
X78388856Y-106813221D01*
X78390000Y-106836500D01*
X78390000Y-107311500D01*
X78388856Y-107334779D01*
X78385437Y-107357834D01*
X78379773Y-107380443D01*
X78371921Y-107402387D01*
X78361956Y-107423457D01*
X78349974Y-107443448D01*
X78336090Y-107462168D01*
X78320438Y-107479438D01*
X78303168Y-107495090D01*
X78284448Y-107508974D01*
X78264457Y-107520956D01*
X78243387Y-107530921D01*
X78221443Y-107538773D01*
X78198834Y-107544437D01*
X78175779Y-107547856D01*
X78152500Y-107549000D01*
X77577500Y-107549000D01*
X77554221Y-107547856D01*
X77531166Y-107544437D01*
X77508557Y-107538773D01*
X77486613Y-107530921D01*
X77465543Y-107520956D01*
X77445552Y-107508974D01*
X77426832Y-107495090D01*
X77409562Y-107479438D01*
X77393910Y-107462168D01*
X77380026Y-107443448D01*
X77368044Y-107423457D01*
X77358079Y-107402387D01*
X77350227Y-107380443D01*
X77344563Y-107357834D01*
X77341144Y-107334779D01*
X77340000Y-107311500D01*
X77340000Y-106836500D01*
X77341144Y-106813221D01*
X77344563Y-106790166D01*
X77350227Y-106767557D01*
X77358079Y-106745613D01*
X77368044Y-106724543D01*
X77380026Y-106704552D01*
X77393910Y-106685832D01*
X77409562Y-106668562D01*
X77426832Y-106652910D01*
X77445552Y-106639026D01*
X77465543Y-106627044D01*
X77486613Y-106617079D01*
X77508557Y-106609227D01*
X77531166Y-106603563D01*
X77554221Y-106600144D01*
X77577500Y-106599000D01*
X78152500Y-106599000D01*
X78175779Y-106600144D01*
X78175779Y-106600144D01*
G37*
D11*
X77865000Y-107074000D03*
D10*
G36*
X79925779Y-108238144D02*
G01*
X79948834Y-108241563D01*
X79971443Y-108247227D01*
X79993387Y-108255079D01*
X80014457Y-108265044D01*
X80034448Y-108277026D01*
X80053168Y-108290910D01*
X80070438Y-108306562D01*
X80086090Y-108323832D01*
X80099974Y-108342552D01*
X80111956Y-108362543D01*
X80121921Y-108383613D01*
X80129773Y-108405557D01*
X80135437Y-108428166D01*
X80138856Y-108451221D01*
X80140000Y-108474500D01*
X80140000Y-108949500D01*
X80138856Y-108972779D01*
X80135437Y-108995834D01*
X80129773Y-109018443D01*
X80121921Y-109040387D01*
X80111956Y-109061457D01*
X80099974Y-109081448D01*
X80086090Y-109100168D01*
X80070438Y-109117438D01*
X80053168Y-109133090D01*
X80034448Y-109146974D01*
X80014457Y-109158956D01*
X79993387Y-109168921D01*
X79971443Y-109176773D01*
X79948834Y-109182437D01*
X79925779Y-109185856D01*
X79902500Y-109187000D01*
X79327500Y-109187000D01*
X79304221Y-109185856D01*
X79281166Y-109182437D01*
X79258557Y-109176773D01*
X79236613Y-109168921D01*
X79215543Y-109158956D01*
X79195552Y-109146974D01*
X79176832Y-109133090D01*
X79159562Y-109117438D01*
X79143910Y-109100168D01*
X79130026Y-109081448D01*
X79118044Y-109061457D01*
X79108079Y-109040387D01*
X79100227Y-109018443D01*
X79094563Y-108995834D01*
X79091144Y-108972779D01*
X79090000Y-108949500D01*
X79090000Y-108474500D01*
X79091144Y-108451221D01*
X79094563Y-108428166D01*
X79100227Y-108405557D01*
X79108079Y-108383613D01*
X79118044Y-108362543D01*
X79130026Y-108342552D01*
X79143910Y-108323832D01*
X79159562Y-108306562D01*
X79176832Y-108290910D01*
X79195552Y-108277026D01*
X79215543Y-108265044D01*
X79236613Y-108255079D01*
X79258557Y-108247227D01*
X79281166Y-108241563D01*
X79304221Y-108238144D01*
X79327500Y-108237000D01*
X79902500Y-108237000D01*
X79925779Y-108238144D01*
X79925779Y-108238144D01*
G37*
D11*
X79615000Y-108712000D03*
D10*
G36*
X78175779Y-108238144D02*
G01*
X78198834Y-108241563D01*
X78221443Y-108247227D01*
X78243387Y-108255079D01*
X78264457Y-108265044D01*
X78284448Y-108277026D01*
X78303168Y-108290910D01*
X78320438Y-108306562D01*
X78336090Y-108323832D01*
X78349974Y-108342552D01*
X78361956Y-108362543D01*
X78371921Y-108383613D01*
X78379773Y-108405557D01*
X78385437Y-108428166D01*
X78388856Y-108451221D01*
X78390000Y-108474500D01*
X78390000Y-108949500D01*
X78388856Y-108972779D01*
X78385437Y-108995834D01*
X78379773Y-109018443D01*
X78371921Y-109040387D01*
X78361956Y-109061457D01*
X78349974Y-109081448D01*
X78336090Y-109100168D01*
X78320438Y-109117438D01*
X78303168Y-109133090D01*
X78284448Y-109146974D01*
X78264457Y-109158956D01*
X78243387Y-109168921D01*
X78221443Y-109176773D01*
X78198834Y-109182437D01*
X78175779Y-109185856D01*
X78152500Y-109187000D01*
X77577500Y-109187000D01*
X77554221Y-109185856D01*
X77531166Y-109182437D01*
X77508557Y-109176773D01*
X77486613Y-109168921D01*
X77465543Y-109158956D01*
X77445552Y-109146974D01*
X77426832Y-109133090D01*
X77409562Y-109117438D01*
X77393910Y-109100168D01*
X77380026Y-109081448D01*
X77368044Y-109061457D01*
X77358079Y-109040387D01*
X77350227Y-109018443D01*
X77344563Y-108995834D01*
X77341144Y-108972779D01*
X77340000Y-108949500D01*
X77340000Y-108474500D01*
X77341144Y-108451221D01*
X77344563Y-108428166D01*
X77350227Y-108405557D01*
X77358079Y-108383613D01*
X77368044Y-108362543D01*
X77380026Y-108342552D01*
X77393910Y-108323832D01*
X77409562Y-108306562D01*
X77426832Y-108290910D01*
X77445552Y-108277026D01*
X77465543Y-108265044D01*
X77486613Y-108255079D01*
X77508557Y-108247227D01*
X77531166Y-108241563D01*
X77554221Y-108238144D01*
X77577500Y-108237000D01*
X78152500Y-108237000D01*
X78175779Y-108238144D01*
X78175779Y-108238144D01*
G37*
D11*
X77865000Y-108712000D03*
D10*
G36*
X79925779Y-104936144D02*
G01*
X79948834Y-104939563D01*
X79971443Y-104945227D01*
X79993387Y-104953079D01*
X80014457Y-104963044D01*
X80034448Y-104975026D01*
X80053168Y-104988910D01*
X80070438Y-105004562D01*
X80086090Y-105021832D01*
X80099974Y-105040552D01*
X80111956Y-105060543D01*
X80121921Y-105081613D01*
X80129773Y-105103557D01*
X80135437Y-105126166D01*
X80138856Y-105149221D01*
X80140000Y-105172500D01*
X80140000Y-105647500D01*
X80138856Y-105670779D01*
X80135437Y-105693834D01*
X80129773Y-105716443D01*
X80121921Y-105738387D01*
X80111956Y-105759457D01*
X80099974Y-105779448D01*
X80086090Y-105798168D01*
X80070438Y-105815438D01*
X80053168Y-105831090D01*
X80034448Y-105844974D01*
X80014457Y-105856956D01*
X79993387Y-105866921D01*
X79971443Y-105874773D01*
X79948834Y-105880437D01*
X79925779Y-105883856D01*
X79902500Y-105885000D01*
X79327500Y-105885000D01*
X79304221Y-105883856D01*
X79281166Y-105880437D01*
X79258557Y-105874773D01*
X79236613Y-105866921D01*
X79215543Y-105856956D01*
X79195552Y-105844974D01*
X79176832Y-105831090D01*
X79159562Y-105815438D01*
X79143910Y-105798168D01*
X79130026Y-105779448D01*
X79118044Y-105759457D01*
X79108079Y-105738387D01*
X79100227Y-105716443D01*
X79094563Y-105693834D01*
X79091144Y-105670779D01*
X79090000Y-105647500D01*
X79090000Y-105172500D01*
X79091144Y-105149221D01*
X79094563Y-105126166D01*
X79100227Y-105103557D01*
X79108079Y-105081613D01*
X79118044Y-105060543D01*
X79130026Y-105040552D01*
X79143910Y-105021832D01*
X79159562Y-105004562D01*
X79176832Y-104988910D01*
X79195552Y-104975026D01*
X79215543Y-104963044D01*
X79236613Y-104953079D01*
X79258557Y-104945227D01*
X79281166Y-104939563D01*
X79304221Y-104936144D01*
X79327500Y-104935000D01*
X79902500Y-104935000D01*
X79925779Y-104936144D01*
X79925779Y-104936144D01*
G37*
D11*
X79615000Y-105410000D03*
D10*
G36*
X78175779Y-104936144D02*
G01*
X78198834Y-104939563D01*
X78221443Y-104945227D01*
X78243387Y-104953079D01*
X78264457Y-104963044D01*
X78284448Y-104975026D01*
X78303168Y-104988910D01*
X78320438Y-105004562D01*
X78336090Y-105021832D01*
X78349974Y-105040552D01*
X78361956Y-105060543D01*
X78371921Y-105081613D01*
X78379773Y-105103557D01*
X78385437Y-105126166D01*
X78388856Y-105149221D01*
X78390000Y-105172500D01*
X78390000Y-105647500D01*
X78388856Y-105670779D01*
X78385437Y-105693834D01*
X78379773Y-105716443D01*
X78371921Y-105738387D01*
X78361956Y-105759457D01*
X78349974Y-105779448D01*
X78336090Y-105798168D01*
X78320438Y-105815438D01*
X78303168Y-105831090D01*
X78284448Y-105844974D01*
X78264457Y-105856956D01*
X78243387Y-105866921D01*
X78221443Y-105874773D01*
X78198834Y-105880437D01*
X78175779Y-105883856D01*
X78152500Y-105885000D01*
X77577500Y-105885000D01*
X77554221Y-105883856D01*
X77531166Y-105880437D01*
X77508557Y-105874773D01*
X77486613Y-105866921D01*
X77465543Y-105856956D01*
X77445552Y-105844974D01*
X77426832Y-105831090D01*
X77409562Y-105815438D01*
X77393910Y-105798168D01*
X77380026Y-105779448D01*
X77368044Y-105759457D01*
X77358079Y-105738387D01*
X77350227Y-105716443D01*
X77344563Y-105693834D01*
X77341144Y-105670779D01*
X77340000Y-105647500D01*
X77340000Y-105172500D01*
X77341144Y-105149221D01*
X77344563Y-105126166D01*
X77350227Y-105103557D01*
X77358079Y-105081613D01*
X77368044Y-105060543D01*
X77380026Y-105040552D01*
X77393910Y-105021832D01*
X77409562Y-105004562D01*
X77426832Y-104988910D01*
X77445552Y-104975026D01*
X77465543Y-104963044D01*
X77486613Y-104953079D01*
X77508557Y-104945227D01*
X77531166Y-104939563D01*
X77554221Y-104936144D01*
X77577500Y-104935000D01*
X78152500Y-104935000D01*
X78175779Y-104936144D01*
X78175779Y-104936144D01*
G37*
D11*
X77865000Y-105410000D03*
D10*
G36*
X112907779Y-102282144D02*
G01*
X112930834Y-102285563D01*
X112953443Y-102291227D01*
X112975387Y-102299079D01*
X112996457Y-102309044D01*
X113016448Y-102321026D01*
X113035168Y-102334910D01*
X113052438Y-102350562D01*
X113068090Y-102367832D01*
X113081974Y-102386552D01*
X113093956Y-102406543D01*
X113103921Y-102427613D01*
X113111773Y-102449557D01*
X113117437Y-102472166D01*
X113120856Y-102495221D01*
X113122000Y-102518500D01*
X113122000Y-102993500D01*
X113120856Y-103016779D01*
X113117437Y-103039834D01*
X113111773Y-103062443D01*
X113103921Y-103084387D01*
X113093956Y-103105457D01*
X113081974Y-103125448D01*
X113068090Y-103144168D01*
X113052438Y-103161438D01*
X113035168Y-103177090D01*
X113016448Y-103190974D01*
X112996457Y-103202956D01*
X112975387Y-103212921D01*
X112953443Y-103220773D01*
X112930834Y-103226437D01*
X112907779Y-103229856D01*
X112884500Y-103231000D01*
X112309500Y-103231000D01*
X112286221Y-103229856D01*
X112263166Y-103226437D01*
X112240557Y-103220773D01*
X112218613Y-103212921D01*
X112197543Y-103202956D01*
X112177552Y-103190974D01*
X112158832Y-103177090D01*
X112141562Y-103161438D01*
X112125910Y-103144168D01*
X112112026Y-103125448D01*
X112100044Y-103105457D01*
X112090079Y-103084387D01*
X112082227Y-103062443D01*
X112076563Y-103039834D01*
X112073144Y-103016779D01*
X112072000Y-102993500D01*
X112072000Y-102518500D01*
X112073144Y-102495221D01*
X112076563Y-102472166D01*
X112082227Y-102449557D01*
X112090079Y-102427613D01*
X112100044Y-102406543D01*
X112112026Y-102386552D01*
X112125910Y-102367832D01*
X112141562Y-102350562D01*
X112158832Y-102334910D01*
X112177552Y-102321026D01*
X112197543Y-102309044D01*
X112218613Y-102299079D01*
X112240557Y-102291227D01*
X112263166Y-102285563D01*
X112286221Y-102282144D01*
X112309500Y-102281000D01*
X112884500Y-102281000D01*
X112907779Y-102282144D01*
X112907779Y-102282144D01*
G37*
D11*
X112597000Y-102756000D03*
D10*
G36*
X111157779Y-102282144D02*
G01*
X111180834Y-102285563D01*
X111203443Y-102291227D01*
X111225387Y-102299079D01*
X111246457Y-102309044D01*
X111266448Y-102321026D01*
X111285168Y-102334910D01*
X111302438Y-102350562D01*
X111318090Y-102367832D01*
X111331974Y-102386552D01*
X111343956Y-102406543D01*
X111353921Y-102427613D01*
X111361773Y-102449557D01*
X111367437Y-102472166D01*
X111370856Y-102495221D01*
X111372000Y-102518500D01*
X111372000Y-102993500D01*
X111370856Y-103016779D01*
X111367437Y-103039834D01*
X111361773Y-103062443D01*
X111353921Y-103084387D01*
X111343956Y-103105457D01*
X111331974Y-103125448D01*
X111318090Y-103144168D01*
X111302438Y-103161438D01*
X111285168Y-103177090D01*
X111266448Y-103190974D01*
X111246457Y-103202956D01*
X111225387Y-103212921D01*
X111203443Y-103220773D01*
X111180834Y-103226437D01*
X111157779Y-103229856D01*
X111134500Y-103231000D01*
X110559500Y-103231000D01*
X110536221Y-103229856D01*
X110513166Y-103226437D01*
X110490557Y-103220773D01*
X110468613Y-103212921D01*
X110447543Y-103202956D01*
X110427552Y-103190974D01*
X110408832Y-103177090D01*
X110391562Y-103161438D01*
X110375910Y-103144168D01*
X110362026Y-103125448D01*
X110350044Y-103105457D01*
X110340079Y-103084387D01*
X110332227Y-103062443D01*
X110326563Y-103039834D01*
X110323144Y-103016779D01*
X110322000Y-102993500D01*
X110322000Y-102518500D01*
X110323144Y-102495221D01*
X110326563Y-102472166D01*
X110332227Y-102449557D01*
X110340079Y-102427613D01*
X110350044Y-102406543D01*
X110362026Y-102386552D01*
X110375910Y-102367832D01*
X110391562Y-102350562D01*
X110408832Y-102334910D01*
X110427552Y-102321026D01*
X110447543Y-102309044D01*
X110468613Y-102299079D01*
X110490557Y-102291227D01*
X110513166Y-102285563D01*
X110536221Y-102282144D01*
X110559500Y-102281000D01*
X111134500Y-102281000D01*
X111157779Y-102282144D01*
X111157779Y-102282144D01*
G37*
D11*
X110847000Y-102756000D03*
D10*
G36*
X111157779Y-100885144D02*
G01*
X111180834Y-100888563D01*
X111203443Y-100894227D01*
X111225387Y-100902079D01*
X111246457Y-100912044D01*
X111266448Y-100924026D01*
X111285168Y-100937910D01*
X111302438Y-100953562D01*
X111318090Y-100970832D01*
X111331974Y-100989552D01*
X111343956Y-101009543D01*
X111353921Y-101030613D01*
X111361773Y-101052557D01*
X111367437Y-101075166D01*
X111370856Y-101098221D01*
X111372000Y-101121500D01*
X111372000Y-101596500D01*
X111370856Y-101619779D01*
X111367437Y-101642834D01*
X111361773Y-101665443D01*
X111353921Y-101687387D01*
X111343956Y-101708457D01*
X111331974Y-101728448D01*
X111318090Y-101747168D01*
X111302438Y-101764438D01*
X111285168Y-101780090D01*
X111266448Y-101793974D01*
X111246457Y-101805956D01*
X111225387Y-101815921D01*
X111203443Y-101823773D01*
X111180834Y-101829437D01*
X111157779Y-101832856D01*
X111134500Y-101834000D01*
X110559500Y-101834000D01*
X110536221Y-101832856D01*
X110513166Y-101829437D01*
X110490557Y-101823773D01*
X110468613Y-101815921D01*
X110447543Y-101805956D01*
X110427552Y-101793974D01*
X110408832Y-101780090D01*
X110391562Y-101764438D01*
X110375910Y-101747168D01*
X110362026Y-101728448D01*
X110350044Y-101708457D01*
X110340079Y-101687387D01*
X110332227Y-101665443D01*
X110326563Y-101642834D01*
X110323144Y-101619779D01*
X110322000Y-101596500D01*
X110322000Y-101121500D01*
X110323144Y-101098221D01*
X110326563Y-101075166D01*
X110332227Y-101052557D01*
X110340079Y-101030613D01*
X110350044Y-101009543D01*
X110362026Y-100989552D01*
X110375910Y-100970832D01*
X110391562Y-100953562D01*
X110408832Y-100937910D01*
X110427552Y-100924026D01*
X110447543Y-100912044D01*
X110468613Y-100902079D01*
X110490557Y-100894227D01*
X110513166Y-100888563D01*
X110536221Y-100885144D01*
X110559500Y-100884000D01*
X111134500Y-100884000D01*
X111157779Y-100885144D01*
X111157779Y-100885144D01*
G37*
D11*
X110847000Y-101359000D03*
D10*
G36*
X112907779Y-100885144D02*
G01*
X112930834Y-100888563D01*
X112953443Y-100894227D01*
X112975387Y-100902079D01*
X112996457Y-100912044D01*
X113016448Y-100924026D01*
X113035168Y-100937910D01*
X113052438Y-100953562D01*
X113068090Y-100970832D01*
X113081974Y-100989552D01*
X113093956Y-101009543D01*
X113103921Y-101030613D01*
X113111773Y-101052557D01*
X113117437Y-101075166D01*
X113120856Y-101098221D01*
X113122000Y-101121500D01*
X113122000Y-101596500D01*
X113120856Y-101619779D01*
X113117437Y-101642834D01*
X113111773Y-101665443D01*
X113103921Y-101687387D01*
X113093956Y-101708457D01*
X113081974Y-101728448D01*
X113068090Y-101747168D01*
X113052438Y-101764438D01*
X113035168Y-101780090D01*
X113016448Y-101793974D01*
X112996457Y-101805956D01*
X112975387Y-101815921D01*
X112953443Y-101823773D01*
X112930834Y-101829437D01*
X112907779Y-101832856D01*
X112884500Y-101834000D01*
X112309500Y-101834000D01*
X112286221Y-101832856D01*
X112263166Y-101829437D01*
X112240557Y-101823773D01*
X112218613Y-101815921D01*
X112197543Y-101805956D01*
X112177552Y-101793974D01*
X112158832Y-101780090D01*
X112141562Y-101764438D01*
X112125910Y-101747168D01*
X112112026Y-101728448D01*
X112100044Y-101708457D01*
X112090079Y-101687387D01*
X112082227Y-101665443D01*
X112076563Y-101642834D01*
X112073144Y-101619779D01*
X112072000Y-101596500D01*
X112072000Y-101121500D01*
X112073144Y-101098221D01*
X112076563Y-101075166D01*
X112082227Y-101052557D01*
X112090079Y-101030613D01*
X112100044Y-101009543D01*
X112112026Y-100989552D01*
X112125910Y-100970832D01*
X112141562Y-100953562D01*
X112158832Y-100937910D01*
X112177552Y-100924026D01*
X112197543Y-100912044D01*
X112218613Y-100902079D01*
X112240557Y-100894227D01*
X112263166Y-100888563D01*
X112286221Y-100885144D01*
X112309500Y-100884000D01*
X112884500Y-100884000D01*
X112907779Y-100885144D01*
X112907779Y-100885144D01*
G37*
D11*
X112597000Y-101359000D03*
D10*
G36*
X112907779Y-105076144D02*
G01*
X112930834Y-105079563D01*
X112953443Y-105085227D01*
X112975387Y-105093079D01*
X112996457Y-105103044D01*
X113016448Y-105115026D01*
X113035168Y-105128910D01*
X113052438Y-105144562D01*
X113068090Y-105161832D01*
X113081974Y-105180552D01*
X113093956Y-105200543D01*
X113103921Y-105221613D01*
X113111773Y-105243557D01*
X113117437Y-105266166D01*
X113120856Y-105289221D01*
X113122000Y-105312500D01*
X113122000Y-105787500D01*
X113120856Y-105810779D01*
X113117437Y-105833834D01*
X113111773Y-105856443D01*
X113103921Y-105878387D01*
X113093956Y-105899457D01*
X113081974Y-105919448D01*
X113068090Y-105938168D01*
X113052438Y-105955438D01*
X113035168Y-105971090D01*
X113016448Y-105984974D01*
X112996457Y-105996956D01*
X112975387Y-106006921D01*
X112953443Y-106014773D01*
X112930834Y-106020437D01*
X112907779Y-106023856D01*
X112884500Y-106025000D01*
X112309500Y-106025000D01*
X112286221Y-106023856D01*
X112263166Y-106020437D01*
X112240557Y-106014773D01*
X112218613Y-106006921D01*
X112197543Y-105996956D01*
X112177552Y-105984974D01*
X112158832Y-105971090D01*
X112141562Y-105955438D01*
X112125910Y-105938168D01*
X112112026Y-105919448D01*
X112100044Y-105899457D01*
X112090079Y-105878387D01*
X112082227Y-105856443D01*
X112076563Y-105833834D01*
X112073144Y-105810779D01*
X112072000Y-105787500D01*
X112072000Y-105312500D01*
X112073144Y-105289221D01*
X112076563Y-105266166D01*
X112082227Y-105243557D01*
X112090079Y-105221613D01*
X112100044Y-105200543D01*
X112112026Y-105180552D01*
X112125910Y-105161832D01*
X112141562Y-105144562D01*
X112158832Y-105128910D01*
X112177552Y-105115026D01*
X112197543Y-105103044D01*
X112218613Y-105093079D01*
X112240557Y-105085227D01*
X112263166Y-105079563D01*
X112286221Y-105076144D01*
X112309500Y-105075000D01*
X112884500Y-105075000D01*
X112907779Y-105076144D01*
X112907779Y-105076144D01*
G37*
D11*
X112597000Y-105550000D03*
D10*
G36*
X111157779Y-105076144D02*
G01*
X111180834Y-105079563D01*
X111203443Y-105085227D01*
X111225387Y-105093079D01*
X111246457Y-105103044D01*
X111266448Y-105115026D01*
X111285168Y-105128910D01*
X111302438Y-105144562D01*
X111318090Y-105161832D01*
X111331974Y-105180552D01*
X111343956Y-105200543D01*
X111353921Y-105221613D01*
X111361773Y-105243557D01*
X111367437Y-105266166D01*
X111370856Y-105289221D01*
X111372000Y-105312500D01*
X111372000Y-105787500D01*
X111370856Y-105810779D01*
X111367437Y-105833834D01*
X111361773Y-105856443D01*
X111353921Y-105878387D01*
X111343956Y-105899457D01*
X111331974Y-105919448D01*
X111318090Y-105938168D01*
X111302438Y-105955438D01*
X111285168Y-105971090D01*
X111266448Y-105984974D01*
X111246457Y-105996956D01*
X111225387Y-106006921D01*
X111203443Y-106014773D01*
X111180834Y-106020437D01*
X111157779Y-106023856D01*
X111134500Y-106025000D01*
X110559500Y-106025000D01*
X110536221Y-106023856D01*
X110513166Y-106020437D01*
X110490557Y-106014773D01*
X110468613Y-106006921D01*
X110447543Y-105996956D01*
X110427552Y-105984974D01*
X110408832Y-105971090D01*
X110391562Y-105955438D01*
X110375910Y-105938168D01*
X110362026Y-105919448D01*
X110350044Y-105899457D01*
X110340079Y-105878387D01*
X110332227Y-105856443D01*
X110326563Y-105833834D01*
X110323144Y-105810779D01*
X110322000Y-105787500D01*
X110322000Y-105312500D01*
X110323144Y-105289221D01*
X110326563Y-105266166D01*
X110332227Y-105243557D01*
X110340079Y-105221613D01*
X110350044Y-105200543D01*
X110362026Y-105180552D01*
X110375910Y-105161832D01*
X110391562Y-105144562D01*
X110408832Y-105128910D01*
X110427552Y-105115026D01*
X110447543Y-105103044D01*
X110468613Y-105093079D01*
X110490557Y-105085227D01*
X110513166Y-105079563D01*
X110536221Y-105076144D01*
X110559500Y-105075000D01*
X111134500Y-105075000D01*
X111157779Y-105076144D01*
X111157779Y-105076144D01*
G37*
D11*
X110847000Y-105550000D03*
D10*
G36*
X111157779Y-103679144D02*
G01*
X111180834Y-103682563D01*
X111203443Y-103688227D01*
X111225387Y-103696079D01*
X111246457Y-103706044D01*
X111266448Y-103718026D01*
X111285168Y-103731910D01*
X111302438Y-103747562D01*
X111318090Y-103764832D01*
X111331974Y-103783552D01*
X111343956Y-103803543D01*
X111353921Y-103824613D01*
X111361773Y-103846557D01*
X111367437Y-103869166D01*
X111370856Y-103892221D01*
X111372000Y-103915500D01*
X111372000Y-104390500D01*
X111370856Y-104413779D01*
X111367437Y-104436834D01*
X111361773Y-104459443D01*
X111353921Y-104481387D01*
X111343956Y-104502457D01*
X111331974Y-104522448D01*
X111318090Y-104541168D01*
X111302438Y-104558438D01*
X111285168Y-104574090D01*
X111266448Y-104587974D01*
X111246457Y-104599956D01*
X111225387Y-104609921D01*
X111203443Y-104617773D01*
X111180834Y-104623437D01*
X111157779Y-104626856D01*
X111134500Y-104628000D01*
X110559500Y-104628000D01*
X110536221Y-104626856D01*
X110513166Y-104623437D01*
X110490557Y-104617773D01*
X110468613Y-104609921D01*
X110447543Y-104599956D01*
X110427552Y-104587974D01*
X110408832Y-104574090D01*
X110391562Y-104558438D01*
X110375910Y-104541168D01*
X110362026Y-104522448D01*
X110350044Y-104502457D01*
X110340079Y-104481387D01*
X110332227Y-104459443D01*
X110326563Y-104436834D01*
X110323144Y-104413779D01*
X110322000Y-104390500D01*
X110322000Y-103915500D01*
X110323144Y-103892221D01*
X110326563Y-103869166D01*
X110332227Y-103846557D01*
X110340079Y-103824613D01*
X110350044Y-103803543D01*
X110362026Y-103783552D01*
X110375910Y-103764832D01*
X110391562Y-103747562D01*
X110408832Y-103731910D01*
X110427552Y-103718026D01*
X110447543Y-103706044D01*
X110468613Y-103696079D01*
X110490557Y-103688227D01*
X110513166Y-103682563D01*
X110536221Y-103679144D01*
X110559500Y-103678000D01*
X111134500Y-103678000D01*
X111157779Y-103679144D01*
X111157779Y-103679144D01*
G37*
D11*
X110847000Y-104153000D03*
D10*
G36*
X112907779Y-103679144D02*
G01*
X112930834Y-103682563D01*
X112953443Y-103688227D01*
X112975387Y-103696079D01*
X112996457Y-103706044D01*
X113016448Y-103718026D01*
X113035168Y-103731910D01*
X113052438Y-103747562D01*
X113068090Y-103764832D01*
X113081974Y-103783552D01*
X113093956Y-103803543D01*
X113103921Y-103824613D01*
X113111773Y-103846557D01*
X113117437Y-103869166D01*
X113120856Y-103892221D01*
X113122000Y-103915500D01*
X113122000Y-104390500D01*
X113120856Y-104413779D01*
X113117437Y-104436834D01*
X113111773Y-104459443D01*
X113103921Y-104481387D01*
X113093956Y-104502457D01*
X113081974Y-104522448D01*
X113068090Y-104541168D01*
X113052438Y-104558438D01*
X113035168Y-104574090D01*
X113016448Y-104587974D01*
X112996457Y-104599956D01*
X112975387Y-104609921D01*
X112953443Y-104617773D01*
X112930834Y-104623437D01*
X112907779Y-104626856D01*
X112884500Y-104628000D01*
X112309500Y-104628000D01*
X112286221Y-104626856D01*
X112263166Y-104623437D01*
X112240557Y-104617773D01*
X112218613Y-104609921D01*
X112197543Y-104599956D01*
X112177552Y-104587974D01*
X112158832Y-104574090D01*
X112141562Y-104558438D01*
X112125910Y-104541168D01*
X112112026Y-104522448D01*
X112100044Y-104502457D01*
X112090079Y-104481387D01*
X112082227Y-104459443D01*
X112076563Y-104436834D01*
X112073144Y-104413779D01*
X112072000Y-104390500D01*
X112072000Y-103915500D01*
X112073144Y-103892221D01*
X112076563Y-103869166D01*
X112082227Y-103846557D01*
X112090079Y-103824613D01*
X112100044Y-103803543D01*
X112112026Y-103783552D01*
X112125910Y-103764832D01*
X112141562Y-103747562D01*
X112158832Y-103731910D01*
X112177552Y-103718026D01*
X112197543Y-103706044D01*
X112218613Y-103696079D01*
X112240557Y-103688227D01*
X112263166Y-103682563D01*
X112286221Y-103679144D01*
X112309500Y-103678000D01*
X112884500Y-103678000D01*
X112907779Y-103679144D01*
X112907779Y-103679144D01*
G37*
D11*
X112597000Y-104153000D03*
D10*
G36*
X112907779Y-107870144D02*
G01*
X112930834Y-107873563D01*
X112953443Y-107879227D01*
X112975387Y-107887079D01*
X112996457Y-107897044D01*
X113016448Y-107909026D01*
X113035168Y-107922910D01*
X113052438Y-107938562D01*
X113068090Y-107955832D01*
X113081974Y-107974552D01*
X113093956Y-107994543D01*
X113103921Y-108015613D01*
X113111773Y-108037557D01*
X113117437Y-108060166D01*
X113120856Y-108083221D01*
X113122000Y-108106500D01*
X113122000Y-108581500D01*
X113120856Y-108604779D01*
X113117437Y-108627834D01*
X113111773Y-108650443D01*
X113103921Y-108672387D01*
X113093956Y-108693457D01*
X113081974Y-108713448D01*
X113068090Y-108732168D01*
X113052438Y-108749438D01*
X113035168Y-108765090D01*
X113016448Y-108778974D01*
X112996457Y-108790956D01*
X112975387Y-108800921D01*
X112953443Y-108808773D01*
X112930834Y-108814437D01*
X112907779Y-108817856D01*
X112884500Y-108819000D01*
X112309500Y-108819000D01*
X112286221Y-108817856D01*
X112263166Y-108814437D01*
X112240557Y-108808773D01*
X112218613Y-108800921D01*
X112197543Y-108790956D01*
X112177552Y-108778974D01*
X112158832Y-108765090D01*
X112141562Y-108749438D01*
X112125910Y-108732168D01*
X112112026Y-108713448D01*
X112100044Y-108693457D01*
X112090079Y-108672387D01*
X112082227Y-108650443D01*
X112076563Y-108627834D01*
X112073144Y-108604779D01*
X112072000Y-108581500D01*
X112072000Y-108106500D01*
X112073144Y-108083221D01*
X112076563Y-108060166D01*
X112082227Y-108037557D01*
X112090079Y-108015613D01*
X112100044Y-107994543D01*
X112112026Y-107974552D01*
X112125910Y-107955832D01*
X112141562Y-107938562D01*
X112158832Y-107922910D01*
X112177552Y-107909026D01*
X112197543Y-107897044D01*
X112218613Y-107887079D01*
X112240557Y-107879227D01*
X112263166Y-107873563D01*
X112286221Y-107870144D01*
X112309500Y-107869000D01*
X112884500Y-107869000D01*
X112907779Y-107870144D01*
X112907779Y-107870144D01*
G37*
D11*
X112597000Y-108344000D03*
D10*
G36*
X111157779Y-107870144D02*
G01*
X111180834Y-107873563D01*
X111203443Y-107879227D01*
X111225387Y-107887079D01*
X111246457Y-107897044D01*
X111266448Y-107909026D01*
X111285168Y-107922910D01*
X111302438Y-107938562D01*
X111318090Y-107955832D01*
X111331974Y-107974552D01*
X111343956Y-107994543D01*
X111353921Y-108015613D01*
X111361773Y-108037557D01*
X111367437Y-108060166D01*
X111370856Y-108083221D01*
X111372000Y-108106500D01*
X111372000Y-108581500D01*
X111370856Y-108604779D01*
X111367437Y-108627834D01*
X111361773Y-108650443D01*
X111353921Y-108672387D01*
X111343956Y-108693457D01*
X111331974Y-108713448D01*
X111318090Y-108732168D01*
X111302438Y-108749438D01*
X111285168Y-108765090D01*
X111266448Y-108778974D01*
X111246457Y-108790956D01*
X111225387Y-108800921D01*
X111203443Y-108808773D01*
X111180834Y-108814437D01*
X111157779Y-108817856D01*
X111134500Y-108819000D01*
X110559500Y-108819000D01*
X110536221Y-108817856D01*
X110513166Y-108814437D01*
X110490557Y-108808773D01*
X110468613Y-108800921D01*
X110447543Y-108790956D01*
X110427552Y-108778974D01*
X110408832Y-108765090D01*
X110391562Y-108749438D01*
X110375910Y-108732168D01*
X110362026Y-108713448D01*
X110350044Y-108693457D01*
X110340079Y-108672387D01*
X110332227Y-108650443D01*
X110326563Y-108627834D01*
X110323144Y-108604779D01*
X110322000Y-108581500D01*
X110322000Y-108106500D01*
X110323144Y-108083221D01*
X110326563Y-108060166D01*
X110332227Y-108037557D01*
X110340079Y-108015613D01*
X110350044Y-107994543D01*
X110362026Y-107974552D01*
X110375910Y-107955832D01*
X110391562Y-107938562D01*
X110408832Y-107922910D01*
X110427552Y-107909026D01*
X110447543Y-107897044D01*
X110468613Y-107887079D01*
X110490557Y-107879227D01*
X110513166Y-107873563D01*
X110536221Y-107870144D01*
X110559500Y-107869000D01*
X111134500Y-107869000D01*
X111157779Y-107870144D01*
X111157779Y-107870144D01*
G37*
D11*
X110847000Y-108344000D03*
D10*
G36*
X111157779Y-106473144D02*
G01*
X111180834Y-106476563D01*
X111203443Y-106482227D01*
X111225387Y-106490079D01*
X111246457Y-106500044D01*
X111266448Y-106512026D01*
X111285168Y-106525910D01*
X111302438Y-106541562D01*
X111318090Y-106558832D01*
X111331974Y-106577552D01*
X111343956Y-106597543D01*
X111353921Y-106618613D01*
X111361773Y-106640557D01*
X111367437Y-106663166D01*
X111370856Y-106686221D01*
X111372000Y-106709500D01*
X111372000Y-107184500D01*
X111370856Y-107207779D01*
X111367437Y-107230834D01*
X111361773Y-107253443D01*
X111353921Y-107275387D01*
X111343956Y-107296457D01*
X111331974Y-107316448D01*
X111318090Y-107335168D01*
X111302438Y-107352438D01*
X111285168Y-107368090D01*
X111266448Y-107381974D01*
X111246457Y-107393956D01*
X111225387Y-107403921D01*
X111203443Y-107411773D01*
X111180834Y-107417437D01*
X111157779Y-107420856D01*
X111134500Y-107422000D01*
X110559500Y-107422000D01*
X110536221Y-107420856D01*
X110513166Y-107417437D01*
X110490557Y-107411773D01*
X110468613Y-107403921D01*
X110447543Y-107393956D01*
X110427552Y-107381974D01*
X110408832Y-107368090D01*
X110391562Y-107352438D01*
X110375910Y-107335168D01*
X110362026Y-107316448D01*
X110350044Y-107296457D01*
X110340079Y-107275387D01*
X110332227Y-107253443D01*
X110326563Y-107230834D01*
X110323144Y-107207779D01*
X110322000Y-107184500D01*
X110322000Y-106709500D01*
X110323144Y-106686221D01*
X110326563Y-106663166D01*
X110332227Y-106640557D01*
X110340079Y-106618613D01*
X110350044Y-106597543D01*
X110362026Y-106577552D01*
X110375910Y-106558832D01*
X110391562Y-106541562D01*
X110408832Y-106525910D01*
X110427552Y-106512026D01*
X110447543Y-106500044D01*
X110468613Y-106490079D01*
X110490557Y-106482227D01*
X110513166Y-106476563D01*
X110536221Y-106473144D01*
X110559500Y-106472000D01*
X111134500Y-106472000D01*
X111157779Y-106473144D01*
X111157779Y-106473144D01*
G37*
D11*
X110847000Y-106947000D03*
D10*
G36*
X112907779Y-106473144D02*
G01*
X112930834Y-106476563D01*
X112953443Y-106482227D01*
X112975387Y-106490079D01*
X112996457Y-106500044D01*
X113016448Y-106512026D01*
X113035168Y-106525910D01*
X113052438Y-106541562D01*
X113068090Y-106558832D01*
X113081974Y-106577552D01*
X113093956Y-106597543D01*
X113103921Y-106618613D01*
X113111773Y-106640557D01*
X113117437Y-106663166D01*
X113120856Y-106686221D01*
X113122000Y-106709500D01*
X113122000Y-107184500D01*
X113120856Y-107207779D01*
X113117437Y-107230834D01*
X113111773Y-107253443D01*
X113103921Y-107275387D01*
X113093956Y-107296457D01*
X113081974Y-107316448D01*
X113068090Y-107335168D01*
X113052438Y-107352438D01*
X113035168Y-107368090D01*
X113016448Y-107381974D01*
X112996457Y-107393956D01*
X112975387Y-107403921D01*
X112953443Y-107411773D01*
X112930834Y-107417437D01*
X112907779Y-107420856D01*
X112884500Y-107422000D01*
X112309500Y-107422000D01*
X112286221Y-107420856D01*
X112263166Y-107417437D01*
X112240557Y-107411773D01*
X112218613Y-107403921D01*
X112197543Y-107393956D01*
X112177552Y-107381974D01*
X112158832Y-107368090D01*
X112141562Y-107352438D01*
X112125910Y-107335168D01*
X112112026Y-107316448D01*
X112100044Y-107296457D01*
X112090079Y-107275387D01*
X112082227Y-107253443D01*
X112076563Y-107230834D01*
X112073144Y-107207779D01*
X112072000Y-107184500D01*
X112072000Y-106709500D01*
X112073144Y-106686221D01*
X112076563Y-106663166D01*
X112082227Y-106640557D01*
X112090079Y-106618613D01*
X112100044Y-106597543D01*
X112112026Y-106577552D01*
X112125910Y-106558832D01*
X112141562Y-106541562D01*
X112158832Y-106525910D01*
X112177552Y-106512026D01*
X112197543Y-106500044D01*
X112218613Y-106490079D01*
X112240557Y-106482227D01*
X112263166Y-106476563D01*
X112286221Y-106473144D01*
X112309500Y-106472000D01*
X112884500Y-106472000D01*
X112907779Y-106473144D01*
X112907779Y-106473144D01*
G37*
D11*
X112597000Y-106947000D03*
D12*
X93700600Y-115968780D03*
X92600780Y-115968780D03*
X91500960Y-115968780D03*
X90401140Y-115968780D03*
X89298780Y-115968780D03*
X88198960Y-115968780D03*
X87099140Y-115968780D03*
X85999320Y-115968780D03*
D13*
X95755460Y-114409220D03*
D14*
X95648780Y-101208840D03*
D15*
X82450940Y-116060220D03*
D16*
X95755460Y-107010200D03*
D14*
X82151220Y-101208840D03*
D17*
X95110300Y-116060220D03*
M02*
