M48
; DRILL file {KiCad (5.1.2)-1} date 5/30/2019 1:03:53 PM
; FORMAT={-:-/ absolute / inch / decimal}
; #@! TF.CreationDate,2019-05-30T13:03:53-04:00
; #@! TF.GenerationSoftware,Kicad,Pcbnew,(5.1.2)-1
; #@! TF.FileFunction,Plated,1,4,PTH
FMAT,2
INCH
T1C0.0100
T2C0.0197
T3C0.0217
T4C0.0300
T5C0.0335
T6C0.1260
%
G90
G05
T1
X2.0235Y-5.1255
X2.0285Y-4.6955
X2.0285Y-4.7355
X2.0285Y-4.8455
X2.0285Y-4.8855
X2.0475Y-5.1408
X2.0485Y-4.7155
X2.0485Y-4.7555
X2.0485Y-4.8255
X2.0485Y-4.8655
X2.0685Y-4.6955
X2.0685Y-4.7355
X2.0685Y-4.8455
X2.0685Y-4.8855
X2.0885Y-5.3455
X2.1085Y-5.3255
X2.1135Y-4.2805
X2.1185Y-4.6955
X2.1185Y-4.7355
X2.1211Y-4.8448
X2.124Y-4.8855
X2.1285Y-5.3055
X2.1385Y-4.7155
X2.1385Y-4.7555
X2.1385Y-4.8255
X2.1385Y-4.8655
X2.1585Y-4.6955
X2.1585Y-4.7355
X2.1585Y-4.8455
X2.1585Y-4.8855
X2.1985Y-5.0305
X2.2185Y-5.0305
X2.2235Y-5.1055
X2.23Y-4.51
X2.2385Y-4.8155
X2.2435Y-5.0355
X2.2585Y-4.4055
X2.2735Y-4.3905
X2.2935Y-4.2655
X2.3235Y-5.0855
X2.3335Y-4.1255
X2.3535Y-4.4055
X2.3685Y-4.4205
X2.4085Y-4.1055
X2.4085Y-4.1355
X2.4385Y-4.1055
X2.4385Y-4.1355
X2.4385Y-4.1655
X2.4385Y-4.1955
X2.4385Y-5.4005
X2.465Y-5.25
X2.4685Y-4.1055
X2.4685Y-4.1355
X2.4685Y-4.1655
X2.4685Y-4.1955
X2.5285Y-5.3655
X2.5485Y-4.7355
X2.5485Y-4.7655
X2.5585Y-5.3655
X2.5585Y-5.7055
X2.5585Y-5.7355
X2.5585Y-5.7655
X2.5785Y-4.7355
X2.5785Y-4.7655
X2.5885Y-5.7055
X2.5885Y-5.7355
X2.5885Y-5.7655
X2.5885Y-5.3655
X2.5985Y-4.2805
X2.605Y-4.965
X2.6085Y-4.7355
X2.6085Y-4.7655
X2.6135Y-5.5105
X2.6185Y-5.7055
X2.6185Y-5.7355
X2.6185Y-5.7655
X2.6285Y-4.8555
X2.6485Y-5.7355
X2.6485Y-5.7655
X2.6585Y-4.2555
X2.6591Y-5.6701
X2.6985Y-5.5305
X2.724Y-5.53
X2.7585Y-4.4155
X2.7685Y-5.0555
X2.7735Y-5.365
X2.7737Y-4.9057
X2.7755Y-4.6795
X2.7985Y-5.365
X2.7995Y-4.8655
X2.8185Y-5.365
X2.8255Y-4.8655
X2.8335Y-5.2755
X2.8485Y-5.3455
X2.8985Y-4.2655
X2.933Y-4.8775
X2.9435Y-5.6805
X2.9435Y-5.4015
X2.955Y-4.76
X2.9575Y-4.2595
X2.977Y-4.785
X2.9795Y-4.3105
X2.9857Y-4.94
X2.99Y-4.98
X2.9907Y-5.0118
X2.9985Y-4.0255
X3.0085Y-4.2055
X3.0127Y-5.0409
X3.0177Y-5.0775
X3.0283Y-5.2404
X3.0356Y-5.1154
X3.0764Y-4.931
X3.0785Y-5.2505
X3.0835Y-4.8655
X3.0842Y-4.8998
X3.09Y-4.59
X3.1005Y-4.3135
X3.1045Y-4.4785
X3.1083Y-4.9453
X3.125Y-4.615
X3.1305Y-4.3157
X3.1305Y-5.0535
X3.1435Y-4.0255
X3.1441Y-4.9477
X3.15Y-4.57
X3.1526Y-5.2864
X3.1587Y-4.6298
X3.1635Y-5.0525
X3.1785Y-4.9255
X3.1956Y-5.3294
X3.2178Y-5.0509
X3.24Y-4.21
X3.244Y-4.612
X3.255Y-5.6791
X3.2585Y-5.4105
X3.2635Y-5.0395
X3.265Y-4.44
X3.265Y-4.2225
X3.27Y-4.739
X3.2816Y-4.4827
X3.2905Y-4.2975
X3.2919Y-5.0689
X3.2924Y-4.7558
X3.2985Y-4.0155
X3.2985Y-4.2205
X3.3035Y-4.3605
X3.3105Y-4.4905
X3.3185Y-4.766
X3.3225Y-5.1659
X3.3285Y-4.937
X3.3332Y-4.43
X3.3449Y-4.764
X3.346Y-5.253
X3.348Y-5.1776
X3.3555Y-4.2185
X3.3585Y-4.9355
X3.3606Y-4.7344
X3.3653Y-4.0921
X3.3865Y-4.2105
X3.4003Y-4.6555
X3.4045Y-5.4095
X3.4114Y-4.9378
X3.4135Y-5.6755
X3.4186Y-5.3853
X3.4285Y-4.6855
X3.435Y-5.215
X3.4435Y-5.3355
X3.4485Y-4.7055
X3.458Y-5.111
X3.4595Y-4.0925
X3.4611Y-4.0279
X3.4774Y-4.218
X3.4776Y-4.6396
X3.4835Y-4.8855
X3.4885Y-4.7055
X3.4975Y-5.6165
X3.4985Y-4.3205
X3.499Y-4.1098
X3.502Y-5.1144
X3.5069Y-5.5131
X3.5085Y-4.724
X3.5165Y-4.5125
X3.5215Y-5.5945
X3.5221Y-4.0868
X3.5385Y-5.3005
X3.54Y-4.4
X3.5605Y-4.9405
X3.5701Y-4.3663
X3.5835Y-3.9855
X3.5835Y-4.2255
X3.5975Y-5.6055
X3.6026Y-5.0705
X3.6069Y-5.1899
X3.61Y-4.355
X3.6216Y-5.1257
X3.6265Y-4.8099
X3.6278Y-4.838
X3.6325Y-4.2755
X3.6375Y-5.5625
X3.645Y-4.36
X3.65Y-4.8014
X3.6626Y-5.0472
X3.665Y-4.275
X3.6684Y-4.7075
X3.6684Y-4.7845
X3.6685Y-5.3355
X3.6985Y-4.0805
X3.6985Y-4.7205
X3.7017Y-5.1497
X3.7335Y-5.6805
X3.7356Y-4.9144
X3.7386Y-4.7804
X3.7397Y-4.6176
X3.745Y-4.4447
X3.745Y-4.885
X3.7535Y-4.3055
X3.7564Y-4.7206
X3.7585Y-4.7455
X3.7585Y-4.7955
X3.7628Y-4.0367
X3.785Y-4.425
X3.7885Y-4.0355
X3.794Y-4.5479
X3.7994Y-5.3306
X3.8065Y-5.1376
X3.8085Y-4.2655
X3.8085Y-4.7355
X3.8133Y-4.2105
X3.8205Y-4.895
X3.8227Y-4.7855
X3.8255Y-4.5525
X3.8319Y-5.1181
X3.8435Y-5.0055
X3.8723Y-4.9377
X3.8885Y-4.1855
X3.8935Y-5.6805
X3.8985Y-5.4055
X3.9037Y-4.9549
X3.9085Y-5.0205
X3.92Y-4.4
X3.921Y-5.198
X3.9254Y-4.8035
X3.9285Y-4.5055
X3.9285Y-4.7345
X3.9345Y-4.1895
X3.935Y-4.1364
X3.9469Y-5.2531
X3.9476Y-4.1596
X3.9483Y-4.9675
X3.95Y-5.113
X3.9585Y-4.5325
X3.97Y-4.45
X3.97Y-4.8035
X3.9827Y-4.7786
X3.9934Y-3.9754
X3.9985Y-4.1905
X4.0019Y-5.23
X4.0035Y-5.1855
X4.0385Y-4.1955
X4.0385Y-4.3405
X4.0388Y-4.7935
X4.0436Y-5.2526
X4.06Y-4.53
X4.0785Y-3.9955
X4.0835Y-4.2005
X4.0985Y-4.7905
X4.1091Y-5.0869
X4.1204Y-5.2086
X4.1277Y-5.3468
X4.1435Y-5.2855
X4.148Y-4.42
X4.148Y-4.49
X4.1485Y-4.3255
X4.1573Y-4.8317
X4.16Y-4.7565
X4.1685Y-4.5055
X4.1719Y-4.6889
X4.1748Y-5.3495
X4.1837Y-4.8225
X4.1839Y-4.7645
X4.19Y-5.05
X4.2118Y-5.0082
X4.2145Y-5.08
X4.2182Y-4.8258
X4.2185Y-5.6805
X4.2235Y-4.8965
X4.2285Y-4.6075
X4.2335Y-4.2405
X4.2428Y-4.4747
X4.265Y-5.2116
X4.287Y-5.255
X4.3235Y-4.9555
X4.3285Y-5.2955
X4.3285Y-5.2055
X4.3379Y-5.0531
X4.3386Y-5.4674
X4.3442Y-5.0222
X4.37Y-5.84
X4.38Y-4.9538
X4.3954Y-4.8556
X4.4002Y-4.5369
X4.4085Y-5.3705
X4.4105Y-5.0163
X4.4125Y-5.1695
X4.4155Y-5.1415
X4.4271Y-4.8518
X4.445Y-5.188
X4.4485Y-5.5455
X4.4585Y-4.8555
X4.4834Y-4.8589
X4.4885Y-4.5955
X4.4984Y-4.4154
X4.4985Y-4.0455
X4.4985Y-4.1555
X4.4985Y-4.3505
X4.4985Y-5.5455
X4.5035Y-4.2655
X4.51Y-4.85
X4.5185Y-4.3755
X4.5285Y-4.2455
X4.5585Y-4.3755
X4.5635Y-4.8605
X4.5685Y-4.2455
X4.5685Y-4.9255
X4.5801Y-4.4577
X4.5925Y-4.9045
X4.5985Y-4.3755
X4.6085Y-4.4655
X4.6185Y-4.4355
X4.62Y-5.84
X4.6224Y-4.9107
X4.6285Y-4.4855
X4.6335Y-5.1955
X4.6485Y-4.5055
X4.6585Y-5.4455
X4.6635Y-4.9405
X4.6785Y-4.4455
X4.7035Y-4.4355
X4.7175Y-4.7555
X4.7261Y-4.4967
X4.7335Y-4.6355
X4.7485Y-4.1555
X4.7485Y-4.4855
X4.7615Y-5.5355
X4.7615Y-5.5585
X4.7659Y-4.6481
X4.7675Y-5.1855
X4.7685Y-4.2255
X4.77Y-5.06
X4.778Y-4.92
X4.7785Y-5.5755
X4.785Y-5.03
X4.7885Y-4.4955
X4.7906Y-4.4049
X4.8095Y-4.6568
X4.8285Y-4.2555
X4.8385Y-4.3055
X4.8397Y-4.2779
X4.8407Y-4.5548
X4.8589Y-4.1977
X4.8765Y-4.5698
X4.8895Y-4.5203
X4.8985Y-5.4355
X4.9177Y-4.5086
X4.9285Y-4.5855
X4.9285Y-4.7805
X4.9345Y-4.75
X4.9485Y-4.9655
X4.9485Y-5.0355
X4.9574Y-5.25
X4.9978Y-4.1162
X5.0185Y-4.4055
X5.0185Y-4.6755
X5.0185Y-4.9555
X5.02Y-5.0455
X5.0422Y-4.4018
X5.0472Y-4.6768
X5.0472Y-4.9568
X5.0585Y-4.5955
X5.0585Y-5.3055
X5.0654Y-5.3787
X5.0985Y-5.48
X5.1285Y-5.48
X5.1385Y-4.8855
X5.1485Y-4.7755
X5.1585Y-5.48
X5.21Y-5.285
X5.225Y-4.0
X5.2385Y-5.2255
X5.2622Y-5.0718
X5.2855Y-5.5285
X5.3285Y-5.0855
X5.3325Y-5.8425
X5.3472Y-4.6768
X5.3472Y-4.4018
X5.3572Y-4.9568
X5.3735Y-4.6755
X5.3785Y-4.3955
X5.3785Y-4.9555
X5.4585Y-5.2255
X5.4885Y-4.9568
X5.4985Y-4.4055
X5.4985Y-4.6755
X5.5172Y-4.9568
X5.5222Y-4.4018
X5.5222Y-4.6768
X5.53Y-5.53
X5.54Y-5.84
X5.5485Y-4.5455
X5.6Y-4.0
X5.6085Y-5.2255
X5.6185Y-5.1755
X5.6385Y-4.8955
X5.6585Y-4.8755
X5.6885Y-4.7455
X5.7485Y-5.2855
X5.8272Y-4.4018
X5.8272Y-4.6768
X5.8372Y-4.9568
X5.8385Y-5.2255
X5.8485Y-4.6755
X5.8485Y-4.4005
X5.8585Y-4.9555
T4
X5.6031Y-5.475
X5.8Y-5.475
T5
X2.3335Y-5.8155
X2.4319Y-5.8155
T6
X2.0866Y-5.7874
X2.0866Y-4.0551
X5.7874Y-5.7874
X5.7874Y-4.0551
T2
G00X4.8022Y-5.8009
M15
G01X4.8022Y-5.7754
M16
G05
G00X5.0778Y-5.8009
M15
G01X5.0778Y-5.7754
M16
G05
T3
G00X4.8357Y-5.6819
M15
G01X4.8475Y-5.6819
M16
G05
G00X5.0325Y-5.6819
M15
G01X5.0443Y-5.6819
M16
G05
T0
M30
