G04 #@! TF.FileFunction,Soldermask,Top*
%FSLAX46Y46*%
G04 Gerber Fmt 4.6, Leading zero omitted, Abs format (unit mm)*
G04 Created by KiCad (PCBNEW 4.0.7) date 02/08/18 09:42:23*
%MOMM*%
%LPD*%
G01*
G04 APERTURE LIST*
%ADD10C,0.100000*%
%ADD11R,0.450000X0.400000*%
%ADD12R,0.800000X1.900000*%
%ADD13R,0.900000X1.200000*%
%ADD14R,1.700000X1.700000*%
%ADD15O,1.700000X1.700000*%
%ADD16R,3.500000X2.400000*%
%ADD17R,1.750000X1.800000*%
%ADD18R,1.200000X0.900000*%
%ADD19R,1.800000X1.750000*%
%ADD20R,0.450000X1.450000*%
%ADD21R,0.250000X1.000000*%
%ADD22R,1.000000X0.250000*%
%ADD23O,0.300000X0.750000*%
%ADD24O,0.750000X0.300000*%
%ADD25R,0.900000X0.900000*%
%ADD26C,1.500000*%
%ADD27R,2.000000X2.600000*%
%ADD28O,2.000000X2.600000*%
%ADD29R,2.600000X2.000000*%
%ADD30O,2.600000X2.000000*%
%ADD31R,0.700000X0.600000*%
%ADD32R,0.600000X0.700000*%
%ADD33R,0.800000X0.800000*%
%ADD34R,0.300000X1.550000*%
%ADD35R,1.550000X0.300000*%
%ADD36C,1.524000*%
%ADD37R,2.350000X5.100000*%
%ADD38R,0.650000X2.000000*%
%ADD39R,1.220000X0.650000*%
%ADD40R,1.500000X1.250000*%
G04 APERTURE END LIST*
D10*
D11*
X61663000Y-114710000D03*
X61663000Y-115510000D03*
X61663000Y-116310000D03*
X61663000Y-117110000D03*
X58713000Y-117110000D03*
X58713000Y-116310000D03*
X58713000Y-115510000D03*
X58713000Y-114710000D03*
D12*
X59638000Y-115910000D03*
X60738000Y-115910000D03*
D13*
X57902000Y-119382000D03*
X57902000Y-121582000D03*
D14*
X143974000Y-103584000D03*
D15*
X141434000Y-103584000D03*
X138894000Y-103584000D03*
D14*
X143974000Y-108664000D03*
D15*
X141434000Y-108664000D03*
X138894000Y-108664000D03*
D14*
X143974000Y-111204000D03*
D15*
X141434000Y-111204000D03*
X138894000Y-111204000D03*
D14*
X143974000Y-116230000D03*
D15*
X141434000Y-116230000D03*
X138894000Y-116230000D03*
D14*
X143974000Y-118770000D03*
D15*
X141434000Y-118770000D03*
X138894000Y-118770000D03*
D14*
X143974000Y-121310000D03*
D15*
X141434000Y-121310000D03*
X138894000Y-121310000D03*
D14*
X143974000Y-123850000D03*
D15*
X141434000Y-123850000D03*
X138894000Y-123850000D03*
D14*
X143974000Y-128300000D03*
D15*
X141434000Y-128300000D03*
X138894000Y-128300000D03*
D14*
X143974000Y-130840000D03*
D15*
X141434000Y-130840000D03*
X138894000Y-130840000D03*
D14*
X143974000Y-133380000D03*
D15*
X141434000Y-133380000D03*
X138894000Y-133380000D03*
D14*
X143974000Y-135920000D03*
D15*
X141434000Y-135920000D03*
X138894000Y-135920000D03*
D14*
X143974000Y-106124000D03*
D15*
X141434000Y-106124000D03*
X138894000Y-106124000D03*
D16*
X103225000Y-103124000D03*
X98025000Y-103124000D03*
D17*
X111537000Y-104262000D03*
X114787000Y-104262000D03*
D13*
X106403000Y-102044000D03*
X106403000Y-104244000D03*
X94949000Y-102010000D03*
X94949000Y-104210000D03*
D18*
X114785000Y-101757000D03*
X116985000Y-101757000D03*
X112413000Y-101803000D03*
X110213000Y-101803000D03*
D16*
X128713000Y-116147000D03*
X123513000Y-116147000D03*
D19*
X134071000Y-114259000D03*
X134071000Y-111009000D03*
D20*
X78928000Y-125281000D03*
X79578000Y-125281000D03*
X80228000Y-125281000D03*
X80878000Y-125281000D03*
X80878000Y-119381000D03*
X80228000Y-119381000D03*
X79578000Y-119381000D03*
X78928000Y-119381000D03*
D21*
X130788000Y-119535000D03*
X130288000Y-119535000D03*
X129788000Y-119535000D03*
X129288000Y-119535000D03*
X128788000Y-119535000D03*
X128288000Y-119535000D03*
X127788000Y-119535000D03*
X127288000Y-119535000D03*
X126788000Y-119535000D03*
X126288000Y-119535000D03*
X125788000Y-119535000D03*
X125288000Y-119535000D03*
X124788000Y-119535000D03*
X124288000Y-119535000D03*
X123788000Y-119535000D03*
X123288000Y-119535000D03*
D22*
X121338000Y-121485000D03*
X121338000Y-121985000D03*
X121338000Y-122485000D03*
X121338000Y-122985000D03*
X121338000Y-123485000D03*
X121338000Y-123985000D03*
X121338000Y-124485000D03*
X121338000Y-124985000D03*
X121338000Y-125485000D03*
X121338000Y-125985000D03*
X121338000Y-126485000D03*
X121338000Y-126985000D03*
X121338000Y-127485000D03*
X121338000Y-127985000D03*
X121338000Y-128485000D03*
X121338000Y-128985000D03*
D21*
X123288000Y-130935000D03*
X123788000Y-130935000D03*
X124288000Y-130935000D03*
X124788000Y-130935000D03*
X125288000Y-130935000D03*
X125788000Y-130935000D03*
X126288000Y-130935000D03*
X126788000Y-130935000D03*
X127288000Y-130935000D03*
X127788000Y-130935000D03*
X128288000Y-130935000D03*
X128788000Y-130935000D03*
X129288000Y-130935000D03*
X129788000Y-130935000D03*
X130288000Y-130935000D03*
X130788000Y-130935000D03*
D22*
X132738000Y-128985000D03*
X132738000Y-128485000D03*
X132738000Y-127985000D03*
X132738000Y-127485000D03*
X132738000Y-126985000D03*
X132738000Y-126485000D03*
X132738000Y-125985000D03*
X132738000Y-125485000D03*
X132738000Y-124985000D03*
X132738000Y-124485000D03*
X132738000Y-123985000D03*
X132738000Y-123485000D03*
X132738000Y-122985000D03*
X132738000Y-122485000D03*
X132738000Y-121985000D03*
X132738000Y-121485000D03*
D23*
X63923000Y-128295000D03*
X64423000Y-128295000D03*
X64923000Y-128295000D03*
X65423000Y-128295000D03*
D24*
X66148000Y-127570000D03*
X66148000Y-127070000D03*
X66148000Y-126570000D03*
X66148000Y-126070000D03*
D23*
X65423000Y-125345000D03*
X64923000Y-125345000D03*
X64423000Y-125345000D03*
X63923000Y-125345000D03*
D24*
X63198000Y-126070000D03*
X63198000Y-126570000D03*
X63198000Y-127070000D03*
X63198000Y-127570000D03*
D25*
X65123000Y-126370000D03*
X64223000Y-126370000D03*
X65123000Y-127270000D03*
X64223000Y-127270000D03*
D26*
X135362000Y-127300000D03*
X120137000Y-109057000D03*
D13*
X94407000Y-142040000D03*
X94407000Y-139840000D03*
D18*
X97173000Y-134965000D03*
X94973000Y-134965000D03*
X72301000Y-109484000D03*
X70101000Y-109484000D03*
D13*
X94450000Y-144252000D03*
X94450000Y-146452000D03*
D18*
X97132000Y-133198000D03*
X94932000Y-133198000D03*
X72261000Y-111110000D03*
X70061000Y-111110000D03*
X86002000Y-119444000D03*
X83802000Y-119444000D03*
D13*
X129925000Y-137809000D03*
X129925000Y-140009000D03*
D18*
X85977000Y-123078000D03*
X83777000Y-123078000D03*
X85956000Y-121392000D03*
X83756000Y-121392000D03*
X86038000Y-124826000D03*
X83838000Y-124826000D03*
D13*
X90909000Y-104402000D03*
X90909000Y-102202000D03*
X90587000Y-113922000D03*
X90587000Y-111722000D03*
X89017000Y-115867000D03*
X89017000Y-118067000D03*
X89309000Y-104402000D03*
X89309000Y-102202000D03*
X89017000Y-113967000D03*
X89017000Y-111767000D03*
X90587000Y-115852000D03*
X90587000Y-118052000D03*
X76119000Y-119641000D03*
X76119000Y-121841000D03*
X68130000Y-131752000D03*
X68130000Y-133952000D03*
X54625000Y-135367000D03*
X54625000Y-137567000D03*
X66383000Y-133891000D03*
X66383000Y-131691000D03*
X54690000Y-141586000D03*
X54690000Y-139386000D03*
X131925000Y-137775000D03*
X131925000Y-139975000D03*
X133742000Y-137786000D03*
X133742000Y-139986000D03*
D27*
X84500000Y-128500000D03*
D28*
X81960000Y-128500000D03*
X79420000Y-128500000D03*
X76880000Y-128500000D03*
X74340000Y-128500000D03*
X71800000Y-128500000D03*
D27*
X84500000Y-134500000D03*
D28*
X81960000Y-134500000D03*
X79420000Y-134500000D03*
X76880000Y-134500000D03*
X74340000Y-134500000D03*
X71800000Y-134500000D03*
D27*
X84500000Y-140500000D03*
D28*
X81960000Y-140500000D03*
X79420000Y-140500000D03*
X76880000Y-140500000D03*
X74340000Y-140500000D03*
X71800000Y-140500000D03*
D27*
X84500000Y-146500000D03*
D28*
X81960000Y-146500000D03*
X79420000Y-146500000D03*
X76880000Y-146500000D03*
X74340000Y-146500000D03*
X71800000Y-146500000D03*
D27*
X116800000Y-140500000D03*
D28*
X114260000Y-140500000D03*
X111720000Y-140500000D03*
X109180000Y-140500000D03*
X106640000Y-140500000D03*
X104100000Y-140500000D03*
D27*
X116800000Y-134500000D03*
D28*
X114260000Y-134500000D03*
X111720000Y-134500000D03*
X109180000Y-134500000D03*
X106640000Y-134500000D03*
X104100000Y-134500000D03*
D27*
X116800000Y-146500000D03*
D28*
X114260000Y-146500000D03*
X111720000Y-146500000D03*
X109180000Y-146500000D03*
X106640000Y-146500000D03*
X104100000Y-146500000D03*
D27*
X85273000Y-103000000D03*
D28*
X82733000Y-103000000D03*
X80193000Y-103000000D03*
X77653000Y-103000000D03*
D27*
X85273000Y-109000000D03*
D28*
X82733000Y-109000000D03*
X80193000Y-109000000D03*
X77653000Y-109000000D03*
D27*
X85273000Y-115000000D03*
D28*
X82733000Y-115000000D03*
X80193000Y-115000000D03*
X77653000Y-115000000D03*
D27*
X70000000Y-103000000D03*
D28*
X67460000Y-103000000D03*
X64920000Y-103000000D03*
X62380000Y-103000000D03*
X59840000Y-103000000D03*
D27*
X132875000Y-103000000D03*
D28*
X130335000Y-103000000D03*
X127795000Y-103000000D03*
X125255000Y-103000000D03*
X122715000Y-103000000D03*
D27*
X65000000Y-109000000D03*
D28*
X62460000Y-109000000D03*
X59920000Y-109000000D03*
D27*
X128829000Y-109000000D03*
D28*
X126289000Y-109000000D03*
X123749000Y-109000000D03*
D29*
X91084000Y-135509000D03*
D30*
X91084000Y-132969000D03*
D29*
X99022000Y-146500000D03*
D30*
X99022000Y-143960000D03*
X99022000Y-141420000D03*
X99022000Y-138880000D03*
D29*
X91084000Y-146500000D03*
D30*
X91084000Y-143960000D03*
X91084000Y-141420000D03*
D29*
X143939000Y-147000000D03*
D30*
X143939000Y-144460000D03*
X143939000Y-141920000D03*
D27*
X59294000Y-145735000D03*
D28*
X56754000Y-145735000D03*
D14*
X55004000Y-110592000D03*
D15*
X55004000Y-108052000D03*
X55004000Y-105512000D03*
X55004000Y-102972000D03*
D18*
X63676000Y-133868000D03*
X61476000Y-133868000D03*
D31*
X98950000Y-133122000D03*
X98950000Y-134522000D03*
D32*
X71942000Y-107737000D03*
X70542000Y-107737000D03*
D33*
X129902000Y-134428000D03*
X129902000Y-136028000D03*
X89691000Y-122347000D03*
X88091000Y-122347000D03*
X89691000Y-120495000D03*
X88091000Y-120495000D03*
X89714000Y-123981000D03*
X88114000Y-123981000D03*
X76139000Y-123741000D03*
X76139000Y-125341000D03*
D13*
X63472000Y-131845000D03*
X60172000Y-131845000D03*
D33*
X131868000Y-134428000D03*
X131868000Y-136028000D03*
X133731000Y-134394000D03*
X133731000Y-135994000D03*
D13*
X92309000Y-122887000D03*
X92309000Y-120687000D03*
X119080000Y-113195000D03*
X119080000Y-110995000D03*
X120366000Y-117473000D03*
X120366000Y-115273000D03*
X134965000Y-120541000D03*
X134965000Y-118341000D03*
X135011000Y-122588000D03*
X135011000Y-124788000D03*
X119043000Y-131471000D03*
X119043000Y-129271000D03*
D18*
X125032000Y-113203000D03*
X122832000Y-113203000D03*
X127505000Y-113142000D03*
X129705000Y-113142000D03*
X135090000Y-108488000D03*
X132890000Y-108488000D03*
X135415000Y-116535000D03*
X133215000Y-116535000D03*
X116421000Y-130531000D03*
X114221000Y-130531000D03*
X89974000Y-126119000D03*
X92174000Y-126119000D03*
D13*
X118826000Y-121984000D03*
X118826000Y-119784000D03*
D18*
X111445000Y-130553000D03*
X109245000Y-130553000D03*
D13*
X118643000Y-107018000D03*
X118643000Y-104818000D03*
D18*
X107273000Y-130576000D03*
X105073000Y-130576000D03*
D13*
X118674000Y-115242000D03*
X118674000Y-117442000D03*
X118998000Y-124847000D03*
X118998000Y-127047000D03*
D18*
X90226000Y-107853000D03*
X92426000Y-107853000D03*
X102863000Y-130658000D03*
X100663000Y-130658000D03*
X92243000Y-127902000D03*
X90043000Y-127902000D03*
X92403000Y-106322000D03*
X90203000Y-106322000D03*
D13*
X92324000Y-117396000D03*
X92324000Y-115196000D03*
D18*
X90264000Y-109774000D03*
X92464000Y-109774000D03*
D13*
X92869000Y-104267000D03*
X92869000Y-102067000D03*
X108250000Y-104366000D03*
X108250000Y-102166000D03*
D18*
X61288000Y-113116000D03*
X59088000Y-113116000D03*
X62009000Y-121498000D03*
X64209000Y-121498000D03*
D13*
X56151000Y-121521000D03*
X56151000Y-119321000D03*
D18*
X57310000Y-131369000D03*
X55110000Y-131369000D03*
D13*
X54475000Y-121549000D03*
X54475000Y-119349000D03*
D18*
X57310000Y-133007000D03*
X55110000Y-133007000D03*
X64937000Y-123010000D03*
X62737000Y-123010000D03*
X57185000Y-141138000D03*
X59385000Y-141138000D03*
X64920000Y-129742000D03*
X67120000Y-129742000D03*
X59024000Y-134645000D03*
X56824000Y-134645000D03*
D29*
X138000000Y-147000000D03*
D30*
X138000000Y-144460000D03*
X138000000Y-141920000D03*
D34*
X114401000Y-107181000D03*
X113901000Y-107181000D03*
X113401000Y-107181000D03*
X112901000Y-107181000D03*
X112401000Y-107181000D03*
X111901000Y-107181000D03*
X111401000Y-107181000D03*
X110901000Y-107181000D03*
X110401000Y-107181000D03*
X109901000Y-107181000D03*
X109401000Y-107181000D03*
X108901000Y-107181000D03*
X108401000Y-107181000D03*
X107901000Y-107181000D03*
X107401000Y-107181000D03*
X106901000Y-107181000D03*
X106401000Y-107181000D03*
X105901000Y-107181000D03*
X105401000Y-107181000D03*
X104901000Y-107181000D03*
X104401000Y-107181000D03*
X103901000Y-107181000D03*
X103401000Y-107181000D03*
X102901000Y-107181000D03*
X102401000Y-107181000D03*
X101901000Y-107181000D03*
X101401000Y-107181000D03*
X100901000Y-107181000D03*
X100401000Y-107181000D03*
X99901000Y-107181000D03*
X99401000Y-107181000D03*
X98901000Y-107181000D03*
X98401000Y-107181000D03*
X97901000Y-107181000D03*
X97401000Y-107181000D03*
X96901000Y-107181000D03*
D35*
X94951000Y-109131000D03*
X94951000Y-109631000D03*
X94951000Y-110131000D03*
X94951000Y-110631000D03*
X94951000Y-111131000D03*
X94951000Y-111631000D03*
X94951000Y-112131000D03*
X94951000Y-112631000D03*
X94951000Y-113131000D03*
X94951000Y-113631000D03*
X94951000Y-114131000D03*
X94951000Y-114631000D03*
X94951000Y-115131000D03*
X94951000Y-115631000D03*
X94951000Y-116131000D03*
X94951000Y-116631000D03*
X94951000Y-117131000D03*
X94951000Y-117631000D03*
X94951000Y-118131000D03*
X94951000Y-118631000D03*
X94951000Y-119131000D03*
X94951000Y-119631000D03*
X94951000Y-120131000D03*
X94951000Y-120631000D03*
X94951000Y-121131000D03*
X94951000Y-121631000D03*
X94951000Y-122131000D03*
X94951000Y-122631000D03*
X94951000Y-123131000D03*
X94951000Y-123631000D03*
X94951000Y-124131000D03*
X94951000Y-124631000D03*
X94951000Y-125131000D03*
X94951000Y-125631000D03*
X94951000Y-126131000D03*
X94951000Y-126631000D03*
D34*
X96901000Y-128581000D03*
X97401000Y-128581000D03*
X97901000Y-128581000D03*
X98401000Y-128581000D03*
X98901000Y-128581000D03*
X99401000Y-128581000D03*
X99901000Y-128581000D03*
X100401000Y-128581000D03*
X100901000Y-128581000D03*
X101401000Y-128581000D03*
X101901000Y-128581000D03*
X102401000Y-128581000D03*
X102901000Y-128581000D03*
X103401000Y-128581000D03*
X103901000Y-128581000D03*
X104401000Y-128581000D03*
X104901000Y-128581000D03*
X105401000Y-128581000D03*
X105901000Y-128581000D03*
X106401000Y-128581000D03*
X106901000Y-128581000D03*
X107401000Y-128581000D03*
X107901000Y-128581000D03*
X108401000Y-128581000D03*
X108901000Y-128581000D03*
X109401000Y-128581000D03*
X109901000Y-128581000D03*
X110401000Y-128581000D03*
X110901000Y-128581000D03*
X111401000Y-128581000D03*
X111901000Y-128581000D03*
X112401000Y-128581000D03*
X112901000Y-128581000D03*
X113401000Y-128581000D03*
X113901000Y-128581000D03*
X114401000Y-128581000D03*
D35*
X116351000Y-126631000D03*
X116351000Y-126131000D03*
X116351000Y-125631000D03*
X116351000Y-125131000D03*
X116351000Y-124631000D03*
X116351000Y-124131000D03*
X116351000Y-123631000D03*
X116351000Y-123131000D03*
X116351000Y-122631000D03*
X116351000Y-122131000D03*
X116351000Y-121631000D03*
X116351000Y-121131000D03*
X116351000Y-120631000D03*
X116351000Y-120131000D03*
X116351000Y-119631000D03*
X116351000Y-119131000D03*
X116351000Y-118631000D03*
X116351000Y-118131000D03*
X116351000Y-117631000D03*
X116351000Y-117131000D03*
X116351000Y-116631000D03*
X116351000Y-116131000D03*
X116351000Y-115631000D03*
X116351000Y-115131000D03*
X116351000Y-114631000D03*
X116351000Y-114131000D03*
X116351000Y-113631000D03*
X116351000Y-113131000D03*
X116351000Y-112631000D03*
X116351000Y-112131000D03*
X116351000Y-111631000D03*
X116351000Y-111131000D03*
X116351000Y-110631000D03*
X116351000Y-110131000D03*
X116351000Y-109631000D03*
X116351000Y-109131000D03*
D14*
X70325000Y-114191000D03*
D15*
X72865000Y-114191000D03*
X70325000Y-116731000D03*
X72865000Y-116731000D03*
X70325000Y-119271000D03*
X72865000Y-119271000D03*
X70325000Y-121811000D03*
X72865000Y-121811000D03*
X70325000Y-124351000D03*
X72865000Y-124351000D03*
D23*
X58781000Y-136249000D03*
X58281000Y-136249000D03*
X57781000Y-136249000D03*
X57281000Y-136249000D03*
D24*
X56556000Y-136974000D03*
X56556000Y-137474000D03*
X56556000Y-137974000D03*
X56556000Y-138474000D03*
D23*
X57281000Y-139199000D03*
X57781000Y-139199000D03*
X58281000Y-139199000D03*
X58781000Y-139199000D03*
D24*
X59506000Y-138474000D03*
X59506000Y-137974000D03*
X59506000Y-137474000D03*
X59506000Y-136974000D03*
D25*
X57581000Y-138174000D03*
X58481000Y-138174000D03*
X57581000Y-137274000D03*
X58481000Y-137274000D03*
D36*
X127902000Y-144323000D03*
X122902000Y-144323000D03*
D37*
X66930000Y-138379000D03*
X62230000Y-138379000D03*
X55168000Y-126345000D03*
X59868000Y-126345000D03*
D38*
X63528000Y-147948000D03*
X64478000Y-147948000D03*
X65428000Y-147948000D03*
X65428000Y-144528000D03*
X64478000Y-144528000D03*
X63528000Y-144528000D03*
D39*
X126369000Y-138080000D03*
X126369000Y-136180000D03*
X123749000Y-137130000D03*
D13*
X128077000Y-138199000D03*
X128077000Y-135999000D03*
D40*
X57120000Y-116926000D03*
X54620000Y-116926000D03*
D13*
X63236000Y-116334000D03*
X63236000Y-118534000D03*
X65268000Y-116334000D03*
X65268000Y-118534000D03*
D18*
X65606000Y-114386000D03*
X63406000Y-114386000D03*
M02*
