G04 #@! TF.FileFunction,Legend,Bot*
%FSLAX46Y46*%
G04 Gerber Fmt 4.6, Leading zero omitted, Abs format (unit mm)*
G04 Created by KiCad (PCBNEW 4.0.7) date 02/08/18 09:42:22*
%MOMM*%
%LPD*%
G01*
G04 APERTURE LIST*
%ADD10C,0.100000*%
%ADD11C,0.300000*%
%ADD12C,0.120000*%
%ADD13C,0.381000*%
%ADD14C,0.150000*%
%ADD15C,0.304800*%
G04 APERTURE END LIST*
D10*
D11*
X130944517Y-112989692D02*
X130349279Y-115489692D01*
X129873089Y-113703978D01*
X129396898Y-115489692D01*
X128801660Y-112989692D01*
X127968327Y-114775407D02*
X126777850Y-114775407D01*
X128206422Y-115489692D02*
X127373088Y-112989692D01*
X126539755Y-115489692D01*
X124277850Y-115489692D02*
X125111184Y-114299216D01*
X125706422Y-115489692D02*
X125706422Y-112989692D01*
X124754041Y-112989692D01*
X124515946Y-113108740D01*
X124396898Y-113227788D01*
X124277850Y-113465883D01*
X124277850Y-113823026D01*
X124396898Y-114061121D01*
X124515946Y-114180169D01*
X124754041Y-114299216D01*
X125706422Y-114299216D01*
X121896898Y-113108740D02*
X122134993Y-112989692D01*
X122492136Y-112989692D01*
X122849279Y-113108740D01*
X123087374Y-113346835D01*
X123206422Y-113584930D01*
X123325470Y-114061121D01*
X123325470Y-114418264D01*
X123206422Y-114894454D01*
X123087374Y-115132550D01*
X122849279Y-115370645D01*
X122492136Y-115489692D01*
X122254041Y-115489692D01*
X121896898Y-115370645D01*
X121777850Y-115251597D01*
X121777850Y-114418264D01*
X122254041Y-114418264D01*
X135944517Y-117039692D02*
X134277850Y-117039692D01*
X135944517Y-119539692D01*
X134277850Y-119539692D01*
X133325470Y-118230169D02*
X132492137Y-118230169D01*
X132134994Y-119539692D02*
X133325470Y-119539692D01*
X133325470Y-117039692D01*
X132134994Y-117039692D01*
X129634993Y-119539692D02*
X130468327Y-118349216D01*
X131063565Y-119539692D02*
X131063565Y-117039692D01*
X130111184Y-117039692D01*
X129873089Y-117158740D01*
X129754041Y-117277788D01*
X129634993Y-117515883D01*
X129634993Y-117873026D01*
X129754041Y-118111121D01*
X129873089Y-118230169D01*
X130111184Y-118349216D01*
X131063565Y-118349216D01*
X128087374Y-117039692D02*
X127611184Y-117039692D01*
X127373089Y-117158740D01*
X127134993Y-117396835D01*
X127015946Y-117873026D01*
X127015946Y-118706359D01*
X127134993Y-119182550D01*
X127373089Y-119420645D01*
X127611184Y-119539692D01*
X128087374Y-119539692D01*
X128325470Y-119420645D01*
X128563565Y-119182550D01*
X128682613Y-118706359D01*
X128682613Y-117873026D01*
X128563565Y-117396835D01*
X128325470Y-117158740D01*
X128087374Y-117039692D01*
X125944517Y-119539692D02*
X125944517Y-117039692D01*
X124992136Y-117039692D01*
X124754041Y-117158740D01*
X124634993Y-117277788D01*
X124515945Y-117515883D01*
X124515945Y-117873026D01*
X124634993Y-118111121D01*
X124754041Y-118230169D01*
X124992136Y-118349216D01*
X125944517Y-118349216D01*
X123444517Y-119539692D02*
X123444517Y-117039692D01*
X121063565Y-119539692D02*
X122254041Y-119539692D01*
X122254041Y-117039692D01*
X119754040Y-117039692D02*
X119277850Y-117039692D01*
X119039755Y-117158740D01*
X118801659Y-117396835D01*
X118682612Y-117873026D01*
X118682612Y-118706359D01*
X118801659Y-119182550D01*
X119039755Y-119420645D01*
X119277850Y-119539692D01*
X119754040Y-119539692D01*
X119992136Y-119420645D01*
X120230231Y-119182550D01*
X120349279Y-118706359D01*
X120349279Y-117873026D01*
X120230231Y-117396835D01*
X119992136Y-117158740D01*
X119754040Y-117039692D01*
X117968326Y-117039692D02*
X116539754Y-117039692D01*
X117254040Y-119539692D02*
X117254040Y-117039692D01*
X130468326Y-123589692D02*
X131301660Y-122399216D01*
X131896898Y-123589692D02*
X131896898Y-121089692D01*
X130944517Y-121089692D01*
X130706422Y-121208740D01*
X130587374Y-121327788D01*
X130468326Y-121565883D01*
X130468326Y-121923026D01*
X130587374Y-122161121D01*
X130706422Y-122280169D01*
X130944517Y-122399216D01*
X131896898Y-122399216D01*
X129396898Y-122280169D02*
X128563565Y-122280169D01*
X128206422Y-123589692D02*
X129396898Y-123589692D01*
X129396898Y-121089692D01*
X128206422Y-121089692D01*
X127492136Y-121089692D02*
X126658802Y-123589692D01*
X125825469Y-121089692D01*
X124992136Y-122637311D02*
X123087374Y-122637311D01*
X121420707Y-121089692D02*
X121182612Y-121089692D01*
X120944517Y-121208740D01*
X120825469Y-121327788D01*
X120706422Y-121565883D01*
X120587374Y-122042073D01*
X120587374Y-122637311D01*
X120706422Y-123113502D01*
X120825469Y-123351597D01*
X120944517Y-123470645D01*
X121182612Y-123589692D01*
X121420707Y-123589692D01*
X121658803Y-123470645D01*
X121777850Y-123351597D01*
X121896898Y-123113502D01*
X122015946Y-122637311D01*
X122015946Y-122042073D01*
X121896898Y-121565883D01*
X121777850Y-121327788D01*
X121658803Y-121208740D01*
X121420707Y-121089692D01*
X133920707Y-126211121D02*
X134158802Y-126092073D01*
X134277850Y-125973026D01*
X134396898Y-125734930D01*
X134396898Y-125615883D01*
X134277850Y-125377788D01*
X134158802Y-125258740D01*
X133920707Y-125139692D01*
X133444517Y-125139692D01*
X133206421Y-125258740D01*
X133087374Y-125377788D01*
X132968326Y-125615883D01*
X132968326Y-125734930D01*
X133087374Y-125973026D01*
X133206421Y-126092073D01*
X133444517Y-126211121D01*
X133920707Y-126211121D01*
X134158802Y-126330169D01*
X134277850Y-126449216D01*
X134396898Y-126687311D01*
X134396898Y-127163502D01*
X134277850Y-127401597D01*
X134158802Y-127520645D01*
X133920707Y-127639692D01*
X133444517Y-127639692D01*
X133206421Y-127520645D01*
X133087374Y-127401597D01*
X132968326Y-127163502D01*
X132968326Y-126687311D01*
X133087374Y-126449216D01*
X133206421Y-126330169D01*
X133444517Y-126211121D01*
X130111184Y-125020645D02*
X132254041Y-128234930D01*
X129396898Y-125377788D02*
X129277850Y-125258740D01*
X129039755Y-125139692D01*
X128444517Y-125139692D01*
X128206421Y-125258740D01*
X128087374Y-125377788D01*
X127968326Y-125615883D01*
X127968326Y-125853978D01*
X128087374Y-126211121D01*
X129515945Y-127639692D01*
X127968326Y-127639692D01*
X126420707Y-125139692D02*
X126182612Y-125139692D01*
X125944517Y-125258740D01*
X125825469Y-125377788D01*
X125706422Y-125615883D01*
X125587374Y-126092073D01*
X125587374Y-126687311D01*
X125706422Y-127163502D01*
X125825469Y-127401597D01*
X125944517Y-127520645D01*
X126182612Y-127639692D01*
X126420707Y-127639692D01*
X126658803Y-127520645D01*
X126777850Y-127401597D01*
X126896898Y-127163502D01*
X127015946Y-126687311D01*
X127015946Y-126092073D01*
X126896898Y-125615883D01*
X126777850Y-125377788D01*
X126658803Y-125258740D01*
X126420707Y-125139692D01*
X122730232Y-125020645D02*
X124873089Y-128234930D01*
X120587374Y-127639692D02*
X122015946Y-127639692D01*
X121301660Y-127639692D02*
X121301660Y-125139692D01*
X121539755Y-125496835D01*
X121777850Y-125734930D01*
X122015946Y-125853978D01*
X119754041Y-125139692D02*
X118087374Y-125139692D01*
X119158803Y-127639692D01*
X87955603Y-110230312D02*
X88027031Y-110444598D01*
X88027031Y-110801741D01*
X87955603Y-110944598D01*
X87884174Y-111016027D01*
X87741317Y-111087455D01*
X87598460Y-111087455D01*
X87455603Y-111016027D01*
X87384174Y-110944598D01*
X87312746Y-110801741D01*
X87241317Y-110516027D01*
X87169889Y-110373169D01*
X87098460Y-110301741D01*
X86955603Y-110230312D01*
X86812746Y-110230312D01*
X86669889Y-110301741D01*
X86598460Y-110373169D01*
X86527031Y-110516027D01*
X86527031Y-110873169D01*
X86598460Y-111087455D01*
X88027031Y-111730312D02*
X86527031Y-111730312D01*
X86527031Y-112087455D01*
X86598460Y-112301740D01*
X86741317Y-112444598D01*
X86884174Y-112516026D01*
X87169889Y-112587455D01*
X87384174Y-112587455D01*
X87669889Y-112516026D01*
X87812746Y-112444598D01*
X87955603Y-112301740D01*
X88027031Y-112087455D01*
X88027031Y-111730312D01*
X87598460Y-113158883D02*
X87598460Y-113873169D01*
X88027031Y-113016026D02*
X86527031Y-113516026D01*
X88027031Y-114016026D01*
X90505603Y-110266026D02*
X90577031Y-110480312D01*
X90577031Y-110837455D01*
X90505603Y-110980312D01*
X90434174Y-111051741D01*
X90291317Y-111123169D01*
X90148460Y-111123169D01*
X90005603Y-111051741D01*
X89934174Y-110980312D01*
X89862746Y-110837455D01*
X89791317Y-110551741D01*
X89719889Y-110408883D01*
X89648460Y-110337455D01*
X89505603Y-110266026D01*
X89362746Y-110266026D01*
X89219889Y-110337455D01*
X89148460Y-110408883D01*
X89077031Y-110551741D01*
X89077031Y-110908883D01*
X89148460Y-111123169D01*
X90434174Y-112623169D02*
X90505603Y-112551740D01*
X90577031Y-112337454D01*
X90577031Y-112194597D01*
X90505603Y-111980312D01*
X90362746Y-111837454D01*
X90219889Y-111766026D01*
X89934174Y-111694597D01*
X89719889Y-111694597D01*
X89434174Y-111766026D01*
X89291317Y-111837454D01*
X89148460Y-111980312D01*
X89077031Y-112194597D01*
X89077031Y-112337454D01*
X89148460Y-112551740D01*
X89219889Y-112623169D01*
X90577031Y-113980312D02*
X90577031Y-113266026D01*
X89077031Y-113266026D01*
X91627031Y-110194598D02*
X91627031Y-111123169D01*
X92198460Y-110623169D01*
X92198460Y-110837455D01*
X92269889Y-110980312D01*
X92341317Y-111051741D01*
X92484174Y-111123169D01*
X92841317Y-111123169D01*
X92984174Y-111051741D01*
X93055603Y-110980312D01*
X93127031Y-110837455D01*
X93127031Y-110408883D01*
X93055603Y-110266026D01*
X92984174Y-110194598D01*
X91627031Y-111551740D02*
X93127031Y-112051740D01*
X91627031Y-112551740D01*
X91627031Y-112908883D02*
X91627031Y-113837454D01*
X92198460Y-113337454D01*
X92198460Y-113551740D01*
X92269889Y-113694597D01*
X92341317Y-113766026D01*
X92484174Y-113837454D01*
X92841317Y-113837454D01*
X92984174Y-113766026D01*
X93055603Y-113694597D01*
X93127031Y-113551740D01*
X93127031Y-113123168D01*
X93055603Y-112980311D01*
X92984174Y-112908883D01*
X94248460Y-110908883D02*
X94177031Y-110766026D01*
X94177031Y-110551740D01*
X94248460Y-110337455D01*
X94391317Y-110194597D01*
X94534174Y-110123169D01*
X94819889Y-110051740D01*
X95034174Y-110051740D01*
X95319889Y-110123169D01*
X95462746Y-110194597D01*
X95605603Y-110337455D01*
X95677031Y-110551740D01*
X95677031Y-110694597D01*
X95605603Y-110908883D01*
X95534174Y-110980312D01*
X95034174Y-110980312D01*
X95034174Y-110694597D01*
X95677031Y-111623169D02*
X94177031Y-111623169D01*
X95677031Y-112480312D01*
X94177031Y-112480312D01*
X95677031Y-113194598D02*
X94177031Y-113194598D01*
X94177031Y-113551741D01*
X94248460Y-113766026D01*
X94391317Y-113908884D01*
X94534174Y-113980312D01*
X94819889Y-114051741D01*
X95034174Y-114051741D01*
X95319889Y-113980312D01*
X95462746Y-113908884D01*
X95605603Y-113766026D01*
X95677031Y-113551741D01*
X95677031Y-113194598D01*
X91716141Y-103812502D02*
X91716141Y-101812502D01*
X90858998Y-102002978D02*
X90763760Y-101907740D01*
X90573283Y-101812502D01*
X90097093Y-101812502D01*
X89906617Y-101907740D01*
X89811379Y-102002978D01*
X89716140Y-102193454D01*
X89716140Y-102383930D01*
X89811379Y-102669645D01*
X90954236Y-103812502D01*
X89716140Y-103812502D01*
X87716140Y-103622026D02*
X87811378Y-103717264D01*
X88097093Y-103812502D01*
X88287569Y-103812502D01*
X88573283Y-103717264D01*
X88763759Y-103526788D01*
X88858998Y-103336311D01*
X88954236Y-102955359D01*
X88954236Y-102669645D01*
X88858998Y-102288692D01*
X88763759Y-102098216D01*
X88573283Y-101907740D01*
X88287569Y-101812502D01*
X88097093Y-101812502D01*
X87811378Y-101907740D01*
X87716140Y-102002978D01*
X55109931Y-132736267D02*
X55109931Y-132021981D01*
X55824217Y-131950552D01*
X55752789Y-132021981D01*
X55681360Y-132164838D01*
X55681360Y-132521981D01*
X55752789Y-132664838D01*
X55824217Y-132736267D01*
X55967074Y-132807695D01*
X56324217Y-132807695D01*
X56467074Y-132736267D01*
X56538503Y-132664838D01*
X56609931Y-132521981D01*
X56609931Y-132164838D01*
X56538503Y-132021981D01*
X56467074Y-131950552D01*
X55109931Y-133236266D02*
X56609931Y-133736266D01*
X55109931Y-134236266D01*
X59088503Y-131093409D02*
X59159931Y-131307695D01*
X59159931Y-131664838D01*
X59088503Y-131807695D01*
X59017074Y-131879124D01*
X58874217Y-131950552D01*
X58731360Y-131950552D01*
X58588503Y-131879124D01*
X58517074Y-131807695D01*
X58445646Y-131664838D01*
X58374217Y-131379124D01*
X58302789Y-131236266D01*
X58231360Y-131164838D01*
X58088503Y-131093409D01*
X57945646Y-131093409D01*
X57802789Y-131164838D01*
X57731360Y-131236266D01*
X57659931Y-131379124D01*
X57659931Y-131736266D01*
X57731360Y-131950552D01*
X59017074Y-133450552D02*
X59088503Y-133379123D01*
X59159931Y-133164837D01*
X59159931Y-133021980D01*
X59088503Y-132807695D01*
X58945646Y-132664837D01*
X58802789Y-132593409D01*
X58517074Y-132521980D01*
X58302789Y-132521980D01*
X58017074Y-132593409D01*
X57874217Y-132664837D01*
X57731360Y-132807695D01*
X57659931Y-133021980D01*
X57659931Y-133164837D01*
X57731360Y-133379123D01*
X57802789Y-133450552D01*
X59159931Y-134093409D02*
X57659931Y-134093409D01*
X59159931Y-134950552D02*
X58302789Y-134307695D01*
X57659931Y-134950552D02*
X58517074Y-134093409D01*
X61709931Y-130664837D02*
X60209931Y-130664837D01*
X61281360Y-131164837D01*
X60209931Y-131664837D01*
X61709931Y-131664837D01*
X60209931Y-132664837D02*
X60209931Y-132950551D01*
X60281360Y-133093409D01*
X60424217Y-133236266D01*
X60709931Y-133307694D01*
X61209931Y-133307694D01*
X61495646Y-133236266D01*
X61638503Y-133093409D01*
X61709931Y-132950551D01*
X61709931Y-132664837D01*
X61638503Y-132521980D01*
X61495646Y-132379123D01*
X61209931Y-132307694D01*
X60709931Y-132307694D01*
X60424217Y-132379123D01*
X60281360Y-132521980D01*
X60209931Y-132664837D01*
X61638503Y-133879123D02*
X61709931Y-134093409D01*
X61709931Y-134450552D01*
X61638503Y-134593409D01*
X61567074Y-134664838D01*
X61424217Y-134736266D01*
X61281360Y-134736266D01*
X61138503Y-134664838D01*
X61067074Y-134593409D01*
X60995646Y-134450552D01*
X60924217Y-134164838D01*
X60852789Y-134021980D01*
X60781360Y-133950552D01*
X60638503Y-133879123D01*
X60495646Y-133879123D01*
X60352789Y-133950552D01*
X60281360Y-134021980D01*
X60209931Y-134164838D01*
X60209931Y-134521980D01*
X60281360Y-134736266D01*
X61709931Y-135379123D02*
X60209931Y-135379123D01*
X64259931Y-130664837D02*
X62759931Y-130664837D01*
X63831360Y-131164837D01*
X62759931Y-131664837D01*
X64259931Y-131664837D01*
X64259931Y-132379123D02*
X62759931Y-132379123D01*
X64188503Y-133021980D02*
X64259931Y-133236266D01*
X64259931Y-133593409D01*
X64188503Y-133736266D01*
X64117074Y-133807695D01*
X63974217Y-133879123D01*
X63831360Y-133879123D01*
X63688503Y-133807695D01*
X63617074Y-133736266D01*
X63545646Y-133593409D01*
X63474217Y-133307695D01*
X63402789Y-133164837D01*
X63331360Y-133093409D01*
X63188503Y-133021980D01*
X63045646Y-133021980D01*
X62902789Y-133093409D01*
X62831360Y-133164837D01*
X62759931Y-133307695D01*
X62759931Y-133664837D01*
X62831360Y-133879123D01*
X62759931Y-134807694D02*
X62759931Y-135093408D01*
X62831360Y-135236266D01*
X62974217Y-135379123D01*
X63259931Y-135450551D01*
X63759931Y-135450551D01*
X64045646Y-135379123D01*
X64188503Y-135236266D01*
X64259931Y-135093408D01*
X64259931Y-134807694D01*
X64188503Y-134664837D01*
X64045646Y-134521980D01*
X63759931Y-134450551D01*
X63259931Y-134450551D01*
X62974217Y-134521980D01*
X62831360Y-134664837D01*
X62759931Y-134807694D01*
X66809931Y-131164838D02*
X65309931Y-131164838D01*
X66809931Y-132021981D01*
X65309931Y-132021981D01*
X66738503Y-132664838D02*
X66809931Y-132879124D01*
X66809931Y-133236267D01*
X66738503Y-133379124D01*
X66667074Y-133450553D01*
X66524217Y-133521981D01*
X66381360Y-133521981D01*
X66238503Y-133450553D01*
X66167074Y-133379124D01*
X66095646Y-133236267D01*
X66024217Y-132950553D01*
X65952789Y-132807695D01*
X65881360Y-132736267D01*
X65738503Y-132664838D01*
X65595646Y-132664838D01*
X65452789Y-132736267D01*
X65381360Y-132807695D01*
X65309931Y-132950553D01*
X65309931Y-133307695D01*
X65381360Y-133521981D01*
X66738503Y-134093409D02*
X66809931Y-134307695D01*
X66809931Y-134664838D01*
X66738503Y-134807695D01*
X66667074Y-134879124D01*
X66524217Y-134950552D01*
X66381360Y-134950552D01*
X66238503Y-134879124D01*
X66167074Y-134807695D01*
X66095646Y-134664838D01*
X66024217Y-134379124D01*
X65952789Y-134236266D01*
X65881360Y-134164838D01*
X65738503Y-134093409D01*
X65595646Y-134093409D01*
X65452789Y-134164838D01*
X65381360Y-134236266D01*
X65309931Y-134379124D01*
X65309931Y-134736266D01*
X65381360Y-134950552D01*
X67931360Y-131879123D02*
X67859931Y-131736266D01*
X67859931Y-131521980D01*
X67931360Y-131307695D01*
X68074217Y-131164837D01*
X68217074Y-131093409D01*
X68502789Y-131021980D01*
X68717074Y-131021980D01*
X69002789Y-131093409D01*
X69145646Y-131164837D01*
X69288503Y-131307695D01*
X69359931Y-131521980D01*
X69359931Y-131664837D01*
X69288503Y-131879123D01*
X69217074Y-131950552D01*
X68717074Y-131950552D01*
X68717074Y-131664837D01*
X69359931Y-132593409D02*
X67859931Y-132593409D01*
X69359931Y-133450552D01*
X67859931Y-133450552D01*
X69359931Y-134164838D02*
X67859931Y-134164838D01*
X67859931Y-134521981D01*
X67931360Y-134736266D01*
X68074217Y-134879124D01*
X68217074Y-134950552D01*
X68502789Y-135021981D01*
X68717074Y-135021981D01*
X69002789Y-134950552D01*
X69145646Y-134879124D01*
X69288503Y-134736266D01*
X69359931Y-134521981D01*
X69359931Y-134164838D01*
X63096679Y-129752264D02*
X62810964Y-129847502D01*
X62334774Y-129847502D01*
X62144298Y-129752264D01*
X62049060Y-129657026D01*
X61953821Y-129466550D01*
X61953821Y-129276073D01*
X62049060Y-129085597D01*
X62144298Y-128990359D01*
X62334774Y-128895121D01*
X62715726Y-128799883D01*
X62906202Y-128704645D01*
X63001441Y-128609407D01*
X63096679Y-128418930D01*
X63096679Y-128228454D01*
X63001441Y-128037978D01*
X62906202Y-127942740D01*
X62715726Y-127847502D01*
X62239536Y-127847502D01*
X61953821Y-127942740D01*
X61096679Y-129847502D02*
X61096679Y-127847502D01*
X60334774Y-127847502D01*
X60144298Y-127942740D01*
X60049059Y-128037978D01*
X59953821Y-128228454D01*
X59953821Y-128514169D01*
X60049059Y-128704645D01*
X60144298Y-128799883D01*
X60334774Y-128895121D01*
X61096679Y-128895121D01*
X59096679Y-129847502D02*
X59096679Y-127847502D01*
X101735798Y-126558273D02*
X100783417Y-126558273D01*
X101926274Y-127129702D02*
X101259607Y-125129702D01*
X100592940Y-127129702D01*
X99926274Y-127129702D02*
X99926274Y-125129702D01*
X99450083Y-125129702D01*
X99164369Y-125224940D01*
X98973893Y-125415416D01*
X98878654Y-125605892D01*
X98783416Y-125986845D01*
X98783416Y-126272559D01*
X98878654Y-126653511D01*
X98973893Y-126843988D01*
X99164369Y-127034464D01*
X99450083Y-127129702D01*
X99926274Y-127129702D01*
X96783416Y-126939226D02*
X96878654Y-127034464D01*
X97164369Y-127129702D01*
X97354845Y-127129702D01*
X97640559Y-127034464D01*
X97831035Y-126843988D01*
X97926274Y-126653511D01*
X98021512Y-126272559D01*
X98021512Y-125986845D01*
X97926274Y-125605892D01*
X97831035Y-125415416D01*
X97640559Y-125224940D01*
X97354845Y-125129702D01*
X97164369Y-125129702D01*
X96878654Y-125224940D01*
X96783416Y-125320178D01*
X94497702Y-125034464D02*
X96211988Y-127605892D01*
X93831036Y-127129702D02*
X93831036Y-125129702D01*
X93164369Y-126558273D01*
X92497702Y-125129702D01*
X92497702Y-127129702D01*
X91545322Y-127129702D02*
X91545322Y-125129702D01*
X90688179Y-127034464D02*
X90402464Y-127129702D01*
X89926274Y-127129702D01*
X89735798Y-127034464D01*
X89640560Y-126939226D01*
X89545321Y-126748750D01*
X89545321Y-126558273D01*
X89640560Y-126367797D01*
X89735798Y-126272559D01*
X89926274Y-126177321D01*
X90307226Y-126082083D01*
X90497702Y-125986845D01*
X90592941Y-125891607D01*
X90688179Y-125701130D01*
X90688179Y-125510654D01*
X90592941Y-125320178D01*
X90497702Y-125224940D01*
X90307226Y-125129702D01*
X89831036Y-125129702D01*
X89545321Y-125224940D01*
X87545321Y-126939226D02*
X87640559Y-127034464D01*
X87926274Y-127129702D01*
X88116750Y-127129702D01*
X88402464Y-127034464D01*
X88592940Y-126843988D01*
X88688179Y-126653511D01*
X88783417Y-126272559D01*
X88783417Y-125986845D01*
X88688179Y-125605892D01*
X88592940Y-125415416D01*
X88402464Y-125224940D01*
X88116750Y-125129702D01*
X87926274Y-125129702D01*
X87640559Y-125224940D01*
X87545321Y-125320178D01*
X103027031Y-129271707D02*
X103027031Y-128557421D01*
X103741317Y-128485992D01*
X103669889Y-128557421D01*
X103598460Y-128700278D01*
X103598460Y-129057421D01*
X103669889Y-129200278D01*
X103741317Y-129271707D01*
X103884174Y-129343135D01*
X104241317Y-129343135D01*
X104384174Y-129271707D01*
X104455603Y-129200278D01*
X104527031Y-129057421D01*
X104527031Y-128700278D01*
X104455603Y-128557421D01*
X104384174Y-128485992D01*
X103027031Y-129771706D02*
X104527031Y-130271706D01*
X103027031Y-130771706D01*
X106934174Y-128735992D02*
X107005603Y-128664563D01*
X107077031Y-128450277D01*
X107077031Y-128307420D01*
X107005603Y-128093135D01*
X106862746Y-127950277D01*
X106719889Y-127878849D01*
X106434174Y-127807420D01*
X106219889Y-127807420D01*
X105934174Y-127878849D01*
X105791317Y-127950277D01*
X105648460Y-128093135D01*
X105577031Y-128307420D01*
X105577031Y-128450277D01*
X105648460Y-128664563D01*
X105719889Y-128735992D01*
X105577031Y-129164563D02*
X105577031Y-130021706D01*
X107077031Y-129593135D02*
X105577031Y-129593135D01*
X107005603Y-130450277D02*
X107077031Y-130664563D01*
X107077031Y-131021706D01*
X107005603Y-131164563D01*
X106934174Y-131235992D01*
X106791317Y-131307420D01*
X106648460Y-131307420D01*
X106505603Y-131235992D01*
X106434174Y-131164563D01*
X106362746Y-131021706D01*
X106291317Y-130735992D01*
X106219889Y-130593134D01*
X106148460Y-130521706D01*
X106005603Y-130450277D01*
X105862746Y-130450277D01*
X105719889Y-130521706D01*
X105648460Y-130593134D01*
X105577031Y-130735992D01*
X105577031Y-131093134D01*
X105648460Y-131307420D01*
X109627031Y-129307421D02*
X108912746Y-128807421D01*
X109627031Y-128450278D02*
X108127031Y-128450278D01*
X108127031Y-129021706D01*
X108198460Y-129164564D01*
X108269889Y-129235992D01*
X108412746Y-129307421D01*
X108627031Y-129307421D01*
X108769889Y-129235992D01*
X108841317Y-129164564D01*
X108912746Y-129021706D01*
X108912746Y-128450278D01*
X108127031Y-129807421D02*
X109627031Y-130807421D01*
X108127031Y-130807421D02*
X109627031Y-129807421D01*
X110677031Y-128414563D02*
X110677031Y-129271706D01*
X112177031Y-128843135D02*
X110677031Y-128843135D01*
X110677031Y-129628849D02*
X112177031Y-130628849D01*
X110677031Y-130628849D02*
X112177031Y-129628849D01*
X114727031Y-128735992D02*
X114012746Y-128235992D01*
X114727031Y-127878849D02*
X113227031Y-127878849D01*
X113227031Y-128450277D01*
X113298460Y-128593135D01*
X113369889Y-128664563D01*
X113512746Y-128735992D01*
X113727031Y-128735992D01*
X113869889Y-128664563D01*
X113941317Y-128593135D01*
X114012746Y-128450277D01*
X114012746Y-127878849D01*
X113227031Y-129164563D02*
X113227031Y-130021706D01*
X114727031Y-129593135D02*
X113227031Y-129593135D01*
X114655603Y-130450277D02*
X114727031Y-130664563D01*
X114727031Y-131021706D01*
X114655603Y-131164563D01*
X114584174Y-131235992D01*
X114441317Y-131307420D01*
X114298460Y-131307420D01*
X114155603Y-131235992D01*
X114084174Y-131164563D01*
X114012746Y-131021706D01*
X113941317Y-130735992D01*
X113869889Y-130593134D01*
X113798460Y-130521706D01*
X113655603Y-130450277D01*
X113512746Y-130450277D01*
X113369889Y-130521706D01*
X113298460Y-130593134D01*
X113227031Y-130735992D01*
X113227031Y-131093134D01*
X113298460Y-131307420D01*
X115848460Y-128414563D02*
X115777031Y-128271706D01*
X115777031Y-128057420D01*
X115848460Y-127843135D01*
X115991317Y-127700277D01*
X116134174Y-127628849D01*
X116419889Y-127557420D01*
X116634174Y-127557420D01*
X116919889Y-127628849D01*
X117062746Y-127700277D01*
X117205603Y-127843135D01*
X117277031Y-128057420D01*
X117277031Y-128200277D01*
X117205603Y-128414563D01*
X117134174Y-128485992D01*
X116634174Y-128485992D01*
X116634174Y-128200277D01*
X117277031Y-129128849D02*
X115777031Y-129128849D01*
X117277031Y-129985992D01*
X115777031Y-129985992D01*
X117277031Y-130700278D02*
X115777031Y-130700278D01*
X115777031Y-131057421D01*
X115848460Y-131271706D01*
X115991317Y-131414564D01*
X116134174Y-131485992D01*
X116419889Y-131557421D01*
X116634174Y-131557421D01*
X116919889Y-131485992D01*
X117062746Y-131414564D01*
X117205603Y-131271706D01*
X117277031Y-131057421D01*
X117277031Y-130700278D01*
X113218357Y-123600622D02*
X113218357Y-125219670D01*
X113123118Y-125410146D01*
X113027880Y-125505384D01*
X112837404Y-125600622D01*
X112456452Y-125600622D01*
X112265976Y-125505384D01*
X112170737Y-125410146D01*
X112075499Y-125219670D01*
X112075499Y-123600622D01*
X111218357Y-125029193D02*
X110265976Y-125029193D01*
X111408833Y-125600622D02*
X110742166Y-123600622D01*
X110075499Y-125600622D01*
X108265975Y-125600622D02*
X108932642Y-124648241D01*
X109408833Y-125600622D02*
X109408833Y-123600622D01*
X108646928Y-123600622D01*
X108456452Y-123695860D01*
X108361213Y-123791098D01*
X108265975Y-123981574D01*
X108265975Y-124267289D01*
X108361213Y-124457765D01*
X108456452Y-124553003D01*
X108646928Y-124648241D01*
X109408833Y-124648241D01*
X107694547Y-123600622D02*
X106551690Y-123600622D01*
X107123118Y-125600622D02*
X107123118Y-123600622D01*
D12*
X80816000Y-118684000D02*
X80816000Y-119684000D01*
X82176000Y-119684000D02*
X82176000Y-118684000D01*
X80804000Y-124087000D02*
X80804000Y-125087000D01*
X82164000Y-125087000D02*
X82164000Y-124087000D01*
X79338000Y-118677000D02*
X79338000Y-119677000D01*
X80698000Y-119677000D02*
X80698000Y-118677000D01*
X79387000Y-124087000D02*
X79387000Y-125087000D01*
X80747000Y-125087000D02*
X80747000Y-124087000D01*
X77936000Y-118669000D02*
X77936000Y-119669000D01*
X79296000Y-119669000D02*
X79296000Y-118669000D01*
X78004000Y-124087000D02*
X78004000Y-125087000D01*
X79364000Y-125087000D02*
X79364000Y-124087000D01*
X120162000Y-109070000D02*
X120162000Y-108070000D01*
X118802000Y-108070000D02*
X118802000Y-109070000D01*
D13*
X107787680Y-101945040D02*
X109286280Y-101645320D01*
X102687360Y-101645320D02*
X103487460Y-101845980D01*
X103487460Y-101845980D02*
X105387380Y-102044100D01*
X105387380Y-102044100D02*
X106687860Y-102044100D01*
X106687860Y-102044100D02*
X107787680Y-101945040D01*
X102687360Y-101645320D02*
X100487720Y-101645320D01*
X100485180Y-101645320D02*
X100185460Y-101244000D01*
X109586000Y-101244000D02*
X112087900Y-101244000D01*
X100188000Y-101244000D02*
X97686100Y-101244000D01*
X109586000Y-101244000D02*
X109286280Y-101645320D01*
X101186220Y-116245240D02*
X101186220Y-117246000D01*
X101186220Y-117246000D02*
X99687620Y-117246000D01*
X99687620Y-117246000D02*
X99687620Y-116245240D01*
X98986580Y-117246000D02*
X97886760Y-117246000D01*
X98986580Y-117246000D02*
X98986580Y-116245240D01*
X97886760Y-116245240D02*
X97886760Y-117246000D01*
X110586760Y-117144400D02*
X111587520Y-117144400D01*
X110586760Y-116245240D02*
X110586760Y-117144400D01*
X111587520Y-117144400D02*
X111587520Y-116245240D01*
X109687600Y-117144400D02*
X109687600Y-116245240D01*
X108587780Y-117144400D02*
X108587780Y-116245240D01*
X107487960Y-117144400D02*
X107487960Y-116245240D01*
X106388140Y-117144400D02*
X106388140Y-116245240D01*
X105285780Y-117144400D02*
X105285780Y-116245240D01*
X104185960Y-117144400D02*
X104185960Y-116344300D01*
X103086140Y-117144400D02*
X103086140Y-116245240D01*
X101986320Y-116245240D02*
X101986320Y-117144400D01*
X112087900Y-101244000D02*
X112087900Y-116245240D01*
X112087900Y-116245240D02*
X97686100Y-116245240D01*
X97686100Y-116245240D02*
X97686100Y-101244000D01*
D14*
X68683905Y-128188381D02*
X68112476Y-128188381D01*
X68398191Y-129188381D02*
X68398191Y-128188381D01*
X67779143Y-129188381D02*
X67779143Y-128188381D01*
X67398190Y-128188381D01*
X67302952Y-128236000D01*
X67255333Y-128283619D01*
X67207714Y-128378857D01*
X67207714Y-128521714D01*
X67255333Y-128616952D01*
X67302952Y-128664571D01*
X67398190Y-128712190D01*
X67779143Y-128712190D01*
X66826762Y-128283619D02*
X66779143Y-128236000D01*
X66683905Y-128188381D01*
X66445809Y-128188381D01*
X66350571Y-128236000D01*
X66302952Y-128283619D01*
X66255333Y-128378857D01*
X66255333Y-128474095D01*
X66302952Y-128616952D01*
X66874381Y-129188381D01*
X66255333Y-129188381D01*
X56468905Y-139492381D02*
X55897476Y-139492381D01*
X56183191Y-140492381D02*
X56183191Y-139492381D01*
X55564143Y-140492381D02*
X55564143Y-139492381D01*
X55183190Y-139492381D01*
X55087952Y-139540000D01*
X55040333Y-139587619D01*
X54992714Y-139682857D01*
X54992714Y-139825714D01*
X55040333Y-139920952D01*
X55087952Y-139968571D01*
X55183190Y-140016190D01*
X55564143Y-140016190D01*
X54040333Y-140492381D02*
X54611762Y-140492381D01*
X54326048Y-140492381D02*
X54326048Y-139492381D01*
X54421286Y-139635238D01*
X54516524Y-139730476D01*
X54611762Y-139778095D01*
X83398381Y-118541143D02*
X82922190Y-118207809D01*
X83398381Y-117969714D02*
X82398381Y-117969714D01*
X82398381Y-118350667D01*
X82446000Y-118445905D01*
X82493619Y-118493524D01*
X82588857Y-118541143D01*
X82731714Y-118541143D01*
X82826952Y-118493524D01*
X82874571Y-118445905D01*
X82922190Y-118350667D01*
X82922190Y-117969714D01*
X82731714Y-119398286D02*
X83398381Y-119398286D01*
X82350762Y-119160190D02*
X83065048Y-118922095D01*
X83065048Y-119541143D01*
X82398381Y-120350667D02*
X82398381Y-120160190D01*
X82446000Y-120064952D01*
X82493619Y-120017333D01*
X82636476Y-119922095D01*
X82826952Y-119874476D01*
X83207905Y-119874476D01*
X83303143Y-119922095D01*
X83350762Y-119969714D01*
X83398381Y-120064952D01*
X83398381Y-120255429D01*
X83350762Y-120350667D01*
X83303143Y-120398286D01*
X83207905Y-120445905D01*
X82969810Y-120445905D01*
X82874571Y-120398286D01*
X82826952Y-120350667D01*
X82779333Y-120255429D01*
X82779333Y-120064952D01*
X82826952Y-119969714D01*
X82874571Y-119922095D01*
X82969810Y-119874476D01*
X83386381Y-123944143D02*
X82910190Y-123610809D01*
X83386381Y-123372714D02*
X82386381Y-123372714D01*
X82386381Y-123753667D01*
X82434000Y-123848905D01*
X82481619Y-123896524D01*
X82576857Y-123944143D01*
X82719714Y-123944143D01*
X82814952Y-123896524D01*
X82862571Y-123848905D01*
X82910190Y-123753667D01*
X82910190Y-123372714D01*
X82719714Y-124801286D02*
X83386381Y-124801286D01*
X82338762Y-124563190D02*
X83053048Y-124325095D01*
X83053048Y-124944143D01*
X82386381Y-125801286D02*
X82386381Y-125325095D01*
X82862571Y-125277476D01*
X82814952Y-125325095D01*
X82767333Y-125420333D01*
X82767333Y-125658429D01*
X82814952Y-125753667D01*
X82862571Y-125801286D01*
X82957810Y-125848905D01*
X83195905Y-125848905D01*
X83291143Y-125801286D01*
X83338762Y-125753667D01*
X83386381Y-125658429D01*
X83386381Y-125420333D01*
X83338762Y-125325095D01*
X83291143Y-125277476D01*
X79098537Y-122250101D02*
X79431871Y-121773910D01*
X79669966Y-122250101D02*
X79669966Y-121250101D01*
X79289013Y-121250101D01*
X79193775Y-121297720D01*
X79146156Y-121345339D01*
X79098537Y-121440577D01*
X79098537Y-121583434D01*
X79146156Y-121678672D01*
X79193775Y-121726291D01*
X79289013Y-121773910D01*
X79669966Y-121773910D01*
X78241394Y-121583434D02*
X78241394Y-122250101D01*
X78479490Y-121202482D02*
X78717585Y-121916768D01*
X78098537Y-121916768D01*
X77289013Y-121583434D02*
X77289013Y-122250101D01*
X77527109Y-121202482D02*
X77765204Y-121916768D01*
X77146156Y-121916768D01*
X82405617Y-122768261D02*
X82738951Y-122292070D01*
X82977046Y-122768261D02*
X82977046Y-121768261D01*
X82596093Y-121768261D01*
X82500855Y-121815880D01*
X82453236Y-121863499D01*
X82405617Y-121958737D01*
X82405617Y-122101594D01*
X82453236Y-122196832D01*
X82500855Y-122244451D01*
X82596093Y-122292070D01*
X82977046Y-122292070D01*
X81548474Y-122101594D02*
X81548474Y-122768261D01*
X81786570Y-121720642D02*
X82024665Y-122434928D01*
X81405617Y-122434928D01*
X81119903Y-121768261D02*
X80500855Y-121768261D01*
X80834189Y-122149213D01*
X80691331Y-122149213D01*
X80596093Y-122196832D01*
X80548474Y-122244451D01*
X80500855Y-122339690D01*
X80500855Y-122577785D01*
X80548474Y-122673023D01*
X80596093Y-122720642D01*
X80691331Y-122768261D01*
X80977046Y-122768261D01*
X81072284Y-122720642D01*
X81119903Y-122673023D01*
X77612661Y-118381183D02*
X77136470Y-118047849D01*
X77612661Y-117809754D02*
X76612661Y-117809754D01*
X76612661Y-118190707D01*
X76660280Y-118285945D01*
X76707899Y-118333564D01*
X76803137Y-118381183D01*
X76945994Y-118381183D01*
X77041232Y-118333564D01*
X77088851Y-118285945D01*
X77136470Y-118190707D01*
X77136470Y-117809754D01*
X76945994Y-119238326D02*
X77612661Y-119238326D01*
X76565042Y-119000230D02*
X77279328Y-118762135D01*
X77279328Y-119381183D01*
X76707899Y-119714516D02*
X76660280Y-119762135D01*
X76612661Y-119857373D01*
X76612661Y-120095469D01*
X76660280Y-120190707D01*
X76707899Y-120238326D01*
X76803137Y-120285945D01*
X76898375Y-120285945D01*
X77041232Y-120238326D01*
X77612661Y-119666897D01*
X77612661Y-120285945D01*
X77734581Y-123928543D02*
X77258390Y-123595209D01*
X77734581Y-123357114D02*
X76734581Y-123357114D01*
X76734581Y-123738067D01*
X76782200Y-123833305D01*
X76829819Y-123880924D01*
X76925057Y-123928543D01*
X77067914Y-123928543D01*
X77163152Y-123880924D01*
X77210771Y-123833305D01*
X77258390Y-123738067D01*
X77258390Y-123357114D01*
X77067914Y-124785686D02*
X77734581Y-124785686D01*
X76686962Y-124547590D02*
X77401248Y-124309495D01*
X77401248Y-124928543D01*
X77734581Y-125833305D02*
X77734581Y-125261876D01*
X77734581Y-125547590D02*
X76734581Y-125547590D01*
X76877438Y-125452352D01*
X76972676Y-125357114D01*
X77020295Y-125261876D01*
X118484381Y-107927143D02*
X118008190Y-107593809D01*
X118484381Y-107355714D02*
X117484381Y-107355714D01*
X117484381Y-107736667D01*
X117532000Y-107831905D01*
X117579619Y-107879524D01*
X117674857Y-107927143D01*
X117817714Y-107927143D01*
X117912952Y-107879524D01*
X117960571Y-107831905D01*
X118008190Y-107736667D01*
X118008190Y-107355714D01*
X117484381Y-108260476D02*
X117484381Y-108879524D01*
X117865333Y-108546190D01*
X117865333Y-108689048D01*
X117912952Y-108784286D01*
X117960571Y-108831905D01*
X118055810Y-108879524D01*
X118293905Y-108879524D01*
X118389143Y-108831905D01*
X118436762Y-108784286D01*
X118484381Y-108689048D01*
X118484381Y-108403333D01*
X118436762Y-108308095D01*
X118389143Y-108260476D01*
X118484381Y-109355714D02*
X118484381Y-109546190D01*
X118436762Y-109641429D01*
X118389143Y-109689048D01*
X118246286Y-109784286D01*
X118055810Y-109831905D01*
X117674857Y-109831905D01*
X117579619Y-109784286D01*
X117532000Y-109736667D01*
X117484381Y-109641429D01*
X117484381Y-109450952D01*
X117532000Y-109355714D01*
X117579619Y-109308095D01*
X117674857Y-109260476D01*
X117912952Y-109260476D01*
X118008190Y-109308095D01*
X118055810Y-109355714D01*
X118103429Y-109450952D01*
X118103429Y-109641429D01*
X118055810Y-109736667D01*
X118008190Y-109784286D01*
X117912952Y-109831905D01*
D15*
X106120714Y-98011669D02*
X106120714Y-99100240D01*
X106193286Y-99317954D01*
X106338429Y-99463097D01*
X106556143Y-99535669D01*
X106701286Y-99535669D01*
X105540143Y-98011669D02*
X104596714Y-98011669D01*
X105104714Y-98592240D01*
X104887000Y-98592240D01*
X104741857Y-98664811D01*
X104669286Y-98737383D01*
X104596714Y-98882526D01*
X104596714Y-99245383D01*
X104669286Y-99390526D01*
X104741857Y-99463097D01*
X104887000Y-99535669D01*
X105322428Y-99535669D01*
X105467571Y-99463097D01*
X105540143Y-99390526D01*
X104088714Y-98011669D02*
X103072714Y-98011669D01*
X103725857Y-99535669D01*
X112833572Y-119634689D02*
X112833572Y-118110689D01*
X112325572Y-119199260D01*
X111817572Y-118110689D01*
X111817572Y-119634689D01*
X111091858Y-119634689D02*
X111091858Y-118618689D01*
X111091858Y-118110689D02*
X111164429Y-118183260D01*
X111091858Y-118255831D01*
X111019286Y-118183260D01*
X111091858Y-118110689D01*
X111091858Y-118255831D01*
X109713001Y-119562117D02*
X109858144Y-119634689D01*
X110148430Y-119634689D01*
X110293572Y-119562117D01*
X110366144Y-119489546D01*
X110438715Y-119344403D01*
X110438715Y-118908974D01*
X110366144Y-118763831D01*
X110293572Y-118691260D01*
X110148430Y-118618689D01*
X109858144Y-118618689D01*
X109713001Y-118691260D01*
X109059858Y-119634689D02*
X109059858Y-118618689D01*
X109059858Y-118908974D02*
X108987286Y-118763831D01*
X108914715Y-118691260D01*
X108769572Y-118618689D01*
X108624429Y-118618689D01*
X107898715Y-119634689D02*
X108043857Y-119562117D01*
X108116429Y-119489546D01*
X108189000Y-119344403D01*
X108189000Y-118908974D01*
X108116429Y-118763831D01*
X108043857Y-118691260D01*
X107898715Y-118618689D01*
X107681000Y-118618689D01*
X107535857Y-118691260D01*
X107463286Y-118763831D01*
X107390715Y-118908974D01*
X107390715Y-119344403D01*
X107463286Y-119489546D01*
X107535857Y-119562117D01*
X107681000Y-119634689D01*
X107898715Y-119634689D01*
X107100429Y-119779831D02*
X105939286Y-119779831D01*
X105649000Y-119562117D02*
X105431286Y-119634689D01*
X105068429Y-119634689D01*
X104923286Y-119562117D01*
X104850715Y-119489546D01*
X104778143Y-119344403D01*
X104778143Y-119199260D01*
X104850715Y-119054117D01*
X104923286Y-118981546D01*
X105068429Y-118908974D01*
X105358715Y-118836403D01*
X105503857Y-118763831D01*
X105576429Y-118691260D01*
X105649000Y-118546117D01*
X105649000Y-118400974D01*
X105576429Y-118255831D01*
X105503857Y-118183260D01*
X105358715Y-118110689D01*
X104995857Y-118110689D01*
X104778143Y-118183260D01*
X104125000Y-119634689D02*
X104125000Y-118110689D01*
X103762143Y-118110689D01*
X103544428Y-118183260D01*
X103399286Y-118328403D01*
X103326714Y-118473546D01*
X103254143Y-118763831D01*
X103254143Y-118981546D01*
X103326714Y-119271831D01*
X103399286Y-119416974D01*
X103544428Y-119562117D01*
X103762143Y-119634689D01*
X104125000Y-119634689D01*
X102963857Y-119779831D02*
X101802714Y-119779831D01*
X100569000Y-119489546D02*
X100641571Y-119562117D01*
X100859285Y-119634689D01*
X101004428Y-119634689D01*
X101222143Y-119562117D01*
X101367285Y-119416974D01*
X101439857Y-119271831D01*
X101512428Y-118981546D01*
X101512428Y-118763831D01*
X101439857Y-118473546D01*
X101367285Y-118328403D01*
X101222143Y-118183260D01*
X101004428Y-118110689D01*
X100859285Y-118110689D01*
X100641571Y-118183260D01*
X100569000Y-118255831D01*
X99262714Y-119634689D02*
X99262714Y-118836403D01*
X99335285Y-118691260D01*
X99480428Y-118618689D01*
X99770714Y-118618689D01*
X99915857Y-118691260D01*
X99262714Y-119562117D02*
X99407857Y-119634689D01*
X99770714Y-119634689D01*
X99915857Y-119562117D01*
X99988428Y-119416974D01*
X99988428Y-119271831D01*
X99915857Y-119126689D01*
X99770714Y-119054117D01*
X99407857Y-119054117D01*
X99262714Y-118981546D01*
X98537000Y-119634689D02*
X98537000Y-118618689D01*
X98537000Y-118908974D02*
X98464428Y-118763831D01*
X98391857Y-118691260D01*
X98246714Y-118618689D01*
X98101571Y-118618689D01*
X96940428Y-119634689D02*
X96940428Y-118110689D01*
X96940428Y-119562117D02*
X97085571Y-119634689D01*
X97375857Y-119634689D01*
X97520999Y-119562117D01*
X97593571Y-119489546D01*
X97666142Y-119344403D01*
X97666142Y-118908974D01*
X97593571Y-118763831D01*
X97520999Y-118691260D01*
X97375857Y-118618689D01*
X97085571Y-118618689D01*
X96940428Y-118691260D01*
M02*
